<svg width="54" height="21" viewBox="0 0 54 21" fill="none" xmlns="http://www.w3.org/2000/svg">
    <path d="M16.32 16.256c2.689 0 4.285-2.102 4.285-5.661 0-1.34-.256-2.469-.747-3.34-.71-1.355-1.933-2.088-3.479-2.088-2.3 0-3.926 1.546-3.926 3.714 0 2.036 1.465 3.515 3.48 3.515 1.237 0 2.24-.578 2.739-1.582h.124c0 2.417-.915 3.86-2.46 3.86-.909 0-1.612-.498-1.854-1.296H12.6c.315 1.736 1.787 2.878 3.72 2.878zm.067-5.361c-1.216 0-2.08-.864-2.08-2.073 0-1.179.908-2.08 2.087-2.08 1.18 0 2.087.916 2.087 2.11 0 1.179-.886 2.043-2.094 2.043zM23.697 16.154c.695 0 1.171-.498 1.171-1.157 0-.667-.476-1.158-1.171-1.158-.689 0-1.172.491-1.172 1.158 0 .659.483 1.157 1.172 1.157zm0-5.493c.695 0 1.171-.491 1.171-1.15 0-.667-.476-1.157-1.171-1.157-.689 0-1.172.49-1.172 1.157 0 .659.483 1.15 1.172 1.15zM31.724 16h1.81v-1.97h1.427v-1.597h-1.428V5.431h-2.666c-1.867 2.813-3.354 5.164-4.306 6.914v1.685h5.163V16zm-3.413-3.633a79.577 79.577 0 0 1 3.34-5.398h.102v5.508h-3.442v-.11zM38.99 16h1.89V5.431h-1.883l-2.76 1.934V9.18l2.628-1.846h.125V16z" fill="#fff"/>
</svg>
