<svg width="30" height="31" viewBox="0 0 30 31" fill="none" xmlns="http://www.w3.org/2000/svg">
    <path d="M15.194 23.5c.115 0 .21-.034.285-.103a.447.447 0 0 0 .147-.26c.121-.863.257-1.591.406-2.186.156-.594.358-1.084.606-1.468a2.77 2.77 0 0 1 1.003-.915c.415-.232.943-.413 1.583-.545.64-.131 1.43-.244 2.37-.339a.462.462 0 0 0 .294-.126.362.362 0 0 0 .112-.268c0-.1-.038-.187-.112-.26a.461.461 0 0 0-.295-.127c-.94-.095-1.73-.208-2.37-.34-.64-.131-1.167-.313-1.582-.544a2.838 2.838 0 0 1-1.003-.923c-.248-.384-.45-.87-.606-1.46a21.076 21.076 0 0 1-.406-2.194.442.442 0 0 0-.147-.252.407.407 0 0 0-.285-.103.428.428 0 0 0-.286.103.404.404 0 0 0-.138.252c-.121.868-.26 1.6-.415 2.194-.15.59-.352 1.076-.606 1.46a2.838 2.838 0 0 1-1.003.923c-.415.232-.943.413-1.583.545-.64.131-1.427.244-2.36.339a.471.471 0 0 0-.304.126.353.353 0 0 0-.112.26c0 .106.037.195.112.269a.472.472 0 0 0 .303.126c.934.11 1.718.237 2.353.379.64.137 1.164.318 1.574.544.415.227.75.53 1.003.908.254.379.455.86.605 1.444.156.59.3 1.315.433 2.178a.41.41 0 0 0 .138.26c.08.069.176.103.286.103zM9.33 14.772c.08 0 .147-.023.199-.07a.295.295 0 0 0 .095-.174c.075-.527.153-.937.233-1.231.081-.295.205-.516.372-.663.173-.153.427-.269.761-.348.34-.084.81-.178 1.41-.284.173-.031.26-.12.26-.268a.235.235 0 0 0-.078-.181.27.27 0 0 0-.182-.08c-.6-.078-1.07-.155-1.41-.228-.34-.074-.597-.187-.77-.34-.167-.157-.29-.389-.371-.694-.075-.305-.15-.723-.225-1.255-.023-.168-.121-.252-.294-.252s-.271.087-.294.26a9.69 9.69 0 0 1-.225 1.231c-.08.29-.208.508-.38.655-.174.148-.43.263-.77.348-.34.078-.808.17-1.402.276-.173.026-.259.113-.259.26 0 .153.098.242.294.268.588.09 1.05.174 1.384.253.34.079.594.195.76.347.174.147.298.371.373.67.08.3.155.714.225 1.24.023.173.12.26.294.26zm4.186-5.429c.104 0 .167-.053.19-.158.063-.32.121-.573.173-.757a.915.915 0 0 1 .225-.419c.104-.1.26-.178.467-.236.207-.058.498-.116.873-.174.116-.021.173-.081.173-.181 0-.095-.057-.153-.173-.174a11.64 11.64 0 0 1-.873-.174c-.208-.058-.363-.134-.467-.228a.975.975 0 0 1-.225-.427c-.052-.184-.11-.436-.173-.757-.023-.105-.086-.158-.19-.158-.11 0-.173.053-.19.158-.07.32-.13.573-.182.757a.87.87 0 0 1-.225.427c-.098.094-.25.17-.459.228-.207.053-.498.11-.873.174-.115.021-.173.079-.173.174 0 .1.058.16.173.181.375.058.666.116.873.174.208.058.36.136.459.236a.82.82 0 0 1 .225.419c.052.184.112.436.181.757.018.105.081.158.19.158z" fill="#8567FC"/>
</svg>
