<svg width="72" height="72" viewBox="0 0 72 72" fill="none" xmlns="http://www.w3.org/2000/svg">
    <circle cx="36" cy="36" r="36" fill="#F5F4F9"/>
    <path d="M36.004 24c.653 0 1.208.393 1.301.922l.032.18c.441 2.497.663 5.017.663 7.541V34h1.345c2.531 0 5.06.225 7.565.673l.17.03c.528.095.92.648.92 1.301 0 .653-.393 1.208-.922 1.301l-.18.032a43.304 43.304 0 0 1-7.541.663H38v1.357c0 2.523-.222 5.044-.663 7.542l-.032.18c-.093.528-.648.921-1.301.921-.653 0-1.206-.392-1.3-.92l-.031-.17A42.956 42.956 0 0 1 34 39.345V38h-1.357c-2.524 0-5.044-.222-7.542-.663l-.18-.032c-.528-.093-.921-.648-.921-1.301 0-.653.392-1.206.92-1.3l.17-.031A42.956 42.956 0 0 1 32.655 34H34v-1.345c0-2.531.225-5.06.673-7.565l.03-.17c.095-.528.648-.92 1.301-.92z" fill="#2F4C63"/>
</svg>
