<svg width="32" height="32" viewBox="0 0 32 32" fill="none" xmlns="http://www.w3.org/2000/svg">
    <path d="M28 16.006c0 .7-.228 1.278-.683 1.734l-7.53 7.517c-.486.495-1.024.743-1.613.743-.715 0-1.28-.216-1.697-.649-.424-.425-.636-.952-.636-1.581a2 2 0 0 1 .224-.968c.149-.275.334-.519.554-.731l2.639-2.608 2.334-2.103a86.127 86.127 0 0 1-13.197 1.018H6.498c-.754 0-1.36-.217-1.815-.65C4.228 17.297 4 16.723 4 16.007s.228-1.29.683-1.723c.456-.432 1.06-.649 1.815-.649h5.867c1.776 0 3.549.138 5.303.414l3.924.615-2.334-2.114-2.64-2.62a2.99 2.99 0 0 1-.553-.731 2 2 0 0 1-.224-.968c0-.63.212-1.156.636-1.581.416-.433.982-.649 1.697-.649.275 0 .553.063.836.189.283.126.542.31.778.554l7.529 7.528c.455.457.683 1.035.683 1.735z" fill="#fff"/>
</svg>
