<svg width="375" height="294" viewBox="0 0 375 294" fill="none" xmlns="http://www.w3.org/2000/svg">
    <path d="M325.147 170.831c.424-.211 1.06-.635 1.271-.423.212.212.848.635.848 1.27 0 .847-.848 1.059-1.695 1.059-.847 0-1.271-.847-1.271-.847 0-.635.212-.847.847-1.059zm1.483 4.87c.212.423.424.847 2.119.211 1.695-.635 2.33-.635 2.754-1.693.424-1.059 1.483-1.906 2.966-2.117 1.483-.212 1.907.423 2.966-.636.847-1.058 2.754-.635 3.601-2.117.848-1.482 2.967-2.964 3.39-2.329.424.635.636 1.906 2.542.847 1.907-1.058 3.602-1.058 4.026-2.117.424-.847 1.271-1.482 1.271-.212 0 1.271-.212 3.176 1.271 2.964 1.271-.211 2.542-.423 2.966-1.482.212-1.058 1.271-1.693 1.271-2.752 0-1.059.424-1.694 1.483-1.27 1.059.423 2.966.847 3.178.211.424-.635 2.966-.211 3.178-1.27.212-1.058 1.483-2.329 1.483-1.27 0 1.058-.424 2.752.847 2.752 1.272.212 2.754.212 2.754-1.482s-.635-1.905.424-2.329c1.06-.423 3.178-.635 3.602-1.905.423-1.271 0-2.541-.424-2.541s-1.483.635-2.966 1.27c-1.483.847-2.966 1.482-3.602.636-.635-.847-2.33-.636-2.33-1.271.212-.635 1.483-1.27 2.33-1.905.848-.635 2.119-.847 2.966-.212.848.635 4.449 1.059 5.085.212.636-.847 2.119-1.482 2.119-2.753 0-1.27-.424-2.117 1.271-2.117 1.695-.211 3.178.635 4.237-.211.847-.847 1.695.423 2.542-1.271.848-1.693.212-2.54 1.059-3.387.848-.847 2.331-1.482 4.449-1.694 2.119-.212 4.238-.212 5.085-1.482.636-1.27 3.602-2.117 4.025-3.811.424-1.694.424-2.117 2.331-2.541 1.906-.423 3.389-1.693 3.601-2.752.212-1.059 1.271-2.541 2.966-3.176 1.695-.635 2.543-1.905 3.178-3.175.636-1.271 2.754-2.964 3.178-3.811.424-.847 4.661-2.329 5.932-5.293 1.271-2.964 2.119-3.811 2.119-5.928 0-2.118.423-4.235 2.33-5.505 1.907-1.27 5.085-1.059 6.991-3.176 1.907-2.117 1.271-3.6 3.39-4.446 2.119-.847 5.085-.847 5.508-2.117.636-1.27 2.966-2.964 2.119-4.235-.848-1.27-.848-1.693.424-3.175 1.271-1.482 1.483-2.117.847-3.6-.636-1.481-1.271-3.175 1.059-4.446 2.331-1.27 5.932-2.752 7.415-4.87 1.483-2.328 0-4.657-.635-5.715-.636-1.06-1.695-.636-2.543.423-.847 1.059-2.754 3.81-5.72 5.081-2.754 1.27-9.745 7.199-17.16 13.974-7.415 6.775-17.161 14.608-29.236 24.559-12.076 9.951-27.118 20.748-35.592 29.64-8.475 8.893-22.669 19.267-25.211 21.807-2.543 2.753-7.839 6.352-8.475 7.622-.635 1.271-2.966 2.753-2.754 3.388zm-.635 3.811s.423 1.693 1.059 1.693c.635 0 1.483 0 1.695-.635.212-.847-.424-1.693.847-1.693s2.119 0 2.331-.847c.212-.635-.636-1.271-.636-1.271s-1.483.212-2.33.636c-1.907.846-2.966 2.117-2.966 2.117z" fill="url(#yf29x7e43a)"/>
    <path d="M414.763 76.405c1.907-2.752 4.449.212 7.203 1.905 2.754 1.694 5.932-.635 9.745-4.657 3.602-4.023 6.78-1.06 10.593-.847 3.814.211 5.932-1.694 7.203-3.6 1.272-1.905 3.602-1.482 4.238 1.27.635 2.753-3.178 6.776-6.992 8.47-3.601 1.693-3.813 4.657-3.389 6.563.423 1.905-2.119 2.54-2.543 4.446-.635 1.905 2.543 4.658-2.966 5.505-5.508.846-4.449 5.292-10.381 7.41-5.932 2.117-6.355 5.716-6.144 9.95.212 4.235-7.415 6.564-9.109 10.163-1.695 3.599-6.144 5.293-6.356 8.045-.212 2.541-4.449 1.27-6.991 4.023-2.543 2.54-4.449 6.14-9.958 6.563-5.508.424-1.906 3.176-4.025 5.081-2.119 1.906-2.542 1.059-5.085 1.059-2.542 0-2.542 1.27-4.025 3.811-1.483 2.54-4.873 2.329-6.567 1.058-1.695-1.058-3.602 1.271-5.085 2.541s.424 1.482 1.907.635 2.542-.423 2.966.635c.423 1.059 2.754-.423 4.449-1.058 1.695-.635 1.271 1.482-.636 2.329-1.907.847-2.754 1.058-3.178 2.752-.423 1.694-.635 1.905-1.483 1.694-.847-.212 0-2.541-.212-3.599-.211-1.059-3.177.846-4.449 2.54-1.271 1.694-2.754 1.482-4.237.635s-2.966-.423-3.178 1.059c-.211 1.27-1.059 2.752-2.118 3.811-1.059.847-1.271-.212-1.059-1.482.211-1.482 0-2.541-1.695-1.482-1.695 1.058-2.331 2.117-4.449 2.964-2.119.847-1.483-.424-.636-1.482.848-1.059-2.118.423-4.873 1.694-2.966 1.27-2.754 2.54-6.143 3.599-3.39 1.058-5.932 4.022-6.78 4.658-.847.635-1.907 1.058-1.907.423s1.272-1.694 1.907-2.329c.636-.635.848-2.117 2.119-3.176 1.271-1.058 1.059-1.482 1.059-3.175 0-1.694 2.119-2.118 1.695-3.176-.212-1.059.847-2.964 2.966-4.446 2.119-1.482 2.118-3.176 3.601-4.023 1.483-.847.636-2.541 2.755-4.023 2.33-1.27 5.72-5.716 6.567-8.257.848-2.54 2.331-4.234 4.449-5.504 2.119-1.271 0-1.694.636-3.599.635-1.906 2.33-2.541 1.906-4.023-.423-1.482.636-3.176 2.119-4.446 1.695-1.059 1.271-3.811 2.966-5.081 1.695-1.271 4.661-5.505 4.449-6.775-.212-1.271 2.542-3.176 4.449-3.811 1.907-.636-.424-2.541 2.119-2.964 2.542-.424 3.813-1.906 6.143-4.235 2.331-2.117 4.026-.635 9.322-2.964 5.297-2.329 1.271-7.198 5.72-8.892 4.449-1.694 5.085-11.01 13.559-11.645 3.814-.211 5.932.212 7.839-2.54zm-87.285 100.989c-.848.424-1.907.636-1.695 1.483.212.846.635 1.905 1.695.846.847-1.27.635-1.693 2.118-1.905 1.483-.212 1.907-.635 1.483-1.27-.423-.424-2.118.211-3.601.846zm-2.543-6.986c-.847.635-1.059 1.482 0 1.482 1.06-.212 1.695-.212 1.695-1.059s-.635-1.058-1.695-.423z" fill="url(#2ln32ubbdb)"/>
    <path d="M299.089 125.524c.636-.212 1.271-.847 1.483-1.694.212-.847 1.271-1.059 1.907-1.482.635-.424 1.059-1.271 1.059-1.271s.847.636.847 1.059c0 .423-.423 1.482-1.271 1.905-1.059.424-.847.847-.847 1.694s-.212.847-.848 1.059c-.635.212-.635.212-1.059.635-.424.423-1.483.212-2.118-.212-.424-.423-.424-1.058-.424-1.058l1.271-.635zm4.873-.424s.423 1.059 1.271 1.059c.635 0 .847-.212 1.059-.635.212-.424.424-.424 1.271-.424.636 0 1.271-.635 1.271-1.27s-.847-1.694-.847-1.694-.847.423-1.059.847c0 .423-.636.847-1.06 1.058-.635.424-1.906 1.059-1.906 1.059zm2.33-6.775s.212 1.059 1.271 1.059c1.06 0 .848-1.059.636-1.482-.212-.424-.636-.635-.636-.635s-1.271 0-1.271 1.058zm3.814 4.234s.423 1.271 1.483 1.271c1.271.212 3.177.635 3.601 0 .424-.635.424-1.059 1.271-1.271 1.06-.211 1.907.212 1.907-.846.212-.847.424-1.694 1.483-2.329 1.059-.635 1.695-.424 2.119-1.694.423-1.27.211-2.541 1.271-2.752 1.059-.212 2.33-.847 2.966-1.694.847-.847 2.33-1.694 2.542-2.752.212-1.059.212-1.271 1.271-1.906s2.119-1.27 2.119-2.329c.212-.847 1.059-1.905 1.483-1.27.423.635 1.695 1.694 2.754 1.482 1.059-.424 2.754-.847 2.754-1.906 0-1.27-.212-2.117.212-2.752.424-.635.847-2.329 2.118-2.117 1.272.212 2.966.847 3.39.212.424-.636 2.966-2.965 3.178-4.447.212-1.481.424-2.328 1.695-2.752 1.271-.423 2.118-1.058 2.542-2.329.424-1.27.848-2.117 2.966-2.752 1.907-.847 3.602-.635 4.025-2.329.424-1.694 4.238-2.752 4.661-4.446.636-1.694.212-2.964 2.331-3.176 2.118-.212 5.296.212 6.567-1.058 2.966-3.176 1.695-4.235 3.178-6.352.848-1.058 3.39-1.482 3.814-3.6.423-2.328.635-2.963 2.33-4.445 1.695-1.482 6.991-4.023 8.051-6.563 1.059-2.541 4.237-4.87 5.296-7.834 1.059-2.964 2.754-5.717 5.085-6.987 2.118-1.27 4.025-2.117 4.66-4.022.636-1.906 6.568-5.505 9.534-7.41 3.178-1.906 8.686-6.987 9.322-9.528.635-2.54 1.271-5.505 3.178-7.834 1.694-2.328 2.754-4.022 4.872-5.08 2.119-1.06 6.78-4.447 7.627-7.2.848-2.751 3.602-5.292 4.449-7.833.848-2.54 2.119-3.81 4.661-5.08 2.542-1.271 3.602-3.812 5.72-4.87 2.119-1.06 6.779-4.447 10.169-6.564 3.39-2.329 5.932-6.563 5.297-8.468-.636-1.906-2.754-3.176-1.483-6.775 1.271-3.6 1.271-9.316 4.66-11.433 3.39-2.117 4.449-4.658 4.661-7.834.212-3.176 3.814-5.505 4.237-7.833.424-2.33 1.272-5.717-.635-8.47-1.907-2.751-4.449-6.139-4.449-10.162 0-4.022 1.907-7.198 3.39-9.103 1.483-1.906 2.33-3.6 4.449-4.447 2.118-.635 4.449-3.175 5.508-4.869 1.059-1.906 6.356-3.599 6.779-7.198.636-3.6-1.483-6.14.848-7.834 2.33-1.694 4.661-6.14 7.627-7.41 2.966-1.271 3.601-6.14 5.932-7.834 2.33-1.694 5.508-4.658 5.508-7.198 0-2.541-.424-2.541 0-4.235.424-1.693.635-2.117.635-2.964-.211-1.058-1.483-2.117-1.483-2.117s-.211 1.694-1.271 3.176c-1.059 1.27-19.702 23.077-26.27 27.1-6.567 4.023-31.355 30.699-46.608 50.812-15.254 20.113-62.71 99.084-78.388 124.49-15.677 25.407-35.38 49.543-36.651 52.083-1.271 2.541-1.271 4.87-3.813 6.14-2.543 1.27-3.602 1.906-4.026 3.176-.423 1.27-1.483 2.329-3.177 4.023-1.907 1.27-5.932 2.328-5.932 2.328z" fill="url(#xey6ns1l3c)"/>
    <path d="M367.943-32.418c1.483-1.482-.636-2.117-3.178-3.811-2.543-1.694-3.178-2.33-6.356-1.906-3.178.424-1.907 2.33-1.907 3.6s-2.966 0-2.966-1.483c0-1.693-2.33-2.54-3.813-1.27s-3.178-1.905-2.331-3.599c.848-1.694 1.272-4.658 3.178-7.198 2.119-2.541 4.237-6.987 7.839-7.834 3.39-.847 5.296-6.352 8.474-7.834 3.178-1.482 1.483-4.87 5.297-5.928 4.025-1.058 2.542-2.117 2.754-4.234.212-2.117 2.542-4.87 4.237-6.563 1.695-1.694 1.907-2.753 2.33-4.235.424-1.482 2.331-6.351 4.026-7.41 1.695-1.058 2.754-6.351 2.966-7.41 0-1.059 1.483-2.964 2.118-3.599.636-.847 0-2.753 1.06-3.176 1.059-.423 1.694-2.541 1.906-3.387.424-.847.636-1.694 1.907-1.906 1.271-.212 1.483-1.694 2.33-3.176.848-1.482 2.119-2.964 2.966-4.022 1.06-1.059 1.695-1.059 1.272 0-.424 1.058-1.272 1.482-.424 2.117.847.635 2.542-.424 6.356-1.059 4.025-.635 4.237-2.117 6.355-3.599 2.119-1.694 2.331-4.658 6.144-5.716 3.814-1.059 2.966-2.329 3.39-4.235.635-1.905 4.661-3.599 5.508-5.504.848-1.906 4.661-6.987 5.72-9.104 1.06-2.117 4.237-8.046 6.568-9.951 2.33-1.905 1.059-5.505-.636-2.329-1.695 3.176-1.059-3.811.636-6.351 1.695-2.541 9.11-11.857 11.228-12.915 2.119-1.059.848-2.541 2.543-2.541 1.483 0 .635-1.27 0-1.482-.636-.212-.848-.847.635-1.482s1.907-1.27 3.39.212c1.695 1.27 3.813 1.058 8.05 1.693 4.238.636 4.449-1.905 8.475-2.54 4.025-.635 6.355-8.681 10.169-12.491 3.813-3.811 8.05-6.987 13.559-7.622 5.296-.636 1.695-5.082 4.661-6.14 2.966-1.059 4.66-4.87 5.084-6.352.212-1.27 2.331-4.446 3.39-5.293 1.059-.847 2.118-.847 1.695 1.482-.424 2.329-.424 2.541.847 3.811 1.271 1.271.212 3.176-.635 5.082-1.06 1.905-1.272 2.54-.848 3.81.424 1.271-1.483 1.906-2.33 2.118-.848.211-2.331 1.27-2.543 2.54-.212 1.271-2.118 0-3.178.635-.847.636.001 1.482 1.484 3.388 1.271 1.905-1.695 4.023-1.695 6.351 0 2.329-4.238 3.388-3.814 5.717.636 2.117-1.695 5.293-4.661 10.374-2.966 5.081-4.025 9.951-5.084 15.032-.848 5.081-6.356 12.068-8.051 14.82-1.695 2.753.212 5.293.212 8.469 0 2.964.636 1.694 6.991 2.541 6.356.847 7.839-2.541 11.229-5.717 3.39-3.176 9.11-6.563 11.228-8.257 2.119-1.482 2.119-1.905 2.966 0 .848 1.906-2.542 4.658-2.33 6.14.212 1.482.424 1.906-5.932 9.951-6.356 8.045-14.83 11.856-15.042 18.419-.212 6.352-7.415 12.068-13.347 17.785-5.932 5.716-6.144 12.28-3.178 19.266 3.178 6.987 2.119 9.527 0 13.973-2.118 4.447-10.169 17.361-11.228 23.29-1.06 5.928-1.695 15.455-10.593 20.324-8.898 4.658-13.135 8.046-17.372 16.726-4.238 8.469-14.407 14.82-15.042 20.537-.636 5.716-16.525 15.667-19.915 18.42-3.39 2.752-4.237 4.234-7.627 7.621-3.389 3.388-8.898 13.127-11.652 14.609-2.542 1.482-6.567 6.775-6.567 8.257 0 1.482-3.39 3.387-4.661 5.716-1.06 2.329-5.085 4.658-6.78 5.293-1.695.635-2.966.635-3.601 2.117-.636 1.482-3.814 3.388-5.509 5.293-1.694 1.906-5.932 3.811-6.567 5.717-.636 1.905-3.814 3.175-4.449 4.657-.636 1.482-4.449 4.447-6.568 5.717-2.118 1.27-1.695 3.176-2.118 4.234-.424 1.059-2.543 1.27-2.966 0-.212-1.27-2.119-.212-3.39 1.482s-4.449 3.811-4.449 4.87c0 1.058-1.695 3.175-3.178 2.964-1.483 0-1.907 1.058-1.907 2.54s-3.813 2.329-4.66 4.235c-.848 1.905-2.966 2.117-4.873 2.54-1.907.424-2.542-.635-1.907-1.693.636-1.059 1.483-1.482 4.237-1.906 2.754-.423 1.483-1.694 2.119-3.387.635-1.694 1.907-2.118 4.873-3.176 2.966-1.059 2.118-2.752 2.118-3.811 0-.847-1.907 0-3.178 1.27-1.271 1.271-2.33 2.329-4.449 2.541-2.118.212-2.754 2.117-2.966 2.752-.212.635-2.33 1.482-2.754 0-.424-1.482 1.059-.635 2.119-1.058 1.059-.424 1.271-1.694 1.483-2.964.212-1.271 1.906-4.658 3.178-5.505 1.271-.847.635-5.293 2.966-6.352 2.33-1.058 1.906-2.752 1.483-3.599-.424-.847.635-1.694 1.271-1.905.635-.212 1.271.423 2.118-.212.848-.635.212-1.905.424-2.752.212-1.059 1.483-.424 2.119-1.059.635-.847-.212-.847-1.06-1.059-.847-.211.212-.846 1.907-1.27 1.695-.423 2.542-1.058 2.119-2.752-.212-1.482 1.694-4.235 4.025-7.199 2.118-2.964 4.873-4.234 4.873-5.504 0-1.27.423-2.33 1.271-2.964 1.059-.635 1.906-.424 1.906-1.27 0-1.06.424-2.118 1.907-3.388 1.271-1.27-.847-2.54-.424-4.023.424-1.482 2.755-2.329 2.966-3.387.212-1.059-2.33-.212-4.025.423-1.907.635-2.33.635-3.178 0-.847-.635-1.059.423-2.33.212-1.271-.212-1.059 1.058-1.907 1.694-1.059.635-1.907-.424-1.059-.847 1.059-.424.847-1.694.847-2.964-.212-1.27 2.331-3.811 2.331-5.082 0-1.27 2.118-1.693 1.695-3.387-.424-1.482 1.906-2.329 1.483-4.023-.424-1.694 2.33-3.599 4.025-4.234 1.695-.635 1.271-1.694 1.483-4.023.212-2.117 5.084-4.87 5.084-6.351-.211-1.482-2.118 1.694-3.177 1.482-1.06-.424 2.33-2.964 5.296-6.14 2.966-3.176 9.534-17.573 9.11-18.843-.424-1.482-.636-3.176.635-4.234 1.272-1.059-2.542-3.176-4.237-2.964-1.695.211-2.118-2.753 0-4.447 2.119-1.693 3.178-12.49 5.932-15.878 2.331-2.753 2.543-9.316 4.026-10.586zM307.14 122.136c-.848.212-.424 1.27-1.272 1.694-.847.423-1.906.635-1.906 1.27.212.635 1.271.847 1.483.212.423-.635.423-1.059 1.483-.847 1.059.212 1.271-.212 1.271-.847 0-.847.212-1.905-1.059-1.482zm-.212-5.081c-.636.211-1.06 1.27-.424 1.482.636.212 1.483.212 1.483-.424 0-.635-.424-1.058-1.059-1.058zm-5.509 5.081c-.635 0-1.271.635-1.483 1.059-.211.635 0 1.27-.635 1.482-.636.211-1.483.423-1.483 1.058s.212 1.059 1.271.847c1.059-.212 1.907 0 1.907-1.058 0-1.059.423-1.906 1.271-2.118.847-.211 1.695-.847 1.695-1.482s-1.06-1.27-1.06-.635c-.211.635-.635.847-1.483.847z" fill="url(#p2p75v2sgd)"/>
    <path d="M290.403 287.065c.212.423.424 1.693 2.33 1.693 1.907 0 2.754-.847 3.814-.211 1.059.635 1.695 1.27 2.118 1.058.636 0 1.06 0 1.695.635.636.636 1.695 1.271 2.542.847.848-.423 1.695-.211 1.907-.847.212-.635 1.059-1.058.848-2.329 0-.423-.636-1.058-1.483-1.482-.848-.211-2.755-.211-3.602-.423-2.119-.423-3.178-.423-5.085 0-1.694.635-2.754.635-3.601.635-.848 0-1.483 0-1.483.424z" fill="url(#9y338scc0e)"/>
    <path d="M297.606 283.677c-.848 1.27-2.331.212-3.39 1.059-1.059.846-2.966.211-3.178 1.058-.423.847-1.694 1.482 1.06 1.694 2.754.212 4.025-1.059 6.143.423 2.119 1.482 5.085 2.964 6.356 1.694 1.059-1.482.848-2.541-.635-2.964-1.483-.423-3.39-.635-3.39-2.541-.424-1.905-2.331-1.27-2.966-.423z" fill="url(#nwoyko0uaf)"/>
    <path d="M282.988 271.397c.424-.423 2.542-2.964 5.084-5.081 2.543-2.117 6.568-5.504 7.415-8.045.848-2.541 2.966-2.541 6.78-7.199 3.813-4.657 4.449-7.621 6.144-11.221 1.695-3.811 4.66-5.081 6.779-6.775 2.33-1.693 3.178-.846 7.415-4.446 4.025-3.599 2.119-5.293 6.144-6.563 4.025-1.27 5.508-3.811 7.627-7.198 2.33-3.388.212-4.023-.212-6.775-.424-2.753 5.296-6.775 7.839-8.892 2.542-2.118 4.66-6.564 5.296-8.046.847-1.482 2.542-2.117 3.178-1.905.847.212 1.483.847 1.483 1.905 0 1.059 0 1.694-.847 2.964-.848 1.482.211 1.906-.424 4.023-.636 2.117-2.543 2.329-4.449 2.752-1.695.424-3.39 2.117-4.026 3.388-.635 1.27.212 1.694.848 3.599.847 1.905-.212 2.541-1.059 4.234-.848 1.694-2.543 2.329-3.602 4.658-1.271 2.117-3.178 2.541-4.449 4.023-1.271 1.482-2.966 1.27-4.025 1.905-1.271.635-2.119 2.964-2.331 4.658-.211 1.694-1.906 2.752-3.177 4.658-1.272 2.117-3.814 2.752-5.721 3.599-1.906.847-4.237.424-5.508 1.482-1.271 1.059-3.813 3.176-4.025 4.658-.212 1.482-1.695 3.387-1.059 4.234.635.847.635 1.906.635 2.964.212 1.059-1.695 2.329-3.39 3.176-1.694.847-1.271 1.694-1.906 2.752-.636 1.059-3.602 1.694-5.297 2.118-1.695.423-2.118 1.482-3.389 2.964-1.272 1.482-.636 2.54-1.272 3.811-.635 1.27-2.33 2.54-3.601 2.328-1.271-.211-2.331.424-3.178.847-.847.424-.847 1.059-1.271 2.753-.424 1.693-1.271 1.482-2.542 2.54-1.272 1.059-2.119.424-2.543 0-.212-.211.212-.423.636-.847zm75.633-83.628c.423.635 2.542 1.058 3.178.635.635-.424.635-.847 1.694-.635 1.06 0 2.755-.635 3.602-1.271.847-.635 1.907-.211 1.695-1.693-.212-1.482-.424-3.176.847-3.6 1.271-.423 1.907-1.27 1.907-2.117.212-.847 1.695-1.27 1.907-2.117.212-.847-.848-1.905-1.271-2.329-.424-.423-1.695-.635-2.543-.211-.847.423-2.754 2.328-5.296 5.504-2.542 3.176-4.661 6.352-5.085 6.775-.423.212-1.059.635-.635 1.059z" fill="url(#6t7j79mgug)"/>
    <path d="M352.477 192.638c-1.271 2.329 0 5.717-3.602 7.199-3.601 1.482-6.567 4.446-5.72 6.986.848 2.541-1.906 5.082-4.237 7.834-2.33 2.54-3.39 4.869-6.356 6.14-2.966 1.27-4.872 5.928-7.203 8.892-2.33 2.964-6.144 3.176-10.169 5.081-4.025 2.117-5.72 7.834-6.567 10.586-.848 2.752 1.483 1.905-.636 4.658-2.119 2.752-5.932 4.446-9.322 6.14-3.389 1.693-4.661 8.68-8.05 9.315-3.39.635-4.237 4.023-5.509 5.505-1.483 1.482-2.754 2.117-2.33.212.424-1.906 5.932-5.082 9.745-10.163 4.026-4.869 3.814-9.104 3.602-12.915-.212-3.811 7.839-5.081 7.839-5.081s2.542-2.752 3.389-6.563c.848-3.811 8.051-7.834 10.381-8.257 2.331-.424 2.331-2.329 2.543-4.87.423-2.54 4.661-4.022 8.262-4.234 3.602-.423 4.661-4.234 5.508-6.563.848-2.329-4.872-.847-6.779.847-1.695 1.693-5.72 3.175-6.991 2.117-1.271-1.059-2.331-2.117-1.695-4.658.424-2.329 6.567-5.928 8.05-4.658 1.483 1.27 5.085-1.482 7.415-4.023 2.543-2.54 4.026-3.599 6.78-4.022 2.754-.424 1.695-2.329 1.907-4.87.211-2.54 5.296-2.964 8.262-4.022 2.33-.635 2.542 1.058 1.483 3.387zm11.228-15.244c-.423 2.118-3.601 2.753-4.025 4.87-.212 2.329-2.966 6.352 0 5.505 2.966-.847 7.203-1.482 7.203-4.446.212-2.965 1.695-4.235 3.814-5.717 2.118-1.694 2.754-2.54 0-3.811-2.543-1.482-6.356.424-6.992 3.599z" fill="url(#mvs4zm970h)"/>
    <path d="M-37.552 298.497s.636 1.271 1.907 1.059c1.271-.212 2.754-.847 3.39-.847.635 0 2.33 0 2.966-.635.635-.635 1.27-1.059 1.906-1.059.424 0 1.271.212 1.695-.211.424-.424.212-.847 1.271-1.271 1.06-.423 2.755-.635 2.966-1.27.212-.635.636-1.27 1.483-1.694.848-.423 2.119-1.058 2.755-2.117.635-1.059.635-2.117 1.906-2.541 1.271-.423 1.483-2.328 2.543-4.022 1.059-1.694 2.118-1.694 2.542-2.964.423-1.059 1.27-2.541 2.754-3.176 1.483-.635 2.33-.635 2.33-1.482.212-.847 1.272-2.329 2.543-3.176 2.542-1.482 3.177-.423 4.449-.423 1.27 0 2.118-.424 2.542-1.059.424-.635 2.542-1.905 2.966-4.446.424-2.541.424-4.658 1.483-6.351 1.06-1.694-.848-4.023 2.33-5.082 1.695-.635 4.873 0 6.78.424 1.907.423 5.72-.424 6.991-1.482 1.271-1.271.848-2.118 1.907-3.388 1.06-1.27-.848-4.022 1.695-4.658 1.059-.423 4.449.847 5.72 1.482 1.27.636 3.39 0 4.66-.211 1.272-.212 6.78-.424 8.475-2.541 1.695-2.117 1.695-4.023 3.813-4.869 2.119-.847 3.39-1.906 4.873-2.329 1.695-.212 3.602-1.906 3.814-4.023.211-2.117-1.06-4.658-.636-6.352.424-1.905.424-4.022 2.33-4.657 1.271-.635 3.814 1.058 6.144-1.694 1.06-1.27-.212-3.388.848-5.505 1.059-2.329 4.025-3.387 4.025-5.504-.212-2.118-.848-5.505-.212-7.411.636-1.905-1.271-3.175-2.118-4.657-.848-1.482-5.509-3.176-9.322-7.834-1.06-1.27.212-2.964-1.483-6.351-1.695-3.388-1.907-4.023-4.873-5.293-6.144-2.541-11.228-2.118-11.228-2.118s11.864 5.082 12.5 9.104c.635 4.023-1.272 6.352 1.906 9.739 3.178 3.599 3.813 9.528-4.237 20.96-8.263 11.433-9.957 17.361-17.16 21.596-7.204 4.234-14.195 5.928-15.043 9.104-1.059 3.387-3.39 5.081-7.415 5.928-4.025.847-7.626 1.058-9.533 5.081-1.907 3.811-1.271 10.374-6.144 11.644-4.873 1.059-13.347 5.293-14.618 9.528-1.271 4.022-4.025 8.892-6.991 11.856-2.966 2.964-14.195 7.198-14.195 7.198z" fill="url(#pafw1ks9ti)"/>
    <path d="M41.259 188.404c-2.966 2.117-3.178 5.716-5.932 4.869-2.754-.635-.636-5.504-2.33-5.293-1.695.212-6.144-.211-5.932 2.329 0 2.753 3.813 1.271 2.33 4.658-1.483 3.599-5.72 2.117-5.296 5.716.423 3.6-.848 6.564 2.118 6.987 3.178.635 5.72 0 5.72 3.176s3.39 2.964 5.297 5.716c2.118 2.753 1.906 8.469-1.483 9.104-3.39.635-7.627-2.964-9.534-.423-1.907 2.54.212 6.351-1.483 8.68-1.907 2.329-9.745 3.388-10.805 7.622-1.059 4.234.636 8.045-2.966 9.739-3.601 1.906-6.567-1.058-8.262 2.753-1.695 3.81-2.119 6.139-5.72 6.774-3.602.636-5.932-4.022-9.11.847-3.178 4.658-7.839 6.564-9.745 9.316-1.907 2.752-4.238 5.716-4.026 9.739 0 4.023 2.119 8.045-1.059 10.162-3.39 2.329-9.957 5.293-10.381 6.775-.212 1.694 4.66-1.058 7.415-2.328 2.754-1.271 9.11-6.352 11.652-10.798s5.932-10.374 11.229-12.28c5.296-1.693 8.686-3.387 10.804-9.315 1.907-5.928 1.271-7.622 5.509-8.681 4.237-1.058 8.898.424 12.075-3.599 3.178-4.023 4.661-8.045 9.11-5.505 4.45 2.541 11.44-2.54 15.466-6.563 4.025-3.811 8.686-1.059 8.898-6.775.212-5.716-1.271-10.162 4.449-10.586 5.72-.423 4.025-3.387 6.78-8.469 2.753-4.869 2.542-4.869.423-12.068-1.907-6.986-9.957-10.585-10.17-13.55 0-2.964-.211-7.41-6.355-9.527-6.144-2.117-9.322-2.752-9.957.635-.636 3.388-.848 4.023 2.33 4.235 3.178.211 5.72.847 6.144 4.657.424 3.811-2.966 6.987-3.178 4.658-.635-1.693-1.695-5.081-4.025-3.387z" fill="url(#u4ktij045j)"/>
    <path d="M97.613 152.623s.847 1.482 2.966.636c1.906-.847 2.542-1.906 3.813-1.906 1.271-.212 2.331-.212 2.754-1.27.424-1.059.848-2.329 1.907-2.964.847-.635 1.483-1.482 1.695-2.329.212-.847 1.059-2.117 2.33-2.964 1.271-.847 1.695-1.059 1.907-1.906.212-.635 1.695-1.482 2.119-1.482.635 0 1.059.424 2.754-.211 1.695-.636 2.542-.212 2.966-1.059.423-.635.847-1.482 1.906-2.329 1.06-.635 1.483-1.27 1.483-1.694 0-.423.212-1.693 1.272-2.329 1.059-.635 2.966-.423 3.177-1.482.212-1.058 1.06-1.693 2.331-1.905 1.271-.212 2.542.212 2.966-.635.424-.847 2.966-1.059 4.449-1.059 1.483 0 2.542 0 3.178-.635.635-.635 3.601-2.752 4.025-4.023.424-1.058.636-1.693 0-3.387-.636-1.482-.424-2.329.424-3.811.847-1.482 2.33-2.752 4.025-3.387 1.695-.636 4.237-2.965 5.508-3.176 1.06-.212 2.754-2.117 3.814-2.541 1.059-.423 2.754-1.694 3.178-2.541.423-.846 2.118-2.117 2.118-3.387s1.483-1.905 2.331-3.6c.847-1.693 2.118-3.81 3.389-4.657s2.754-2.964 4.661-3.6c1.907-.634 2.331-1.905 2.542-2.752.212-1.058-.423-2.329-.423-2.329s-.636.847-1.695 1.906c-.848 1.059-4.449 3.388-7.627 5.928-2.33 1.694-6.779 4.235-7.627 6.352-.847 2.117-.424 5.081-2.966 7.622-2.542 2.54-7.203 4.657-9.957 5.081-2.754.423-6.356 2.329-8.263 5.081-1.906 2.752-5.296 5.928-9.321 8.045-4.026 1.906-6.356 3.176-7.627 5.928-1.271 2.541-2.966 5.505-6.356 7.199-3.39 1.694-9.533 4.446-11.016 6.987-1.483 2.752-4.026 7.198-5.721 8.045-2.118 1.058-3.39 2.54-3.39 2.54z" fill="url(#36nuw90mgk)"/>
    <path d="M142.103 103.717c-1.695 1.27-3.178 5.504-6.568 5.504-3.389 0-6.355-1.27-8.05 3.176-1.695 4.446-1.271 7.198-4.025 8.257-2.755 1.059-7.204 1.905-7.415 4.446-.212 2.752 2.542 6.352-.424 8.045-2.966 1.694-14.195 3.811-14.406 8.469-.424 4.658-1.06 5.505-2.755 8.045-1.694 2.541-2.118 4.235.636 2.329 2.754-1.905 6.356-3.387 8.474-6.775 2.119-3.387 4.661-6.986 9.958-8.257 5.296-1.27 9.321-11.009 15.677-11.644 6.356-.635 8.474-1.906 11.017-4.446 2.542-2.753-.212-4.235.847-6.775 1.059-2.541 8.474-5.928 13.135-9.104 4.661-3.176 3.602-6.775 5.932-8.257 2.331-1.694 3.39-4.658 5.72-6.352 2.331-1.693 7.203-5.504 7.839-6.775.636-1.27-1.695-2.752-2.542-.635-.848 2.33-3.39 5.081-5.932 6.14-2.543 1.059-7.203 0-9.746 2.329-2.33 2.329-3.389 4.87-2.33 7.834 1.059 2.964 0 4.446-2.542 6.139-2.543 1.694-6.992 2.964-6.78.424 1.059-2.753-1.271-5.505-5.72-2.117z" fill="url(#5al6yukc7l)"/>
    <path d="M163.289 57.562s1.059.847 2.542-.635c1.483-1.482 1.271-2.54 3.39-2.54 2.118 0 4.449-.424 5.084-1.695.636-1.27 1.695-3.175 4.025-3.387 2.331-.212 4.026-.635 5.721-1.905 1.694-1.27 3.389-2.33 3.177-3.811-.211-1.483-.423-2.118 1.272-2.753 1.694-.635 2.542-1.694 2.966-3.387.423-1.694 0-3.811 1.271-4.446 1.271-.847 3.813-.847 5.296-2.541s4.025-4.234 5.508-4.023c2.331.212 2.966 3.176 5.509 1.906 2.33-1.27 3.601-3.388 5.72-3.6 2.118-.211 2.33-1.693 5.084-2.963 2.755-1.27 2.543-1.906 2.543-3.176 0-1.27-1.695-3.176.635-3.6 2.331-.423 6.568-.846 7.203-2.328.636-1.482.424-4.235 2.543-4.235 2.33 0 4.661-1.058 6.355-.635 1.695.424 7.839-.635 9.534-2.752 1.695-2.117 3.178-3.176 3.39-6.14.423-2.964-1.695-7.834-1.695-7.834s-7.203 6.987-11.864 8.893c-4.661 1.905-10.593 6.775-15.042 9.315-4.449 2.54-7.415 6.987-11.864 8.68-4.449 1.694-9.745 4.235-11.228 6.14-1.483 1.906-2.543 2.965-5.085 4.447-2.542 1.482-4.873 1.905-5.508 3.599-.636 1.694-2.543 5.928-4.873 8.045s-4.449 4.446-6.779 5.928c-2.331 1.27-5.085 3.388-8.263 5.293-4.873 2.753-6.567 6.14-6.567 6.14z" fill="url(#tpr0uyrf8m)"/>
    <path d="M237.65-11.882c-3.813 1.059-9.957 4.023-10.381 7.622-.423 3.6 1.695 7.199-2.118 8.892-4.026 1.694-8.898 1.482-9.11 4.658-.212 3.388-.636 4.658-3.602 5.928-2.966 1.27-12.076 4.446-12.923 7.622-.847 3.176-1.907 4.235-5.72 5.293-3.814.847-5.72 2.54-5.932 5.293-.212 2.752-3.602 6.14-6.78 8.045-3.177 1.694-5.296 5.293-8.262 5.505-2.966.212-2.966 4.446-6.144 6.14s-4.025 3.387-3.39 4.234c.636.847 1.483.424 2.331-1.058.847-1.482 1.695-3.388 5.084-3.6 3.39-.211 3.178-2.964 6.144-4.234s7.203-2.54 8.051-5.716c.847-3.176 3.39-2.753 4.661-5.717 1.271-2.964 1.695-4.657 3.813-5.293 2.331-.635 8.474-7.41 10.169-6.14 1.695 1.27 3.814.636 6.992-.846 3.177-1.482 11.228-4.87 10.592-6.775-.635-1.906-.635-3.811 1.483-4.023 2.119-.212 5.297-2.329 5.72-4.023.424-1.693 6.992-4.87 10.805-4.446 3.814.424 7.415-1.058 9.746-3.175 2.118-2.118 2.754-2.541 2.542-6.987-.424-4.658-2.119-10.798-13.771-7.199z" fill="url(#9guwzghw5n)"/>
    <path d="M16.472 65.395s1.27 2.118 4.66.424c3.602-1.694 6.356-2.54 7.204-4.658.847-1.905 1.483-3.387 2.966-3.81 1.483-.424 5.084 0 5.932-1.271.847-1.27 1.694-2.329 3.813-2.329s5.297-.847 6.356-2.54c1.06-1.694 1.907-3.811 4.025-4.658 1.907-.847 4.025-.636 4.45 0 .423.635-.636 2.752-.213 4.446.424 1.693.424 2.964 1.907 3.175 1.483.212 3.178 1.27 3.813.636.636-.636 1.272-1.059 2.543-.636 1.059.424 2.33.847 3.813 0 1.483-.846 3.39-1.905 3.602-2.752.212-.847 0-1.905-.848-2.54-.847-.636-1.695-1.06-1.907-2.118-.211-1.058 1.06-1.482 2.755-1.905 1.483-.212 3.601.212 4.449-.635.847-.847 1.27-.424 3.601-1.27 2.33-.848 3.814-1.06 4.025-2.33.212-1.27 0-2.964 1.272-3.599 1.27-.635 2.754-1.482 3.178-3.387.423-1.906-.212-3.388.847-4.235 1.06-.635 5.296-1.693 6.144-2.964.847-1.27 2.542-2.329 2.966-4.022.424-1.906 1.06-3.176 2.33-4.023 1.271-.847 2.331-1.27 2.966-1.058.636.211 1.059.846.848 1.693-.212.847-.636 1.482-.212 2.117.423.636 1.695 1.27 2.542.424.847-.847 3.39-2.329 5.085-3.176 1.694-.847 2.754-.847 3.813-.635 1.059.212 1.483 1.058 0 2.964-1.483 2.117-4.025 3.81-5.932 4.446-1.907.635-5.296.847-7.415 1.694-1.907.635-5.508 1.482-6.144 1.905-.635.424-.635.635-.424 1.059.212.423.636.847 1.695.635 1.06-.212 2.966.424 4.026-.212 1.059-.847 2.118-1.482 2.754-.847.847.636 1.059.847 1.695 1.483.635.635 1.694 1.482 2.754 1.058 1.059-.423 1.271-.212 1.906-.847.636-.847 1.483-1.27 2.331-1.058.847.211 2.754.423 3.39 0 .635-.424.847-1.059.847-1.906 0-1.058.212-2.117.847-2.117.636 0 1.483.635 2.331 1.482.847.847 2.118 1.694 2.966 1.27.847-.423 1.483-1.27 2.966-1.482 1.271-.212 2.542-.847 2.966-1.694.424-.846 1.907-1.482 2.33-3.599.212-2.117.212-2.54 1.695-3.599 1.695-1.058 6.568-1.482 7.839-4.023 1.271-2.329 1.907-3.81 2.118-5.504.212-1.906.424-3.176 1.907-4.446 1.483-1.059 2.754-2.964 4.661-3.6 1.907-.635 2.542-1.27 5.508-1.693 2.966-.212 4.237-2.753 4.237-4.446 0-1.694.212-4.023-.847-5.717-.847-1.694-1.059-2.329-.424-4.022.636-1.694 1.695-2.753 3.39-3.811 1.695-1.059 2.966-3.388 2.754-5.082-.212-1.693-2.33-2.117-3.178-1.905-.847.212-8.262 3.176-11.016 8.045-2.754 4.658-9.11 11.645-15.466 13.762-6.356 2.117-11.864 6.351-22.88 8.469-11.017 2.117-16.102 2.964-20.762 7.41-4.661 4.446-18.432 12.28-20.974 17.784C67.106 35.12 56.936 41.471 53.97 42.53c-2.754 1.059-5.508 2.54-6.78 4.023-1.27 1.482-5.084 4.446-10.804 6.563-5.508 2.329-9.957 4.023-13.135 6.563-2.33 1.482-6.78 5.716-6.78 5.716z" fill="url(#ismr2hnvho)"/>
    <path d="M87.232-10.4C73.885-5.742 56.725-4.26 55.453 1.457c-1.059 5.716.848 12.28-7.838 15.243-8.686 2.964-15.678 2.753-15.678 9.104 0 6.14-3.39 10.163-7.203 11.01-3.601.846-5.932-.424-8.05 1.905-1.907 2.329-3.178 4.658-.212 4.446 2.966-.212 2.966-1.27 4.025-2.54 1.06-1.27 6.78-2.33 8.05-.424 1.272 1.905 5.085 2.329 7.204 1.27 2.118-1.058 10.805-.423 11.652-3.81.847-3.388 5.084-4.447 7.839-5.294 2.754-.846 2.754 2.541 0 3.811-2.755 1.27-5.509 2.33-6.144 4.87-.636 2.54-.636 3.387-4.026 3.81-3.177.636-3.813 6.14-11.652 7.2-7.838 1.058-7.415 4.022-12.076 5.08-4.66 1.06-8.474 3.811-6.567 5.082 1.907 1.27.636 4.234 3.39 2.752 2.754-1.694 5.296-3.176 7.203-4.87 1.906-1.693 3.601-4.022 6.78-4.446 3.177-.423 3.389-2.117 6.779-2.964 3.601-.846 6.355-.846 7.838-3.175 1.483-2.33 3.602-4.658 6.568-4.447 3.178.212 4.237.424 2.966 2.965-1.271 2.54-.212 4.87 1.907 4.87 2.118 0 2.118-1.695 4.66-.424 2.543 1.27 5.932 0 6.992-1.906 1.06-1.694 0-1.058-1.695-2.752-1.483-1.482-.636-4.446 4.025-5.081 4.661-.636 7.203-1.059 8.898-4.235 1.695-3.175 4.237-4.657 4.873-7.622.636-2.964-.212-2.752 3.813-4.446 4.026-1.693 5.509-2.964 6.568-6.14 1.06-3.175 5.084-5.928 6.779-4.657 1.695 1.27 1.06 2.752.636 4.446-.424 1.694 1.695.423 2.542-.424.848-.847 2.119-3.599 5.72-3.81 3.39-.212 5.509.423 4.026 1.905-1.483 1.482-3.814 4.446-7.627 5.081-3.814.635-4.873.847-6.992 2.54-2.118 1.695-5.72 2.118-5.931 3.388-.212 1.27 1.27.847 3.601 0 2.119-.847 5.296-1.905 5.932-.635.636 1.27 1.907 2.964 3.813 1.482 1.907-1.482 2.331-1.694 4.238-1.27 1.906.423 3.389 0 2.966-1.906-.636-1.905.635-3.599 2.542-2.117 1.907 1.482 2.542 2.54 5.084 1.694 2.543-.847 4.873-2.329 6.144-6.775s3.39-4.023 7.203-5.716c3.814-1.694 4.026-2.965 4.873-6.564.848-3.599 1.907-6.563 7.415-8.257s8.898-1.694 8.686-5.928c-.212-4.022-2.966-9.739 0-11.644 2.966-1.906 8.475-5.293 5.085-8.046-3.39-2.752-7.839-3.81-10.169 0-2.331 3.811-6.78 8.47-11.864 7.622-5.085-.635-8.686-3.387-14.195.424-5.508 3.81-6.144 10.586-12.076 12.703C108.841-4.048 96.342.61 96.342-2.99c0-3.599.212-5.292 3.813-7.41 3.602-2.117 4.449-4.022 1.695-5.293-2.542-1.27-6.78 2.33-14.618 5.293z" fill="url(#a7gg1768fp)"/>
    <path d="M-19.544 191.368s.636.212 1.06-.212c.423-.423.423-1.27 1.906-1.482 1.483-.212 3.602-1.905 4.025-2.752.424-.847 2.543-1.694 3.178-3.599.636-1.906-.212-2.541 1.271-3.388 1.483-.847 3.602-1.058 4.237-2.752.636-1.694 1.272-2.753 2.755-3.388 1.483-.635 2.966.212 4.025-1.27 1.06-1.482.847-2.117.635-2.752-.211-.636-.423-1.059-1.27-1.271-.848-.211-.213-.635.423-.635s1.06-.423 1.483.424c.424.846.636 1.482 1.695 1.27 1.06-.212 2.542-.635 2.542-1.482 0-1.059-.635-1.694 0-2.117.636-.424 3.39-.635 3.814-1.482.423-.847.423-2.541 4.237-5.082 3.813-2.54 4.872-4.234 6.991-4.869 2.119-.635 4.66-2.752 6.356-4.446 1.695-1.694 4.237-2.753 6.355-2.541 2.119.212 6.356-.635 6.992-2.329.635-1.905-.636-3.387 1.059-3.811 1.695-.423 2.754-1.058 2.754-2.54.212-1.482 1.695-2.329 3.39-3.388 1.907-.847 4.237-1.905 5.508-4.022 1.271-2.118 2.754-2.329 4.237-3.176s3.602-2.964 5.085-4.023c1.483-1.27 3.601-2.117 4.66-1.694.848.636 1.907 2.118-.211 2.964-2.119.847-5.508 2.753-6.356 3.388-.847.635-1.06 1.27-1.06 1.27s.425.424 1.907 0c1.272-.423 2.12-1.693 3.602-2.117 1.483-.423 4.45-1.482 6.568-1.27 2.118.212 5.084-.424 5.72-1.271.847-1.058 2.754-1.905 3.601-3.387 1.06-1.482 4.238-1.27 5.932-3.387 1.695-2.118 3.814-3.6 3.814-6.14 0-2.541 1.483-3.388 3.39-4.023 1.906-.635 6.991-2.964 8.262-5.081 1.271-2.117-.636-3.6 1.907-5.081 2.542-1.694 3.601-2.118 4.025-3.811.635-1.482 1.907-3.388 4.237-5.082 2.542-1.482 3.39-3.599 4.661-4.446 1.271-1.058 1.695-1.693 2.118-2.54.424-.847-.635-1.906-.635-1.906s-.636 1.27-1.483 1.906c-.848.635-4.873 2.752-6.356 3.81-1.483 1.06-1.483 2.33-3.813 3.6-2.331 1.058-4.237 2.117-4.873 1.905-.636-.211-.212-1.482.424-2.329.635-.847.847-1.482 2.33-1.905 1.483-.424 2.542-.847 2.542-1.694s-1.059-1.905.212-2.752c1.06-.847 1.695-1.27 1.06-2.33-.636-1.058-.636-1.904 0-2.54.635-.635-.212-1.27.211-1.905.424-.635 1.06-1.27 1.272-2.117.211-.847-.212-1.482-.212-1.482s-.636-.212-1.695.423c-1.059.424-2.119.424-2.33 0 0-.635.423-1.905 1.482-2.752 1.06-.847 2.543-1.906 3.814-1.694 1.271.212 2.33 0 2.966-.424.635-.423.847-1.27.847-2.117s-.423-1.27-1.059-1.905c-.847-.424-1.271-1.27-.847-1.906.423-.635-.636-.846.211-1.482.848-.423 2.119-1.693 2.331-2.54.212-.847-.848-1.694-.848-1.694s-1.483.635-2.33 1.482c-.847 1.059-2.542 3.811-3.39 5.716-.847 1.906-4.449 6.987-6.991 8.893-2.542 1.905-9.745 11.644-16.737 18.42-6.99 6.774-29.024 19.477-44.066 31.122C28.971 133.992 2.277 160.88-.265 163.845c-2.542 2.964-4.237 6.775-5.085 8.68-.847 1.905-1.694 3.387-2.966 4.234-1.27 1.059-3.177 1.906-3.813 3.388-.636 1.482-2.542 4.658-3.813 5.928-1.271 1.482-2.755 2.329-3.178 2.964-.424.635-.424 2.329-.424 2.329z" fill="url(#4fpsfcvxeq)"/>
    <path d="M-13.4 175.277c-.848 1.482-1.907 2.964-3.602 4.235-1.695 1.27-1.695.635-.212-1.906 1.271-2.329 5.085-4.658 5.72-8.257.848-3.599 5.72-3.599 7.627-7.41s3.814-5.716 5.297-7.198c1.483-1.271 1.695-3.6 4.449-6.14 2.754-2.541 1.906-4.446 5.508-6.775 3.602-2.329 4.237-5.717 8.262-7.622 4.026-1.905 3.178-6.987 1.907-6.352-1.271.636-2.33 1.482-2.33 2.541s-.636 1.906-2.119 2.329c-1.483.423-2.118-.423-1.06-.423 1.06 0 2.331-.847 1.696-2.541-.636-1.906.635-3.599 2.118-3.811 1.483-.212 3.602-.212 5.085-3.176s6.567-5.293 8.262-6.14c1.695-.847 4.238-1.058 6.356-5.293 2.119-4.234 6.568-7.833 8.898-9.739 2.542-2.117 4.449-3.81 5.508-3.175 1.06.635 4.873.635 7.627-.212 2.754-.847 6.991.212 8.474-.847 1.483-1.059 1.06-1.694 2.966-3.176 1.907-1.482 5.509-2.54 6.992-5.928 1.483-3.387 6.144-3.6 9.11-5.505 2.966-2.117 6.99-6.351 9.957-8.892 2.966-2.54 8.686-5.504 11.016-10.586 2.331-5.08 5.721-6.563 6.568-5.293.636 1.27-3.602 2.964-3.178 4.023.424 1.059-.424 2.329 1.271 3.176 1.695.847 1.907 2.117-1.271 2.752-3.178.635-6.144 3.176-6.567 4.87-.424 1.693.847 1.482 2.33.847 1.483-.636 3.178-.424 2.754.846-.212 1.27-3.601 1.27-2.966 3.176.636 1.906-1.059 2.752 0 4.235 1.059 1.482-1.271 2.329-1.059 3.175.212.847.212 1.906-1.907 3.388-2.118 1.482-2.966 2.752-2.542 3.81.424 1.06 1.695.848 1.907-.423.211-1.27 0-1.693 1.694-2.117 1.695-.423 3.178 0 4.661-2.54 1.271-2.33 5.085-2.33 6.568-3.811 1.271-1.482 2.542-2.541 2.966-1.482.424 1.058-4.449 4.657-6.991 6.14-2.543 1.481-3.602 4.022-6.356 6.35-2.754 2.118-3.814 6.776-8.475 10.163-4.66 3.6-9.11 6.352-9.745 8.681-.636 2.329-2.542 5.505-5.72 6.775-3.178 1.482-5.296 5.081-10.381 6.563-5.085 1.482-8.262 1.694-9.957 3.388-1.695 1.482-2.119 1.482-2.119.635s2.119-2.117 3.602-2.753c1.483-.635 5.084-2.328 5.296-3.599.212-1.482-1.695-2.964-5.084-1.058-3.39 1.905-4.45 4.657-7.204 5.081-2.754.423-3.601 4.022-7.203 5.293-3.601 1.27-6.991 2.964-6.991 4.022 0 1.059 0 2.541-1.483 2.541s-2.754.635-2.33 1.906c.423 1.27-1.272 3.81-3.178 3.599-1.907-.212-3.178.211-5.72 2.117-2.543 1.905-5.085 5.293-9.11 6.14-4.026.847-9.957 5.504-11.864 7.41-1.695 1.694-.212 3.176-2.754 3.811-2.543.635-2.754 1.058-2.119 1.905.636 1.059-1.271 2.753-1.695 1.906-.423-.847-2.542-.635-3.813 0-1.271.635-.848 2.117 0 1.482.847-.424 2.118-.847 1.906.211-.211 1.059.424 1.906-2.118 2.118-2.542.423-4.873 2.117-5.508 3.811-.636 1.482-5.297 3.175-5.932 5.081-.636 1.905-2.966 5.928-4.45 6.987-1.482 1.058-2.965 1.693-3.177 2.752-.212.847-.848 1.058-1.06.212-.211-1.059 1.695-2.329 3.178-4.446 1.695-1.906 3.178-3.176 3.39-4.447.212-1.482.212-2.117 1.483-2.54 1.271-.424 1.695-1.694 2.33-1.906.636-.211 1.907-1.058 1.06-1.482-.636-.423-1.271.212-1.483.635-.212.424-.212 1.059-1.271 1.483-1.06.423-1.907 1.27-2.119 1.905-.212.635-.847 1.059-.847 0s1.694-1.694 1.906-2.541c.212-.847 1.06-1.482 1.907-1.905.848-.212 1.271-1.059 2.119-1.694.847-.423 1.906-1.482 1.059-1.905-.848-.212-1.06 0-2.754.635-.848 0-2.119.635-2.966 1.905z" fill="url(#9aoktxv6sr)"/>
    <defs>
        <radialGradient id="2ln32ubbdb" cx="0" cy="0" r="1" gradientUnits="userSpaceOnUse" gradientTransform="matrix(190.429 0 0 190.304 242.186 42.83)">
            <stop stop-color="#B2677D"/>
            <stop offset=".757" stop-color="#B2677D"/>
            <stop offset=".798" stop-color="#B66C7E"/>
            <stop offset=".85" stop-color="#C27C80"/>
            <stop offset=".907" stop-color="#D59683"/>
            <stop offset=".968" stop-color="#EFB987"/>
            <stop offset="1" stop-color="#FFCF8A"/>
        </radialGradient>
        <radialGradient id="p2p75v2sgd" cx="0" cy="0" r="1" gradientUnits="userSpaceOnUse" gradientTransform="matrix(375.606 0 0 375.36 139.024 -168.348)">
            <stop stop-color="#B2677D"/>
            <stop offset=".757" stop-color="#B2677D"/>
            <stop offset=".798" stop-color="#B66C7E"/>
            <stop offset=".85" stop-color="#C27C80"/>
            <stop offset=".907" stop-color="#D59683"/>
            <stop offset=".968" stop-color="#EFB987"/>
            <stop offset="1" stop-color="#FFCF8A"/>
        </radialGradient>
        <radialGradient id="nwoyko0uaf" cx="0" cy="0" r="1" gradientUnits="userSpaceOnUse" gradientTransform="matrix(11.4506 0 0 11.4431 296.088 281.064)">
            <stop stop-color="#B2677D"/>
            <stop offset=".757" stop-color="#B2677D"/>
            <stop offset=".798" stop-color="#B66C7E"/>
            <stop offset=".85" stop-color="#C27C80"/>
            <stop offset=".907" stop-color="#D59683"/>
            <stop offset=".968" stop-color="#EFB987"/>
            <stop offset="1" stop-color="#FFCF8A"/>
        </radialGradient>
        <radialGradient id="mvs4zm970h" cx="0" cy="0" r="1" gradientUnits="userSpaceOnUse" gradientTransform="matrix(123.014 0 0 122.933 275.66 154.949)">
            <stop stop-color="#B2677D"/>
            <stop offset=".757" stop-color="#B2677D"/>
            <stop offset=".798" stop-color="#B66C7E"/>
            <stop offset=".85" stop-color="#C27C80"/>
            <stop offset=".907" stop-color="#D59683"/>
            <stop offset=".968" stop-color="#EFB987"/>
            <stop offset="1" stop-color="#FFCF8A"/>
        </radialGradient>
        <radialGradient id="u4ktij045j" cx="0" cy="0" r="1" gradientUnits="userSpaceOnUse" gradientTransform="matrix(163.13795 6.12784 -6.12386 163.03203 -72.773 155.458)">
            <stop stop-color="#B2677D"/>
            <stop offset=".757" stop-color="#B2677D"/>
            <stop offset=".809" stop-color="#BF787F"/>
            <stop offset=".911" stop-color="#DFA485"/>
            <stop offset="1" stop-color="#FFCF8A"/>
        </radialGradient>
        <radialGradient id="5al6yukc7l" cx="0" cy="0" r="1" gradientUnits="userSpaceOnUse" gradientTransform="matrix(92.1917 0 0 92.1313 128.699 63.532)">
            <stop stop-color="#B2677D"/>
            <stop offset=".757" stop-color="#B2677D"/>
            <stop offset=".798" stop-color="#B66C7E"/>
            <stop offset=".85" stop-color="#C27C80"/>
            <stop offset=".907" stop-color="#D59683"/>
            <stop offset=".968" stop-color="#EFB987"/>
            <stop offset="1" stop-color="#FFCF8A"/>
        </radialGradient>
        <radialGradient id="9guwzghw5n" cx="0" cy="0" r="1" gradientUnits="userSpaceOnUse" gradientTransform="matrix(142.726 0 0 142.632 172.014 -79.511)">
            <stop stop-color="#B2677D"/>
            <stop offset=".757" stop-color="#B2677D"/>
            <stop offset=".798" stop-color="#B66C7E"/>
            <stop offset=".85" stop-color="#C27C80"/>
            <stop offset=".907" stop-color="#D59683"/>
            <stop offset=".968" stop-color="#EFB987"/>
            <stop offset="1" stop-color="#FFCF8A"/>
        </radialGradient>
        <radialGradient id="a7gg1768fp" cx="0" cy="0" r="1" gradientUnits="userSpaceOnUse" gradientTransform="matrix(184.538 0 0 184.417 16.411 -101.704)">
            <stop stop-color="#B2677D"/>
            <stop offset=".757" stop-color="#B2677D"/>
            <stop offset=".798" stop-color="#B66C7E"/>
            <stop offset=".85" stop-color="#C27C80"/>
            <stop offset=".907" stop-color="#D59683"/>
            <stop offset=".968" stop-color="#EFB987"/>
            <stop offset="1" stop-color="#FFCF8A"/>
        </radialGradient>
        <radialGradient id="9aoktxv6sr" cx="0" cy="0" r="1" gradientUnits="userSpaceOnUse" gradientTransform="rotate(-7.476 -84.489 561.282) scale(232.107 231.96)">
            <stop stop-color="#B2677D"/>
            <stop offset=".757" stop-color="#B2677D"/>
            <stop offset=".798" stop-color="#B66C7E"/>
            <stop offset=".85" stop-color="#C27C80"/>
            <stop offset=".907" stop-color="#D59683"/>
            <stop offset=".968" stop-color="#EFB987"/>
            <stop offset="1" stop-color="#FFCF8A"/>
        </radialGradient>
        <linearGradient id="yf29x7e43a" x1="353.093" y1="90.416" x2="412.656" y2="146.761" gradientUnits="userSpaceOnUse">
            <stop stop-color="#FFE97D"/>
            <stop offset=".258" stop-color="#FFEB83"/>
            <stop offset=".613" stop-color="#FFF095"/>
            <stop offset="1" stop-color="#FFF7B0"/>
        </linearGradient>
        <linearGradient id="xey6ns1l3c" x1="354.786" y1="-61.725" x2="449.376" y2="27.754" gradientUnits="userSpaceOnUse">
            <stop stop-color="#FFE97D"/>
            <stop offset=".258" stop-color="#FFEB83"/>
            <stop offset=".613" stop-color="#FFF095"/>
            <stop offset="1" stop-color="#FFF7B0"/>
        </linearGradient>
        <linearGradient id="9y338scc0e" x1="284.01" y1="274.348" x2="306.711" y2="295.823" gradientUnits="userSpaceOnUse">
            <stop stop-color="#FFE97D"/>
            <stop offset=".258" stop-color="#FFEB83"/>
            <stop offset=".613" stop-color="#FFF095"/>
            <stop offset="1" stop-color="#FFF7B0"/>
        </linearGradient>
        <linearGradient id="6t7j79mgug" x1="313.535" y1="210.316" x2="335.497" y2="231.091" gradientUnits="userSpaceOnUse">
            <stop stop-color="#FFE97D"/>
            <stop offset=".258" stop-color="#FFEB83"/>
            <stop offset=".613" stop-color="#FFF095"/>
            <stop offset="1" stop-color="#FFF7B0"/>
        </linearGradient>
        <linearGradient id="pafw1ks9ti" x1="-27.012" y1="209.418" x2="44.547" y2="268.751" gradientUnits="userSpaceOnUse">
            <stop stop-color="#FFE97D"/>
            <stop offset=".258" stop-color="#FFEB83"/>
            <stop offset=".613" stop-color="#FFF095"/>
            <stop offset="1" stop-color="#FFF7B0"/>
        </linearGradient>
        <linearGradient id="36nuw90mgk" x1="121.413" y1="101.846" x2="149.764" y2="128.665" gradientUnits="userSpaceOnUse">
            <stop stop-color="#FFE97D"/>
            <stop offset=".258" stop-color="#FFEB83"/>
            <stop offset=".613" stop-color="#FFF095"/>
            <stop offset="1" stop-color="#FFF7B0"/>
        </linearGradient>
        <linearGradient id="tpr0uyrf8m" x1="180.416" y1="-.728" x2="226.988" y2="43.328" gradientUnits="userSpaceOnUse">
            <stop stop-color="#FFE97D"/>
            <stop offset=".258" stop-color="#FFEB83"/>
            <stop offset=".613" stop-color="#FFF095"/>
            <stop offset="1" stop-color="#FFF7B0"/>
        </linearGradient>
        <linearGradient id="ismr2hnvho" x1="31.738" y1="-35.466" x2="131.493" y2="58.9" gradientUnits="userSpaceOnUse">
            <stop stop-color="#FFE97D"/>
            <stop offset=".258" stop-color="#FFEB83"/>
            <stop offset=".613" stop-color="#FFF095"/>
            <stop offset="1" stop-color="#FFF7B0"/>
        </linearGradient>
        <linearGradient id="4fpsfcvxeq" x1="-8.22" y1="83.173" x2="94.757" y2="157.791" gradientUnits="userSpaceOnUse">
            <stop stop-color="#FFE97D"/>
            <stop offset=".258" stop-color="#FFEB83"/>
            <stop offset=".613" stop-color="#FFF095"/>
            <stop offset="1" stop-color="#FFF7B0"/>
        </linearGradient>
    </defs>
</svg>
