<svg width="94" height="168" viewBox="0 0 94 168" fill="none" xmlns="http://www.w3.org/2000/svg">
    <g clip-path="url(#tyuxxukyta)" filter="url(#purvu3ohob)">
        <path d="M84.445 151.614c0 .614-.2 1.552-.39 2.88a19.988 19.988 0 0 0 0 4.61l-1.3-1.451c-6.966-.837-13.144 4.297-13.144 4.297v2.367a31.237 31.237 0 0 1-4.1-1.831c-.11-.301 0-3.349-.41-5.581-.412-2.232-3.123-8.93-2.89-9.432a20.183 20.183 0 0 0 0-3.784c0-1.116-3.544-9.253-4.133-9.789-.589-.536-4.6-1.429-4.6-1.429-2.367 4.822-4.756 20.449-4.7 21.23.055.782.944 5.727 1.044 6.34a.158.158 0 0 0 0 .067 13.687 13.687 0 0 1-6.933 4.923V163.2c-3.378-2.076-13.056-5.815-13.056-5.815l-.71 1.004a49.52 49.52 0 0 1-1.345-5.313c-.111-.725-.133-1.283 0-1.451.567-.625 3-.893 3-.893 3.989-8.539 8.889-26.789 11.111-35.037.667-2.556 1.056-4.141 1.056-4.141l17.588 1.116 7.712.469 1.522 1.116 5.2 3.929a75.956 75.956 0 0 0 1.566 13.394c1.59 8.55 3.834 17.167 4.145 17.48.489.491 3.544 1.418 3.722 1.775.08.252.096.521.045.781z" fill="url(#jcc68ofgzc)"/>
        <path fill-rule="evenodd" clip-rule="evenodd" d="M88.678 167.23H69.2a16.094 16.094 0 0 1 0-2.233 29.44 29.44 0 0 1 .389-3.08 15.844 15.844 0 0 1 6.22-3.712c2.33-.74 4.798-.929 7.213-.552.337.696.823 1.31 1.422 1.797a29.478 29.478 0 0 1 3.467 3.148c1.244 1.663.767 4.632.767 4.632z" fill="url(#9lv5nn3wyd)"/>
        <path fill-rule="evenodd" clip-rule="evenodd" d="M43.467 168H19.61s.356-4.152.89-4.621a30.45 30.45 0 0 1 4.9-2.645l.51-.257a14.292 14.292 0 0 0 3.923-3.092c6.133 1.35 13.077 5.871 13.077 5.871.247.592.408 1.216.478 1.853.11.96.136 1.927.078 2.891z" fill="url(#eqpzasnhge)"/>
        <path style="mix-blend-mode:multiply" opacity=".8" d="M37.267 157.385a57.965 57.965 0 0 0 12.577 2.779 13.687 13.687 0 0 1-6.933 4.923v-1.831c-3.4-2.132-13.078-5.871-13.078-5.871l-.71 1.004a49.498 49.498 0 0 1-1.345-5.313v-1.451s2.589 3.349 9.489 5.76z" fill="url(#iwhqtuv9df)"/>
        <path style="mix-blend-mode:multiply" opacity=".5" d="M84.444 151.614s-11.633-.815-17.3 9.242a94.9 94.9 0 0 0 2.59-13.316 41.114 41.114 0 0 1-4.445 5.492s-1.956-4.99-1.956-6.151c0-1.16.167-16.899 1.323-18.852 1.155-1.954 6.377-5.157 7.7-4.621 1.322.535 3.977 7.657 4.166 8.148a75.958 75.958 0 0 1-1.567-13.395l-5.2-3.929-9.233-1.618-18.1-3.159-.566 6.217 7.955 6.452s.578 5.871 2.345 8.93c0 0-3.467 11.921-4.034 15.481a48.703 48.703 0 0 1-3.066-9.744 41.693 41.693 0 0 0 4.766 23.161c-.1-.614-.989-5.581-1.044-6.34-.056-.759 2.333-16.319 4.666-21.197 0 0 4.011.893 4.6 1.429.59.536 4.178 8.718 4.178 9.789a20.183 20.183 0 0 1 0 3.784c-.233.48 2.533 7.177 2.889 9.432.356 2.255.3 5.336.411 5.581a31.243 31.243 0 0 0 4.1 1.831v-2.367s6.178-5.134 13.145-4.297l1.3 1.451a19.988 19.988 0 0 1 0-4.61c.144-1.272.3-2.21.377-2.824zm-27.777-24.367-4.511-.904a28.847 28.847 0 0 1-1.634-6.295l6.411-.257a19.712 19.712 0 0 0-.266 7.456z" fill="url(#y5qmrmybdg)"/>
        <path style="mix-blend-mode:soft-light" opacity=".5" d="M80.656 149.069a17.257 17.257 0 0 0-7.778 1.641v-12.423s-4.133 11.284-3.722 17.491c0 0 8.578-5.336 15.222-4.934l-3.722-1.775z" fill="url(#txnayb337h)"/>
        <path d="M27.778 151.603s8.666-.614 13.01 0c0 0-3.277-7.557-2.832-10.146.444-2.59 1.855-13.696 1.855-13.696s-5.044 13.696-4.867 15.839c.169 2.03.221 4.069.156 6.105-.067.447-6.856 1.105-7.322 1.898z" fill="#7D2F49"/>
        <path style="mix-blend-mode:multiply" opacity=".8" d="m53.444 132.415-1.71-4.208 5.188 3.26 1.123 2.377-4.6-1.429z" fill="url(#j87rrn9zci)"/>
        <path fill-rule="evenodd" clip-rule="evenodd" d="M88.678 167.23H69.2a16.094 16.094 0 0 1 0-2.233h5.444s3.078-5.882 9.8-5.581a29.566 29.566 0 0 1 3.467 3.148c1.244 1.697.767 4.666.767 4.666z" fill="url(#5xxnluo76j)"/>
        <path fill-rule="evenodd" clip-rule="evenodd" d="M43.467 168H19.61s.356-4.152.89-4.621a30.533 30.533 0 0 1 4.9-2.646l.51-.256c.211 0 4.445.803 5.99 3.806 3.813.453 7.648.699 11.488.737.115.989.141 1.986.078 2.98z" fill="url(#3qe2zjtwgk)"/>
        <path fill-rule="evenodd" clip-rule="evenodd" d="m69.156 166.102 19.61-.267-.021.904H69.167l-.011-.637zM19.611 167.219h23.89l-.012-.804h-23.7l-.178.804z" fill="#522F66"/>
        <path style="mix-blend-mode:multiply" opacity=".5" d="M29.834 157.385s6.588 3.002 8.322 5.335c0 0-6.111 1.474-6.6 2.367a11.2 11.2 0 0 0-.723 2.969h12.634a12.59 12.59 0 0 0-.556-4.8s-7.3-4.922-13.078-5.871z" fill="url(#okg0jif1yl)"/>
        <path style="mix-blend-mode:multiply" opacity=".5" d="M74.9 167.23s1.111-2.601-.311-4.197a5.373 5.373 0 0 0-2.789-1.864 16.039 16.039 0 0 1 11.211-3.483 16.033 16.033 0 0 0-7.205.579 16.104 16.104 0 0 0-6.228 3.685 26.032 26.032 0 0 0-.378 5.28h5.7z" fill="url(#e56snppbpm)"/>
        <path d="M77.778 163.334a9.093 9.093 0 0 0 5.189 0s-2.9-1.161-5.19 0zM26.189 163.736a1.728 1.728 0 0 1 2.344 0s-.444.737-2.344 0z" fill="#fff"/>
        <path d="M63.333 63.456s-2.933.983-5.8 1.73c-1.222.324-2.422.603-3.333.76-.924.133-1.856.197-2.789.19A42.087 42.087 0 0 1 45.8 65.7c-2.222-.335-3.944-.715-3.944-.715-7.623-6.697-14.723-21.855-14.723-21.855 1.69-4.007 6.2-5.112 6.2-5.112 3.267 7.121 11.111 14.444 13.334 16.04.145.116.297.224.455.324a15.136 15.136 0 0 0 4.834 1.328 10.5 10.5 0 0 0 5.077-.77c.8-.302 1.322-.558 1.322-.558s4.712-.715 6.745 1.328c2.033 2.042-1.767 7.746-1.767 7.746z" fill="url(#mpk8qkbr3n)"/>
        <path style="mix-blend-mode:multiply" opacity=".91" d="m57.5 65.186-6.167.95a42.087 42.087 0 0 1-5.61-.436c1.621-4.13 1.255-9.12.91-11.642.146.116.298.224.456.324a15.136 15.136 0 0 0 4.833 1.328A10.5 10.5 0 0 0 57 54.94l.5 10.246z" fill="url(#k7rv2dammo)"/>
        <path fill-rule="evenodd" clip-rule="evenodd" d="M51.945 55.185s1.322 8.807-.745 15.203l13.034-2.233 1.022-14.254-13.311 1.284z" fill="url(#vbzoxsr8wp)"/>
        <path style="mix-blend-mode:multiply" opacity=".5" d="M63.333 63.456s-2.933.983-5.8 1.73c-1.222.324-2.422.603-3.333.76-.924.133-1.856.197-2.789.19A42.087 42.087 0 0 1 45.8 65.7c-2.222-.335-3.944-.715-3.944-.715-7.623-6.697-14.723-21.855-14.723-21.855 1.69-4.007 6.2-5.112 6.2-5.112 3.267 7.121 11.111 14.444 13.334 16.04.145.116.297.224.455.324a15.136 15.136 0 0 0 4.834 1.328 10.5 10.5 0 0 0 5.077-.77c.8-.302 1.322-.558 1.322-.558s4.712-.715 6.745 1.328c2.033 2.042-1.767 7.746-1.767 7.746z" fill="url(#z13pwg45gq)"/>
        <path d="M70.222 56.346a9.13 9.13 0 0 0-1.033 4.532s-8.011 3.348-10.145 3.07c-2.133-.28 1.111-3.16 1.111-3.16a11.787 11.787 0 0 0 1.456-4.04l8.611-.402z" fill="#CC5268"/>
        <path style="mix-blend-mode:multiply" opacity=".5" fill-rule="evenodd" clip-rule="evenodd" d="M88.678 167.23H69.2a16.094 16.094 0 0 1 0-2.233 29.44 29.44 0 0 1 .389-3.08 15.844 15.844 0 0 1 6.22-3.712c2.33-.74 4.798-.929 7.213-.552.337.696.823 1.31 1.422 1.797a29.478 29.478 0 0 1 3.467 3.148c1.244 1.663.767 4.632.767 4.632z" fill="url(#b3ospvg2or)"/>
        <path style="mix-blend-mode:multiply" opacity=".5" fill-rule="evenodd" clip-rule="evenodd" d="M43.467 168H19.61s.356-4.152.89-4.621a30.45 30.45 0 0 1 4.9-2.645l.51-.257a14.292 14.292 0 0 0 3.923-3.092c6.133 1.35 13.077 5.871 13.077 5.871.247.592.408 1.216.478 1.853.11.96.136 1.927.078 2.891z" fill="url(#h0gasulq0s)"/>
        <path style="mix-blend-mode:multiply" opacity=".5" d="M37.267 157.385a57.965 57.965 0 0 0 12.577 2.779 13.687 13.687 0 0 1-6.933 4.923v-1.831c-3.4-2.132-13.078-5.871-13.078-5.871l-.71 1.004a49.498 49.498 0 0 1-1.345-5.313v-1.451s2.589 3.349 9.489 5.76z" fill="url(#p87egcl2it)"/>
        <path style="mix-blend-mode:multiply" opacity=".5" d="M84.444 151.614s-11.633-.815-17.3 9.242a94.9 94.9 0 0 0 2.59-13.316 41.114 41.114 0 0 1-4.445 5.492s-1.956-4.99-1.956-6.151c0-1.16.167-16.899 1.323-18.852 1.155-1.954 6.377-5.157 7.7-4.621 1.322.535 3.977 7.657 4.166 8.148a75.958 75.958 0 0 1-1.567-13.395l-5.2-3.929-9.233-1.618-18.1-3.159-.566 6.217 7.955 6.452s.578 5.871 2.345 8.93c0 0-3.467 11.921-4.034 15.481a48.703 48.703 0 0 1-3.066-9.744 41.693 41.693 0 0 0 4.766 23.161c-.1-.614-.989-5.581-1.044-6.34-.056-.759 2.333-16.319 4.666-21.197 0 0 4.011.893 4.6 1.429.59.536 4.178 8.718 4.178 9.789a20.183 20.183 0 0 1 0 3.784c-.233.48 2.533 7.177 2.889 9.432.356 2.255.3 5.336.411 5.581a31.243 31.243 0 0 0 4.1 1.831v-2.367s6.178-5.134 13.145-4.297l1.3 1.451a19.988 19.988 0 0 1 0-4.61c.144-1.272.3-2.21.377-2.824zm-27.777-24.367-4.511-.904a28.847 28.847 0 0 1-1.634-6.295l6.411-.257a19.712 19.712 0 0 0-.266 7.456z" fill="url(#2s00xy1mou)"/>
        <path style="mix-blend-mode:multiply" opacity=".5" d="M80.656 149.069a17.257 17.257 0 0 0-7.778 1.641v-12.423s-4.133 11.284-3.722 17.491c0 0 8.578-5.336 15.222-4.934l-3.722-1.775z" fill="url(#lnwf1qwsev)"/>
        <path style="mix-blend-mode:multiply" opacity=".5" d="M27.778 151.603s8.666-.614 13.01 0c0 0-3.277-7.557-2.832-10.146.444-2.59 1.855-13.696 1.855-13.696s-5.044 13.696-4.867 15.839c.169 2.03.221 4.069.156 6.105-.067.447-6.856 1.105-7.322 1.898z" fill="url(#h2qbyi3dlw)"/>
        <path style="mix-blend-mode:multiply" opacity=".5" d="m53.444 132.415-1.71-4.208 5.188 3.26 1.123 2.377-4.6-1.429z" fill="url(#by4u2zjnmx)"/>
        <path style="mix-blend-mode:multiply" opacity=".5" fill-rule="evenodd" clip-rule="evenodd" d="M88.678 167.23H69.2a16.094 16.094 0 0 1 0-2.233h5.444s3.078-5.882 9.8-5.581a29.566 29.566 0 0 1 3.467 3.148c1.244 1.697.767 4.666.767 4.666z" fill="url(#u6v1hrs2yy)"/>
        <path style="mix-blend-mode:multiply" opacity=".5" fill-rule="evenodd" clip-rule="evenodd" d="M43.467 168H19.61s.356-4.152.89-4.621a30.533 30.533 0 0 1 4.9-2.646l.51-.256c.211 0 4.445.803 5.99 3.806 3.813.453 7.648.699 11.488.737.115.989.141 1.986.078 2.98z" fill="url(#pcux6zk0vz)"/>
        <path style="mix-blend-mode:multiply" opacity=".5" fill-rule="evenodd" clip-rule="evenodd" d="m69.156 166.102 19.61-.267-.021.904H69.167l-.011-.637z" fill="url(#3erky2s42A)"/>
        <path style="mix-blend-mode:multiply" opacity=".5" fill-rule="evenodd" clip-rule="evenodd" d="M19.611 167.219h23.89l-.012-.804h-23.7l-.178.804z" fill="url(#megb1zq1nB)"/>
        <path style="mix-blend-mode:multiply" opacity=".5" d="M29.834 157.385s6.588 3.002 8.322 5.335c0 0-6.111 1.474-6.6 2.367a11.2 11.2 0 0 0-.723 2.969h12.634a12.59 12.59 0 0 0-.556-4.8s-7.3-4.922-13.078-5.871z" fill="url(#2lnr0sfg7C)"/>
        <path style="mix-blend-mode:multiply" opacity=".5" d="M74.9 167.23s1.111-2.601-.311-4.197a5.373 5.373 0 0 0-2.789-1.864 16.039 16.039 0 0 1 11.211-3.483 16.033 16.033 0 0 0-7.205.579 16.104 16.104 0 0 0-6.228 3.685 26.032 26.032 0 0 0-.378 5.28h5.7z" fill="url(#29933bfwrD)"/>
        <path style="mix-blend-mode:multiply" opacity=".5" d="M77.778 163.334a9.093 9.093 0 0 0 5.189 0s-2.9-1.161-5.19 0z" fill="url(#ig6mcvs3mE)"/>
        <path style="mix-blend-mode:multiply" opacity=".5" d="M26.189 163.736a1.728 1.728 0 0 1 2.344 0s-.444.737-2.344 0z" fill="url(#x0b3og251F)"/>
        <path d="M76.4 112.792c.19.897.309 1.808.355 2.724a17.757 17.757 0 0 1-1.288 3.349 2.516 2.516 0 0 0-1.011-.994c-.59-.245-10.623-.803-19.745 2.724-1.111.446-5.844.178-9.555-4.722a13.57 13.57 0 0 1-2.823-9.51c.02-.299.073-.594.156-.882.516-.711.983-1.457 1.4-2.232.066-.346.666-9.175 1.833-17.58 0-.246.078-.536.122-.837.423-2.947.911-5.793 1.478-8.171v-.067a27.287 27.287 0 0 1 1.111-3.628C51.39 65.5 59.878 57.853 59.878 57.853l1.744-1.116a14.77 14.77 0 0 1-1.444 4.04s-2.056 1.596.533 2.132 7.4-2.779 8.511-3.08a9.13 9.13 0 0 1 3.389 4.8 44.58 44.58 0 0 1-.244 7.277c-.445 6.54-1.112 15.716.244 21.04 2.033 8.204 4.811 13.652 4.867 14.902.055 1.25-1.19 4.465-1.078 4.944z" fill="url(#jamhxfg1qG)"/>
        <path fill-rule="evenodd" clip-rule="evenodd" d="M66.5 82.008s1.689 11.485 3.078 15.626c1.389 4.142 4.444 6.262 5.122 7.278.678 1.016.122 6.999.4 7.121a11.046 11.046 0 0 1 1.656 3.45 6.166 6.166 0 0 0-.356-2.724 6.257 6.257 0 0 1 0-2.824c.206-1.345.314-2.703.322-4.063a11.22 11.22 0 0 0-2.8-3.94c-2.422-2.344-2.7-4.577-3.166-8.729-.467-4.152-1.823-14.734-1.823-14.734L66.5 82.008z" fill="url(#p52kj5jzeH)"/>
        <path d="M92.522 28.943c-.178 9.521-7.178 20.907-14.166 24.813-6.99 3.907-16.567 4.142-23.334 2.668-4.244-.937-8-4.889-10-8.784a12.053 12.053 0 0 1-1.466-5.224c0-4.621 3.533-6.05 4.689-7.814.205-.323.39-.658.555-1.004a.962.962 0 0 1 .067-.145 68.127 68.127 0 0 0 2.744-8.93 18 18 0 0 1 3.74-7.35 17.894 17.894 0 0 1 6.616-4.895C74.633 6.764 92.7 19.422 92.522 28.943z" fill="url(#2147iogmlI)"/>
        <path fill-rule="evenodd" clip-rule="evenodd" d="M49.8 63.959s-.9 16.932.744 23.574c0 0 4.023-5.224 1.545-24.2l-2.289.626z" fill="url(#xmj8qkhzpJ)"/>
        <path style="mix-blend-mode:multiply" opacity=".6" d="M92.522 28.943c-.177 9.521-7.177 20.907-14.166 24.813-6.99 3.907-16.567 4.142-23.333 2.668-4.245-.937-8-4.889-10-8.784 0 0 4.122 5.502 7.777 6.809 3.656 1.305 13.167 1.116 19.245-1.998 6.078-3.115 7.9-9.712 7.489-10.76-.412-1.05-2.223-.425-2.223-.425s-8.666 5.581-13.989 1.25c-3.866-3.18 2.223-18.975 6.412-22.1 0 0 8.41 5.458 9.288 11.686a11.75 11.75 0 0 0 2.067-8.07c-.533-4.81-4.944-7.814-10.289-8.193-5.344-.38-7.777 1.038-7.777 1.038s-5.145-.223-6.823 1.53a69.909 69.909 0 0 1 1.5 8.65c.245 3.348-2.633 9.041-3.478 9.71a7.812 7.812 0 0 1-5.555.548c-1.389-.547-.356-3.126-.067-3.762a.991.991 0 0 1 .067-.145 68.13 68.13 0 0 0 2.744-8.93 17.999 17.999 0 0 1 3.836-7.36 17.892 17.892 0 0 1 6.72-4.84C74.634 6.764 92.7 19.422 92.522 28.943z" fill="url(#qmk30u8dkK)"/>
        <path fill-rule="evenodd" clip-rule="evenodd" d="M65.666 82.9s-.155 10.046 2.545 15.505a25.227 25.227 0 0 0 4.7 7.121c.567.804.433 4.844.656 5.581.222.737 2.133 4.186 2.222 4.755.089.569-.89 2.232-.89 2.232a3.501 3.501 0 0 0-2.032-.479 1.955 1.955 0 0 0 .61-1.887c-.222-1.239-1.544-3.46-1.855-4.889-.311-1.429-.178-3.873-.622-4.755-.445-.882-4.911-4.208-6.667-10.682-1.755-6.474-.933-9.8-.933-9.8l2.267-2.702z" fill="url(#hzd6pj9l9L)"/>
        <path style="mix-blend-mode:multiply" opacity=".5" d="M54.122 112.826c6.467-5.581 21.711-8.014 21.711-8.014-.822-3.728-6.744-9.455-6.744-9.455-9.222-2.846-12.934-5.045-12.934-5.045l16.2-18.384c-.444 6.541-1.11 15.716.245 21.04 2.033 8.205 4.81 13.652 4.867 14.902.055 1.25-1.178 4.465-1.112 4.923-5.533-4.03-22.233.033-22.233.033z" fill="url(#epz9maissM)"/>
        <path d="M93.056 34.223a48.597 48.597 0 0 1-6.2 11.865c-2.122-.268-6.034 1.775-6.311 1.909.222-.28 3.844-4.755 4.255-7.334.297-2.5.435-5.016.411-7.534l.978-3.672a10.645 10.645 0 0 0-1.389-7.814 5.462 5.462 0 0 1-2.767-1.7 5.503 5.503 0 0 1-1.322-2.977s-.944-2.232-4.833-3.025c-3.889-.792-10.989 1.686-10.989 1.686a15.3 15.3 0 0 1-4.655-1.663 20.69 20.69 0 0 0-3.9 1.83 17.925 17.925 0 0 0-5.134 2.322 10.484 10.484 0 0 1 2.144-3.921 10.426 10.426 0 0 1 3.578-2.665 7.84 7.84 0 0 1 0-8.416 4.355 4.355 0 0 0 1.967 1.987c-.143-1.76.2-3.524.989-5.101 5.189 4.688 13.867 6.697 13.867 6.697 3.422.357 6.666 3.438 6.666 3.438a7.816 7.816 0 0 1 2.834-4.264c-1.112 3.438.944 9.488 2.944 11.263 2 1.774 7.433 3.862 7.778 11.33a16.61 16.61 0 0 1-.911 5.759z" fill="url(#f9q71rxj8N)"/>
        <path d="M69.889 20.404A6.412 6.412 0 0 0 70 24.021s4.6 2.132 6.489 4.152a14.091 14.091 0 0 1 2.655 3.907 17.502 17.502 0 0 0-3.324-6.881 17.405 17.405 0 0 0-5.931-4.795z" fill="url(#4lyntkkuoO)"/>
        <path d="M55.633 16.866s2.056 3.159 2.222 9.689c0 0-1.522-7.68-4.51-6.441-.012-.022.755-2.936 2.288-3.248z" fill="url(#oy0ngfhjrP)"/>
        <path d="M63.767 34.602s1.622-4.91 5.822-4.956c3.389 0 6.2 3.55 5.767 9.22l-11.59-4.264z" fill="#6D3A51"/>
        <path d="M57.5 40.35s-1.233-3.136-2.566-3.27c-1.334-.134-4.19 1.462-4.19 1.462a4.778 4.778 0 0 0 2.59 1.809 9.247 9.247 0 0 0 4.166 0z" fill="#F58E6F"/>
        <path d="M62.889 39.849c-.611-3.115 1.478-8.718 6.2-9.131 4.722-.413 7.456 6.262 5.822 9.957-1.633 3.694-11.244 3.203-12.022-.826z" fill="url(#3g2va08kdQ)"/>
        <path fill-rule="evenodd" clip-rule="evenodd" d="M50.745 38.543A5.656 5.656 0 0 0 54 40.06c2.89.513 3.5.29 3.5.29a.816.816 0 0 1-.51 1.35c-.823.257-3.434 1.43-5.556.369-.956-.469-1.434-2.891-.69-3.527z" fill="#DD6668"/>
        <path d="M48.889 34.111c-.178 1.407.078 2.657 1.111 2.891 1.036.175 2.1.026 3.05-.425a5.154 5.154 0 0 0 2.261-2.097c.956-1.686.8-8.283-1.566-9.008-1.934-.625-4.49 5.893-4.856 8.64z" fill="url(#s1wqwefi4R)"/>
        <path fill-rule="evenodd" clip-rule="evenodd" d="M56.989 31.432s-1.6 4.354-3.09 5.325c-1.002.568-2.08.992-3.2 1.26-.832.291-.888 2.959.734 4.053 0 0-1.755-2.233-.689-3.527.456-.525 2.79-.58 3.878-1.809a15.012 15.012 0 0 0 2.367-5.302z" fill="#CC5268"/>
        <path fill-rule="evenodd" clip-rule="evenodd" d="M54.122 42.092s-1.111-1.496 2.767-.491c0 0-.59 0-1.5.156a3.596 3.596 0 0 0-1.267.335z" fill="#A13751"/>
        <path d="M50.378 44.235c.426.42.938.744 1.5.949a45.1 45.1 0 0 0 7.255.536 12.435 12.435 0 0 0 3.334-.38l.288.38a25.878 25.878 0 0 1-6.21 1.752c-3.112.38-4.523 0-5.09-.301-.566-.302-1.11-2.367-1.11-2.367l.033-.569z" fill="#8B2E45"/>
        <path d="M51.2 44.871s.3 1.786.911 2.233c.611.446 4.078.558 6.411-.145l1.856-1.25s-7.411.212-9.178-.838z" fill="#FFEBED"/>
        <path style="mix-blend-mode:multiply" opacity=".6" d="m61.755 44.648.723-.357a4.6 4.6 0 0 1 1 2.645 13.29 13.29 0 0 0-1.723-2.288z" fill="url(#lejx71u02S)"/>
        <path d="M70.444 37.237c-1.233 2.5-3.622 3.84-5.355 2.946-1.734-.893-2.134-3.572-.9-6.083 1.233-2.511 3.61-3.84 5.344-2.991 1.733.848 2.133 3.616.911 6.128z" fill="url(#snwohgklyT)"/>
        <path d="M69.345 36.545c-.9 1.83-2.645 2.812-3.9 2.232-1.256-.58-1.556-2.612-.667-4.465.889-1.853 2.644-2.801 3.9-2.232 1.255.569 1.556 2.645.667 4.465z" fill="#402F40"/>
        <path d="M53.789 30.952c-.934 2.623-2.49 4.465-3.467 4.12-.978-.347-1.022-2.758-.089-5.392.934-2.634 2.478-4.465 3.467-4.13.989.335 1.022 2.768.089 5.402z" fill="url(#9jq91ufi7U)"/>
        <path d="M52.811 30.584c-.678 1.92-1.811 3.26-2.522 3.014-.711-.246-.745-2.02-.067-3.94.678-1.92 1.811-3.26 2.522-3.003.711.257.745 2.01.067 3.929z" fill="#402F40"/>
        <path d="M71.789 36.031a.84.84 0 0 1-.507.781.83.83 0 0 1-1.143-.602.842.842 0 0 1 .352-.863.83.83 0 0 1 .464-.142.82.82 0 0 1 .77.507c.042.101.064.21.064.32zM54.122 30.327c.393 0 .711-.32.711-.714a.713.713 0 0 0-.71-.715.713.713 0 0 0-.712.715c0 .395.319.714.711.714z" fill="#fff"/>
        <path d="M51.2 27.67s1.222-2.734 2.922-2.645c1.7.09 2.49 6.106 1.49 8.93 0 0 .521-5.916-2.223-7.69-.056-.023-1.067-.157-2.189 1.406z" fill="#6D3A51"/>
        <path d="M83.255 5.815a11.986 11.986 0 0 0-2.422 9.365c.823 5.816 6.434 3.684 6.434 3.684s-4.311-3.617-4.011-13.049z" fill="url(#rrrluj01pV)"/>
        <path d="M59.878 0s-1.311 5.581 1.389 8.561C63.967 11.541 72.6 6.33 72.6 6.33A39.862 39.862 0 0 1 59.878 0z" fill="url(#nc9jo0kujW)"/>
        <path style="mix-blend-mode:multiply" opacity=".91" d="m56.922 11.564 3.334 2.433-3.59 1.63a7.103 7.103 0 0 1-1.4-3.137 8.325 8.325 0 0 1 1.656-.926z" fill="url(#tq5bltf5uX)"/>
        <path style="mix-blend-mode:multiply" opacity=".91" d="M56.922 3.148s.267 2.757 3.456 6.362a34.008 34.008 0 0 1 4.511 6.117s-6.344-.949-8.333-4.71c-1.99-3.762.366-7.77.366-7.77z" fill="url(#a6np0501hY)"/>
        <path style="mix-blend-mode:multiply" opacity=".91" d="M93.055 34.223a48.597 48.597 0 0 1-6.2 11.865c-2.122-.268-6.033 1.775-6.31 1.909.222-.28 3.844-4.755 4.255-7.334.297-2.5.435-5.016.411-7.534l.978-3.672a10.645 10.645 0 0 0-1.389-7.814c1.718.404 3.48.584 5.244.536a11.085 11.085 0 0 1-3.244 1.373 22.42 22.42 0 0 0 1.344 8.483 3.532 3.532 0 0 0 1.95 2.242 3.496 3.496 0 0 0 2.962-.054z" fill="url(#vt6eflz8rZ)"/>
        <path d="M82.111 47.115s4.445-2.076 8.233-.268c3.79 1.808 0 9.41-5.966 10.85-5.967 1.44-7.545-2.333-7.256-3.784.29-1.451 4.99-6.798 4.99-6.798z" fill="url(#vw4swz1chaa)"/>
        <path style="mix-blend-mode:multiply" opacity=".6" fill-rule="evenodd" clip-rule="evenodd" d="M80.378 50.609s3.956-2.233 6.878-1.172c2.922 1.06.366 5.58.366 5.58s-.066-.747-1.11-1.116a10.434 10.434 0 0 1-5.123 1.72s4.033-1.05 4.889-2.624c0 0-3.256 2.556-5.556 1.351-2.3-1.206-.344-3.74-.344-3.74z" fill="url(#0n81cl0onab)"/>
        <path fill-rule="evenodd" clip-rule="evenodd" d="M79.644 52.953s3.045.982 4.345-.09a2.234 2.234 0 0 0 .667-2.567 6.087 6.087 0 0 0-4.056.737 3.422 3.422 0 0 0-.956 1.92z" fill="#CC5268"/>
        <path d="M72.911 46.602c.571 0 1.034-.465 1.034-1.038 0-.574-.463-1.039-1.034-1.039-.57 0-1.033.465-1.033 1.038 0 .574.463 1.039 1.033 1.039z" fill="#FFBBA6"/>
        <path d="M65.222 15.895s1.311-11.43 5.734-12.747c4.422-1.317 9.466 6.898 9.466 6.898a19.285 19.285 0 0 0-.3 4.465s-4.133-3.661-8.378-3.64c-4.244.023-6.522 5.024-6.522 5.024z" fill="url(#v3qxm3woqac)"/>
        <path style="mix-blend-mode:multiply" opacity=".5" d="M76.755 115.516a17.757 17.757 0 0 1-1.288 3.349 2.516 2.516 0 0 0-1.011-.994c-.59-.245-10.623-.803-19.745 2.724-1.111.446-5.844.178-9.555-4.722a13.57 13.57 0 0 1-2.823-9.51c.29 8.427 7.7 13.529 9.823 13.16 2.122-.368 5.033-1.685 13.088-3.46 8.056-1.775 11.511-.547 11.511-.547z" fill="url(#ux6i63vhjad)"/>
        <path style="mix-blend-mode:multiply" opacity=".75" d="M45.722 85.635s-.089 12.513 3.834 16.743c0 0-3.19-13.573.244-24.936l.711-2.232-3.166 1.284s-1.267 6.485-1.623 9.141z" fill="url(#1qrnrb4llae)"/>
        <path style="mix-blend-mode:multiply" opacity=".75" d="M56.156 90.312s7.51 3.896 11.489 4.565a110.046 110.046 0 0 0 3.61-20.18s-8.666 15.626-15.1 15.615z" fill="url(#wdo7qhfjjaf)"/>
        <path style="mix-blend-mode:multiply" opacity=".5" d="M55.433 111.81a46.199 46.199 0 0 1 20.4-6.998 10.978 10.978 0 0 1 1.611 3.46l-.689 2.857s.578-1.986-3.844-2.857c-4.422-.871-14.445 1.763-17.478 3.538z" fill="url(#gn5qbw1nwag)"/>
        <path fill-rule="evenodd" clip-rule="evenodd" d="M.611 82.845A7.233 7.233 0 0 0 0 84.63s.4 1.83 3.333 3.025c2.934 1.194 4.09-.179 4.09-.179l.41-.893s-1.11 1.261-3.833 0C1.278 85.323.489 84.151.611 82.844z" fill="url(#6pglasqz1ah)"/>
        <path fill-rule="evenodd" clip-rule="evenodd" d="M.611 82.845C1.8 80.49 9.189 83.537 8 86.327 6.81 89.117-.778 85.602.61 82.845z" fill="url(#kfm0f5gn6ai)"/>
        <path fill-rule="evenodd" clip-rule="evenodd" d="M.545 84.117a.953.953 0 0 1 0 .38c0 .134-.278.591-.278.591l-.156-.156c.194.445.474.847.823 1.183L.8 85.847l.311-.591h.178a4.467 4.467 0 0 1-.744-1.139z" fill="#FFA83B"/>
        <path fill-rule="evenodd" clip-rule="evenodd" d="M.589 84.229c.31.25.538.589.655.97a2.3 2.3 0 0 1-.655-.97z" fill="#FFFF54"/>
        <path fill-rule="evenodd" clip-rule="evenodd" d="M8.956 63.97 1.334 83.48s2.155 3.963 5.977 3.025l9.056-18.976-7.411-3.56z" fill="url(#cgbx49dudaj)"/>
        <path fill-rule="evenodd" clip-rule="evenodd" d="M5 67.709a10.827 10.827 0 0 0-.855 2.5s.566 2.567 4.744 4.208 5.733-.279 5.733-.279l.578-1.25s-1.567 1.775-5.367.067-5-3.415-4.833-5.246z" fill="url(#s7ctz5f2gak)"/>
        <path fill-rule="evenodd" clip-rule="evenodd" d="M5 67.709c1.644-3.349 12.022.904 10.367 4.81-1.656 3.908-12.3-.937-10.367-4.81z" fill="url(#czvd266toal)"/>
        <path fill-rule="evenodd" clip-rule="evenodd" d="M4.911 69.495c.03.173.03.35 0 .524-.066.19-.377.838-.377.838l-.2-.224c.262.617.639 1.178 1.11 1.652l-.188-.38.478-.825h.244a6.018 6.018 0 0 1-1.067-1.585z" fill="#FFA83B"/>
        <path fill-rule="evenodd" clip-rule="evenodd" d="M4.978 69.662c.43.345.747.812.91 1.34a3.271 3.271 0 0 1-.91-1.34z" fill="#FFFF54"/>
        <path fill-rule="evenodd" clip-rule="evenodd" d="M12.933 49.917 6.145 67.43c.013.998.314 1.97.866 2.8a5.15 5.15 0 0 0 2.245 1.877c3.933 1.82 5.977-.458 5.977-.458l7.834-17.033-10.134-4.7z" fill="url(#5wjj0yzzjam)"/>
        <path fill-rule="evenodd" clip-rule="evenodd" d="M9.033 50.843a15.441 15.441 0 0 0-1.255 3.639s.822 3.706 6.844 6.106c5.823 2.31 8.311-.413 8.311-.413l.834-1.809s-2.278 2.568-7.778.09S8.8 53.51 9.033 50.843z" fill="url(#8a65i918man)"/>
        <path fill-rule="evenodd" clip-rule="evenodd" d="M9.034 50.843c2.4-4.788 17.455 1.317 15.044 6.988-2.411 5.67-17.844-1.373-15.044-6.988z" fill="url(#lwkzln1rdao)"/>
        <path fill-rule="evenodd" clip-rule="evenodd" d="M8.889 53.444c.045.25.045.508 0 .759-.111.268-.556 1.205-.556 1.205l-.289-.323a7.68 7.68 0 0 0 1.667 2.4l-.267-.559.69-1.205.355.067a8.673 8.673 0 0 1-1.6-2.344z" fill="#FFA83B"/>
        <path fill-rule="evenodd" clip-rule="evenodd" d="M9 53.667a4.13 4.13 0 0 1 1.333 1.965A4.7 4.7 0 0 1 9 53.667z" fill="#FFFF54"/>
        <path fill-rule="evenodd" clip-rule="evenodd" d="m22.4 20.348 16.189 7.557-14.444 29.021s-2.812 2.735-8.356.157c-4.8-2.233-5.556-5.392-5.556-5.392L22.4 20.348z" fill="url(#5qaqgjpawap)"/>
        <path style="mix-blend-mode:multiply" opacity=".6" fill-rule="evenodd" clip-rule="evenodd" d="m19.845 27.023-1.334 3.349s4.523 9.008 13.334 11.017l3.777-7.59s-10.844-2.043-15.777-6.776z" fill="url(#jmjntmbwwaq)"/>
        <path fill-rule="evenodd" clip-rule="evenodd" d="M20.067 19.165a21.16 21.16 0 0 0-1.712 5.046s1.112 5.168 9.512 8.494c8.1 3.226 11.566-.558 11.566-.558l1.111-2.523s-3.166 3.583-10.844.134c-7.678-3.449-9.967-6.887-9.633-10.593z" fill="url(#u1zuodf6sar)"/>
        <path fill-rule="evenodd" clip-rule="evenodd" d="M20.067 19.165C23.4 12.468 44.356 20.995 41 28.876c-3.355 7.88-24.833-1.909-20.933-9.71z" fill="url(#swgse7dqpas)"/>
        <path fill-rule="evenodd" clip-rule="evenodd" d="M28.6 29.222a14.154 14.154 0 0 0 8.178 1.395 4.132 4.132 0 0 0 1.871-.661A4.155 4.155 0 0 0 40 28.496c1.256-2.723-1.8-6.82-6.811-9.152-5.011-2.333-10.1-2.01-11.356.725a4.204 4.204 0 0 0 .445 3.796 14.217 14.217 0 0 0 6.322 5.357z" fill="url(#fb368dca1at)"/>
        <path fill-rule="evenodd" clip-rule="evenodd" d="M28.6 29.222a14.154 14.154 0 0 0 8.178 1.395 3.182 3.182 0 0 0 1.8-1.596c1.111-2.444-1.611-6.117-6.111-8.204-4.5-2.087-9.056-1.808-10.189.648a3.296 3.296 0 0 0 0 2.4 14.216 14.216 0 0 0 6.322 5.357z" fill="url(#dfejsy60eau)"/>
        <path fill-rule="evenodd" clip-rule="evenodd" d="M29.8 20.192c1.355.357 1.911 1.362.822 2.59-1.089 1.228-7.567.268-7.844-.949-.278-1.217 3.944-2.478 7.022-1.64zM34.956 29.535c.066-.302 2.977-1.663 3.144-1.005.422 1.607-3.489 2.634-3.144 1.005z" fill="#ECD9CA" style="mix-blend-mode:soft-light"/>
        <path fill-rule="evenodd" clip-rule="evenodd" d="M19.889 22.77c.074.369.074.748 0 1.117-.145.368-.778 1.674-.778 1.674l-.4-.435a10.817 10.817 0 0 0 2.356 3.348l-.378-.759.955-1.674.5.09a12.282 12.282 0 0 1-2.255-3.36z" fill="#FFA83B"/>
        <path style="mix-blend-mode:screen" fill-rule="evenodd" clip-rule="evenodd" d="m39.278 30.874-.956 2.088a8.195 8.195 0 0 1-3.2.982l.567-2.155a8.623 8.623 0 0 0 3.589-.915z" fill="url(#30xx2nhp4av)"/>
        <path fill-rule="evenodd" clip-rule="evenodd" d="M20 23.094a5.771 5.771 0 0 1 1.856 2.724A6.698 6.698 0 0 1 20 23.094z" fill="#FFFF54"/>
        <path fill-rule="evenodd" clip-rule="evenodd" d="M18.622 30.617a8.599 8.599 0 0 0 1.878 2.87l-8.79 19.968a8.373 8.373 0 0 1-.955-2.746l7.867-20.092zM9.511 59.505a22.03 22.03 0 0 0 1.967 2.098l-4.011 8.718a5.591 5.591 0 0 1-1.112-2.31l3.156-8.506zM5.622 72.944c.374.64.873 1.199 1.467 1.64l-4.534 9.868s-.622-.123-.977-1.116l4.044-10.392z" fill="#953500" style="mix-blend-mode:screen" opacity=".5"/>
        <path style="mix-blend-mode:multiply" opacity=".6" fill-rule="evenodd" clip-rule="evenodd" d="m5.667 72.375-1.111 2.991s3.133 3.349 6.266 3.918l2.067-4.309s-3.222.827-7.222-2.6z" fill="url(#oc9ng3ia4aw)"/>
        <path style="mix-blend-mode:multiply" opacity=".6" fill-rule="evenodd" clip-rule="evenodd" d="m19.922 61.458-1.544 3.505s-5.911-1.116-9.056-5.715l.6-1.563a14.694 14.694 0 0 0 10 3.773z" fill="url(#7vmvwcwo0ax)"/>
        <path fill-rule="evenodd" clip-rule="evenodd" d="M30.878 42.26 22.4 57.239a3.834 3.834 0 0 0 1.556-.592l6.922-14.387zM14.956 71.326a4.494 4.494 0 0 1-1.778 1.015l4.444-6.91-2.666 5.895zM10.311 79.708l-3.144 6.508a5.01 5.01 0 0 1-1.711.19s1.91-1.195 4.855-6.698z" fill="#953500" style="mix-blend-mode:screen" opacity=".5"/>
        <path opacity=".5" fill-rule="evenodd" clip-rule="evenodd" d="M30.689 48.722a170.571 170.571 0 0 1-1.323 6.698 3.43 3.43 0 0 1-.844.1 3.72 3.72 0 0 1-3.034-1.53 3.76 3.76 0 0 1 1.847-5.785 3.717 3.717 0 0 1 3.354.529v-.012z" fill="#fff"/>
        <path style="mix-blend-mode:multiply" opacity=".5" d="M70.222 56.346a9.13 9.13 0 0 0-1.033 4.532s-8.011 3.348-10.145 3.07c-2.133-.28 1.111-3.16 1.111-3.16a11.787 11.787 0 0 0 1.456-4.04l8.611-.402z" fill="url(#kyxp40httay)"/>
        <path d="M71.556 73.19c-1.49 2.232-8.111 3.46-12.222 3.348h-3.89c-5.477 0-13.533.212-14.6 0-1.366-.257-4.444-1.998-8.277-6.005-3.567-3.75-6.845-11.274-7.233-12.211v-.067a20.544 20.544 0 0 1-8.467-3.349c-1.934-1.53-4.256-3.349-4.511-3.683-.256-.335-.434-1.184 0-1.407.433-.223 2.366.625 3.266 1.027.847.306 1.728.508 2.623.603a46.598 46.598 0 0 1-3.123-4.911c-.833-1.753-1.11-2.914-.922-3.416.19-.502 1.111-.28 1.111-.28l-.366-1.115a1.12 1.12 0 0 1 .646-1.176c.146-.065.305-.098.465-.097a18.35 18.35 0 0 1 3.51 2.869c1.112 1.116 3.268 2.78 3.268 2.78l.466-.246s-3.333-6.251-3.333-6.91a.985.985 0 0 1 .621-.904c.12-.047.25-.07.379-.067a11.25 11.25 0 0 1 3.222 3.282c1.311 1.875 5.056 6.44 5.056 6.44a1.68 1.68 0 0 0 .233-1.54c-.267-.938-1.111-1.462-1.111-3.471 0-2.01 1.255-3.103 1.778-2.869.522.234.6 1.552.877 2.49.278.937 1.845 3.46 1.978 5.424.133 1.964-2.055 5.681-2.055 6.106a27.64 27.64 0 0 0 5.722 6.853A23.392 23.392 0 0 0 39 62.15h.09c.71.413 1.466.826 2.221 1.195l.111.067a28.825 28.825 0 0 0 3.834 1.774 34.995 34.995 0 0 0 6.666-1.797 52.9 52.9 0 0 1 5.412-1.44 64.635 64.635 0 0 1 7.11-1.205c10-.893 8.612 10.247 7.112 12.446z" fill="url(#p8n70jc98az)"/>
        <path style="mix-blend-mode:multiply" opacity=".5" d="m57.333 61.95-1.878 14.51c-5.477 0-13.533.212-14.6 0-1.366-.257-4.444-1.998-8.277-6.005-3.567-3.75-6.845-11.274-7.234-12.211.567 1.06 6.1 11.162 11.867 13.093 6.078 2.065 8.367-4.13 7.867-5.269-.278-.625-2.09-1.763-3.678-2.668a28.83 28.83 0 0 0 3.833 1.775 34.994 34.994 0 0 0 6.667-1.797 52.903 52.903 0 0 1 5.433-1.429z" fill="url(#mifhj7wmoaA)"/>
        <path d="M64.589 84.207s6.666-7.646 7.778-12.279c1.11-4.632.722-10.046-3.156-12.077-3.92.212-7.811.795-11.622 1.741l6.666 4.778.334 17.837z" fill="url(#z3nwiucqlaB)"/>
        <path style="mix-blend-mode:multiply" opacity=".5" d="m57.333 61.95-1.878 14.51c-5.477 0-13.533.212-14.6 0-1.366-.257-4.444-1.998-8.277-6.005-3.567-3.75-6.845-11.274-7.234-12.211.567 1.06 6.1 11.162 11.867 13.093 6.078 2.065 8.367-4.13 7.867-5.269-.278-.625-2.09-1.763-3.678-2.668a28.83 28.83 0 0 0 3.833 1.775 34.994 34.994 0 0 0 6.667-1.797 52.903 52.903 0 0 1 5.433-1.429z" fill="url(#ru0w5r9sdaC)"/>
        <path fill-rule="evenodd" clip-rule="evenodd" d="M49.8 63.959s1.11-2.467 1.678-2.601c.566-.134.666.536 1.2.759.533.223 9.91-1.987 14.444-2.02 0 0 2.967 11.92-1.5 22.803 0 0-5.144 7.59-9.511 7.412-4.367-.178-5.556-2.78-5.556-2.78s.712 0 1.423-5.87c.71-5.872-.767-18.117-.767-18.117l-1.411.413z" fill="url(#ibfpgr4hraD)"/>
        <path style="mix-blend-mode:multiply" opacity=".91" d="M49.8 63.959a17.767 17.767 0 0 1 .333 12.602h2.011s-.233-10.27-.944-12.993l-1.4.39z" fill="url(#86x0zjvmqaE)"/>
        <path style="mix-blend-mode:multiply" opacity=".91" d="M15.245 42.795s3.789 5.302 5.433 6.697a21.847 21.847 0 0 1-5.845-6.697h.412z" fill="url(#p9hf8713gaF)"/>
        <path style="mix-blend-mode:multiply" opacity=".5" d="M55.433 81.483a9.437 9.437 0 0 0 6.322 0c3.667-1.194 7.945-8.539 7.945-8.539a107.662 107.662 0 0 1-15.723 2.49 35.49 35.49 0 0 0 10.467 1.182s-1.7 6.106-9.01 4.867z" fill="url(#emlcb8kojaG)"/>
        <path style="mix-blend-mode:soft-light" opacity=".82" d="M43.556 103.885a11.175 11.175 0 0 0-1.178 2.087 27.656 27.656 0 0 0 7.178 8.93c2.955 2.009 8.889-.915 13.755-1.35l4.9-.436s-8.322-1.607-15.789.436c0 0 8.79-6.407 14.645-7.2 0 0-11.011 2.467-15.333 2.936-3.345.323-8.178-5.403-8.178-5.403z" fill="url(#193evqcm1aH)"/>
        <g style="mix-blend-mode:multiply">
            <path style="mix-blend-mode:multiply" opacity=".5" d="M54.122 112.826c6.467-5.581 21.711-8.014 21.711-8.014-.822-3.728-6.744-9.455-6.744-9.455-9.222-2.846-12.934-5.045-12.934-5.045l16.2-18.384c-.444 6.541-1.11 15.716.245 21.04 2.033 8.205 4.81 13.652 4.867 14.902.055 1.25-1.178 4.465-1.112 4.923-5.533-4.03-22.233.033-22.233.033z" fill="url(#ym9vtz66faI)"/>
            <path style="mix-blend-mode:multiply" d="M93.055 34.223a48.6 48.6 0 0 1-6.2 11.865c-2.122-.268-6.033 1.775-6.31 1.909.221-.28 3.844-4.755 4.255-7.334.297-2.5.434-5.016.41-7.534l.979-3.672a10.645 10.645 0 0 0-1.39-7.814 5.462 5.462 0 0 1-2.767-1.7 5.503 5.503 0 0 1-1.321-2.977s-.945-2.232-4.834-3.025c-3.888-.792-10.988 1.686-10.988 1.686a15.3 15.3 0 0 1-4.656-1.663 20.69 20.69 0 0 0-3.9 1.83 17.925 17.925 0 0 0-5.133 2.322 10.484 10.484 0 0 1 2.144-3.921 10.426 10.426 0 0 1 3.578-2.665 7.84 7.84 0 0 1 0-8.416 4.355 4.355 0 0 0 1.967 1.987c-.143-1.76.199-3.524.988-5.101 5.19 4.688 13.867 6.697 13.867 6.697 3.422.357 6.667 3.438 6.667 3.438a7.816 7.816 0 0 1 2.833-4.264c-1.111 3.438.945 9.488 2.945 11.263 2 1.774 7.433 3.862 7.777 11.33.039 1.958-.27 3.908-.91 5.759z" fill="url(#0emozdibtaJ)"/>
            <path style="mix-blend-mode:multiply" d="M69.889 20.404A6.412 6.412 0 0 0 70 24.021s4.6 2.132 6.489 4.152a14.091 14.091 0 0 1 2.655 3.907 17.502 17.502 0 0 0-3.324-6.881 17.405 17.405 0 0 0-5.931-4.795z" fill="url(#clvg6bbafaK)"/>
            <path style="mix-blend-mode:multiply" d="M55.633 16.866s2.056 3.159 2.222 9.689c0 0-1.522-7.68-4.51-6.441-.012-.022.755-2.936 2.288-3.248z" fill="url(#296m4l4fgaL)"/>
            <path style="mix-blend-mode:multiply" d="M83.255 5.815a11.986 11.986 0 0 0-2.422 9.365c.823 5.816 6.434 3.684 6.434 3.684s-4.311-3.617-4.011-13.049z" fill="url(#p2sp8on9waM)"/>
            <path style="mix-blend-mode:multiply" d="M59.878 0s-1.311 5.581 1.389 8.561C63.967 11.541 72.6 6.33 72.6 6.33A39.862 39.862 0 0 1 59.878 0z" fill="url(#qtoqsm9tdaN)"/>
            <path style="mix-blend-mode:multiply" opacity=".91" d="m56.922 11.564 3.334 2.433-3.59 1.63a7.103 7.103 0 0 1-1.4-3.137 8.325 8.325 0 0 1 1.656-.926z" fill="url(#en0lmtfoxaO)"/>
            <path style="mix-blend-mode:multiply" opacity=".91" d="M56.922 3.148s.267 2.757 3.456 6.362a34.003 34.003 0 0 1 4.51 6.117s-6.344-.949-8.333-4.71c-1.989-3.762.367-7.77.367-7.77z" fill="url(#ewhy5x8reaP)"/>
            <path style="mix-blend-mode:multiply" opacity=".91" d="M93.055 34.223a48.597 48.597 0 0 1-6.2 11.865c-2.122-.268-6.033 1.775-6.31 1.909.222-.28 3.844-4.755 4.255-7.334.297-2.5.435-5.016.411-7.534l.978-3.672a10.645 10.645 0 0 0-1.389-7.814c1.718.404 3.48.584 5.244.536a11.085 11.085 0 0 1-3.244 1.373 22.42 22.42 0 0 0 1.344 8.483 3.532 3.532 0 0 0 1.95 2.242 3.496 3.496 0 0 0 2.962-.054z" fill="url(#ajc7y72v6aQ)"/>
            <path style="mix-blend-mode:multiply" d="M65.222 15.895s1.311-11.43 5.734-12.747c4.422-1.317 9.466 6.898 9.466 6.898a19.285 19.285 0 0 0-.3 4.465s-4.133-3.661-8.378-3.64c-4.244.023-6.522 5.024-6.522 5.024z" fill="url(#sa2qqewhraR)"/>
            <path style="mix-blend-mode:multiply" opacity=".5" d="M76.755 115.516a17.757 17.757 0 0 1-1.288 3.349 2.516 2.516 0 0 0-1.011-.994c-.59-.245-10.623-.803-19.745 2.724-1.111.446-5.844.178-9.555-4.722a13.57 13.57 0 0 1-2.823-9.51c.29 8.427 7.7 13.529 9.823 13.16 2.122-.368 5.033-1.685 13.088-3.46 8.056-1.775 11.511-.547 11.511-.547z" fill="url(#3jw5nz8dgaS)"/>
            <path style="mix-blend-mode:multiply" opacity=".75" d="M56.155 90.312s7.511 3.896 11.49 4.565a110.054 110.054 0 0 0 3.61-20.18s-8.666 15.626-15.1 15.615z" fill="url(#9egeuf6ywaT)"/>
            <path style="mix-blend-mode:multiply" opacity=".5" d="M55.433 111.81a46.199 46.199 0 0 1 20.4-6.998 10.978 10.978 0 0 1 1.611 3.46l-.689 2.857s.578-1.986-3.844-2.857c-4.422-.871-14.445 1.763-17.478 3.538z" fill="url(#3qg3z5o5vaU)"/>
            <path style="mix-blend-mode:multiply" d="M64.589 84.207s6.666-7.646 7.778-12.279c1.11-4.632.722-10.046-3.156-12.077-3.92.212-7.811.795-11.622 1.741l6.666 4.778.334 17.837z" fill="url(#1y5z13bmpaV)"/>
            <path style="mix-blend-mode:multiply" opacity=".5" d="M55.433 81.483a9.437 9.437 0 0 0 6.322 0c3.667-1.194 7.945-8.539 7.945-8.539a107.662 107.662 0 0 1-15.723 2.49 35.49 35.49 0 0 0 10.467 1.182s-1.7 6.106-9.01 4.867z" fill="url(#sl68cd6hnaW)"/>
            <path style="mix-blend-mode:soft-light" opacity=".82" d="M43.556 103.885a11.175 11.175 0 0 0-1.178 2.087 27.656 27.656 0 0 0 7.178 8.93c2.955 2.009 8.889-.915 13.755-1.35l4.9-.436s-8.322-1.607-15.789.436c0 0 8.79-6.407 14.645-7.2 0 0-11.011 2.467-15.333 2.936-3.345.323-8.178-5.403-8.178-5.403z" fill="url(#t0na72xm0aX)"/>
        </g>
    </g>
    <defs>
        <linearGradient id="jcc68ofgzc" x1="56.056" y1="165.031" x2="56.056" y2="111.531" gradientUnits="userSpaceOnUse">
            <stop stop-color="#6D3138"/>
            <stop offset="1" stop-color="#600C31"/>
        </linearGradient>
        <linearGradient id="9lv5nn3wyd" x1="78.966" y1="167.23" x2="78.966" y2="157.485" gradientUnits="userSpaceOnUse">
            <stop stop-color="#D6023E"/>
            <stop offset=".99" stop-color="#FF432C"/>
        </linearGradient>
        <linearGradient id="eqpzasnhge" x1="697.965" y1="1755.07" x2="697.965" y2="1653.59" gradientUnits="userSpaceOnUse">
            <stop stop-color="#D6023E"/>
            <stop offset=".99" stop-color="#FF432C"/>
        </linearGradient>
        <linearGradient id="iwhqtuv9df" x1="27.778" y1="158.322" x2="49.844" y2="158.322" gradientUnits="userSpaceOnUse">
            <stop offset=".01" stop-color="#63517C"/>
            <stop offset="1" stop-color="#8E72B3"/>
        </linearGradient>
        <linearGradient id="y5qmrmybdg" x1="1646.18" y1="6830.27" x2="3277.33" y2="6830.27" gradientUnits="userSpaceOnUse">
            <stop offset=".01" stop-color="#63517C"/>
            <stop offset="1" stop-color="#8E72B3"/>
        </linearGradient>
        <linearGradient id="txnayb337h" x1="69.133" y1="147.038" x2="84.378" y2="147.038" gradientUnits="userSpaceOnUse">
            <stop offset=".02" stop-color="#F0C2D6"/>
            <stop offset=".99" stop-color="#BD89C4"/>
        </linearGradient>
        <linearGradient id="j87rrn9zci" x1="345.579" y1="789.86" x2="381.426" y2="789.86" gradientUnits="userSpaceOnUse">
            <stop offset=".01" stop-color="#63517C"/>
            <stop offset="1" stop-color="#8E72B3"/>
        </linearGradient>
        <linearGradient id="5xxnluo76j" x1="78.966" y1="167.23" x2="78.966" y2="159.439" gradientUnits="userSpaceOnUse">
            <stop stop-color="#FFD3C4"/>
            <stop offset="1" stop-color="#FFF3C1"/>
        </linearGradient>
        <linearGradient id="3qe2zjtwgk" x1="698.067" y1="1292.8" x2="698.067" y2="1242.32" gradientUnits="userSpaceOnUse">
            <stop stop-color="#FFD3C4"/>
            <stop offset="1" stop-color="#FFF3C1"/>
        </linearGradient>
        <linearGradient id="okg0jif1yl" x1="36.667" y1="168" x2="36.667" y2="157.329" gradientUnits="userSpaceOnUse">
            <stop offset=".01" stop-color="#93517C"/>
            <stop offset="1" stop-color="#C27289"/>
        </linearGradient>
        <linearGradient id="e56snppbpm" x1="1015.8" y1="1613.29" x2="1015.8" y2="1528.56" gradientUnits="userSpaceOnUse">
            <stop offset=".01" stop-color="#93517C"/>
            <stop offset="1" stop-color="#C27289"/>
        </linearGradient>
        <linearGradient id="mpk8qkbr3n" x1="46.367" y1="66.135" x2="46.367" y2="38.018" gradientUnits="userSpaceOnUse">
            <stop offset=".02" stop-color="#FF8359"/>
            <stop offset="1" stop-color="#FF8B7C"/>
        </linearGradient>
        <linearGradient id="k7rv2dammo" x1="592.8" y1="769.64" x2="592.8" y2="638.963" gradientUnits="userSpaceOnUse">
            <stop offset=".02" stop-color="#F0C2D6"/>
            <stop offset=".99" stop-color="#BD89C4"/>
        </linearGradient>
        <linearGradient id="vbzoxsr8wp" x1="58.222" y1="70.388" x2="58.222" y2="53.913" gradientUnits="userSpaceOnUse">
            <stop stop-color="#BDB3E7"/>
            <stop offset=".65" stop-color="#B2AEEB"/>
            <stop offset="1" stop-color="#AAE"/>
        </linearGradient>
        <linearGradient id="z13pwg45gq" x1="46.367" y1="66.135" x2="46.367" y2="38.018" gradientUnits="userSpaceOnUse">
            <stop offset=".29" stop-color="#D1E8FF"/>
            <stop offset=".51" stop-color="#BDCEE1"/>
            <stop offset=".83" stop-color="#A2ABBA"/>
            <stop offset=".99" stop-color="#989EAB"/>
        </linearGradient>
        <linearGradient id="b3ospvg2or" x1="1462.61" y1="1620.55" x2="1462.61" y2="1535.29" gradientUnits="userSpaceOnUse">
            <stop offset=".29" stop-color="#D1E8FF"/>
            <stop offset=".51" stop-color="#BDCEE1"/>
            <stop offset=".83" stop-color="#A2ABBA"/>
            <stop offset=".99" stop-color="#989EAB"/>
        </linearGradient>
        <linearGradient id="h0gasulq0s" x1="697.965" y1="1755.07" x2="697.965" y2="1653.59" gradientUnits="userSpaceOnUse">
            <stop offset=".29" stop-color="#D1E8FF"/>
            <stop offset=".51" stop-color="#BDCEE1"/>
            <stop offset=".83" stop-color="#A2ABBA"/>
            <stop offset=".99" stop-color="#989EAB"/>
        </linearGradient>
        <linearGradient id="p87egcl2it" x1="579.445" y1="2061" x2="1017.69" y2="2061" gradientUnits="userSpaceOnUse">
            <stop offset=".29" stop-color="#D1E8FF"/>
            <stop offset=".51" stop-color="#BDCEE1"/>
            <stop offset=".83" stop-color="#A2ABBA"/>
            <stop offset=".99" stop-color="#989EAB"/>
        </linearGradient>
        <linearGradient id="2s00xy1mou" x1="1646.18" y1="6830.27" x2="3277.33" y2="6830.27" gradientUnits="userSpaceOnUse">
            <stop offset=".29" stop-color="#D1E8FF"/>
            <stop offset=".51" stop-color="#BDCEE1"/>
            <stop offset=".83" stop-color="#A2ABBA"/>
            <stop offset=".99" stop-color="#989EAB"/>
        </linearGradient>
        <linearGradient id="lnwf1qwsev" x1="1018.04" y1="2442.37" x2="1227.29" y2="2442.37" gradientUnits="userSpaceOnUse">
            <stop offset=".29" stop-color="#D1E8FF"/>
            <stop offset=".51" stop-color="#BDCEE1"/>
            <stop offset=".83" stop-color="#A2ABBA"/>
            <stop offset=".99" stop-color="#989EAB"/>
        </linearGradient>
        <linearGradient id="h2qbyi3dlw" x1="353.316" y1="3111.37" x2="505.676" y2="3111.37" gradientUnits="userSpaceOnUse">
            <stop offset=".29" stop-color="#D1E8FF"/>
            <stop offset=".51" stop-color="#BDCEE1"/>
            <stop offset=".83" stop-color="#A2ABBA"/>
            <stop offset=".99" stop-color="#989EAB"/>
        </linearGradient>
        <linearGradient id="by4u2zjnmx" x1="345.579" y1="789.86" x2="381.426" y2="789.86" gradientUnits="userSpaceOnUse">
            <stop offset=".29" stop-color="#D1E8FF"/>
            <stop offset=".51" stop-color="#BDCEE1"/>
            <stop offset=".83" stop-color="#A2ABBA"/>
            <stop offset=".99" stop-color="#989EAB"/>
        </linearGradient>
        <linearGradient id="u6v1hrs2yy" x1="1462.61" y1="1331.69" x2="1462.61" y2="1277.08" gradientUnits="userSpaceOnUse">
            <stop offset=".29" stop-color="#D1E8FF"/>
            <stop offset=".51" stop-color="#BDCEE1"/>
            <stop offset=".83" stop-color="#A2ABBA"/>
            <stop offset=".99" stop-color="#989EAB"/>
        </linearGradient>
        <linearGradient id="pcux6zk0vz" x1="698.067" y1="1292.8" x2="698.067" y2="1242.32" gradientUnits="userSpaceOnUse">
            <stop offset=".29" stop-color="#D1E8FF"/>
            <stop offset=".51" stop-color="#BDCEE1"/>
            <stop offset=".83" stop-color="#A2ABBA"/>
            <stop offset=".99" stop-color="#989EAB"/>
        </linearGradient>
        <linearGradient id="3erky2s42A" x1="1289.75" y1="300.525" x2="1635.89" y2="300.525" gradientUnits="userSpaceOnUse">
            <stop offset=".29" stop-color="#D1E8FF"/>
            <stop offset=".51" stop-color="#BDCEE1"/>
            <stop offset=".83" stop-color="#A2ABBA"/>
            <stop offset=".99" stop-color="#989EAB"/>
        </linearGradient>
        <linearGradient id="megb1zq1nB" x1="441.25" y1="286.525" x2="954.862" y2="286.525" gradientUnits="userSpaceOnUse">
            <stop offset=".29" stop-color="#D1E8FF"/>
            <stop offset=".51" stop-color="#BDCEE1"/>
            <stop offset=".83" stop-color="#A2ABBA"/>
            <stop offset=".99" stop-color="#989EAB"/>
        </linearGradient>
        <linearGradient id="2lnr0sfg7C" x1="480.992" y1="1763.47" x2="480.992" y2="1661.45" gradientUnits="userSpaceOnUse">
            <stop offset=".29" stop-color="#D1E8FF"/>
            <stop offset=".51" stop-color="#BDCEE1"/>
            <stop offset=".83" stop-color="#A2ABBA"/>
            <stop offset=".99" stop-color="#989EAB"/>
        </linearGradient>
        <linearGradient id="29933bfwrD" x1="1015.8" y1="1613.29" x2="1015.8" y2="1528.56" gradientUnits="userSpaceOnUse">
            <stop offset=".29" stop-color="#D1E8FF"/>
            <stop offset=".51" stop-color="#BDCEE1"/>
            <stop offset=".83" stop-color="#A2ABBA"/>
            <stop offset=".99" stop-color="#989EAB"/>
        </linearGradient>
        <linearGradient id="ig6mcvs3mE" x1="441.208" y1="293.503" x2="465.44" y2="293.503" gradientUnits="userSpaceOnUse">
            <stop offset=".29" stop-color="#D1E8FF"/>
            <stop offset=".51" stop-color="#BDCEE1"/>
            <stop offset=".83" stop-color="#A2ABBA"/>
            <stop offset=".99" stop-color="#989EAB"/>
        </linearGradient>
        <linearGradient id="x0b3og251F" x1="81.448" y1="278.52" x2="86.394" y2="278.52" gradientUnits="userSpaceOnUse">
            <stop offset=".29" stop-color="#D1E8FF"/>
            <stop offset=".51" stop-color="#BDCEE1"/>
            <stop offset=".83" stop-color="#A2ABBA"/>
            <stop offset=".99" stop-color="#989EAB"/>
        </linearGradient>
        <linearGradient id="jamhxfg1qG" x1="59.867" y1="120.706" x2="59.867" y2="56.748" gradientUnits="userSpaceOnUse">
            <stop stop-color="#34A7E8"/>
            <stop offset="1" stop-color="#5142D8"/>
        </linearGradient>
        <linearGradient id="p52kj5jzeH" x1="71.644" y1="115.516" x2="71.644" y2="78.503" gradientUnits="userSpaceOnUse">
            <stop stop-color="#fff"/>
            <stop offset="1" stop-color="#DEDFFF"/>
        </linearGradient>
        <linearGradient id="2147iogmlI" x1="68.033" y1="57.261" x2="68.033" y2="10.95" gradientUnits="userSpaceOnUse">
            <stop stop-color="#FFC49D"/>
            <stop offset="1" stop-color="#FF957C"/>
        </linearGradient>
        <linearGradient id="xmj8qkhzpJ" x1="203.582" y1="1961.04" x2="203.582" y2="1436.4" gradientUnits="userSpaceOnUse">
            <stop stop-color="#BDB3E7"/>
            <stop offset=".65" stop-color="#B2AEEB"/>
            <stop offset="1" stop-color="#AAE"/>
        </linearGradient>
        <linearGradient id="qmk30u8dkK" x1="2986.3" y1="2387.31" x2="2986.3" y2="465.366" gradientUnits="userSpaceOnUse">
            <stop offset=".02" stop-color="#F0C2D6"/>
            <stop offset=".99" stop-color="#BD89C4"/>
        </linearGradient>
        <linearGradient id="hzd6pj9l9L" x1="851.402" y1="3808.53" x2="851.402" y2="2696.76" gradientUnits="userSpaceOnUse">
            <stop stop-color="#fff"/>
            <stop offset="1" stop-color="#DEDFFF"/>
        </linearGradient>
        <linearGradient id="epz9maissM" x1="1436.45" y1="4205.87" x2="1436.45" y2="2707.38" gradientUnits="userSpaceOnUse">
            <stop offset=".02" stop-color="#F0C2D6"/>
            <stop offset=".99" stop-color="#BD89C4"/>
        </linearGradient>
        <linearGradient id="f9q71rxj8N" x1="72.6" y1="48.019" x2="72.6" y2="0" gradientUnits="userSpaceOnUse">
            <stop offset=".01" stop-color="#813645"/>
            <stop offset="1" stop-color="#BD5042"/>
        </linearGradient>
        <linearGradient id="4lyntkkuoO" x1="703.632" y1="355.958" x2="703.632" y2="233.832" gradientUnits="userSpaceOnUse">
            <stop offset=".01" stop-color="#813645"/>
            <stop offset="1" stop-color="#BD5042"/>
        </linearGradient>
        <linearGradient id="oy0ngfhjrP" x1="279.132" y1="247.359" x2="279.132" y2="163.262" gradientUnits="userSpaceOnUse">
            <stop offset=".01" stop-color="#813645"/>
            <stop offset="1" stop-color="#BD5042"/>
        </linearGradient>
        <linearGradient id="3g2va08kdQ" x1="69.089" y1="43.13" x2="69.089" y2="30.696" gradientUnits="userSpaceOnUse">
            <stop stop-color="#fff"/>
            <stop offset="1" stop-color="#D0C7F8"/>
        </linearGradient>
        <linearGradient id="s1wqwefi4R" x1="380.043" y1="412.226" x2="380.043" y2="290.668" gradientUnits="userSpaceOnUse">
            <stop stop-color="#fff"/>
            <stop offset="1" stop-color="#D0C7F8"/>
        </linearGradient>
        <linearGradient id="lejx71u02S" x1="62.767" y1="46.97" x2="62.441" y2="44.247" gradientUnits="userSpaceOnUse">
            <stop offset=".01" stop-color="#BD89C4"/>
            <stop offset=".98" stop-color="#F0C2D6"/>
        </linearGradient>
        <linearGradient id="snwohgklyT" x1="65.262" y1="40.973" x2="69.766" y2="31.919" gradientUnits="userSpaceOnUse">
            <stop offset=".01" stop-color="#6F8B8B"/>
            <stop offset=".98" stop-color="#5C435B"/>
        </linearGradient>
        <linearGradient id="9jq91ufi7U" x1="-348.032" y1="537.965" x2="-318.731" y2="456.02" gradientUnits="userSpaceOnUse">
            <stop offset=".01" stop-color="#6F8B8B"/>
            <stop offset=".98" stop-color="#5C435B"/>
        </linearGradient>
        <linearGradient id="rrrluj01pV" x1="83.978" y1="19.243" x2="83.978" y2="5.815" gradientUnits="userSpaceOnUse">
            <stop offset=".01" stop-color="#AA454F"/>
            <stop offset="1" stop-color="#D98638"/>
        </linearGradient>
        <linearGradient id="nc9jo0kujW" x1="66.078" y1="9.51" x2="66.078" y2="0" gradientUnits="userSpaceOnUse">
            <stop offset=".01" stop-color="#B14D4E"/>
            <stop offset="1" stop-color="#D98638"/>
        </linearGradient>
        <linearGradient id="tq5bltf5uX" x1="303.264" y1="61.092" x2="325.714" y2="61.092" gradientUnits="userSpaceOnUse">
            <stop offset=".02" stop-color="#F0C2D6"/>
            <stop offset=".99" stop-color="#BD89C4"/>
        </linearGradient>
        <linearGradient id="a6np0501hY" x1="551.589" y1="178.23" x2="551.589" y2="38.339" gradientUnits="userSpaceOnUse">
            <stop offset=".01" stop-color="#BD89C4"/>
            <stop offset=".98" stop-color="#F0C2D6"/>
        </linearGradient>
        <linearGradient id="vt6eflz8rZ" x1="1057.91" y1="1155.38" x2="1057.91" y2="533.957" gradientUnits="userSpaceOnUse">
            <stop offset=".01" stop-color="#BD89C4"/>
            <stop offset=".98" stop-color="#F0C2D6"/>
        </linearGradient>
        <linearGradient id="vw4swz1chaa" x1="-2177.58" y1="993.572" x2="-2141.48" y2="856.302" gradientUnits="userSpaceOnUse">
            <stop offset=".02" stop-color="#FF8359"/>
            <stop offset="1" stop-color="#FF8B7C"/>
        </linearGradient>
        <linearGradient id="0n81cl0onab" x1="79.89" y1="51.405" x2="88.3" y2="53.597" gradientUnits="userSpaceOnUse">
            <stop offset=".01" stop-color="#B060F4"/>
            <stop offset="1" stop-color="#FFEADB"/>
        </linearGradient>
        <linearGradient id="v3qxm3woqac" x1="1061.43" y1="186.559" x2="1061.43" y2="37.679" gradientUnits="userSpaceOnUse">
            <stop offset=".01" stop-color="#AA454F"/>
            <stop offset="1" stop-color="#D98638"/>
        </linearGradient>
        <linearGradient id="ux6i63vhjad" x1="1888.59" y1="1661.68" x2="1888.59" y2="1476.43" gradientUnits="userSpaceOnUse">
            <stop offset=".02" stop-color="#F0C2D6"/>
            <stop offset=".99" stop-color="#BD89C4"/>
        </linearGradient>
        <linearGradient id="1qrnrb4llae" x1="253.136" y1="2567.92" x2="253.136" y2="1907.45" gradientUnits="userSpaceOnUse">
            <stop offset=".02" stop-color="#F0C2D6"/>
            <stop offset=".99" stop-color="#BD89C4"/>
        </linearGradient>
        <linearGradient id="wdo7qhfjjaf" x1="921.989" y1="1790.48" x2="921.989" y2="1425.61" gradientUnits="userSpaceOnUse">
            <stop offset=".02" stop-color="#F0C2D6"/>
            <stop offset=".99" stop-color="#BD89C4"/>
        </linearGradient>
        <linearGradient id="gn5qbw1nwag" x1="1371.7" y1="805.862" x2="1371.7" y2="761.981" gradientUnits="userSpaceOnUse">
            <stop offset=".02" stop-color="#F0C2D6"/>
            <stop offset=".99" stop-color="#BD89C4"/>
        </linearGradient>
        <linearGradient id="6pglasqz1ah" x1="9.299" y1="98.113" x2="1.886" y2="94.707" gradientUnits="userSpaceOnUse">
            <stop stop-color="#EB5D4E"/>
            <stop offset="1" stop-color="#FF921B"/>
        </linearGradient>
        <linearGradient id="kfm0f5gn6ai" x1="9.954" y1="96.741" x2="2.521" y2="93.326" gradientUnits="userSpaceOnUse">
            <stop stop-color="#FB6B42"/>
            <stop offset=".56" stop-color="#FFDF36"/>
            <stop offset=".97" stop-color="#FFA036"/>
        </linearGradient>
        <linearGradient id="cgbx49dudaj" x1="8.519" y1="80.927" x2="1.015" y2="77.479" gradientUnits="userSpaceOnUse">
            <stop stop-color="#5F123E"/>
            <stop offset="1" stop-color="#D2603B"/>
        </linearGradient>
        <linearGradient id="s7ctz5f2gak" x1="-11813" y1="12584.9" x2="-11881.6" y2="12553.4" gradientUnits="userSpaceOnUse">
            <stop stop-color="#EB5D4E"/>
            <stop offset="1" stop-color="#FF921B"/>
        </linearGradient>
        <linearGradient id="czvd266toal" x1="-11691.5" y1="12118.5" x2="-11761.2" y2="12086.5" gradientUnits="userSpaceOnUse">
            <stop stop-color="#FB6B42"/>
            <stop offset=".56" stop-color="#FFDF36"/>
            <stop offset=".97" stop-color="#FFA036"/>
        </linearGradient>
        <linearGradient id="5wjj0yzzjam" x1="27439.3" y1="-20452.4" x2="27439.3" y2="-20682.5" gradientUnits="userSpaceOnUse">
            <stop stop-color="#5F123E"/>
            <stop offset="1" stop-color="#D2603B"/>
        </linearGradient>
        <linearGradient id="8a65i918man" x1="-17775.1" y1="18492.4" x2="-17919.3" y2="18426.1" gradientUnits="userSpaceOnUse">
            <stop stop-color="#EB5D4E"/>
            <stop offset="1" stop-color="#FF921B"/>
        </linearGradient>
        <linearGradient id="lwkzln1rdao" x1="-17630.9" y1="17892.7" x2="-17777.3" y2="17825.5" gradientUnits="userSpaceOnUse">
            <stop stop-color="#FB6B42"/>
            <stop offset=".56" stop-color="#FFDF36"/>
            <stop offset=".97" stop-color="#FFA036"/>
        </linearGradient>
        <linearGradient id="5qaqgjpawap" x1="45377.4" y1="-33766.5" x2="45377.4" y2="-34373.8" gradientUnits="userSpaceOnUse">
            <stop stop-color="#5F123E"/>
            <stop offset="1" stop-color="#D2603B"/>
        </linearGradient>
        <linearGradient id="jmjntmbwwaq" x1="24.573" y1="33.517" x2="20.849" y2="41.548" gradientUnits="userSpaceOnUse">
            <stop offset=".01" stop-color="#B66054"/>
            <stop offset="1" stop-color="#BF777C"/>
        </linearGradient>
        <linearGradient id="u1zuodf6sar" x1="-25083" y1="25521.6" x2="-25361.8" y2="25393.5" gradientUnits="userSpaceOnUse">
            <stop stop-color="#EB5D4E"/>
            <stop offset="1" stop-color="#FF921B"/>
        </linearGradient>
        <linearGradient id="swgse7dqpas" x1="-24926" y1="24760.9" x2="-25209.1" y2="24630.9" gradientUnits="userSpaceOnUse">
            <stop stop-color="#FB6B42"/>
            <stop offset=".56" stop-color="#FFDF36"/>
            <stop offset=".97" stop-color="#FFA036"/>
        </linearGradient>
        <linearGradient id="fb368dca1at" x1="36.722" y1="31.794" x2="18.483" y2="23.414" gradientUnits="userSpaceOnUse">
            <stop stop-color="#C7431B"/>
            <stop offset="1" stop-color="#EB5D4E"/>
        </linearGradient>
        <linearGradient id="dfejsy60eau" x1="35.456" y1="32.094" x2="19.09" y2="24.575" gradientUnits="userSpaceOnUse">
            <stop stop-color="#BD4054"/>
            <stop offset="1" stop-color="#550332"/>
        </linearGradient>
        <linearGradient id="30xx2nhp4av" x1="34.273" y1="36.696" x2="33.648" y2="34.71" gradientUnits="userSpaceOnUse">
            <stop/>
            <stop offset="1" stop-color="#D74600"/>
        </linearGradient>
        <linearGradient id="oc9ng3ia4aw" x1="13603.2" y1="-6143.39" x2="13640.4" y2="-6143.39" gradientUnits="userSpaceOnUse">
            <stop offset=".01" stop-color="#B66054"/>
            <stop offset="1" stop-color="#BF777C"/>
        </linearGradient>
        <linearGradient id="7vmvwcwo0ax" x1="17161.9" y1="-6494.02" x2="17201.9" y2="-6494.02" gradientUnits="userSpaceOnUse">
            <stop offset=".01" stop-color="#B66054"/>
            <stop offset="1" stop-color="#BF777C"/>
        </linearGradient>
        <linearGradient id="kyxp40httay" x1="683.29" y1="466.873" x2="810.665" y2="466.873" gradientUnits="userSpaceOnUse">
            <stop offset=".29" stop-color="#D1E8FF"/>
            <stop offset=".51" stop-color="#BDCEE1"/>
            <stop offset=".83" stop-color="#A2ABBA"/>
            <stop offset=".99" stop-color="#989EAB"/>
        </linearGradient>
        <linearGradient id="p8n70jc98az" x1="2317.66" y1="2691.55" x2="2317.66" y2="1351.23" gradientUnits="userSpaceOnUse">
            <stop offset=".02" stop-color="#FFAE78"/>
            <stop offset="1" stop-color="#FF957C"/>
        </linearGradient>
        <linearGradient id="mifhj7wmoaA" x1="1215.33" y1="1315.09" x2="1215.33" y2="1014.8" gradientUnits="userSpaceOnUse">
            <stop offset=".01" stop-color="#BD89C4"/>
            <stop offset=".98" stop-color="#F0C2D6"/>
        </linearGradient>
        <linearGradient id="z3nwiucqlaB" x1="57.589" y1="72.017" x2="72.911" y2="72.017" gradientUnits="userSpaceOnUse">
            <stop stop-color="#685BF1"/>
            <stop offset="1" stop-color="#5C82E8"/>
        </linearGradient>
        <linearGradient id="ru0w5r9sdaC" x1="1215.33" y1="1315.09" x2="1215.33" y2="1014.8" gradientUnits="userSpaceOnUse">
            <stop offset=".29" stop-color="#D1E8FF"/>
            <stop offset=".51" stop-color="#BDCEE1"/>
            <stop offset=".83" stop-color="#A2ABBA"/>
            <stop offset=".99" stop-color="#989EAB"/>
        </linearGradient>
        <linearGradient id="ibfpgr4hraD" x1="58.967" y1="90.323" x2="58.967" y2="60.096" gradientUnits="userSpaceOnUse">
            <stop stop-color="#DEDFFF"/>
            <stop offset="1" stop-color="#fff"/>
        </linearGradient>
        <linearGradient id="86x0zjvmqaE" x1="157.363" y1="954.732" x2="157.363" y2="803.238" gradientUnits="userSpaceOnUse">
            <stop offset=".02" stop-color="#F0C2D6"/>
            <stop offset=".99" stop-color="#BD89C4"/>
        </linearGradient>
        <linearGradient id="p9hf8713gaF" x1="92.857" y1="319.592" x2="123.599" y2="319.592" gradientUnits="userSpaceOnUse">
            <stop offset=".02" stop-color="#F0C2D6"/>
            <stop offset=".99" stop-color="#BD89C4"/>
        </linearGradient>
        <linearGradient id="emlcb8kojaG" x1="928.919" y1="740.356" x2="928.919" y2="666.593" gradientUnits="userSpaceOnUse">
            <stop offset=".02" stop-color="#F0C2D6"/>
            <stop offset=".99" stop-color="#BD89C4"/>
        </linearGradient>
        <linearGradient id="193evqcm1aH" x1="1027.66" y1="1255.45" x2="1628.29" y2="1255.45" gradientUnits="userSpaceOnUse">
            <stop offset=".02" stop-color="#F0C2D6"/>
            <stop offset=".99" stop-color="#BD89C4"/>
        </linearGradient>
        <linearGradient id="ym9vtz66faI" x1="1436.45" y1="4205.87" x2="1436.45" y2="2707.38" gradientUnits="userSpaceOnUse">
            <stop offset=".29" stop-color="#D1E8FF"/>
            <stop offset=".51" stop-color="#BDCEE1"/>
            <stop offset=".83" stop-color="#A2ABBA"/>
            <stop offset=".99" stop-color="#989EAB"/>
        </linearGradient>
        <linearGradient id="0emozdibtaJ" x1="2845.78" y1="2064.82" x2="2845.78" y2="0" gradientUnits="userSpaceOnUse">
            <stop offset=".29" stop-color="#D1E8FF"/>
            <stop offset=".51" stop-color="#BDCEE1"/>
            <stop offset=".83" stop-color="#A2ABBA"/>
            <stop offset=".99" stop-color="#989EAB"/>
        </linearGradient>
        <linearGradient id="clvg6bbafaK" x1="703.632" y1="355.958" x2="703.632" y2="233.832" gradientUnits="userSpaceOnUse">
            <stop offset=".29" stop-color="#D1E8FF"/>
            <stop offset=".51" stop-color="#BDCEE1"/>
            <stop offset=".83" stop-color="#A2ABBA"/>
            <stop offset=".99" stop-color="#989EAB"/>
        </linearGradient>
        <linearGradient id="296m4l4fgaL" x1="279.132" y1="247.359" x2="279.132" y2="163.262" gradientUnits="userSpaceOnUse">
            <stop offset=".29" stop-color="#D1E8FF"/>
            <stop offset=".51" stop-color="#BDCEE1"/>
            <stop offset=".83" stop-color="#A2ABBA"/>
            <stop offset=".99" stop-color="#989EAB"/>
        </linearGradient>
        <linearGradient id="p2sp8on9waM" x1="578.844" y1="237.348" x2="578.844" y2="75.786" gradientUnits="userSpaceOnUse">
            <stop offset=".29" stop-color="#D1E8FF"/>
            <stop offset=".51" stop-color="#BDCEE1"/>
            <stop offset=".83" stop-color="#A2ABBA"/>
            <stop offset=".99" stop-color="#989EAB"/>
        </linearGradient>
        <linearGradient id="qtoqsm9tdaN" x1="835.077" y1="80.782" x2="835.077" y2="0" gradientUnits="userSpaceOnUse">
            <stop offset=".29" stop-color="#D1E8FF"/>
            <stop offset=".51" stop-color="#BDCEE1"/>
            <stop offset=".83" stop-color="#A2ABBA"/>
            <stop offset=".99" stop-color="#989EAB"/>
        </linearGradient>
        <linearGradient id="en0lmtfoxaO" x1="303.264" y1="61.092" x2="325.714" y2="61.092" gradientUnits="userSpaceOnUse">
            <stop offset=".29" stop-color="#D1E8FF"/>
            <stop offset=".51" stop-color="#BDCEE1"/>
            <stop offset=".83" stop-color="#A2ABBA"/>
            <stop offset=".99" stop-color="#989EAB"/>
        </linearGradient>
        <linearGradient id="ewhy5x8reaP" x1="551.588" y1="178.23" x2="551.588" y2="38.339" gradientUnits="userSpaceOnUse">
            <stop offset=".29" stop-color="#D1E8FF"/>
            <stop offset=".51" stop-color="#BDCEE1"/>
            <stop offset=".83" stop-color="#A2ABBA"/>
            <stop offset=".99" stop-color="#989EAB"/>
        </linearGradient>
        <linearGradient id="ajc7y72v6aQ" x1="1057.91" y1="1155.38" x2="1057.91" y2="533.957" gradientUnits="userSpaceOnUse">
            <stop offset=".29" stop-color="#D1E8FF"/>
            <stop offset=".51" stop-color="#BDCEE1"/>
            <stop offset=".83" stop-color="#A2ABBA"/>
            <stop offset=".99" stop-color="#989EAB"/>
        </linearGradient>
        <linearGradient id="sa2qqewhraR" x1="1061.43" y1="186.559" x2="1061.43" y2="37.679" gradientUnits="userSpaceOnUse">
            <stop offset=".29" stop-color="#D1E8FF"/>
            <stop offset=".51" stop-color="#BDCEE1"/>
            <stop offset=".83" stop-color="#A2ABBA"/>
            <stop offset=".99" stop-color="#989EAB"/>
        </linearGradient>
        <linearGradient id="3jw5nz8dgaS" x1="1888.59" y1="1661.68" x2="1888.59" y2="1476.43" gradientUnits="userSpaceOnUse">
            <stop offset=".29" stop-color="#D1E8FF"/>
            <stop offset=".51" stop-color="#BDCEE1"/>
            <stop offset=".83" stop-color="#A2ABBA"/>
            <stop offset=".99" stop-color="#989EAB"/>
        </linearGradient>
        <linearGradient id="9egeuf6ywaT" x1="921.989" y1="1790.48" x2="921.989" y2="1425.61" gradientUnits="userSpaceOnUse">
            <stop offset=".29" stop-color="#D1E8FF"/>
            <stop offset=".51" stop-color="#BDCEE1"/>
            <stop offset=".83" stop-color="#A2ABBA"/>
            <stop offset=".99" stop-color="#989EAB"/>
        </linearGradient>
        <linearGradient id="3qg3z5o5vaU" x1="1371.7" y1="805.862" x2="1371.7" y2="761.981" gradientUnits="userSpaceOnUse">
            <stop offset=".29" stop-color="#D1E8FF"/>
            <stop offset=".51" stop-color="#BDCEE1"/>
            <stop offset=".83" stop-color="#A2ABBA"/>
            <stop offset=".99" stop-color="#989EAB"/>
        </linearGradient>
        <linearGradient id="1y5z13bmpaV" x1="851.596" y1="1631.27" x2="1062.85" y2="1631.27" gradientUnits="userSpaceOnUse">
            <stop offset=".29" stop-color="#D1E8FF"/>
            <stop offset=".51" stop-color="#BDCEE1"/>
            <stop offset=".83" stop-color="#A2ABBA"/>
            <stop offset=".99" stop-color="#989EAB"/>
        </linearGradient>
        <linearGradient id="sl68cd6hnaW" x1="928.919" y1="740.356" x2="928.919" y2="666.593" gradientUnits="userSpaceOnUse">
            <stop offset=".29" stop-color="#D1E8FF"/>
            <stop offset=".51" stop-color="#BDCEE1"/>
            <stop offset=".83" stop-color="#A2ABBA"/>
            <stop offset=".99" stop-color="#989EAB"/>
        </linearGradient>
        <linearGradient id="t0na72xm0aX" x1="1027.66" y1="1255.45" x2="1628.29" y2="1255.45" gradientUnits="userSpaceOnUse">
            <stop offset=".29" stop-color="#D1E8FF"/>
            <stop offset=".51" stop-color="#BDCEE1"/>
            <stop offset=".83" stop-color="#A2ABBA"/>
            <stop offset=".99" stop-color="#989EAB"/>
        </linearGradient>
        <clipPath id="tyuxxukyta">
            <path fill="#fff" d="M0 0h94v168H0z"/>
        </clipPath>
        <filter id="purvu3ohob" x="0" y="-1" width="96" height="169" filterUnits="userSpaceOnUse" color-interpolation-filters="sRGB">
            <feFlood flood-opacity="0" result="BackgroundImageFix"/>
            <feBlend in="SourceGraphic" in2="BackgroundImageFix" result="shape"/>
            <feColorMatrix in="SourceAlpha" values="0 0 0 0 0 0 0 0 0 0 0 0 0 0 0 0 0 0 127 0" result="hardAlpha"/>
            <feOffset dx="2" dy="-1"/>
            <feGaussianBlur stdDeviation="2"/>
            <feComposite in2="hardAlpha" operator="arithmetic" k2="-1" k3="1"/>
            <feColorMatrix values="0 0 0 0 1 0 0 0 0 0.852583 0 0 0 0 0.745833 0 0 0 0.45 0"/>
            <feBlend in2="shape" result="effect1_innerShadow_401_1367"/>
        </filter>
    </defs>
</svg>
