<svg width="72" height="72" viewBox="0 0 72 72" fill="none" xmlns="http://www.w3.org/2000/svg">
    <mask id="2q4tlhm07a" style="mask-type:alpha" maskUnits="userSpaceOnUse" x="0" y="0" width="72" height="72">
        <circle cx="36" cy="36" r="36" fill="#6FDFED"/>
    </mask>
    <g mask="url(#2q4tlhm07a)">
        <circle cx="36" cy="36" r="36" fill="#86E5F1"/>
        <path d="M55.936 66.75c-.916-4.174-4.314-8.06-9.325-10.652-.386-.207-.784-.393-1.203-.589-.059-.045-.12-.092-.183-.147-1.484-1.284-2.343-4.913-2.65-7.047a14.916 14.916 0 0 0 3.23-4.739c.318.209.67.358 1.04.44 2.46.556 4.497-1.652 5.05-4.106a5.957 5.957 0 0 0-.393-3.83c2.113-1.039 4.769-3.638 2.939-10.039a21.59 21.59 0 0 0-5.602-10.094c-3.62-3.447-8.848-5.15-15.121-4.928C20.43 11.496 16 24.446 16 27.882c0 1.888.467 3.193 1.389 3.876a3.16 3.16 0 0 0 2.656.387 34.28 34.28 0 0 1 .596 4.154c.328 6.448 1.471 10.438 3.71 12.938a10.531 10.531 0 0 0 8.021 3.204c.138 0 .334-.015.554-.038l.008.027c.436 1.45.979 3.254.363 3.708-.65.393-1.332.73-2.039 1.007l-.257.115c-.146.074-.299.142-.456.214l-.196.089c-4.105 1.903-9.138 4.741-11.633 9.834-1.24 2.49-.22 3.925.86 4.693 2.76 1.926 7.6 2.91 14.385 2.91 9.622 0 16.398-2.592 18.885-4.124l.265-.162c1.3-.795 3.266-1.993 2.826-3.964zm-24.279-8.614.025-.011c.785-.304 1.54-.685 2.251-1.137 1.184-.874.629-2.826.052-4.742a20.271 20.271 0 0 0 2.332-.493.539.539 0 0 0 .107-.987.523.523 0 0 0-.407-.038c-.917.243-1.848.43-2.787.558a9.501 9.501 0 0 1-8.098-2.772c-2.062-2.303-3.122-6.09-3.436-12.276a34.28 34.28 0 0 0-.654-4.456c.54-.375.96-.897 1.214-1.506a2.994 2.994 0 0 0 1.144 1.54c.083.064.173.119.267.163a3.667 3.667 0 0 0 1.731.387c.187 0 .374-.01.56-.03a4.88 4.88 0 0 0 3.944-2.586c.132.35.333.669.59.938a3.683 3.683 0 0 0 3.01.913c.162.001.324-.011.483-.037l.018-.002c.09-.012.181-.025.29-.05 2.025-.485 3.29-2.746 3.965-4.416a11.247 11.247 0 0 0 3.18 5.147c.166.144.333.282.5.42a6.733 6.733 0 0 1 2.648 4.105v.007a.62.62 0 0 0 .212.292.45.45 0 0 0 .048.038c.072.036.15.055.23.056h.016a.554.554 0 0 0 .136-.017l.011-.007a.494.494 0 0 0 .106-.054.477.477 0 0 0 .073-.04.52.52 0 0 0 .06-.068.54.54 0 0 0 .073-.091l.007-.009a4.38 4.38 0 0 1 .873-1.044 3.186 3.186 0 0 1 2.481-.672 2.291 2.291 0 0 1 1.43.973c.641 1.062.83 2.34.522 3.543-.43 1.902-1.995 3.71-3.79 3.298a2.796 2.796 0 0 1-1.186-.658.531.531 0 0 0-.828.255 13.765 13.765 0 0 1-3.41 5.17A10.27 10.27 0 0 1 40.017 49a.539.539 0 0 0-.173.737c.154.252.481.33.73.175.368-.232.721-.485 1.06-.759.304 1.746 1.06 5.068 2.593 6.713-1.685 2.94-5.822 4.4-8.99 4.302-1.672-.054-3.084-.568-3.515-1.278a.857.857 0 0 1-.065-.755z" fill="#fff"/>
        <path d="m31.682 58.125-.025.01a.857.857 0 0 0 .066.756c.43.71 1.842 1.224 3.514 1.278 3.168.097 7.305-1.361 8.99-4.302-1.533-1.645-2.29-4.967-2.593-6.713-.339.274-.692.527-1.06.759a.527.527 0 0 1-.73-.175.539.539 0 0 1 .173-.737 10.27 10.27 0 0 0 1.633-1.261 13.765 13.765 0 0 0 3.41-5.17.531.531 0 0 1 .828-.255c.336.314.744.54 1.187.658 1.793.411 3.36-1.396 3.789-3.298a4.641 4.641 0 0 0-.521-3.543c-.333-.5-.847-.85-1.43-.973a3.186 3.186 0 0 0-2.482.672 4.38 4.38 0 0 0-.873 1.044l-.007.009a.54.54 0 0 1-.074.09.52.52 0 0 1-.059.069.477.477 0 0 1-.073.04.494.494 0 0 1-.106.054l-.011.007a.554.554 0 0 1-.136.017h-.016a.534.534 0 0 1-.23-.056.45.45 0 0 1-.048-.038.62.62 0 0 1-.212-.292v-.007a6.733 6.733 0 0 0-2.649-4.105c-.166-.138-.333-.276-.499-.42a11.247 11.247 0 0 1-3.18-5.147c-.674 1.67-1.94 3.93-3.966 4.416-.108.025-.2.038-.29.05l-.017.002c-.16.026-.32.038-.483.037a3.683 3.683 0 0 1-3.01-.913 2.778 2.778 0 0 1-.59-.938 4.88 4.88 0 0 1-3.945 2.587c-.185.02-.372.029-.559.029a3.667 3.667 0 0 1-1.73-.387 1.43 1.43 0 0 1-.268-.163 2.994 2.994 0 0 1-1.144-1.54 3.449 3.449 0 0 1-1.213 1.506 34.28 34.28 0 0 1 .653 4.456c.314 6.186 1.374 9.973 3.436 12.276a9.501 9.501 0 0 0 8.098 2.772c.94-.128 1.87-.315 2.787-.558a.523.523 0 0 1 .407.038.534.534 0 0 1 .214.732.53.53 0 0 1-.321.255c-.767.21-1.546.375-2.332.493.577 1.916 1.132 3.868-.052 4.742-.712.452-1.466.833-2.251 1.137z" fill="#fff"/>
        <path d="M37.554 34.987v1.305a.946.946 0 0 1-.317.648.93.93 0 0 1-.679.23h-.339a.92.92 0 0 1-.674-.23.936.936 0 0 1-.312-.648v-1.305a.934.934 0 0 1 .986-.877h.34a.944.944 0 0 1 .995.877zM25.738 34.987v1.305a.945.945 0 0 1-.317.648.93.93 0 0 1-.679.23h-.339a.92.92 0 0 1-.674-.23.938.938 0 0 1-.311-.648v-1.305a.934.934 0 0 1 .985-.877h.34a.944.944 0 0 1 .995.877z" fill="#2C2953"/>
        <path d="M25.185 34.666a.527.527 0 0 1-.332-.119 1.765 1.765 0 0 0-2.23 0 .528.528 0 0 1-.727-.099.539.539 0 0 1 .066-.737 2.827 2.827 0 0 1 3.557 0 .538.538 0 0 1 .167.595.53.53 0 0 1-.5.357v.003zM37.013 34.666a.522.522 0 0 1-.333-.119 1.765 1.765 0 0 0-2.23 0 .527.527 0 0 1-.735-.092.54.54 0 0 1 .073-.744 2.827 2.827 0 0 1 3.557 0 .537.537 0 0 1-.332.952v.003zM37.755 32.044a.525.525 0 0 1-.325-.112 7.381 7.381 0 0 0-3.205-.404.534.534 0 0 1-.582-.481.536.536 0 0 1 .477-.59c.988-.1 3.242.06 3.96.623v.001a.537.537 0 0 1-.325.957v.006zM21.923 32.6a.537.537 0 0 1-.252-1.005 5.203 5.203 0 0 1 2.201-.619.534.534 0 0 1 .574.492.536.536 0 0 1-.487.579 4.174 4.174 0 0 0-1.783.493.524.524 0 0 1-.253.06zM29.635 41.589c.23-.001.46-.046.674-.133a.537.537 0 0 0 .298-.695.528.528 0 0 0-.688-.3.787.787 0 0 1-.742-.088.75.75 0 0 1-.328-.396.529.529 0 0 0-1.014-.308c-.116.512.07 1.047.477 1.374.358.342.83.537 1.323.546zM32.601 42.99c-.81.59-1.81.857-2.803.749a2.105 2.105 0 0 1-1.393-.382.528.528 0 0 0-.965.216.54.54 0 0 0 .102.404 2.965 2.965 0 0 0 2.215.83h.267a4.67 4.67 0 0 0 3.391-1.134.539.539 0 0 0-.066-.753.527.527 0 0 0-.747.066l-.001.004z" fill="#2C2953"/>
        <path d="M55.936 66.75c-.916-4.174-4.314-8.06-9.325-10.652-.386-.207-.784-.393-1.203-.589-.059-.045-.12-.092-.183-.147-1.484-1.284-2.343-4.913-2.65-7.047h.001a14.913 14.913 0 0 0 3.229-4.739c.318.209.67.358 1.04.44 2.46.556 4.497-1.652 5.05-4.106a5.957 5.957 0 0 0-.393-3.83c2.113-1.039 4.769-3.638 2.939-10.039v.001a21.591 21.591 0 0 0-5.602-10.095c-3.62-3.447-8.848-5.15-15.121-4.928C20.43 11.496 16 24.446 16 27.882c0 1.888.467 3.193 1.389 3.876a3.159 3.159 0 0 0 2.656.387 34.28 34.28 0 0 1 .596 4.154c.328 6.448 1.471 10.438 3.71 12.938a10.531 10.531 0 0 0 8.021 3.204c.138 0 .334-.015.554-.038l.008.027c.436 1.45.979 3.254.363 3.708-.65.392-1.332.73-2.039 1.007l-.257.115c-.146.074-.299.142-.456.214l-.196.089c-4.105 1.903-9.138 4.741-11.633 9.834-1.24 2.49-.22 3.925.86 4.693 2.76 1.926 7.6 2.91 14.385 2.91 9.622 0 16.398-2.592 18.885-4.124l.265-.162c1.3-.795 3.266-1.993 2.826-3.964zm-24.279-8.614.025-.011c.785-.304 1.54-.685 2.251-1.137 1.184-.874.629-2.826.052-4.742v.001a20.274 20.274 0 0 0 2.332-.494.539.539 0 0 0 .107-.987.523.523 0 0 0-.407-.038c-.917.243-1.848.43-2.787.558a9.501 9.501 0 0 1-8.098-2.772c-2.062-2.303-3.122-6.09-3.436-12.276a34.287 34.287 0 0 0-.654-4.456c.54-.375.96-.897 1.214-1.506a2.994 2.994 0 0 0 1.144 1.54c.083.064.173.119.267.163a3.665 3.665 0 0 0 1.731.387c.187 0 .374-.01.56-.03a4.88 4.88 0 0 0 3.944-2.586c.132.35.333.669.59.938a3.683 3.683 0 0 0 3.01.913c.162.001.324-.011.483-.037.095-.013.192-.025.307-.052 2.026-.485 3.292-2.746 3.966-4.416h.001a11.245 11.245 0 0 0 3.18 5.147c.165.144.332.282.498.42a6.732 6.732 0 0 1 2.65 4.105v.007a.62.62 0 0 0 .211.292.45.45 0 0 0 .048.038c.072.036.15.055.23.056h.016a.55.55 0 0 0 .136-.017l.011-.007a.494.494 0 0 0 .106-.054.477.477 0 0 0 .073-.04.52.52 0 0 0 .06-.068.54.54 0 0 0 .073-.091l.007-.009a4.38 4.38 0 0 1 .873-1.044 3.186 3.186 0 0 1 2.481-.672 2.291 2.291 0 0 1 1.43.973c.641 1.062.83 2.34.522 3.543-.43 1.902-1.995 3.71-3.79 3.298a2.796 2.796 0 0 1-1.186-.658.531.531 0 0 0-.828.255 13.765 13.765 0 0 1-3.41 5.17A10.27 10.27 0 0 1 40.017 49a.539.539 0 0 0-.173.737c.154.252.481.33.73.175.368-.232.721-.485 1.06-.759.304 1.746 1.06 5.068 2.593 6.713-1.685 2.94-5.822 4.4-8.99 4.302-1.672-.054-3.084-.568-3.515-1.278a.857.857 0 0 1-.065-.755z" fill="#2C2953"/>
        <path d="M46.93 39.438a.53.53 0 0 0 .624-.416c.19-.559.733-.915 1.315-.863a.53.53 0 0 0 .59-.467.534.534 0 0 0-.463-.595 2.29 2.29 0 0 0-1.552.39c-.454.313-.783.78-.926 1.316a.538.538 0 0 0 .412.635z" fill="#2C2953"/>
    </g>
</svg>
