<svg width="26" height="26" viewBox="0 0 26 26" fill="none" xmlns="http://www.w3.org/2000/svg">
    <path d="M8.4 11.996c0-.42.135-.767.405-1.04l4.458-4.51c.288-.297.607-.446.956-.446.423 0 .758.13 1.004.39.251.254.377.57.377.948 0 .222-.044.415-.133.58a1.79 1.79 0 0 1-.328.44c-.518.519-2.19 1.97-3.24 2.873a1.006 1.006 0 0 0-.002 1.525c1.047.904 2.713 2.354 3.242 2.886.13.128.24.274.328.44.089.165.133.358.133.58 0 .378-.126.694-.377.949-.246.26-.581.389-1.005.389-.162 0-.327-.038-.495-.113a1.471 1.471 0 0 1-.46-.333l-4.458-4.517c-.27-.274-.405-.62-.405-1.04z" fill="#2F4C63"/>
</svg>
