<svg width="32" height="32" viewBox="0 0 32 32" fill="none" xmlns="http://www.w3.org/2000/svg">
    <path d="M0 15.994c0-.7.225-1.278.674-1.734l7.43-7.517C8.586 6.248 9.117 6 9.699 6c.705 0 1.263.216 1.674.649.419.425.628.952.628 1.581 0 .37-.074.692-.22.968a2.99 2.99 0 0 1-.547.731c-.97.972-4.362 3.898-5.993 5.298a1.005 1.005 0 0 0 0 1.524c1.625 1.4 5.002 4.324 5.993 5.32.217.212.399.456.546.731.147.276.221.598.221.968 0 .63-.21 1.156-.628 1.581-.41.433-.969.649-1.674.649-.272 0-.547-.063-.826-.189a2.454 2.454 0 0 1-.767-.554l-7.43-7.528C.224 17.272 0 16.694 0 15.994z" fill="#2F4C63"/>
</svg>
