<svg width="375" height="82" viewBox="0 0 375 82" fill="none" xmlns="http://www.w3.org/2000/svg">
    <path d="M10.537 7.96C7.685 8.41 4.382 9.762.93 9.31c-3.453-.45-6.906-1.351-9.158-1.351s-3.302-.601-4.804-.751c-1.501-.15-1.801-.751-1.501-1.202.3-.45 3.453.601 3.753 0 .3-.6-1.2-.75-.9-1.351.3-.601 2.251-.601 3.753-.15 1.5.45 3.753.75 5.254.3 1.501-.6 4.954.6 4.954-.6.15-1.052.751-1.653 2.553-2.103 1.801-.451 3.302-.601 4.053 0 .75.6 1.501.9 2.102.3.6-.6 2.552-1.051 2.552-.3 0 .75.75 1.201 1.501.9.75-.3 2.552-.9 4.504-.45 1.952.45 4.053.901 4.654.15.75-.75 2.852-.6 4.504-.6 1.501 0 1.501 1.351 3.453.9 1.952-.6 2.702-.75 4.354-.75 1.65 0 .75-1.052 2.552-1.502C40.863.45 53.474-.15 59.329.9c6.005 1.051 4.654 2.854 10.96 1.802C76.593 1.502 81.247.451 84.7 2.253 88.154 4.055 96.71 1.2 100.464 1.2s8.858.15 10.209 2.103c1.351 1.952 3.603 2.403 5.855 1.952 2.252-.45 5.254-.15 8.557.601 3.153.751 3.453.3 6.906-.45 3.453-.751 4.354 1.201 7.807.45 3.603-.6 9.458-2.703 12.61-1.051 3.153 1.802 4.955 1.802 7.807 1.502 2.852-.3 5.254-1.052 7.356.6 2.252 1.502 4.654 1.953 7.957 1.502 3.303-.45 5.104-1.201 6.756-.15 1.501 1.051 3.453-.15 3.753 1.352.3 1.502-2.252.15-3.003 1.051-.75.901-1.801.6-4.654.3-3.002-.3-4.653 1.052-6.905.751-2.252-.3-8.558-2.102-10.359-1.051-1.802.901-4.054 1.051-6.005.75-1.952-.3-6.606-1.5-9.909-.9-3.303.6-5.855 1.502-9.007.9-3.153-.6-6.306-.45-10.209-.45-3.903 0-6.005.15-8.257-.3-2.252-.45-3.904-.901-4.954.3-1.051 1.202-2.553 1.052-4.054 1.352-1.651.3-8.257 1.652-11.26 1.652-3.002 0-9.758-.3-15.162-.3-5.255-.15-8.107-.601-10.36.3-2.251.901-10.959 1.952-18.015.15-7.056-1.802-10.659-2.553-12.91-2.253-2.253.3-7.657-.6-10.66 0-3.002.601-4.203-.3-5.404-1.05-1.201-.601-2.102-2.103-4.504-1.202-2.402.9-5.105.6-6.306-.45-1.2-1.052-1.35-1.503-3.603-1.202zM-57.77 30.037c-7.056.6-8.107-.601-12.76 2.703-4.655 3.304-9.91 1.802-15.314.901s-7.957.75-4.654 4.506c3.303 3.754 11.41-1.052 14.413 1.05 3.002 2.103 9.308.601 16.664-1.05 7.356-1.652 18.165 3.754 26.272 4.355 8.107.6 9.308-.45 14.863-1.953 5.555-1.351 6.906-.6 11.26 1.953 4.353 2.553 12.46 1.351 19.066.9 6.605-.45 9.158 3.455 14.412 4.506 5.255 1.052 10.96-2.703 18.015-3.003 7.056-.15 21.168 6.307 31.377 7.359 10.359 1.051 20.568-4.356 32.878-1.052 12.311 3.304 40.385-2.252 48.942-3.304 8.557-1.05 17.114-2.252 25.371-1.05 8.258 1.2 36.031.3 43.087-1.503 6.906-1.802 9.608-1.201 22.82 1.052 13.211 2.102 19.366.6 26.122.75 6.756.15 21.618.15 33.328 3.455 11.71 3.304 10.96 1.652 16.364 1.351 5.255-.3 12.611-4.505 22.219-4.505s14.863-1.502 25.072-1.502c10.208 0 18.165-2.853 22.819-5.407 4.504-2.703 9.908-1.351 18.616-.75 8.707.6 11.109-2.854 9.008-6.008-2.102-3.003-12.611-4.205-22.069-2.853-9.458 1.351-21.769-3.605-27.173-3.605-5.255-.15-10.66 0-18.766-2.553-8.107-2.553-15.163-2.553-21.168-2.102-6.006.6-16.665 1.351-23.27 1.952-6.606.6-5.255 2.703-8.708 3.304-3.453.6-5.254.15-7.056-1.201-1.651-1.502-6.005-2.704-11.86-2.854-5.855-.15-8.107 1.352-10.809 2.703-2.702 1.352-6.606-1.201-11.11-1.201-4.503.15-4.653 1.352-8.407 1.952-3.753.601-4.353-.15-8.257-2.703-3.903-2.553-5.855-2.553-9.158-2.553-3.152 0-4.053-1.802-8.106-2.103-4.204-.3-9.308-.15-13.062.601-3.753.751-5.855-.901-10.358-2.102-4.504-1.202-10.509-.601-13.362.15-2.852.6-4.353-1.202-6.906-1.202-2.552 0-6.455-.75-10.058.601-3.603 1.201-6.606 3.304-9.458 3.154-2.853-.15-3.904-1.953-8.407-.15-4.504 1.802-5.255 1.05-9.459.15-4.203-.751-6.905-.15-8.257 0-1.351.15-3.903-.15-7.506-1.502s-4.504-.45-5.855.75c-1.351 1.202-3.453.752-4.654-.75s-2.102-2.103-4.204-1.201c-2.101.9-2.552 4.505-5.554 6.007-3.003 1.502-9.308.45-15.013-.751s-22.82 0-25.822 1.502c-3.003 1.502-7.056.45-12.16-1.052-5.105-1.501-11.56.902-13.512 1.803-1.952.9-5.254.45-6.756-1.052-1.501-1.501-3.903.601-7.056-.9-3.152-1.503-5.855-.902-8.407-.451-2.552.3-4.654-1.052-7.806 1.051-3.153 2.103-5.705.751-9.759 1.201-3.903.451-7.056-1.201-10.96-2.402-3.902-1.202-10.058-2.103-15.012-1.202-4.954.901-4.804 0-8.557-2.102-3.754-2.103-11.56 4.655-16.364 4.655-2.702-.3-3.003 4.506-10.059 5.257zM318.15 10.363c-3.003.45-7.507.3-7.957 1.802-.451 1.502 3.153 1.952 6.155 1.952 3.003 0 11.86-.45 16.364 0 4.354.45 7.506.3 10.509 0s9.608-1.802 16.664.3c7.056 2.103 8.257 2.704 13.211 2.253 4.955-.45 22.67-1.802 27.474-.45 4.804 1.351 5.555 2.102 13.061 1.952 7.506-.15 9.158-1.201 15.013 0 5.855 1.202 7.656.3 7.356-.9-.3-1.202-2.102-1.803-6.005-1.653-3.753.15-7.657 0-12.911-1.051-5.255-1.051-6.155-2.253-16.064-3.304-9.908-1.051-16.814-.15-23.42-1.953-6.605-1.802-9.458-2.252-15.763-1.652-6.306.601-13.061-1.351-17.115-.3-4.053 1.051-4.954 2.553-10.659 2.553-5.555.15-12.911-.15-15.913.45zm69.959 49.71c-6.605 1.202-15.913.45-22.219-.75-6.155-1.202-10.208-1.953-15.763-1.352-5.555.6-15.613.15-18.316 1.051-2.852 1.051-1.201 2.102 2.102 2.253 3.453.15 9.158-.901 12.761.75 3.603 1.653 3.903 1.352 9.608 1.953 5.705.45 7.356 3.755 14.863 3.755 7.506 0 16.664.9 19.516-.901 2.853-1.803 7.657-2.854 14.413-2.554 6.755.3 8.707.451 9.458-.9.75-1.352-.15-2.854-5.255-2.554-5.104.3-9.608.45-13.061-.45-3.303-.601-3.453-1.052-8.107-.3zm-205.525-2.102c-2.852-.3-3.603-.15-3.453 1.051.15 1.201 4.204-.15 8.557.901 4.354 1.051 8.558.6 13.362 0 4.954-.6 6.005.3 10.058 2.103 4.204 1.802 11.861.75 16.214-.3 4.354-1.052 5.555-.902 10.359.15 4.804.9 8.557.75 12.461.3 3.903-.45 7.356-1.502 12.911.3 5.554 1.802 9.608.15 12.761.3 3.152.15 5.704-1.351 9.307-1.351 3.604 0 3.303.45 6.756-.45 3.303-.902 5.555-.15 7.807.75 2.252.901 6.005 0 3.753-1.201-2.252-1.202-7.056-1.502-11.86-1.502-4.804.15-10.659-.15-16.064-.45-5.404-.3-18.766-.451-21.318-.752-2.552-.3-14.863 0-25.071-.15-10.059-.15-8.558 2.103-17.415 0-8.858-2.102-13.211-.6-20.568 0-2.552.3-5.705.601-8.557.3z" fill="url(#2tl5brhjha)"/>
    <path d="M-77.738 60.073c4.504.601 26.573-1.502 31.527.45 4.954 1.953 6.305 3.305 12.46 2.854 6.156-.45 6.006-1.952 12.761.15 6.756 1.953 16.064 2.554 22.97 1.653 6.906-.751 10.81 1.651 17.865 2.853 7.056 1.051 9.759-3.905 17.715-1.802 7.957 2.102 19.367 4.956 27.174 5.256 7.806.15 15.913 1.202 23.42.901 7.506-.3 11.109 4.806 18.015 4.806 6.906 0 12.01-.3 13.061 1.802 1.051 2.103-.751 1.803-3.453 1.652-2.702-.15-8.257-.6-12.16.601-3.904 1.202-7.507.751-12.01-1.051-4.504-1.802-13.962-2.403-19.217-1.502-5.254.901-12.91.6-16.364-.901-3.453-1.502-10.058-2.403-19.817-2.103-9.908.601-17.415 1.803-21.618-.6-4.054-2.403-8.407-1.502-15.313-1.202-6.906.3-11.56.901-20.117-1.051-8.558-1.953-9.158.9-17.115.9-7.957 0-13.211-3.604-22.67-4.204-9.457-.45-13.66 2.403-21.467-1.802-7.807-4.206-7.657-9.312 4.353-7.66z" fill="url(#1aap6m0lib)"/>
    <defs>
        <linearGradient id="2tl5brhjha" x1="172.024" y1="-3.475" x2="172.024" y2="71.978" gradientUnits="userSpaceOnUse">
            <stop stop-color="#BA7060"/>
            <stop offset=".224" stop-color="#C77576"/>
            <stop offset=".402" stop-color="#CE7882"/>
            <stop offset=".849" stop-color="#F2B079"/>
            <stop offset="1" stop-color="#FFC476"/>
        </linearGradient>
        <linearGradient id="1aap6m0lib" x1="16.03" y1="54.815" x2="16.03" y2="81.698" gradientUnits="userSpaceOnUse">
            <stop stop-color="#BA7060"/>
            <stop offset=".224" stop-color="#C77576"/>
            <stop offset=".402" stop-color="#CE7882"/>
            <stop offset=".849" stop-color="#F2B079"/>
            <stop offset="1" stop-color="#FFC476"/>
        </linearGradient>
    </defs>
</svg>
