<svg width="52" height="55" viewBox="0 0 52 55" fill="none" xmlns="http://www.w3.org/2000/svg">
    <path d="M52 29c0 14.36-11.64 26-26 26S0 41.36 0 27 11.64 0 26 0s26 14.64 26 29z" fill="#fff"/>
    <path d="M48 27c0-12.152-9.848-22-22-22S4 14.848 4 27c0 10.983 8.044 20.084 18.563 21.734V33.359h-5.586V27h5.585v-4.847c0-5.513 3.283-8.56 8.31-8.56 2.407 0 4.925.43 4.925.43v5.415H33.02c-2.733 0-3.584 1.697-3.584 3.437V27h6.102l-.975 6.36h-5.127v15.374C39.957 47.084 48 37.983 48 27z" fill="#1877F2"/>
    <path d="m34.564 33.36.975-6.36h-6.102v-4.125c0-1.74.851-3.438 3.584-3.438h2.776v-5.414s-2.518-.43-4.924-.43c-5.028 0-8.31 3.047-8.31 8.56V27h-5.586v6.36h5.585v15.374A22.13 22.13 0 0 0 26 49c1.169 0 2.316-.09 3.438-.266V33.359h5.126z" fill="#fff"/>
</svg>
