<svg width="40" height="40" viewBox="0 0 40 40" fill="none" xmlns="http://www.w3.org/2000/svg">
    <path d="M16.556 33.536A4.81 4.81 0 0 0 20.003 35a4.81 4.81 0 0 0 3.445-1.464l9.796-10.047c1.992-2.047 2.988-4.9 2.712-7.778-.276-2.878-1.794-5.478-4.137-7.087a9.348 9.348 0 0 0-6.103-1.547A9.428 9.428 0 0 0 20 9.763a9.294 9.294 0 0 0-6.353-2.76 9.273 9.273 0 0 0-6.48 2.428 9.73 9.73 0 0 0-3.124 6.308c-.267 2.867.729 5.707 2.715 7.742l9.798 10.055z" fill="#fff" fill-opacity=".7"/>
    <circle cx="38" cy="6" r="2" fill="#fff" fill-opacity=".4"/>
    <circle cx="3" cy="32" r="3" fill="#fff" fill-opacity=".32"/>
</svg>
