<svg width="375" height="72" viewBox="0 0 375 72" fill="none" xmlns="http://www.w3.org/2000/svg">
    <path d="M44.912 56.92c-1.954.964-2.345-.387-1.368-.773.781-.578 4.103-.578 1.368.772zm31.85-16.787c.978-.193 1.76-.386 2.932-.965s-2.15-.386-2.931 0c-.977.386-.977 1.158 0 .965zm3.518-2.123c.977 0 1.563.193 2.54-.385 1.173-.58-.977-.386-1.954-.193-.977 0-1.368.578-.586.578zM1.336 52.867c.586-.771-1.563-.578-1.954.386-.586 1.158 1.368.386 1.954-.386zm-7.035.965c.587-.386-.39-.965-.781-.193-.586.965.195.579.781.193zm-1.367 5.403c.195-.386-.587-.58-.782 0-.195.578.586.386.782 0zm143.818-35.31c1.173 0 2.932-.771 2.932-1.93.195-.964-1.955-.192-2.932.387-.781.772-1.172 1.736 0 1.543zm6.058-1.157c.586.964.195 1.35 1.563 1.157 1.368-.193 1.564-.193.586-1.157-.977-.965-2.344-.58-2.149 0zm25.989 11.962c.782-.386-.195-1.543-1.368-.771-1.368.771.391 1.157 1.368.771zm5.862-16.979c.977 0 0-.772-.391-.579-1.172 0-.586.58.391.58zm4.495-1.35c-.587.192-.977.578-.391.578s.977-.771.391-.578zm10.356 1.543c.782 0 .586-.386 0-.386-.391-.193-.782.386 0 .386zm8.012 38.975c.977-1.35-3.127-.193-2.931.965 0 1.544 1.758.386 2.931-.965zm8.207-1.736c-.977-.386-1.954.965-1.173 1.157.782.193 2.931-.386 1.173-1.157zm12.897 3.473c-1.564-.772-3.713.193-2.15.965 1.563.771 2.931 1.157 3.322 0 .195-.58-.195-.386-1.172-.965zm12.506-.386c-1.564 0-2.345 2.122-.977 1.93 1.367-.194 2.344-.773 2.344-1.158-.195-.386-.39-.772-1.367-.772zm56.277-41.677c.781 0 .39-.578-.587-.578-.391-.193-.195.578.587.578zm5.862-1.35c-.586 0-.782 0-.196.386.587.386 1.368.193 1.368 0s-.586-.386-1.172-.386zm10.161 7.332c.781.386 1.368 1.157 1.563.579.195-.58-.195-.965-.977-1.158-1.172-.386-1.172.193-.586.579zm17.586 0c-.977 0-.977.579-.195.771.782 0 1.368-.192 1.368-.385s-.196-.386-1.173-.386zm14.46 9.454c.196.386.587.579.977.579.391 0 .196-.579-.39-.965-.587-.193-.977 0-.587.386zm-8.988 30.1c.977-.579-.782-2.123-1.954-.58-1.173 1.93 1.172 1.159 1.954.58zm9.575.193c-1.564-.58-2.736.193-1.564.771 1.173.58 3.127 1.351 3.127.58 0-.58-.391-.773-1.563-1.351zm13.678-2.316c-1.759-.193-1.954.386-1.172.772.781.386 2.149.193 2.345-.193 0-.193-.587-.386-1.173-.579zm17-6.367c1.173.386 1.173.772 1.368.193.196-.579-.391-.772-1.172-.965-.782-.386-1.368.386-.196.772zm57.059 9.454c-1.563-.771-.977.58-.391.965.586.386 1.563.772 1.563.193s-.195-.579-1.172-1.158zm16.023-.578c-.781-.193-1.172.193-.391.964.587.772 1.368.58 1.173 0-.196-.578 0-.771-.782-.964zm-41.621-22.19c.977 0 .391-.578-.196-.771-1.368-.193-.781.772.196.772zM280.767 25.47c-.782-.193-1.368.579-.391.579.977 0 1.368-.386.391-.579zm-44.748-5.981c-.977-.386-.782.578-.196.578.587 0 .587-.385.196-.578zm1.954-.772c-.391 0-.782.579-.196.579.587 0 .977-.386.196-.58zm-3.322-2.316c-.586 0-1.173.386-.391.386.586.193.782.193.782-.193s-.196-.192-.391-.192zm-9.184 1.93c.781-.386-.196-.386-.586-.193-.391.386-.196.579.586.193zm-17.782-2.122c-.586-.193-.782.193-.196.385.782.193.782-.192.782-.192s-.195 0-.586-.194zm5.667-1.158c-.587 0-.782.386-.587.386.196 0 .977 0 1.173-.193.195-.193-.196-.193-.586-.193zm1.563 2.315c0 .193.586.386.781.193.196-.193.196-.193-.39-.386-.391-.193-.391 0-.391.193zm4.103-.964c-.39 0-.586.385-.39.385.195 0 .586 0 .781-.193 0 0 0-.192-.391-.192zm-12.506 5.402c-.586 0-.977.193-.586.579.196.193 1.368.193 1.368 0 0-.386 0-.58-.782-.58zm5.081 1.35c-.586 0-.977 0-.782.387.196.385 1.368.192 1.368 0 0-.193-.195-.386-.586-.386zm-1.368-2.122c-.391 0-.782.386-.391.579.196.193 1.173.193 1.173-.193-.196-.193-.391-.386-.782-.386zm-8.012 2.509c-.39 0-.781.192-.39.385.39.193.977 0 .977-.193 0-.192-.196-.192-.587-.192zm-10.551-7.14c-.391 0-.587.386-.196.386.391 0 .782 0 .782-.193 0-.192 0-.192-.586-.192zm-15.047-.385c-.586 0-.781.192-.391.386.391.192.977 0 .977-.194 0-.192-.195-.192-.586-.192zm-16.805 2.7c-.586-.192-1.758.194-.977.387.782.386 1.564 0 1.564-.193s-.196 0-.587-.193zm2.736-.578c-.391 0-.977.193-.391.386.391.193.977 0 .977-.193 0 0-.391-.193-.586-.193zm-84.61 9.069c-1.173.192-1.173.771-.196.771.977 0 1.172 0 1.172-.386s-.39-.579-.977-.386zm3.712-.965c-.782 0-.977.386-.586.579.39.192 1.172 0 1.172-.193.196-.193.196-.386-.586-.386zm-12.31 1.93c-.391 0-.978.578-.196.771.782.193 1.368 0 1.172-.386-.195-.386-.586-.386-.977-.386zm2.93 1.157c-.39 0-.586.193-.39.386.195.193.781.193.781 0 .196-.386 0-.386-.39-.386zM39.05 36.467c-.586 0-1.172.579-.586.772.586.193 1.759 0 1.759-.386 0-.193-.391-.58-1.173-.386zm-4.494 1.158c-.39.193-.195.578.195.578.391 0 .782-.193.587-.386-.196-.385-.196-.385-.782-.192zm305.811-6.947c-.391 0-.587.194-.196.386.391.193.782.386.782 0 .195-.386 0-.386-.586-.386zm-2.15-1.543c-.391 0 .195.579.391.579.195 0 .391-.193.391-.193-.196-.386-.586-.579-.782-.386zm8.012 1.158c-.391 0-.586.192-.196.386.391 0 .782.192.782 0 0-.194.195-.386-.586-.386zm1.954.771c-.196 0-.586.193 0 .386s.586.193.586 0c.195-.193 0-.386-.586-.386zM108.419 15.243c-.782 0-1.368.772-.391.772.977 0 1.758-.193 1.368-.58-.587-.192-.587-.192-.977-.192zm1.954-1.544c-.587 0-1.173.386-.391.772.781.386 1.368.193.977-.193-.196-.193 0-.579-.586-.579zm7.425-.193c-.586.193-.782.58-.391.58s1.173 0 .977-.387c-.195-.193-.391-.193-.586-.193zm2.149-1.35c-.39-.193-.781.385-.39.579.391.192.781-.194.39-.58zm-1.758-1.158c-.586 0-.782.386-.196.772.587.193.977.193.782-.193 0-.386-.195-.386-.586-.579zm17 .579c-.586 0-.977.964-.391.964.587 0 1.173-.192 1.173-.385s-.196-.58-.782-.58zm14.656-.386c-.587 0-.782.772-.196.772.586 0 1.173 0 1.173-.193-.196-.386-.196-.772-.977-.58zm1.758.772c-.586 0-.781.386-.391.772.391.192 1.173.385 1.173 0-.195-.386-.391-.772-.782-.772zm4.885-.58c-.39 0-.977.58-.586.58.391.193.782-.193.977-.386.196-.193.196-.193-.391-.193zm.587 1.159c-.391 0-.782.578-.196.578.586 0 .782 0 .586-.385 0-.194.196-.194-.39-.194zm5.08-.58c-.391.194-.781.387-.391.387.196 0 .587-.193.782-.193 0 0-.195-.193-.391-.193zm-1.758.965c-.196.193-.196.58.195.386.391-.193.586-.193.391-.386-.196-.192-.196-.192-.586 0zm14.46-1.736c-.391-.193-.782.193-.391.386s.781.193.781 0 .196-.193-.39-.386zm-1.954.579c-.391 0-.391.579-.196.579.196 0 .782-.193.586-.386-.195-.193 0-.193-.39-.193zm5.471.579c-.196-.193-.586.192-.195.192.39.194.586.386.586.194 0-.194 0-.194-.391-.386zm2.931-.193c-.195 0-.586 0-.195.193.39.192.586.192.586.192s0-.192-.391-.385zm1.563.771c-.391 0-.391.193-.195.193.195 0 .586.193.586 0s0-.193-.391-.193zm4.104-1.35c-.586 0-.586.579-.196.579.391 0 .587 0 .587-.386 0-.193 0-.193-.391-.193zm-.391-2.123c-.391 0-.391.193-.195.386.195 0 .586 0 .586-.193 0 0 0-.193-.391-.193zm1.368.386c-.196-.193-.391 0-.196.386.391.386.587.386.391.193.196-.386.196-.386-.195-.579zm3.126.193c-.391 0-.586.193-.391.193h.782s-.195 0-.391-.193zm1.564-.579c-.196 0-.391.193-.196.386.196.193.391.193.391 0 0 0 .195-.386-.195-.386zm.781 1.93c-.391 0-.586 0-.391.193.196.193.587.386.587.193 0 0 0-.193-.196-.386zm1.954-.965c-.391.193-.586.386-.195.386.391 0 .781 0 .781-.193-.195 0-.39-.193-.586-.193zm2.736-5.981c-.195 0-.782.772-.195.579.39 0 .977-.193.977-.386-.391 0-.587-.193-.782-.193zm13.092 0c-.391-.193-1.172.579-.391.579.977 0 1.368-.193.391-.58zm1.173-1.544c-.587 0-.977.579-.391.579s1.172 0 .977-.386c0-.193 0-.193-.586-.193zm.977 3.28c-.587-.193-.782.965-.196.965.586 0 .782-.193.782-.579-.196-.193 0-.386-.586-.386zm5.862.193c-.586-.193-.977.386-.391.58.586.192.977.578.977 0 0-.58-.195-.387-.586-.58zm2.735-3.859c-.586-.193-1.172.58-.586.772.586.193.977.193.977-.193 0-.193.391-.386-.391-.579zm3.127 8.297c-.391 0-.586.579-.391.579.391 0 1.173.193.977-.193 0-.193 0-.386-.586-.386zm-1.563.579c-.391 0-.587.386-.196.386.196 0 .587.193.587 0-.196-.193 0-.386-.391-.386zm3.322.579c-.196 0-.391.193-.196.193.196 0 .586.193.586 0s0-.193-.39-.193zm1.367-5.21c-.39 0-.781.386-.39.579.39.193.977.193.977 0-.196-.386-.196-.579-.587-.579zm1.955-3.087c-.391 0-.587.193-.391.386.195.193.781.193.781 0s0-.386-.39-.386zM233.478 0c-.586 0-1.172.386-.586.579.586.193 1.173.193 1.173-.193-.196 0-.196-.386-.587-.386zm.977 7.718c-.586 0-.781.579-.39.772.39.193.781 0 .977 0 .195-.193.195-.386 0-.386-.196-.386-.391-.386-.587-.386zm.978-2.123c-.391 0-.587.193-.391.386.195.193.781.193.781 0 0 0 0-.386-.39-.386zm3.321 3.86c-.39 0-.781 0-.586.192.196.193.782.193.782.193s0-.386-.196-.386zm.587-3.28c-.587 0-.782.578-.391.578s.977-.193.977-.386-.391-.193-.586-.193zm2.149 3.472c-.195 0-.586.386-.195.58.391.192.781.385.781.192 0-.386-.195-.965-.586-.772zm2.736-.193c-.196 0-.391.386-.391.386.195.193.586.193.782 0 .195 0 .195-.386-.391-.386zm-1.563-1.157c-.391 0-.587.386-.391.579.195.193.977.193.977 0 0-.386 0-.58-.586-.58zm1.954-4.245c-.587 0-.587.579-.391.579.391 0 .977-.193.781-.386.196-.193.196-.193-.39-.193zm2.149.772s-.195.193-.195.386c.195.193.586.385.586.192 0-.385-.196-.578-.391-.578zm.391 6.56c-.196 0-.391.193-.196.193.196 0 .587.193.587 0-.196 0-.196 0-.391-.193zm1.954-1.544c-.195 0-.586.193-.391.386.196.193.586 0 .586-.193s.196-.386-.195-.193zm1.368-1.35c-.196 0-.391 0-.391.193s.586.193.586 0 .196-.193-.195-.193zm.195 1.543c-.391 0-.391 0-.391.193s.196.193.587.193c.195 0 .39 0 .39-.193s-.39-.193-.586-.193zm-3.908 5.403c-.586 0-.782.386-.391.579.391.192 1.173.192 1.173-.193-.196-.193-.196-.386-.782-.386zm1.368.771c-.391 0-.391.58-.196.58.391 0 .782.192.782 0 0-.194 0-.58-.586-.58zM122.879 18.91c-.587 0-.782.386-.391.579.391 0 .781-.193.781-.193s0-.386-.39-.386zm1.563.386c-.391 0-.391.386 0 .386s.781.192.781 0c-.195-.386-.586-.58-.781-.386zm0-.965c-.391 0-.391.193-.196.386.391 0 .782 0 .782-.193s-.195-.386-.586-.193zm-4.69 1.93c-.195 0-.391.192 0 .385s.977 0 .977-.193c-.195-.193-.586-.386-.977-.193zm-4.494-.194c-.391 0-.391.193-.196.193.196 0 .391 0 .391-.193 0-.192.196 0-.195 0zm-1.173-.192c-.195.192-.195.192 0 .192h.391c0-.192-.391-.386-.391-.192zm.782-.193c-.195 0-.195.192 0 0 0 .192.195.192.195.192s0-.192-.195-.192zm2.345-.193c-.196 0-.391.193-.196.193h.391s0-.193-.195-.193zm-6.449 2.508c-.195 0-.39.386 0 .386.391 0 .587 0 .587-.193s-.391-.386-.587-.193zm-1.367-.193s0 .193.195.193.391-.193.195-.193c-.195-.193-.39 0-.39 0zm-.782-.772c0 .193 0 .193.195.193.196 0 .391-.193.196-.193-.196-.193-.391-.193-.391 0zm-3.713.386c-.195 0-.391.193-.195.193h.391s0-.193-.196-.193zm-4.494-.965c-.586 0-.782.193-.391.386s.977.193.977 0-.195-.386-.586-.386zm-1.563.772c-.196 0-.391.193-.196.193.196 0 .586 0 .586-.193s-.195 0-.39 0zm1.367.193c-.195 0-.39.193-.195.193s.391.193.391 0c0 0 0-.193-.196-.193zm1.564-.386c-.196 0-.391.193-.196.193h.391c.196-.193.196-.193-.195-.193zm-13.483.772c-.587 0-.977.579-.391.772.586.193 1.563.193 1.368-.193 0-.579-.391-.58-.977-.58zm-6.253-5.981c-.977.386-.782.771 0 .964.781.193 1.563 0 1.368-.579 0-.385-.782-.578-1.368-.385zm.195-2.123c-.586.193-.586.772-.195.772.39 0 1.172 0 .977-.386 0-.193-.196-.579-.782-.386zm-6.84 2.894c-.585.193-.976.772-.39.965.586.193 1.954-.193 1.759-.579 0-.579-.587-.578-1.368-.386zm-16.413 7.14c-.977.192-1.173.964-.196.964.782 0 1.368 0 1.173-.386-.196-.386-.391-.579-.977-.579zm-2.931-1.158c-.391.386-.782.771-.196.771.782 0 1.173-.385.977-.578 0-.386-.39-.386-.781-.193zm-2.54 5.595c-.196 0-.587.579 0 .579.586 0 1.172 0 .977-.386 0-.193-.391-.386-.978-.193zm63.702-3.28c-.586 0-.782.386-.391.386s.782 0 .977-.193c0-.193-.195-.193-.586-.193zm-6.449 1.544c-.195.193-.195.386.196.386s.781-.386.586-.386c-.195-.193-.586-.193-.782 0zm3.713 1.543c-.195 0-.195.386 0 .386.196 0 .586-.193.586-.386s-.195-.193-.586 0zm3.713.386c-.391 0-.391.386-.196.386.196 0 .587.193.587-.193 0-.193-.196-.193-.391-.193zm-7.035 11.191c-.781.193-1.368.386-.781.772.586.386 1.758.193 1.758-.193s-.195-.772-.977-.579zm6.644-.965c-.586 0-1.563.58-.782.772.782.193 1.954.193 1.954-.193.196-.386-.39-.579-1.172-.579zm-6.253 20.067c-1.563.965-1.368 1.543 0 1.543s1.759-.964 1.563-1.35c-.195-.386-.977-.58-1.563-.193zm-62.334-4.052c-.391 0-.977.386-.587.579.587.193 1.173 0 1.173-.193.195-.386-.196-.58-.586-.386zm-3.909-1.93c-.39 0-.781.58-.39.772.586.193 1.367-.193 1.172-.579 0-.193.195-.193-.782-.193zm38.69-13.699c-.39 0-.976.193-.585.386.39.193.781.193.977 0 .195-.193 0-.386-.391-.386zm1.76-1.543c-.391 0-.391.193-.196.386s.782 0 .782-.193 0-.386-.587-.193zm4.69-.965c-.196 0-.782.579-.196.579.586 0 1.563 0 1.563-.386-.195-.193-.586-.193-1.368-.193zm24.034.579c-.586 0-.781.386-.391.579.391.193 1.173.193 1.173-.386 0-.386-.196-.193-.782-.193zm27.748-16.787c-.586 0-.977.386-.586.58.39.192 1.367.385 1.367 0 0-.387-.195-.58-.781-.58zm-5.081 5.403c-.781.193-.977.772-.195.772.586.193 1.368 0 1.368-.386-.196-.386-.587-.58-1.173-.386zm11.725-4.052c-.587 0-.977.386-.391.579.586.193.977.193 1.172-.193-.195-.193.196-.193-.781-.386zm11.919-5.21c-.586 0-.39.386-.195.386s.782-.193.782-.193-.196-.192-.587-.192zm4.886 1.351c-.391 0-.391.386 0 .386.39 0 .586 0 .586-.193s-.196-.193-.586-.193zm53.932 18.909c-1.368-.193-.977.579-.391.772.781.193.977.578 1.172 0 .391-.58 0-.58-.781-.772zm2.149 0c-.391 0-.586.193-.391.386.196.193.977.193 1.173 0 .195-.386.195-.193-.782-.386zm35.759-23.54c-.195 0-.586.193-.195.386.391.193.586 0 .586-.193s-.195-.193-.391-.193zm.977-.193c-.195 0-.195.193 0 0 0 .193.196.193.196.193s0-.193-.196-.193zm-1.954-.386c-.195 0-.195.194 0 .194h.391c0-.194 0-.194-.391-.194zm-2.931 1.737c-.391 0-.195.386 0 .386.196 0 .391 0 .391-.193s-.195-.193-.391-.193zm1.368.579c-.195 0-.391 0-.195.193.195.193.39.193.586 0 0-.193 0-.193-.391-.193zm-2.149.772c-.196 0-.391.193 0 .386.195 0 .586.192.586 0-.196-.386-.391-.386-.586-.386zm-1.759-2.123c-.195 0-.391.193-.195.193.195.193.586.193.586 0 0 0 0-.193-.391-.193zm10.161 5.21c-.782 0-.586.579-.195.579.391 0 .977.193.977-.193s-.196-.386-.782-.386zm2.15-.772c-.391 0-.587.386-.391.579.391 0 .781.193.781 0 .196-.386 0-.579-.39-.579zm-1.955-1.35c-.195 0-.39.385.196.385.391 0 .586 0 .586-.193-.195-.193-.391-.386-.782-.193zm4.886-.772c-.391-.193-.587.193-.391.193.195.192.781.192.781 0 .196-.193 0 0-.39-.193zm3.908 2.315c-.391 0-.586.386-.391.579.195.193.782.193.782 0 .195-.386.39-.579-.391-.579zm5.08-7.332c-.39 0-.781.386-.39.579.39.193.977.193.977 0 0-.386 0-.579-.587-.579zm2.541-.965c-.391 0-.782.193-.391.386s.977.193.977 0c0-.386 0-.386-.586-.386zm-1.368-2.315c-.391 0-.782.386-.391.386.391.193.586.193.782 0 0-.193-.196-.386-.391-.386zm1.563-.193c-.195 0-.391.193-.195.386.195.193.586.193.586 0s0-.386-.391-.386zm-1.172-.965c-.196 0-.587.193-.196.386.391.193.586.193.586 0s0-.386-.39-.386zm-12.311 4.824c-.586 0-.391.386-.195.386.195 0 .586 0 .586-.193s-.196-.193-.391-.193zm1.563-.772c-.195 0-.586.386-.195.386.391 0 .781-.193.781-.193s-.195-.386-.586-.193zm-.586-1.93c-.391 0-.586.387-.195.58.39 0 .977 0 .781-.193 0-.193 0-.386-.586-.386zm1.759.772c-.196 0-.391.193-.196.193.196.193.391 0 .391-.193s0 0-.195 0zm2.931 2.509c-.782 0-.391.386 0 .386.391.193.781 0 .781-.193l-.781-.193zm-78.163 33.38c-.977 0-.781.771 0 .964.782.193 1.173-.193 1.173-.386 0-.386-.196-.578-1.173-.578zm11.92-2.895c-.782 0-.977.58-.586.772.391.193 1.172-.193 1.368-.386 0-.193-.196-.386-.782-.386zm31.656 0c-.782 0-.977.772 0 .772s1.368.193 1.368-.193-.977-.579-1.368-.579zm2.736-.772c-.587 0-.782.194-.391.386.391.193.781.193.781 0s-.195-.578-.39-.386zM248.916 30.1c-.978 0-.782.964.195.964.977 0 1.172 0 1.172-.386-.39-.578-.781-.578-1.367-.578zm12.701 12.155c-.782 0-.586.965.195.965.977 0 .587-.386.587-.579 0-.386-.391-.386-.782-.386zM158.052 64.251c-1.173 0-1.368 1.158-.196 1.35 1.173 0 1.564-.578 1.368-.964 0-.579-.391-.386-1.172-.386zm8.207-13.12c-.391 0-.782.386-.196.579.587.193.977.193.977-.193s-.39-.193-.781-.386zm-24.035-3.473c-.586.193-.977.772 0 .772s1.172 0 .977-.386c0-.193 0-.58-.977-.386zm-59.6 17.365c-.78.193-.39 1.158.392.965.781 0 .977-.386.781-.772-.195-.193-.586-.386-1.172-.193zm-2.93-.193c-.196.193-.196.386.195.386s.587 0 .587-.386c0-.193-.391-.193-.782 0zM-25.63 62.515c-.586.193-.39.964 0 .964s.977 0 .782-.386c0-.771-.196-.771-.782-.578zm232.729 6.367c-1.564.386-2.541 1.543-.587 1.736 1.954.193 2.541-.385 2.736-.771 0-.58-.586-1.351-2.149-.965zm56.472-2.315c-1.563.193-.977 1.929 0 2.122.977.193 1.563-.193 1.563-.965.196-1.157 0-1.35-1.563-1.157zm12.311-9.84c-1.368.964-1.564 1.929 0 1.929 1.563 0 2.149-.58 1.758-1.158-.391-.579-.977-1.35-1.758-.772zm3.908-.387c-.391 0-.587.386-.196.58.391.192.977.192.977-.194-.195-.193-.391-.578-.781-.386zm19.931-10.805c-1.368.193-1.954 1.737-.391 2.123 1.368.193 2.15-.579 2.15-1.158s-.782-1.158-1.759-.965zm4.299-.578c-.391 0-.977.386-.391.771.586.386 1.368.193 1.563-.193.196-.385-.586-.578-1.172-.578zm-7.621-26.627c-.586 0-.781.386-.195.579.586.193 1.172.193 1.172-.193-.195-.386-.391-.386-.977-.386zm2.931-.386c-.391 0-.781.386-.391.386.391 0 .782 0 .782-.193s0-.193-.391-.193zm-1.368-3.087c-.39 0-.586.386-.195.579.391.193.977 0 .977-.193s-.195-.386-.782-.386zm-11.333-6.56c-.391 0-.586.193-.391.386.195.193.782.193.782 0 .195-.193 0-.193-.391-.386zm2.149.386c-.195 0-.39.193 0 .386.391.192.782 0 .782-.193s-.195-.386-.782-.193zm-.781-1.158c-.391 0-.586.193-.196.386.391.193.587 0 .587-.193.195-.193 0-.386-.391-.193zm1.758 3.666c-.39 0-.586.193-.195.386.391.193.782.193.782 0s-.196-.386-.587-.386zm1.173-.193c-.196 0-.391.193-.196.193.196.193.391.193.587 0 0-.193-.196-.193-.391-.193zm-7.23.386c-.196.193-.586.193-.196.386.391.193.587 0 .587-.193.195-.193-.196-.386-.391-.193zm12.897-4.438c-.196 0-.587.193-.391.386.195.193.586.386.781.193.196-.386 0-.579-.39-.579zm-2.541-1.736c-.195.193-.781.385-.391.385.391 0 .782 0 .782-.193 0-.192-.195-.192-.391-.192zm2.15-.193c-.196 0-.196.193-.196.385.196.193.391 0 .391 0 .196-.192.196-.385-.195-.385zm4.299 6.174c-.391 0-.391.193 0 .386s.391.193.586 0c0-.193-.195-.386-.586-.386zm1.563.386c-.195 0-.195.193 0 0 0 .193.195.386.195.193s.196 0-.195-.193zm-.391-1.93c-.195 0-.391 0-.195.193.195.193.391.193.586 0 0 0-.195-.193-.391-.193zm1.173-.193c-.196 0-.196.193-.196.193h.391c0-.193 0-.193-.195-.193zm-.196 3.666c-.195 0-.195 0 0 0 0 .193.196.193.196 0h-.196zm1.173-.771c-.196 0-.391.192-.196.192h.391c.195-.192.195-.192-.195-.192zm-19.736 13.699c-.391 0-.587.386-.391.386.195.193.977.386.977 0 0-.193 0-.386-.586-.386zm5.862 2.508c-.782 0-.782.579-.196.579.391 0 1.368.193 1.368 0-.195-.386-.391-.579-1.172-.579zm13.092-4.052c-.391 0-.977.386-.391.386.586.193.782.193.977-.193 0 0 0-.193-.586-.193zm17.391-10.226c-.586 0-.977.386-.391.579.587.193.977.193.977 0 0-.386.587-.579-.586-.579zm1.563.579c-.195 0-.39.193-.195.386.195 0 .586.193.586 0 0-.386.196-.579-.391-.386zm-2.344-5.788c-.391-.193-.782-.193-.587 0 .391.385.782.771.782.385.195 0 .195 0-.195-.385zm.781.964c-.195 0-.391 0-.195.193.195.193.391.193.391 0 .195-.193.195-.193-.196-.193zm2.15.772c-.391 0-.587.193-.196.386.196 0 .782.193.782 0-.196-.193-.196-.386-.586-.386zm1.367.193c-.195 0-.39.193-.195.386.195 0 .391 0 .391-.193s0-.386-.196-.193zm-12.115.386c-.195 0-.391.386 0 .386s.586 0 .586-.193c-.195-.193-.39-.193-.586-.193zm2.15-.193c-.196 0-.391.193-.196.193.196 0 .391.193.391.193 0-.193.196-.193-.195-.386zm-3.127 2.894c-.195 0-.391.193-.195.193h.391s0-.193-.196-.193zm-1.954-1.35c-.195 0-.391.192 0 0 0 .192.196.192.196.192l-.196-.192zm-.195.964s-.196 0 0 0c0 .193.195.193 0 0 .195 0 .195 0 0 0zm6.644-7.332c-.391-.193-.782.193-.391.386s.781.193.977.193c.195-.193-.196-.386-.586-.579zm-2.345-.193c-.196 0-.586.193-.391.386.195.193.586 0 .782-.193 0 0-.001-.193-.391-.193zm22.667 4.438c-.391 0-.586.386-.196.579.391.193.782.193.782-.193.195-.193-.195-.386-.586-.386zm-2.15-1.93c-.195.194-.586.194-.195.387.391.192.782 0 .782-.193s-.391-.386-.587-.193zm-.39 3.28c-.196 0-.391.387 0 .58.39.193.781.385.781 0 0-.386-.391-.772-.781-.58zm-5.667-3.28c-.196 0-.391.194-.196.194.196 0 .391.193.391 0l-.195-.193zm-1.173-.192c-.195-.193-.39 0 0 0 0 .193.196.193 0 0 .196 0 .196 0 0 0zm.782-.386c-.195 0-.195.193 0 0 0 .193.195.386 0 0 .195 0 .195.193 0 0zm0 3.473c-.195 0-.391.193-.391.193 0 .193.391.193.586.193.196 0 .196-.193 0-.386-.195-.193 0 0-.195 0zm.977 1.736c-.195.193-.586 0-.391.193.196.193.391.193.586.193.196 0 .391-.193.196-.386 0-.193-.196 0-.391 0zm1.759-2.122c-.196 0-.587 0-.391.193.195.193.586.193.586 0s0-.193-.195-.193zm.39-3.666c-.195.193-.39.386-.195.386s.391-.193.391-.193c.195-.193 0-.386-.196-.193zm0 11.19c-.39 0-.586 0-.586.194 0 .193 0 .193.586.193.587 0 .587-.193.391-.386-.195-.193-.195 0-.391 0zm2.541-3.086c-.391 0-.782-.386-.782 0s.196.193.391.386c.391.192.586 0 .782-.193 0-.193-.196-.193-.391-.193zm2.931-.772c-.196.193-.586 0-.586.386 0 .193.195.386.586.193.391-.193.586-.193.586-.58-.195-.385-.391-.192-.586 0zm1.563 3.28c-.782 0-1.172.386-.782.579.391.193 1.173.193 1.173 0 0-.386 0-.579-.391-.579zm-19.931 1.158c-.391 0-.587.386-.196.386.391.192.977.192.977 0-.195-.386 0-.386-.781-.386zm1.563.193c-.196 0-.195.193-.195.193.195 0 .586.192.586 0 0-.193-.196-.193-.391-.193zm-.586-.772c-.196 0-.391.386-.196.386.196 0 .587 0 .587-.193s-.001-.386-.391-.193zm15.241 5.981c-.586-.193-.977 0-.586.193s.782.386.977.193c0-.193 0-.193-.391-.386zm2.541.772c-.196-.193-.587-.193-.391.193.195.386.391.579.586.386 0-.193 0-.193-.195-.579zm7.034-3.859c-.391 0-.781.386-.391.386.391 0 .977.193.977 0 0-.386-.39-.579-.586-.386zm-.586 1.158c-.195.193-.195.386.195.386.391 0 .587 0 .587-.193s-.196-.386-.391-.386c-.196 0-.196 0-.391.193zm7.035.964c-.391 0-.587 0-.587.193s.196.193.587.193c.39 0 .39 0 .39-.193s-.195-.193-.39-.193zm1.758-.771c-.195 0-.586.193-.39.386.195.192.781.192.781 0 0-.193 0-.386-.391-.386zm-1.172-8.297c-.391-.193-.977.193-.391.386s.977.386.977.193-.195-.386-.586-.58zm-1.368-2.894c-.391 0-.782.771-.195.771.781 0 .977-.385.977-.578-.196-.193-.196-.193-.782-.193zm19.15 16.593c-.391 0-1.368.386-.586.579.781.386 1.563.772 1.563.193s-.391-.579-.977-.772zm3.713 1.35c-.391-.192-.978 0-.587.387.391.386 1.368.964 1.564.385 0-.385-.391-.385-.977-.771zm-.782-1.929c-.586 0-.782.58-.196.58.391 0 .978 0 .978-.194 0-.193-.196-.386-.782-.386zm0-5.595c-.391.193-.196.386 0 .386.391 0 .391-.193.391-.193 0-.193 0-.193-.391-.193zm1.563-.386c-.391 0-.391.386-.195.386.195 0 .586-.193.586-.193s-.195-.193-.391-.193zm1.368 1.736c-.195 0-.391.193-.195.386.195.193.39.193.586 0 0-.193-.196-.386-.391-.386zm1.368-.771c-.196 0-.391.193-.196.193.196 0 .587 0 .587-.193h-.391zm1.368-.386c-.196 0-.196.193 0 .193.195 0 .195 0 .195-.193s-.195-.193-.195 0zm0 .964c-.196 0-.196.194 0 .194.195.192.195.192 0-.194.195 0 .195.194 0 0zm7.816 4.824c-.391 0-.391.772.195.772.587 0 .782.193.782-.193s-.391-.772-.977-.579zm3.126-.193c-.39 0-.39.386-.195.58.195.192.586.385.782 0 .39-.387 0-.58-.587-.58zm.391-3.666c-.391.193-.781.193-.391.386.391.193.977.193.977-.193-.195-.193-.39-.386-.586-.193zm3.518 1.737c-.391 0-.782.386-.391.579.391.193.977.193.977-.193s.195-.193-.586-.386zm2.149 4.245c-.195.193-.195.386.195.386.196 0 .391 0 .391-.194 0-.192-.391-.385-.586-.192zm15.632.386c-.39.192-1.172.578-.39.578.781 0 1.172 0 1.172-.386-.195-.385-.391-.386-.782-.192zm2.15-.194c-.586 0-.782.58-.195.58.586 0 .977-.194.781-.387-.195-.193-.195-.193-.586-.193zm-.782 2.316c-.39 0-.39.579 0 .772.391 0 .977.193.782-.193-.195-.58-.195-.58-.782-.58zm1.564-.386c-.196.193-.196.386 0 .386.195 0 .39.193.39-.193s-.39-.386-.39-.193zm1.367-.965c-.195 0-.781.386-.195.386.586 0 .782.193.782 0 0-.386 0-.386-.587-.386zm6.644 7.525c-.586-.193-.391.386 0 .579.391.193.782.386.977.193.196-.579-.391-.579-.977-.772zm2.736.386c-.391-.193-.586.193-.195.386.39.193.781.386.781 0s-.391-.386-.586-.386zm-1.173-.965c-.195 0 0 .193.196.386.195 0 .391 0 .391-.193s-.391-.193-.587-.193zm3.518-.386c-.196 0-.586.193-.391.386.195.193.586.386.782.193 0-.193 0-.386-.391-.578zm-3.322-7.331c-.196 0-.391.193 0 .385.195.193.391 0 .391 0l-.391-.386zm.977 0c-.195 0-.391.192 0 0 0 .192 0 .192 0 0 0 0 0 .192 0 0zm2.345-.965c-.196 0-.196.386 0 .386.195 0 .391 0 .391-.193 0 0 0-.193-.391-.193zm-.977-1.544c-.196 0-.196.193 0 .193.195 0 .391 0 .195-.193h-.195zm.977-.193s-.196.193 0 .193c.195 0 .195 0 .195-.193s0 0-.195 0zm8.988 16.787c-.39 0-.39.192-.195.386.195.192.586.192.586 0 0-.194-.391-.386-.391-.386zm-1.367-.193s0 .193 0 0c.195.193.39.193.39 0s-.195 0-.39 0zm.781-.386c0 .193-.195.193 0 0 0 .386.196.386 0 0 .196 0 .196.193 0 0zm6.253-2.509c-.391 0-1.172.193-.391.386.587.193 1.173.386 1.173.193-.196-.386-.391-.579-.782-.579zm.586 1.737c-.39 0-.586.193-.195.386.391.193.782.193.782 0s-.391-.386-.587-.386zm2.736-.193c-.195 0-.586.193-.195.193h.391s0-.193-.196-.193zm-3.713 9.454c-.781-.386-.977-.193-.586.193s.782.772.977.386c.196-.193 0-.193-.391-.579zm2.15.58c-.391-.194-.586.192-.391.192.195 0 .782.579.782.386 0-.193-.196-.386-.391-.579zm13.483 9.647c-.391-.193-.782.192-.391.385s.977.772.977.386 0-.386-.586-.771zm2.345-.193c-.391 0-.586.386-.196.386.391 0 .782.385.782.192 0-.386 0-.578-.586-.578zm-49.633-8.104c-.587 0-.977.386-.391.772s1.368.771 1.172.193c-.195-.58 0-.772-.781-.965zm-9.184-.193c-.587 0-.587.386 0 .772.586.193 1.172.386 1.172 0s0-.772-1.172-.772zm10.942 3.666c-.39 0-.586.386-.195.579.391.193.977.386.977 0 0-.193 0-.58-.782-.58zm-18.759 9.068c-.39 0-.195.386.196.58.391.192.781-.58-.196-.58zM344.274 43.8c-.587 0-.587.965 0 .579.586-.193.586-.58 0-.58zm10.356 5.595c-.195-.193-.781.193-.195.386.586.193.781 0 .195-.386zm8.989-11.77c-.782 0-.391.386 0 .58.391 0 .586-.58 0-.58zM7.199 43.993c-.587 0-.392.386 0 .386.39 0 .39-.386 0-.386zm1.953.193c-.39 0-.39.386 0 .386.391-.193.391-.386 0-.386zm8.012-4.438c-.39 0-.39.579 0 .579.586-.193.39-.579 0-.579zm3.517 0c-.39-.193-.781.386-.195.386.39 0 .586-.193.195-.386zm1.954-1.35c-.39 0-.586.578-.195.578.586-.193.781-.772.195-.579zm1.954 10.611c-.39 0-.195.772.196.58.586 0 .39-.58-.196-.58zm-7.425 8.683c-.782 0-.782 1.158 0 .965.977-.193 1.172-.772 0-.965zm9.77 12.156c-.586 0-.781.964 0 .964.782-.386.782-.964 0-.964zm-31.07-1.351c-.586-.386-1.563.965-.39.965 1.368 0 .977-.772.39-.965zm-19.345-8.104c-.586-.193-.39.58 0 .58.391-.194.391-.387 0-.58zm-.781 9.84c-.391 0-.782.772 0 .772.586 0 .781-.772 0-.772zM91.809 49.008c-.586-.193-.977.58 0 .58s.782-.387 0-.58zm-4.69-.964c-.586 0 .196.772.587.386.195 0-.196-.386-.587-.386zm-19.54 4.63c-.587-.193-.782.772 0 .772.781-.193.781-.579 0-.772zM61.13 37.818c-1.172 0 .196 1.543.391 1.157.39-.386.782-1.157-.39-1.157zm32.047-11.191c-.196 0-.391.579.195.386.391 0 .391-.386-.195-.386zm9.966 5.595c-.391.193-.196.965.195.579.586-.386.391-.772-.195-.579zM130.89 56.34c-.391 0-.391.772.196.772.39-.193.781-.965-.196-.772zm8.207 14.085c-.586.193 0 .772.391.58.196-.194.977-.965-.391-.58zm41.036-3.665c-.587.192-.196.964.195.578s.391-.771-.195-.578zm-3.518-39.362c-.781 0-.586.772 0 .58.391-.194.782-.387 0-.58zm130.336 38.204c-.586 0-.195 1.736.586 1.35.782-.385.587-1.35-.586-1.35zm17.391-21.803c-.977 0-1.954 1.93-.586 1.543 1.172-.192 1.759-1.543.586-1.543zm9.575 6.946c-.586 0-.391.772.196.579.586-.193.781-.58-.196-.58zm-20.908-19.102c-.977-.193-.782.772-.196.772.587 0 1.564-.386.196-.772zm71.128 8.683c-.587-.193-1.368.193-.587.386.587.386.977 0 .587-.386zm-3.713-3.666c-.391-.193-.196.965.195.965s.196-.772-.195-.965zm7.23 12.927c-.391 0-1.173.58-.391.772.782 0 .977-.579.391-.772zm39.276-.386c-.977-.964-.586.386-.195.58.195.192.391-.194.195-.58zm2.345 1.544c-.195-.193-.586.193-.195.386.391.193.782 0 .195-.386zm-11.919-2.894c-.587 0-.391.579.195.579.586 0 .586-.386-.195-.58zm-4.104 23.54c-.195 0-.391.771.391.578.781-.193 0-.579-.391-.579z" fill="url(#xw4um0kyra)"/>
    <defs>
        <linearGradient id="xw4um0kyra" x1="216.015" y1="81.415" x2="216.015" y2="-5.081" gradientUnits="userSpaceOnUse">
            <stop stop-color="#8E7A1D"/>
            <stop offset=".277" stop-color="#BEB32C"/>
            <stop offset=".515" stop-color="#E1DC38"/>
            <stop offset=".703" stop-color="#F7F63E"/>
            <stop offset=".815" stop-color="#FFFF41"/>
            <stop offset=".843" stop-color="#FEFE53"/>
            <stop offset=".9" stop-color="#FBFC83"/>
            <stop offset=".979" stop-color="#F5F8CF"/>
            <stop offset="1" stop-color="#F4F7E4"/>
        </linearGradient>
    </defs>
</svg>
