<svg width="72" height="72" viewBox="0 0 72 72" fill="none" xmlns="http://www.w3.org/2000/svg">
    <mask id="swhdftzfha" style="mask-type:alpha" maskUnits="userSpaceOnUse" x="0" y="0" width="72" height="72">
        <circle cx="36" cy="36" r="36" fill="#EDA9F8"/>
    </mask>
    <g mask="url(#swhdftzfha)">
        <circle cx="36" cy="36" r="36" fill="#FFAFE9"/>
        <path d="M62.846 50.308c-.236-1.804-1.379-3.381-3.056-4.22-3.04-1.572-7.686-1.059-10.704.26a4.179 4.179 0 0 1-3.16.214 3.458 3.458 0 0 1-1.882-1.92c.108-.322.197-.622.257-.874.292.17.61.297.942.372a3.655 3.655 0 0 0 2.74-.482 5.846 5.846 0 0 0 2.48-3.626 6.261 6.261 0 0 0 .011-2.793 3.799 3.799 0 0 0-.143-.484 3.779 3.779 0 0 0-.23-.519 22.443 22.443 0 0 0 .837-8.428c-.216-2.822-1.01-6.756-3.625-9.476-4.278-4.44-8.451-5.332-13.8-5.332-7.547 0-11.367 4.998-12.975 7.978-2.048 3.807-1.736 8.073-.87 9.855.019.649.103 1.294.251 1.927l.05.241c.242 1.5.383 3.014.425 4.531.01 2.456.34 4.902.985 7.28 1.063 3.057 5.127 6.649 8.972 6.878.257.016.518.024.784.024a14.601 14.601 0 0 0 1.98-.152c.675 1.626 1.024 3.7.432 4.538a1.271 1.271 0 0 1-.088.083c-.603.342-1.231.638-1.881.887l-.862.373c-3.826 1.688-8.518 4.208-10.857 8.749-1.158 2.244-.193 3.528.821 4.214C23.253 72.127 27.768 73 34.1 73c8.977 0 15.291-2.304 17.611-3.667l.278-.163c1.207-.706 3.03-1.773 2.617-3.545-.862-3.723-4.038-7.178-8.706-9.475a19.306 19.306 0 0 0-1.146-.536c-1.243-.888-2.035-4.063-2.424-6.328 1.804 4.707 7.25 8.098 12.292 8.842.363.052.731.078 1.098.078a7.939 7.939 0 0 0 5.424-2.095c1.538-1.54 2.176-3.716 1.702-5.803zM43.947 56.31c-.066.621-.417.725-1.11.932l-.005.002c-.512.11-.991.33-1.401.645a6.955 6.955 0 0 0-.97 1.107l-.005.005c-.498.647-1.012 1.316-1.64 1.487a3.146 3.146 0 0 1-.754.126 5.036 5.036 0 0 1-1.5-.202c-.25-.062-.49-.12-.703-.152a3.79 3.79 0 0 0-.391-.05 6.593 6.593 0 0 0-1.719.182c-.37.086-.749.136-1.13.147a.437.437 0 0 0-.13-.013c-.046-.017-.415-.175-.415-.175a1.294 1.294 0 0 1-.718-1.068c-.02-.334.005-.67.078-.997l.596-.257a12.9 12.9 0 0 0 2.104-1.016c.068-.054.133-.112.195-.173.074-.072.14-.15.196-.235.832-1.199.323-3.583-.311-5.22a18.358 18.358 0 0 0 2.779-.743.514.514 0 0 0 .318-.667.546.546 0 0 0-.694-.306c-1.046.38-2.13.658-3.235.83-.972.17-1.962.226-2.948.17-3.083-.183-6.98-3.183-8.02-6.172a27.745 27.745 0 0 1-.93-7.003 34.835 34.835 0 0 0-.442-4.677l-.053-.25a8.249 8.249 0 0 1-.24-1.84c0-.056 0-.161-.006-.302-.133-3.514.585-5.648 2.135-6.344a4.515 4.515 0 0 0 1.645-1.46 2.909 2.909 0 0 1 1.549-1.246 3.696 3.696 0 0 1 2.09.024 5.696 5.696 0 0 0 1.61.208 11.17 11.17 0 0 0 2.244-.276 5.797 5.797 0 0 1 2.93-.01c.715.21 1.296.712 1.589 1.372a4.1 4.1 0 0 0 2.316 1.997c1.987.655 2.695 2.31 2.178 5.058a7.397 7.397 0 0 0-.095 2.126c.198 2.475 1.417 4.65 2.437 5.1l.04.03a.33.33 0 0 0 .047.013c.015 0 .03.018.045.024.016.005.038 0 .056 0a.72.72 0 0 0 .108.01.606.606 0 0 0 .202-.042.558.558 0 0 0 .169-.111.488.488 0 0 0 .054-.064.4.4 0 0 0 .045-.056c.177-.326.419-.615.712-.85a3.325 3.325 0 0 1 2.538-.68c.723.159 1.334.62 1.666 1.26.104.183.19.376.256.576.044.124.08.25.107.379.173.773.17 1.573-.01 2.344a4.78 4.78 0 0 1-2.004 2.972 2.538 2.538 0 0 1-1.919.35 3.091 3.091 0 0 1-1.235-.671.555.555 0 0 0-.546-.069.52.52 0 0 0-.324.428 7.858 7.858 0 0 1-.423 1.686 7.748 7.748 0 0 1-1.118 2.044c-.207.253-.43.492-.668.717-.283.255-.59.485-.917.688a.509.509 0 0 0-.219.583c.07.22.28.369.518.368.106 0 .21-.03.299-.087.099-.063.182-.126.274-.19.282 1.958 1.076 6.203 2.823 7.684z" fill="#fff"/>
        <path d="M42.836 57.242c.694-.207 1.045-.31 1.111-.932-1.747-1.48-2.541-5.726-2.823-7.684-.092.064-.175.127-.274.19a.547.547 0 0 1-.3.087.537.537 0 0 1-.517-.368.509.509 0 0 1 .219-.583c.327-.203.633-.433.917-.688.238-.225.462-.464.668-.717a7.748 7.748 0 0 0 1.118-2.044 7.858 7.858 0 0 0 .423-1.686.52.52 0 0 1 .324-.428.555.555 0 0 1 .546.069c.352.313.775.543 1.236.67a2.538 2.538 0 0 0 1.918-.349 4.78 4.78 0 0 0 2.003-2.972c.18-.771.184-1.572.011-2.344a2.912 2.912 0 0 0-.107-.38 3.172 3.172 0 0 0-.256-.576 2.469 2.469 0 0 0-1.666-1.26 3.325 3.325 0 0 0-2.538.68 2.821 2.821 0 0 0-.712.85.4.4 0 0 1-.045.057.488.488 0 0 1-.223.175.606.606 0 0 1-.202.042.72.72 0 0 1-.108-.01c-.018 0-.04.005-.056 0-.015-.006-.03-.024-.045-.024a.33.33 0 0 1-.047-.013.462.462 0 0 1-.04-.03c-1.02-.45-2.24-2.625-2.437-5.1a7.397 7.397 0 0 1 .095-2.125c.517-2.749-.191-4.404-2.179-5.06a4.1 4.1 0 0 1-2.315-1.996 2.502 2.502 0 0 0-1.588-1.373 5.797 5.797 0 0 0-2.93.01 11.17 11.17 0 0 1-2.246.277 5.696 5.696 0 0 1-1.608-.208 3.696 3.696 0 0 0-2.091-.024 2.909 2.909 0 0 0-1.55 1.245 4.515 4.515 0 0 1-1.644 1.46c-1.55.697-2.268 2.831-2.136 6.345.008.14.008.246.008.303.01.62.09 1.236.239 1.838l.053.251c.252 1.548.4 3.11.441 4.677.01 2.362.324 4.715.932 7.003 1.04 2.989 4.936 5.989 8.019 6.172.986.056 1.976 0 2.948-.17a17.196 17.196 0 0 0 3.235-.83c.28-.1.59.037.694.306a.514.514 0 0 1-.319.667c-.903.32-1.833.569-2.778.743.634 1.637 1.143 4.021.311 5.22a1.503 1.503 0 0 1-.196.235c-.062.06-.127.119-.195.173a12.9 12.9 0 0 1-2.104 1.016l-.596.257a3.574 3.574 0 0 0-.078.997c.029.452.3.857.718 1.069 0 0 .369.157.414.174a.437.437 0 0 1 .13.013c.382-.011.76-.06 1.131-.147a6.593 6.593 0 0 1 1.719-.182c.131.01.261.026.391.05.212.032.452.09.702.152.486.142.993.21 1.501.202.256-.011.51-.053.755-.126.627-.171 1.141-.84 1.64-1.487l.003-.005c.282-.4.607-.772.97-1.107.411-.314.89-.535 1.402-.646h.004z" fill="#fff"/>
        <path d="M21.28 31.971a.537.537 0 0 1-.515-.367.509.509 0 0 1 .213-.58 5.386 5.386 0 0 1 4.321-.146.515.515 0 0 1 .352.65.543.543 0 0 1-.675.34 4.377 4.377 0 0 0-3.406.024.563.563 0 0 1-.29.08zM36.942 31.745a.538.538 0 0 1-.2-.037c-1.002-.385-3.115-.503-3.684-.096a.554.554 0 0 1-.755-.104.506.506 0 0 1 .109-.726c1.045-.747 3.656-.447 4.728-.035.239.093.377.336.328.58a.534.534 0 0 1-.529.42l.003-.002zM25.005 34.962a.555.555 0 0 1-.335-.113 1.905 1.905 0 0 0-2.316 0 .554.554 0 0 1-.758-.082.506.506 0 0 1 .085-.73c.52-.4 1.166-.618 1.833-.618.666 0 1.313.218 1.833.619.18.137.248.369.172.577a.538.538 0 0 1-.51.347h-.004zM36.661 34.994a.55.55 0 0 1-.337-.115 1.913 1.913 0 0 0-2.315 0 .555.555 0 0 1-.742-.095.505.505 0 0 1 .072-.717c.52-.4 1.166-.617 1.83-.617.666 0 1.311.217 1.83.617.18.137.248.369.172.577a.54.54 0 0 1-.51.346v.004zM31.214 42.978a2.292 2.292 0 0 1-1.708.67 1.464 1.464 0 0 1-1.085-.444.554.554 0 0 0-.764-.105.505.505 0 0 0-.09.738c.471.54 1.167.85 1.9.848h.121a3.334 3.334 0 0 0 2.43-1.018.505.505 0 0 0-.056-.718.554.554 0 0 0-.748.027v.002zM28.784 41.5c.181 0 .36-.038.525-.112a.528.528 0 0 0 .284-.292.5.5 0 0 0-.017-.4.53.53 0 0 0-.306-.27.56.56 0 0 0-.415.02.154.154 0 0 1-.15 0 .39.39 0 0 1-.171-.19.52.52 0 0 0-.414-.595.54.54 0 0 0-.637.37c-.084.446.1.9.475 1.174.23.19.523.294.826.296z" fill="#2C2953"/>
        <path d="M62.846 50.308c-.236-1.804-1.379-3.381-3.056-4.22-3.04-1.572-7.686-1.059-10.704.26a4.18 4.18 0 0 1-3.16.214 3.457 3.457 0 0 1-1.882-1.92c.108-.322.197-.622.257-.874.292.17.61.297.942.372a3.655 3.655 0 0 0 2.74-.482 5.846 5.846 0 0 0 2.48-3.626 6.261 6.261 0 0 0 .011-2.793 3.799 3.799 0 0 0-.143-.484 3.779 3.779 0 0 0-.23-.519 22.443 22.443 0 0 0 .837-8.428c-.216-2.822-1.01-6.756-3.625-9.476-4.278-4.44-8.451-5.332-13.8-5.332-7.547 0-11.367 4.998-12.975 7.978-2.048 3.807-1.736 8.073-.87 9.855.019.649.103 1.294.251 1.927l.05.241c.242 1.5.383 3.014.425 4.531.01 2.456.34 4.902.985 7.28 1.063 3.057 5.127 6.649 8.972 6.878.257.016.518.024.784.024a14.601 14.601 0 0 0 1.98-.152c.675 1.626 1.024 3.7.432 4.538a1.262 1.262 0 0 1-.088.083c-.603.342-1.231.638-1.881.887l-.862.373c-3.826 1.688-8.518 4.208-10.857 8.749-1.158 2.244-.193 3.528.821 4.214C23.253 72.127 27.768 73 34.1 73c8.977 0 15.291-2.304 17.611-3.667l.278-.163c1.207-.706 3.03-1.773 2.617-3.545-.862-3.723-4.038-7.178-8.706-9.475a19.306 19.306 0 0 0-1.146-.536c-1.243-.888-2.035-4.063-2.424-6.328 1.804 4.707 7.25 8.098 12.292 8.842.364.052.731.078 1.098.078a7.939 7.939 0 0 0 5.424-2.095c1.538-1.54 2.176-3.717 1.703-5.803zM43.947 56.31c-.067.622-.418.726-1.115.933-.512.111-.991.332-1.401.646a6.955 6.955 0 0 0-.97 1.107c-.5.649-1.016 1.32-1.644 1.492a3.146 3.146 0 0 1-.755.126 5.036 5.036 0 0 1-1.5-.202c-.25-.062-.49-.12-.703-.152a3.79 3.79 0 0 0-.391-.05 6.593 6.593 0 0 0-1.719.182c-.37.086-.749.136-1.13.147a.437.437 0 0 0-.13-.013c-.046-.017-.415-.175-.415-.175a1.294 1.294 0 0 1-.718-1.068c-.02-.334.005-.67.078-.997l.596-.257a12.9 12.9 0 0 0 2.104-1.016c.068-.054.133-.112.195-.173.074-.072.14-.15.196-.235.832-1.199.323-3.583-.311-5.22a18.356 18.356 0 0 0 2.779-.743.514.514 0 0 0 .318-.667.546.546 0 0 0-.694-.306c-1.046.38-2.13.658-3.235.83-.972.17-1.962.226-2.948.17-3.083-.183-6.98-3.183-8.02-6.172a27.744 27.744 0 0 1-.93-7.003 34.835 34.835 0 0 0-.442-4.677l-.053-.25v-.001a8.245 8.245 0 0 1-.24-1.838c0-.057 0-.162-.006-.303-.133-3.514.585-5.648 2.135-6.344h-.001a4.516 4.516 0 0 0 1.646-1.46 2.909 2.909 0 0 1 1.549-1.246 3.696 3.696 0 0 1 2.09.024 5.696 5.696 0 0 0 1.61.208 11.17 11.17 0 0 0 2.244-.276 5.797 5.797 0 0 1 2.93-.01c.715.21 1.296.712 1.589 1.372a4.1 4.1 0 0 0 2.316 1.997c1.987.655 2.695 2.31 2.178 5.058a7.403 7.403 0 0 0-.095 2.126c.198 2.475 1.417 4.65 2.437 5.1l.04.03a.33.33 0 0 0 .047.013c.015 0 .03.018.045.024.016.005.038 0 .056 0 .036.006.072.01.108.01a.606.606 0 0 0 .202-.042.558.558 0 0 0 .169-.111.488.488 0 0 0 .054-.064.4.4 0 0 0 .045-.056c.177-.326.419-.615.712-.85a3.325 3.325 0 0 1 2.538-.68c.723.159 1.334.62 1.666 1.26.104.183.19.376.256.576.044.124.08.25.107.379.173.773.17 1.573-.01 2.344a4.78 4.78 0 0 1-2.004 2.972 2.538 2.538 0 0 1-1.919.35 3.091 3.091 0 0 1-1.235-.671.555.555 0 0 0-.546-.069.52.52 0 0 0-.324.428 7.858 7.858 0 0 1-.423 1.686 7.748 7.748 0 0 1-1.118 2.044c-.207.253-.43.492-.668.717-.283.255-.59.485-.917.688a.509.509 0 0 0-.219.583c.07.22.28.369.518.368.106 0 .21-.03.299-.087.099-.063.182-.126.274-.19.282 1.958 1.076 6.203 2.823 7.684z" fill="#2C2953"/>
        <path d="M45.241 39.951a.534.534 0 0 0 .635-.404c.193-.56.76-.923 1.372-.878a.536.536 0 0 0 .6-.454.524.524 0 0 0-.473-.577 2.461 2.461 0 0 0-1.6.395c-.468.31-.806.771-.953 1.299a.504.504 0 0 0 .075.394.54.54 0 0 0 .344.225zM36.727 35.284v1.266c-.001.446-.377.808-.842.809h-.453a.85.85 0 0 1-.59-.239.787.787 0 0 1-.24-.57v-1.266a.785.785 0 0 1 .24-.57.85.85 0 0 1 .59-.24h.454c.464.001.84.363.84.81zM25.297 35.315v1.266a.788.788 0 0 1-.248.567.849.849 0 0 1-.593.232h-.453a.849.849 0 0 1-.593-.232.788.788 0 0 1-.248-.568v-1.265c0-.446.377-.808.841-.809h.453c.464 0 .84.363.84.809z" fill="#2C2953"/>
    </g>
</svg>
