<svg width="92" height="158" viewBox="0 0 92 158" fill="none" xmlns="http://www.w3.org/2000/svg">
    <g clip-path="url(#irxd39xuba)" filter="url(#x02dlpko4b)">
        <path d="M79.36 85.17c.334.208.72.314 1.112.306.43-.108 2.294-2.175 3.534-2.47 1.24-.296 2.625.501 3.709.55 1.083.05 2.48-.56 2.811-.452.332.108.537.984.225 1.585-.313.6-1.777 1.82-4.286.984l-.702.64s2.167 1.8 3.67 2.794A12.064 12.064 0 0 1 92 91.53s.098 1.16-.869 1.377L87.15 90.79l-.156.296a19.087 19.087 0 0 1 4.168 3.425s0 .728-.977 1.151l-.087.532a1.66 1.66 0 0 1-1.045.797 16.982 16.982 0 0 1-4.06-2.717l-.176.168c.818.913 1.55 1.902 2.186 2.952 0 0-.43.63-.976.473a32.248 32.248 0 0 1-3.787-2.953 11.555 11.555 0 0 1-4.373-3.76l1.493-5.983z" fill="url(#d7pren4b0c)"/>
        <path style="mix-blend-mode:multiply" opacity=".3" d="M85.763 86.352a13.216 13.216 0 0 1-3.905 2.391 4.484 4.484 0 0 0-.761 2.53c.145.654.454 1.26.898 1.761a11.73 11.73 0 0 0 4.324-6.2l-.556-.482z" fill="url(#xic77je85d)"/>
        <path style="mix-blend-mode:multiply" opacity=".91" d="M87.559 89.167a12.724 12.724 0 0 1-4.061 5.747 4.156 4.156 0 0 0 1.77-.898 4.2 4.2 0 0 0 1.158-1.621 11.787 11.787 0 0 0 1.133-3.228z" fill="url(#2e0a1pkv8e)"/>
        <path style="mix-blend-mode:multiply" opacity=".91" d="m86.24 92.818 3.964 2.864a36.863 36.863 0 0 1-3.836-3.12l-.127.256z" fill="url(#5vrv4h6dof)"/>
        <path style="mix-blend-mode:multiply" opacity=".91" d="M79.066 92.847s1.113-5.196.654-7.873l-1.952 6.368 1.298 1.505z" fill="url(#3t2ldzys0g)"/>
        <path d="m55.912 157.272-17.111-.335s-.088-.561-.147-1.456a21.235 21.235 0 0 1 .479-6.102s-.147-.325-.38-.896c-.333-.837-.87-2.185-1.426-3.789a55.514 55.514 0 0 1-1.767-6.072 22.934 22.934 0 0 1-.566-3.74v-.699c0-.879.03-1.696.088-2.451.133-1.665.428-3.313.878-4.921.381-1.358.781-2.46 1.035-3.454.254-.994-.488-6.309-1.347-11.407-.127-.698-.244-1.407-.361-2.086-.84-4.783-1.66-8.956-1.66-8.956l1.582-.207c2.84-.334 8.785-.984 12.192-.984a88.065 88.065 0 0 1 .898 14.684c0 1.053-.05 2.155-.127 3.277a71.54 71.54 0 0 1-.771 7.293s-1.113 1.968-1.67 2.775v.276c-.097.63-.341 2.283-.537 4.448a85.87 85.87 0 0 0-.224 3.642v3.415c.024 1.43.138 2.856.342 4.271.088.726.218 1.446.39 2.156l.088.383a2.19 2.19 0 0 1 .869 0c.332.089 0 1.349 0 1.349.107.118.498.59 1.074 1.171l.058.049a12.574 12.574 0 0 0 2.772 2.234 17.18 17.18 0 0 0 2.762 1.201c.977.344 1.7.522 1.7.522a9.186 9.186 0 0 1 .887 4.409z" fill="url(#8paik5hhnh)"/>
        <path d="M35.267 109.864a238.706 238.706 0 0 1-.273 5.649c-.049.709-.088 1.388-.137 1.968-.117 1.575-.244 2.884-.36 3.691a13.83 13.83 0 0 1-.46 1.968c-.4 1.25-.907 2.284-1.122 2.845a7.26 7.26 0 0 0-.244.984c-.205.984-.478 2.51-.713 4.202a61.65 61.65 0 0 0-.36 3.287 25.715 25.715 0 0 0-.098 3.484c0 .217 0 .424.058.64.108 1.221.332 2.628.605 4.045.274 1.417.615 2.953.928 4.193.331 1.328.634 2.46.84 3.188a.092.092 0 0 0 0 .05c.614 2.293.448 7.381.448 7.381-5.076.512-14.642.295-14.642.295a7.571 7.571 0 0 1 .654-3.562 33.051 33.051 0 0 0 5.857-5.207s-1.386-.256-1.298-.541c.088-.285.79-.807.79-.807a30.107 30.107 0 0 1-1.688-3.445 38.034 38.034 0 0 1-1.835-5.56v-.059c-.147-.62-.284-1.27-.4-1.969-.157-.9-.238-1.812-.245-2.726.018-1.733.22-3.458.605-5.147.293-1.398.645-2.697.879-3.937.24-1.041.312-2.114.215-3.179-.235-1.653-1.074-6.81-1.796-12.292-.85-6.486-1.513-13.405-.791-15.5a16.38 16.38 0 0 1 6.58.836c2.781 1.16 7.73 5.757 7.877 5.905.27 3.099.312 6.214.126 9.32z" fill="url(#7pzx645pji)"/>
        <path d="M31.5 138.011c0 .217 0 .424.058.64-6.413 1.486-9.263 0-9.263 0v-.059c-.147-.62-.283-1.27-.4-1.968a16.657 16.657 0 0 1-.245-2.727 14.442 14.442 0 0 0 9.976.552 25.694 25.694 0 0 0-.127 3.562zM33.09 146.888c-1.249.443-4.568 1.467-7.281.798a30.205 30.205 0 0 1-1.689-3.445c2.79.354 5.62-.183 8.092-1.535.234 1.437.566 2.952.879 4.182zM32.671 127.038a66.515 66.515 0 0 0-.712 4.202c-5.516-.108-8.6-1.693-9.762-2.411.293-1.398.645-2.697.879-3.937 2.82 2.274 7.584 2.274 9.595 2.146zM45.673 127.992c-.098.63-.342 2.284-.537 4.449a21.814 21.814 0 0 1-10.074-.709c.134-1.665.428-3.313.879-4.921a25.664 25.664 0 0 0 9.732 1.181zM44.902 139.497a20.126 20.126 0 0 1-9.332-.875 22.934 22.934 0 0 1-.566-3.74c1.21.58 4.568 1.84 9.917 1.2-.02 1.103-.02 2.254-.02 3.415zM45.624 145.924a28.194 28.194 0 0 0-6.833 2.559c-.331-.837-.868-2.185-1.425-3.789 2.664.026 5.32-.285 7.907-.925.075.724.192 1.444.351 2.155z" fill="#FF5EF3" style="mix-blend-mode:soft-light"/>
        <path style="mix-blend-mode:multiply" opacity=".5" d="M53.297 152.341v4.537L38.654 155.5a21.244 21.244 0 0 1 .478-6.102s-.147-.325-.38-.895c-.333-.837-.87-2.185-1.426-3.789a55.53 55.53 0 0 1-1.767-6.073 22.912 22.912 0 0 1-.566-3.74v-.698c0-.88.03-1.697.088-2.451.134-1.665.428-3.313.879-4.921.38-1.358.78-2.46 1.034-3.454.254-.994-.488-6.309-1.347-11.407l12.69 2.421c0 1.053-.049 2.155-.127 3.277a24.802 24.802 0 0 0-8.2 3.937 6.71 6.71 0 0 0 3.12 2.946 6.641 6.641 0 0 0 4.25.44s-1.113 1.968-1.669 2.775v.276a71.778 71.778 0 0 0-.537 4.448 85.767 85.767 0 0 0-.224 3.642v3.415c.024 1.429.138 2.856.341 4.271.088.726.219 1.445.39 2.155l.089.384a11.548 11.548 0 0 0-4.227 2.598 13.532 13.532 0 0 1 5.037-1.328c.107.118.498.59 1.073 1.171l.06.049a12.598 12.598 0 0 0 2.771 2.234c.264.148.537.286.81.414a17.29 17.29 0 0 0 2.002.846z" fill="url(#kbesn8rvjj)"/>
        <path style="mix-blend-mode:multiply" opacity=".5" d="M34.994 113.112v4.478l-.137-.059c-.83-.365-5.202-2.057-9.292.059a15.531 15.531 0 0 0 1.883 4.448c1.162 1.565 6.59 1.161 6.59 1.161-.4 1.25-.908 2.284-1.123 2.845-.104.322-.186.65-.244.984-.205.984-.478 2.51-.713 4.202a61.547 61.547 0 0 0-.36 3.287 25.682 25.682 0 0 0-.098 3.484c0 .217 0 .424.058.64.107 1.221.332 2.628.605 4.045.274 1.417.615 2.953.928 4.193.331 1.328.634 2.46.839 3.189a.089.089 0 0 0 0 .049l-2.343 3.316H28.61s-.976-3.867-2.294-4.409l-1.698-.137.4-.404c1.936.347 3.892.567 5.857.659 0 0-4.198-1.122-5.057-1.466a30.107 30.107 0 0 1-1.688-3.445 38.046 38.046 0 0 1-1.835-5.56v-.059c-.147-.62-.284-1.27-.4-1.969-.157-.9-.238-1.812-.245-2.726a24.31 24.31 0 0 1 .606-5.147c.292-1.398.644-2.697.878-3.937.24-1.041.312-2.114.215-3.179-.235-1.653-1.074-6.81-1.796-12.292l13.441 3.75z" fill="url(#ougg9qntfk)"/>
        <path d="M34.389 157.518s-9.293.846-14.642.295a6.284 6.284 0 0 1 .654-3.563l1.718-1.407c.74.414 1.575.625 2.42.61 2.46.167 5.955-1.388 5.955-1.388a10.736 10.736 0 0 0-5.69-1.574c.566-.522 1.093-.985 1.493-1.447 0 0 3.65 0 5.857 1.85l1.473-1.968a23.002 23.002 0 0 1 .762 8.592zM55.913 157.272l-17.112-.335a21.971 21.971 0 0 1 .332-7.559l2.245 1.349s2.704-2.667 5.203-3.071l1.074 1.171.058.05a6.591 6.591 0 0 0-1.737 2.371c1.736.453 3.546.547 5.32.276 1.185.546 2.417.985 3.68 1.309.678 1.376 1 2.903.937 4.439z" fill="#F5B822"/>
        <path style="mix-blend-mode:multiply" opacity=".8" d="M37.015 122.235s6.257-4.35 11.137-4.586v-1.742l-11.977-.61.84 6.938z" fill="url(#9glxr80oyl)"/>
        <path style="mix-blend-mode:multiply" opacity=".8" d="M22.744 117.964s7.857-2.953 12.113-.433l.205-3.258-13.539-4.803 1.22 8.494z" fill="url(#3tac23q4km)"/>
        <path d="M35.375 69.788v3.11l5.076-2.598v-5.64l-5.076 5.128z" fill="url(#vru7q6qm7n)"/>
        <path d="M65.283 11.81 56.42 6.072l-2.733-1.791c.433-.528.9-1.028 1.396-1.496C56.615 1.31 59.143-.62 61.28.197c3.339 1.25 3.495 5.905 3.495 5.905.335.16.62.41.825.723.205.312.32.674.336 1.048a8.09 8.09 0 0 1-.654 3.937z" fill="url(#6zgmbsee1o)"/>
        <path style="mix-blend-mode:multiply" opacity=".6" d="M65.283 11.81 56.42 6.072l-2.733-1.79c.433-.529.9-1.029 1.396-1.497 0 0 4.441 1.516 6.218 4.626 0 0 2.167-5.512 0-7.214 3.338 1.25 3.494 5.905 3.494 5.905a7.971 7.971 0 0 1-1.132 3.937c.582 0 1.142-.223 1.565-.626a2.3 2.3 0 0 0 .71-1.54 8.09 8.09 0 0 1-.655 3.937z" fill="url(#10xl5jm0zp)"/>
        <path fill-rule="evenodd" clip-rule="evenodd" d="M24.842 42.044s3.905-5.974 2.43-18.374l-1.57.216s-5.301 10.698-.86 18.158z" fill="#9A292C"/>
        <path fill-rule="evenodd" clip-rule="evenodd" d="M25.018 24.388s-5.105 10.334-4.207 14.477a7.37 7.37 0 0 0 4.032 3.18s-2.148-9.518 1.327-17.618l-.469-.541-.683.502z" fill="url(#sc1oficg4q)"/>
        <path d="M15.286 87.178s1.699 1.831 1.61 3.268c-.087 1.437-1.698 2.815-2.205 4.035-.508 1.22-.752 2.815-.976 3.022a1.51 1.51 0 0 1-1.275-.186 1.53 1.53 0 0 1-.678-1.104c-.293-1.437.752-2.686.976-3.326a3.524 3.524 0 0 0 0-1.634 36.826 36.826 0 0 0-3.67 3.13 11.288 11.288 0 0 1-3.494 2.145A6.216 6.216 0 0 1 3.7 97.995a1.76 1.76 0 0 1-1.25-1.083s-1.122-.089-1.367-.59c-.244-.502.518-2.362 1.25-3.593a.553.553 0 0 0 .068-.138c-.097.08-1.093.876-1.366 1.044C.76 93.802 0 93.349 0 92.582a29.76 29.76 0 0 1 4.041-3.819c2.196-1.683 5.447-3.395 5.955-3.937.507-.541 2.996-5.964 2.996-5.964a23.421 23.421 0 0 0 4.656 4.36l-2.362 3.957z" fill="url(#aupl0jth1r)"/>
        <path style="mix-blend-mode:multiply" opacity=".91" d="M9.996 84.866s-.547 1.8 1.659 3.267c2.206 1.467 3.631-.984 3.631-.984l-5.29-2.283z" fill="url(#g4wdpkdays)"/>
        <path fill-rule="evenodd" clip-rule="evenodd" d="M80.55 85.338c-.488 4.547-2.782 6.023-2.782 6.023a9.02 9.02 0 0 1-1.777-.305 11.3 11.3 0 0 1-1.034-.354c-.117.177-1.298 1.88-5.34.984-4.256-.896-9.488-6.978-10.815-12.105a54.977 54.977 0 0 1-1.581-9.842l-1.123-.118-15.1-1.565-2.139-.226s-1.952.275-5.27 5.432a26.449 26.449 0 0 1-10.27 9.842c-3.328 1.683-4.646 2.805-5.27 2.884a2.832 2.832 0 0 1-1.455-.364l-.732.895-.586.709a3.818 3.818 0 0 1-3.172.069 4.621 4.621 0 0 1-1.52-1.167 4.666 4.666 0 0 1-.92-1.688l1.61-2.814c.86-4.921 6.257-9.842 11.206-13.779l.088-.069.976-.757c.39-.296.781-.61 1.171-.935 4.823-3.986 9.547-9.635 11.812-11.712a14.027 14.027 0 0 1 6.208-3.523c.943-.22 1.857-.55 2.723-.985l7.311 1.516s3.622 1.388 5.232 3.297c1.611 1.91 4.998 10.068 9.762 16.84A72.123 72.123 0 0 0 78.09 83.36c.201.216.351.475.44.758l.224.128 1.796 1.092z" fill="url(#0p8aq5lvkt)"/>
        <path d="M45.605 47.33a10.125 10.125 0 0 1-.518 4.113s3.378 5.54 6.16 5.039c2.782-.502 1.64-4.557 1.64-4.557a9.723 9.723 0 0 1 0-3.67l-7.282-.926z" fill="url(#o2kxh9k1bu)"/>
        <path style="mix-blend-mode:multiply" opacity=".91" fill-rule="evenodd" clip-rule="evenodd" d="M45.497 49.868a7.824 7.824 0 0 0 4.041 3.386c2.587.748 3.222-2.234 3.222-2.234l-.05-1.3-7.057-1.613-.156 1.761z" fill="url(#0qg46xyhlv)"/>
        <path style="mix-blend-mode:multiply" opacity=".5" d="M52.76 68.223c.493-1.554.727-3.18.693-4.812a12.938 12.938 0 0 0-1.719-5.345s-2.05 5.699-4.88 6.89c-2.83 1.19-4.666-3.051-4.666-3.051l1.737-7.775s5.78 3.346 7.75 2.224a7.258 7.258 0 0 0 2.793-2.953s1.698 9.222.273 14.862l-1.982-.04z" fill="url(#jr0oxzaj9w)"/>
        <path d="M69.579 39.003c-.215 2.953-5.438 9.182-11.099 10.52-4.373 1.044-11.02-.393-16.116-2.814a22.936 22.936 0 0 1-3.982-2.332c-4.998-3.691-11.773-13.995-9.215-25.294a.375.375 0 0 0 0-.088 15.108 15.108 0 0 1 4.441-7.874c4.373-4.035 11.04-5.354 17.766-5 10.015.532 15.208 7.254 15.764 11.948.557 4.695-.664 12.795 0 14.665l.147.374c.78 1.732 2.508 3.169 2.294 5.895z" fill="url(#rrkf5ldjyx)"/>
        <path style="mix-blend-mode:multiply" opacity=".3" d="M78.793 84.246s-.44 5.757-2.801 6.81l-1.035-.354c-.117.177-1.298 1.88-5.34.984-4.255-.896-9.487-6.978-10.815-12.105a54.968 54.968 0 0 1-1.581-9.842l-1.123-.118L57.29 59.11s.927 4.803 2.401 9.625c1.474 4.823 6.687 8.493 11.997 9.507a20.437 20.437 0 0 1-12.006-5.984c.107.355 3.758 10.944 7.75 13.65a9.38 9.38 0 0 0 8.473.787 7.482 7.482 0 0 1-4.93 2.354 3.9 3.9 0 0 0 2.44 1.495c1.533.197 4.823-3.188 5.155-6.377l.224.079z" fill="url(#tr2ljcfboy)"/>
        <path style="mix-blend-mode:multiply" opacity=".6" d="M66.28 36.257a2.906 2.906 0 0 1-2.07-.177c-.469-.984-2.235-1.22-3.202-3.277-.966-2.057-.498-5.758.244-9.133a6.31 6.31 0 0 1 1.3-2.657 6.24 6.24 0 0 1 2.36-1.763l.977-2.096c-4.012-5.728-11.02-9.753-16.955-5.344-5.32 3.937-6.57 13.13-6.57 13.13a32.675 32.675 0 0 1 8.785-6.103c2.197 2.411 4.364 12.263 3.71 16.338-.215 1.338-2.119 4.015-6.736 4.468-4.617.452-9.693-4.921-9.693-4.921-.156 5.964 3.963 12.017 3.963 12.017a22.93 22.93 0 0 1-3.982-2.333c-4.998-3.69-11.772-13.995-9.215-25.293a.374.374 0 0 0 0-.089l4.442-7.873c4.343-4.065 11.01-5.384 17.736-5.03 10.015.532 15.208 7.254 15.764 11.948.557 4.695-.663 12.795 0 14.665.049.128.39 3.218-.859 3.523z" fill="url(#ozoqffsc9z)"/>
        <path style="mix-blend-mode:multiply" opacity=".3" d="m40.998 68.056-2.138-.226s-1.953.275-5.271 5.432a26.448 26.448 0 0 1-10.27 9.842c-3.328 1.683-4.645 2.805-5.27 2.884a2.832 2.832 0 0 1-1.455-.364l-.732.895a5.442 5.442 0 0 1-3.114-1.633 5.523 5.523 0 0 1-1.483-3.209s1.171 2.391 2.255 2.952a6.781 6.781 0 0 0 5.075 0c1.63-.748 6.199-4.99 6.199-4.99a29.212 29.212 0 0 1-10.445 1.635c11.811-1.506 24.277-15.61 25.38-18.513 1.102-2.903 1.61-8.631 1.61-8.631.342 1.28-.215 11.889-.341 13.926z" fill="url(#ql6xqa8jeA)"/>
        <path d="M67.772 19.615c0 1.326-.158 2.648-.468 3.936v.109a1.34 1.34 0 0 1-.049.167c0-.315.352-5.324-1.415-8.1-1.767-2.775-6.228-6.053-12.153-7.243a13.342 13.342 0 0 0-.976-.178l-.83-.088h-.166a2.458 2.458 0 0 0-.312 0L52.74 8l-.302-.128-3.339-.521.898.393 1.767.788h-.059c-.185.088-.595.266-1.17.57a32.1 32.1 0 0 0-7.4 5.719l-.527.55a24.702 24.702 0 0 0-3.72 5.148 13.788 13.788 0 0 0-1.463 3.78l1.034-1.113a18.792 18.792 0 0 1-2.342 6.171c.119 3.08.884 6.098 2.245 8.858l-1.279-.286s-3.211-2.48-6.638-1.81a.565.565 0 0 1-.048-.08 37.57 37.57 0 0 1-2.587-6.416.828.828 0 0 1 0-.148 30.954 30.954 0 0 1-.742-3.05c-.059-.266-.098-.493-.137-.66a.906.906 0 0 1 0-.138.443.443 0 0 1 0-.157 22.31 22.31 0 0 1-.185-6.565c.79-5.974 7.809-11.308 12.885-12.42 3.006-.675 6.09-.94 9.166-.788 1.42-.66 2.92-1.13 4.46-1.397a9.702 9.702 0 0 1 3.71 1.082 24.23 24.23 0 0 1 3.387 1.87c.42.276.83.561 1.25.876a20.973 20.973 0 0 1 3.787 3.819 11.516 11.516 0 0 1 2.186 5.206.427.427 0 0 0 0 .108c.123.779.189 1.565.195 2.353z" fill="url(#s5n30s79vB)"/>
        <path fill-rule="evenodd" clip-rule="evenodd" d="M26.785 25.421s3.358.296 5.603-3.818c2.245-4.114.352-9.468-1.113-10.62l-4.49 14.438z" fill="url(#locafmd2uC)"/>
        <path d="M51.784 8.543h-.059a7.93 7.93 0 0 0-1.132.492l-.557.285a26.91 26.91 0 0 0-6.881 5.512 46.222 46.222 0 0 0-4.246 5.698c-2.655 4.045-4.881 7.972-6.833 8.493-2.724.748-5.086-3.366-5.252-3.66h.108l.673-.07s3.534 1.3 5.535-.659c1.542-1.506 3.25-7.116 6.169-11.554a18.542 18.542 0 0 1 2.333-2.953c.195-.197.39-.374.595-.56a7.946 7.946 0 0 1 3.653-2.005 7.903 7.903 0 0 1 4.156.124c.62.186 1.214.45 1.767.788l-.03.069z" fill="url(#q8ylghqk2D)"/>
        <path d="M67.821 19.989a15.105 15.105 0 0 1-.585 3.799c0-.355-.05-6.791-3.7-10.167a22.289 22.289 0 0 0-9.654-5 21.752 21.752 0 0 0-2.147-.423 2.458 2.458 0 0 0-.313 0c.088 0 .42-.138.977-.266a22.96 22.96 0 0 1 6.54-.482c.888.027 1.76.245 2.557.64a10.62 10.62 0 0 1 3.904 3.809 16.53 16.53 0 0 1 2.187 5.206.427.427 0 0 0 0 .108c.185.913.264 1.845.234 2.776z" fill="url(#1qyy2xbmpE)"/>
        <path d="m55.366 52.624-.371-.699-2.235-.905v.364s1.776 1.693 2.274 6.89a41.912 41.912 0 0 1-.332 9.989 92.937 92.937 0 0 1-10.737-.542s.283-11.505-.977-17.34l-3.191 1.279-.079.472s.977-.226 1.435.984c.46 1.21 1.416 14.27-4.656 16.456a24.967 24.967 0 0 0-2.235 2.785s-2.928 6.495-5.213 9.35c-2.284 2.854-7.574 7.214-9.292 12.213-1.718 5-.977 13.779-.977 13.779l-.556.728a23.085 23.085 0 0 0 5.33 2.952l.224 1.181s16.702 5.906 31.236 2.52c0 0 .547-20.825.976-27.37.43-6.545 1.777-15.54 2.03-18.227.255-2.687.108-11.25-2.654-16.859z" fill="#645FC5"/>
        <path fill-rule="evenodd" clip-rule="evenodd" d="m45.497 49.868-1.747.719s-1.698 3.799-1.327 7.066c.37 3.268 2.245 6.427 4.04 6.8 1.797.375 4.081-3.523 4.784-7.971a4.32 4.32 0 0 1-3.202-1.171c-1.796-1.427-3.27-4.134-2.548-5.443z" fill="url(#p6eab6h53F)"/>
        <path style="mix-blend-mode:multiply" opacity=".6" d="M50.544 9.084v.079a32.094 32.094 0 0 0-7.4 5.718 46.222 46.222 0 0 0-4.245 5.698 13.785 13.785 0 0 0-1.465 3.78l1.035-1.113a18.792 18.792 0 0 1-2.352 6.112c.119 3.08.884 6.098 2.245 8.858l-1.28-.286s-3.21-2.48-6.637-1.81a24.214 24.214 0 0 1-2.636-6.496.827.827 0 0 1 0-.148c-.458-1.673-.75-3.1-.878-3.71a.906.906 0 0 1 0-.138.782.782 0 0 1 0-.157h.107a6.286 6.286 0 0 0 2.458-1.012 6.346 6.346 0 0 0 1.828-1.941c1.698-2.726 1.2-10.058 1.2-10.058s.664-2.372 4.9-4.587c4.666-2.48 11.51-1.27 11.51-1.27s-8.073-.826-10.865 1.625c-2.577 2.244-2.587 8.926-2.587 8.926a32.844 32.844 0 0 0 3.817-4.035l.761-.935a44.037 44.037 0 0 0-4.578 10.728l2.587-2.874c3.7-6.063 10.044-9.684 11.938-10.669l.537-.285z" fill="url(#69qv3feljG)"/>
        <path fill-rule="evenodd" clip-rule="evenodd" d="M29.284 24.201s1.952 5.994 1.308 9.527c1.702-.156 3.36-.64 4.88-1.427 0 0-1.747-6.988-4.988-9.842l-1.2 1.742z" fill="url(#w25jr9592H)"/>
        <path fill-rule="evenodd" clip-rule="evenodd" d="M30.621 33.728a18.196 18.196 0 0 1-1.952-9.222l.976-.541s1.952 5.56.976 9.763z" fill="#9A292C"/>
        <path d="M29.226 24.339c-2.5 2.126-3.33.452-3.33.452-3.015-.403-4.45-2.558-4.958-4.99-.625-3.02.166-6.456 1.084-7.509a4.87 4.87 0 0 1 2.996-1.633c.296-.031.593-.031.889 0 0 0 2.43-1.831 4.558-.394.178.106.342.236.488.384 2.235 2.047.771 11.564-1.727 13.69z" fill="url(#ri7imjwb9I)"/>
        <path d="M40.998 26.8s3.728-6.073 10.17-8.002a3.69 3.69 0 0 1-.887 2.952s-4.061.06-9.283 5.05z" fill="url(#zalu93ewzJ)"/>
        <path d="M61.418 22.912s1.337-4.705 4.47-5.758a4.76 4.76 0 0 1 .81 2.53 6.792 6.792 0 0 0-3.022.978 6.86 6.86 0 0 0-2.258 2.25z" fill="url(#rcch1k6z1K)"/>
        <path d="M42.754 34.692c.176 2.835 4.002 4.921 6.999 4.39 3.172-.522 3.904-3.937 3.641-7.008-.264-3.07-1.708-4.556-2.928-4.92-1.797-.581-8.102 1.289-7.712 7.538z" fill="url(#gv8taenlfL)"/>
        <path d="M66.952 32.065c0 .482-.078.984-.146 1.377a4.534 4.534 0 0 1-.615 1.969 2.531 2.531 0 0 1-2.518.62 1.89 1.89 0 0 1-1.055-.6c-2.791-3.612.117-9.41 1.445-9.99.976-.413 2.128.787 2.636 2.953.156.678.244 1.37.263 2.066.02.502.01 1.034-.01 1.605z" fill="url(#armfle9o9M)"/>
        <path d="M61.496 32.478s.605-5.246 3.65-6.358c0 0 1.562.453 1.787 3.809 0 0 .234-4.547-2.43-5.197-.01-.039-3.183.975-3.007 7.746zM42.755 34.692s.517-5.098 4.724-6.722c4.5-1.742 5.72 2.845 5.72 2.845s-.83-4.715-4.275-4.459c-3.446.256-6.59 3.79-6.17 8.336z" fill="#6D3A51"/>
        <path d="M53.043 36.533c-.976 1.968-2.997 2.952-4.549 2.185-1.552-.768-2.03-2.953-1.074-4.97.957-2.018 3.007-2.953 4.559-2.185 1.552.767 2.03 2.991 1.064 4.97z" fill="url(#fkqgibt6sN)"/>
        <path d="M52.584 36.247c-.703 1.447-2.187 2.156-3.319 1.595-1.132-.561-1.474-2.185-.771-3.622.703-1.437 2.186-2.155 3.319-1.594 1.132.56 1.474 2.184.77 3.621z" fill="#522F2E"/>
        <path d="M66.953 32.065a3.84 3.84 0 0 1-.108 1.27.49.49 0 0 1 0 .107 4.533 4.533 0 0 1-.615 1.969 2.531 2.531 0 0 1-2.518.62 3.61 3.61 0 0 1-.693-3.622c.478-1.86 1.806-3.11 2.928-2.795a1.627 1.627 0 0 1 .976.846c.059.502.05 1.034.03 1.605z" fill="url(#fuyj92j5rO)"/>
        <path d="M66.845 33.334a.49.49 0 0 1 0 .108c-.361 1.29-1.308 2.156-2.128 1.969-.82-.187-1.25-1.496-.908-2.845.342-1.348 1.318-2.253 2.177-2.037.301.133.556.354.73.635.174.281.26.609.246.94.028.414-.012.83-.117 1.23z" fill="#522F2E"/>
        <path d="M48.934 32.3a.693.693 0 0 1-.422.637.678.678 0 0 1-.745-.15.692.692 0 0 1 .483-1.175.68.68 0 0 1 .483.202c.129.129.2.304.2.487z" fill="#fff"/>
        <path d="M64.893 36.188a17.585 17.585 0 0 0-3.397-2.578s-3.24 1.781-2.928 4.419c0 0 4.06.088 5.134-.453a2.236 2.236 0 0 0 1.19-1.388z" fill="#F58E6F"/>
        <path d="M64.512 30.51a.606.606 0 0 1-.374.557.591.591 0 0 1-.231.043.593.593 0 0 1-.421-.176.602.602 0 0 1-.174-.425.605.605 0 0 1 .365-.563.591.591 0 0 1 .462 0 .604.604 0 0 1 .373.563z" fill="#fff"/>
        <path fill-rule="evenodd" clip-rule="evenodd" d="M64.21 36.08s.263.6-1.21.797c-1.474.197-3.905.532-4.49 1.152 1.134.434 2.317.725 3.523.866 0 0 2.636-1.014 2.177-2.815z" fill="#DD6668"/>
        <path fill-rule="evenodd" clip-rule="evenodd" d="M54.868 41.06s-.898 6.18 3.475 7.165c3.397.777 3.67-4.055 4.461-5.354l-7.936-1.811z" fill="#F47C5C"/>
        <path fill-rule="evenodd" clip-rule="evenodd" d="M62.033 38.895s2.167-1.408 2.177-2.313c.02-2.136-3.007-2.136-3.592-4.281-.586-2.146 0-6.21 0-6.21s-.4 4.37.351 6.19c.752 1.82 3.739 3.228 3.905 3.937.166.708-.723 2.165-2.84 2.677z" fill="#CC5268"/>
        <path fill-rule="evenodd" clip-rule="evenodd" d="M59.173 38.285s1.581-.748 2.079.305c-.708.105-1.43-.001-2.08-.306z" fill="#A13751"/>
        <path d="M64.512 40.548c-1.523 1.171-2.362 3.996-3.26 5.226a3.433 3.433 0 0 1-2.367 1.309 3.4 3.4 0 0 1-2.572-.827 5.933 5.933 0 0 1-1.445-3.74c-.107-1.27 0-2.361.283-2.47.605-.285 4.656.768 6.296.58a11.8 11.8 0 0 1 3.065-.078z" fill="#8B2E45"/>
        <path d="M56.82 40.125a6.148 6.148 0 0 0 3.905 1.87c.917 0 1.952-1.466 1.952-1.466-.804.081-1.613.108-2.42.078-1.026-.059-3.437-.482-3.437-.482z" fill="#FFEBED"/>
        <path d="M61.252 45.774a3.432 3.432 0 0 1-2.367 1.309 3.4 3.4 0 0 1-2.572-.827 5.933 5.933 0 0 1-1.445-3.74s.976-.895 3.641.276 2.743 2.982 2.743 2.982z" fill="url(#bj5uwxajjP)"/>
        <path d="M43.067 39.446a.94.94 0 0 1-.573.864.92.92 0 0 1-1.01-.203.937.937 0 0 1 .655-1.596c.246 0 .482.098.656.274a.938.938 0 0 1 .272.66z" fill="#FFBBA6"/>
        <path d="M25.896 10.57s4.988.984 3.856 8.228c-1.132 7.243-3.855 5.993-3.855 5.993s1.249 2.097 4.578-3.149c3.328-5.246 1.161-10.659-.293-11.623-1.455-.965-3.827.069-4.285.551z" fill="url(#0t2liy9s1Q)"/>
        <path d="M20.938 19.802s3.465 2.342 5.935.236c3.514-2.953.693-8.661.693-8.661s.976 0 1.747 1.693c0 0 .625 11.426-7.282 9.418a12.316 12.316 0 0 1-1.093-2.686z" fill="url(#hr4ang2xtR)"/>
        <path d="M55.317 44.652s2.743 3.17 5.808.58a3.175 3.175 0 0 0-1.308-1.682 3.268 3.268 0 0 1 1.552 1.722l-.117.541a3.002 3.002 0 0 1-1.401 1.165 2.973 2.973 0 0 1-1.81.135 3.19 3.19 0 0 1-1.745-.8 3.234 3.234 0 0 1-.98-1.66z" fill="#FFEBED"/>
        <path style="mix-blend-mode:multiply" opacity=".6" d="M29.225 24.339c-2.499 2.125-3.328.452-3.328.452-3.016-.403-4.451-2.558-4.959-4.99.39 1.33 1.376 3.475 3.582 3.11 3.163-.511 3.905-8.857.498-12.292.156.089 2.743 1.644 3.163 8.179 0 0 1.796-6.486-2.284-8.228 0 0 1.59-.276 3.416 2.5 1.826 2.775 1.142 6.613 1.142 6.613s2.197-6.406 0-9.507c.178.107.342.236.488.384 2.245 2.136.781 11.653-1.718 13.779z" fill="url(#789op6q7bS)"/>
        <path style="mix-blend-mode:multiply" opacity=".6" d="M67.236 23.817c0-.354-.05-6.79-3.7-10.166a22.29 22.29 0 0 0-9.654-5.03l-.195-.137c3.19.064 6.316.922 9.098 2.5 3.904 2.391 4.675 6.387 4.968 8.63v.375a.09.09 0 0 1 0 .049 7.357 7.357 0 0 1-.517 3.78z" fill="url(#x26x2fni7T)"/>
        <path style="mix-blend-mode:multiply" opacity=".6" d="M60.218 7.204c-3.973-1.722-10.435-.216-10.435-.216a16.25 16.25 0 0 1 6.998-1.654 24.221 24.221 0 0 1 3.437 1.87z" fill="url(#n9xciorg6U)"/>
        <path d="M51.422 8.375s-2.928-2.49-7.623.109C40.02 10.609 40.02 20.43 33.422 24.693c0 0 6.59-1.81 9-7.175 2.763-6.14 4.432-9.645 9-9.143z" fill="url(#yjawbeu9rV)"/>
        <path style="mix-blend-mode:multiply" opacity=".3" d="M26.355 68.696s4.969.502 7.81-.984a10.974 10.974 0 0 0 5.066-5.335s-6.228 4.705-12.876 6.319z" fill="url(#bgp4pz8xwW)"/>
        <path fill-rule="evenodd" clip-rule="evenodd" d="M51.735 56.364s2.44 7.873 4.763 8.552c2.324.68-.976-12.046-1.903-13.178a4.247 4.247 0 0 0-1.884-1.387l.078 1.24s.986 3.769-1.054 4.773z" fill="url(#gclq5uyxqX)"/>
        <path style="mix-blend-mode:multiply" opacity=".91" d="M57.972 64.483a40.566 40.566 0 0 1 .976 15.747 50.924 50.924 0 0 1-1.435-7.165c.001-2.867.154-5.731.459-8.582z" fill="url(#f7xssn4zuY)"/>
        <path style="mix-blend-mode:multiply" opacity=".3" d="M11.274 81.628a5.903 5.903 0 0 0 2.045 2.83 5.827 5.827 0 0 0 3.275 1.166l-.732.895a5.717 5.717 0 0 1-3.073-1.702 5.797 5.797 0 0 1-1.515-3.19z" fill="url(#y9pmqhxdtZ)"/>
        <path style="mix-blend-mode:multiply" opacity=".91" d="M44.765 71.343s8.63.522 10.552.404c0 0-3.65.935-5.271 1.151-1.62.217-5.28-1.555-5.28-1.555z" fill="url(#ggfyz3iu2aa)"/>
        <path style="mix-blend-mode:multiply" opacity=".3" d="M74.938 90.702a11.649 11.649 0 0 0 3.63-6.584l.225.128s0 5.127-2.801 6.81l-1.055-.354z" fill="url(#dxb8k7xeuab)"/>
        <path d="m44.765 71.343-.527 8.858s3.827 3.66 4.49 3.936c.664.276 5.281-2.598 5.281-2.598l1.308-9.782c-1.607.343-3.24.55-4.88.62a37.004 37.004 0 0 1-5.672-1.034z" fill="url(#dy95g88n5ac)"/>
        <path style="mix-blend-mode:multiply" opacity=".91" d="M41.446 65.576C38.83 79.718 25.38 89.934 25.38 89.934s-4.275 11.869-1.835 21.495a23.123 23.123 0 0 1-5.33-2.953l.557-.728s-.664-8.858.976-13.779c1.64-4.92 6.93-9.399 9.263-12.253 2.333-2.854 5.213-9.35 5.213-9.35a24.956 24.956 0 0 1 2.235-2.785c6.072-2.184 5.164-15.245 4.656-16.455-.507-1.21-1.435-.984-1.435-.984l.078-.473c.264-.039 4.247.138 1.69 13.907z" fill="url(#67u07ur9cad)"/>
        <path style="mix-blend-mode:multiply" opacity=".5" d="M42.413 114.667a39.372 39.372 0 0 1-6.51-13.513c-1.738-7.42 1.512-14.684 1.512-14.684s-.976 8.06 1.786 14.103c4.149-.777 8.678-1.486 15.257-7.981 0 0 .05 0 0 0-.976.875-4.724 7.066-12.074 13.207a85.363 85.363 0 0 0 .029 8.868z" fill="url(#4m65l143jae)"/>
        <path style="mix-blend-mode:soft-light" d="M54.926 115.149v-1.909s-7.965 4.576-31.343-1.152l-.322-1.496a23.13 23.13 0 0 1-4.578-2.834l-.556.728a21.393 21.393 0 0 0 5.153 2.953l.4 1.24s16.341 5.639 31.246 2.47z" fill="url(#4qftkku08af)"/>
        <path style="mix-blend-mode:multiply" opacity=".5" d="M37.415 86.47s-2.216 14.005 4.998 19.359v8.857s-11.46-13.316-4.998-28.216z" fill="url(#tu2us1f55ag)"/>
        <path style="mix-blend-mode:multiply" opacity=".91" d="m44.765 71.343-.156 8.523s4.276 2.953 4.88 3.405c.606.453 4.198-1.643 4.198-1.643s-4.021 2.5-4.88 2.5c-.625 0-4.764-3.937-4.764-3.937l.722-8.848z" fill="url(#i2pr26eviah)"/>
        <path style="mix-blend-mode:soft-light" opacity=".5" d="M26.785 113.545s-2.528-17.647 1.825-21.032c4.354-3.386 11.84 23.364 11.84 23.364s-10.61-1.397-13.665-2.332z" fill="url(#0eb0z9er8ai)"/>
        <path style="mix-blend-mode:multiply" opacity=".5" d="M20.498 110.021s.908-6.377 2.47-9.448c0 0-.683 6.712.508 10.826l-2.977-1.378z" fill="url(#f3nw9r80naj)"/>
        <path d="M38.655 155.5a136.55 136.55 0 0 0 17.258.984v.827l-17.258.157V155.5z" fill="url(#ctusy3cuoak)"/>
        <path d="M34.408 155.5a44.788 44.788 0 0 1-14.641 1.398v.935c4.88.284 9.776.185 14.641-.296 0 0 .02-.994 0-2.037z" fill="url(#uxdifpp0pal)"/>
        <path style="mix-blend-mode:multiply" opacity=".3" d="M2.401 92.591c-.097.08-1.093.876-1.366 1.044l2.772-2.54-1.396 1.487-.01.01z" fill="url(#mb7ihvvaoam)"/>
        <path style="mix-blend-mode:multiply" opacity=".3" d="M3.826 96.912a5.758 5.758 0 0 0 1.748-.384A6.214 6.214 0 0 1 3.7 97.995a1.761 1.761 0 0 1-1.25-1.083s-1.122-.089-1.366-.59c-.244-.502.517-2.362 1.249-3.593-.117.237-.293.335-.205.532s.976.787.976.787a28.298 28.298 0 0 1 2.226-2.52L3.602 93.92l1.171.335c.99-.518 1.945-1.1 2.86-1.742-1.561 1.397-4.246 3.257-4.246 3.257a1.339 1.339 0 0 0 .44 1.142z" fill="url(#nskluztgvan)"/>
        <path style="mix-blend-mode:multiply" opacity=".91" d="M2.45 96.912c.106-.98.335-1.943.683-2.864a14.91 14.91 0 0 1 2.929-3.267 32.178 32.178 0 0 0-2.558 3.415 18.137 18.137 0 0 0-1.054 2.716z" fill="url(#x20kuozaxao)"/>
        <path style="mix-blend-mode:multiply" opacity=".91" d="M3.807 95.465c.313-.474.69-.902 1.123-1.27.37-.196 2.928-1.83 2.928-1.83s-2.977 2.411-4.05 3.1z" fill="url(#wl3agxncpap)"/>
        <path fill-rule="evenodd" clip-rule="evenodd" d="M56.82 40.125c1.358.052 2.718.01 4.07-.128a5.291 5.291 0 0 1 3.183.512 9.546 9.546 0 0 0-2.382.088 20.602 20.602 0 0 1-4.87-.472z" fill="#CC5268"/>
        <path style="mix-blend-mode:multiply" opacity=".6" d="M54.556 40.558a2.48 2.48 0 0 1 1.435-1.407s.312.315.292.58a3.297 3.297 0 0 0-1.727.827z" fill="url(#7nnxlclwmaq)"/>
        <path d="M37.093 37.9s-3.68-2.706-7.516-1.702c-3.837 1.004-1.748 8.66 3.533 11.043 5.281 2.381 7.35-.807 7.34-2.205-.009-1.398-3.357-7.135-3.357-7.135z" fill="url(#8p8fg46vear)"/>
        <path style="mix-blend-mode:multiply" opacity=".6" fill-rule="evenodd" clip-rule="evenodd" d="M38.069 41.424s-3.25-2.706-6.11-2.303c-2.86.404-1.367 5.167-1.367 5.167.102-.235.27-.434.484-.574a1.3 1.3 0 0 1 .716-.213 9.741 9.741 0 0 0 4.403 2.5s-3.514-1.713-3.983-3.337c0 0 2.548 2.953 4.88 2.224 2.334-.728.977-3.464.977-3.464z" fill="url(#nf14m93nhas)"/>
        <path fill-rule="evenodd" clip-rule="evenodd" d="M38.294 43.717s-2.929.364-3.973-.856a2.126 2.126 0 0 1-.157-2.51 5.664 5.664 0 0 1 3.593 1.398c.388.579.576 1.27.537 1.968z" fill="#CC5268"/>
    </g>
    <defs>
        <linearGradient id="d7pren4b0c" x1="85.871" y1="98" x2="83.704" y2="83.032" gradientUnits="userSpaceOnUse">
            <stop offset=".02" stop-color="#FFAE78"/>
            <stop offset="1" stop-color="#FF957C"/>
        </linearGradient>
        <linearGradient id="xic77je85d" x1="84.27" y1="92.714" x2="83.399" y2="86.695" gradientUnits="userSpaceOnUse">
            <stop offset=".01" stop-color="#BE6888"/>
            <stop offset="1" stop-color="#C981BA"/>
        </linearGradient>
        <linearGradient id="2e0a1pkv8e" x1="85.885" y1="94.568" x2="85.153" y2="89.513" gradientUnits="userSpaceOnUse">
            <stop offset=".02" stop-color="#F0C2D6"/>
            <stop offset=".99" stop-color="#BD89C4"/>
        </linearGradient>
        <linearGradient id="5vrv4h6dof" x1="437.686" y1="261.594" x2="437.686" y2="250.082" gradientUnits="userSpaceOnUse">
            <stop offset=".02" stop-color="#F0C2D6"/>
            <stop offset=".99" stop-color="#BD89C4"/>
        </linearGradient>
        <linearGradient id="3t2ldzys0g" x1="242.739" y1="476.283" x2="242.739" y2="414.792" gradientUnits="userSpaceOnUse">
            <stop offset=".02" stop-color="#F0C2D6"/>
            <stop offset=".99" stop-color="#BD89C4"/>
        </linearGradient>
        <linearGradient id="8paik5hhnh" x1="44.765" y1="157.272" x2="44.765" y2="99.687" gradientUnits="userSpaceOnUse">
            <stop stop-color="#643E9C"/>
            <stop offset="1" stop-color="#591383"/>
        </linearGradient>
        <linearGradient id="7pzx645pji" x1="27.566" y1="157.862" x2="27.566" y2="93.92" gradientUnits="userSpaceOnUse">
            <stop stop-color="#724FA5"/>
            <stop offset="1" stop-color="#721FB1"/>
        </linearGradient>
        <linearGradient id="kbesn8rvjj" x1="34.975" y1="134.419" x2="53.297" y2="134.419" gradientUnits="userSpaceOnUse">
            <stop offset=".01" stop-color="#63517C"/>
            <stop offset="1" stop-color="#8E72B3"/>
        </linearGradient>
        <linearGradient id="ougg9qntfk" x1="317.933" y1="5996.43" x2="503.422" y2="5996.43" gradientUnits="userSpaceOnUse">
            <stop offset=".01" stop-color="#63517C"/>
            <stop offset="1" stop-color="#8E72B3"/>
        </linearGradient>
        <linearGradient id="9glxr80oyl" x1="480.046" y1="952.629" x2="627.005" y2="952.629" gradientUnits="userSpaceOnUse">
            <stop offset=".01" stop-color="#63517C"/>
            <stop offset="1" stop-color="#8E72B3"/>
        </linearGradient>
        <linearGradient id="3tac23q4km" x1="320.056" y1="1090.89" x2="507.84" y2="1090.89" gradientUnits="userSpaceOnUse">
            <stop offset=".01" stop-color="#63517C"/>
            <stop offset="1" stop-color="#8E72B3"/>
        </linearGradient>
        <linearGradient id="vru7q6qm7n" x1="37.913" y1="72.898" x2="37.913" y2="64.66" gradientUnits="userSpaceOnUse">
            <stop stop-color="#FFB79E"/>
            <stop offset="1" stop-color="#FFE9B7"/>
        </linearGradient>
        <linearGradient id="6zgmbsee1o" x1="59.807" y1="11.771" x2="59.807" y2="0" gradientUnits="userSpaceOnUse">
            <stop offset=".01" stop-color="#6F2E45"/>
            <stop offset="1" stop-color="#923E42"/>
        </linearGradient>
        <linearGradient id="10xl5jm0zp" x1="728.434" y1="70.806" x2="883.644" y2="70.806" gradientUnits="userSpaceOnUse">
            <stop offset=".02" stop-color="#F0C2D6"/>
            <stop offset=".99" stop-color="#BD89C4"/>
        </linearGradient>
        <linearGradient id="sc1oficg4q" x1="24.833" y1="42.101" x2="22.49" y2="24.402" gradientUnits="userSpaceOnUse">
            <stop stop-color="#D6023E"/>
            <stop offset=".99" stop-color="#FF432C"/>
        </linearGradient>
        <linearGradient id="aupl0jth1r" x1="159.541" y1="1983.88" x2="159.541" y2="1612.71" gradientUnits="userSpaceOnUse">
            <stop offset=".02" stop-color="#FFAE78"/>
            <stop offset="1" stop-color="#FF957C"/>
        </linearGradient>
        <linearGradient id="g4wdpkdays" x1="79.066" y1="421.139" x2="79.066" y2="406.946" gradientUnits="userSpaceOnUse">
            <stop offset=".02" stop-color="#F0C2D6"/>
            <stop offset=".99" stop-color="#BD89C4"/>
        </linearGradient>
        <linearGradient id="0p8aq5lvkt" x1="3285.32" y1="3981.5" x2="3285.32" y2="2181.88" gradientUnits="userSpaceOnUse">
            <stop stop-color="#FFB79E"/>
            <stop offset="1" stop-color="#FFE9B7"/>
        </linearGradient>
        <linearGradient id="o2kxh9k1bu" x1="49.109" y1="56.511" x2="49.109" y2="47.329" gradientUnits="userSpaceOnUse">
            <stop offset=".02" stop-color="#FF8359"/>
            <stop offset="1" stop-color="#FF8B7C"/>
        </linearGradient>
        <linearGradient id="0qg46xyhlv" x1="411.013" y1="333.771" x2="411.013" y2="305.589" gradientUnits="userSpaceOnUse">
            <stop offset=".02" stop-color="#F0C2D6"/>
            <stop offset=".99" stop-color="#BD89C4"/>
        </linearGradient>
        <linearGradient id="jr0oxzaj9w" x1="697.266" y1="1083.72" x2="697.266" y2="859.319" gradientUnits="userSpaceOnUse">
            <stop offset=".01" stop-color="#BE6888"/>
            <stop offset="1" stop-color="#C981BA"/>
        </linearGradient>
        <linearGradient id="rrkf5ldjyx" x1="2090.74" y1="2225.51" x2="2090.74" y2="276.324" gradientUnits="userSpaceOnUse">
            <stop offset=".02" stop-color="#FFAE78"/>
            <stop offset="1" stop-color="#FF957C"/>
        </linearGradient>
        <linearGradient id="tr2ljcfboy" x1="1623.87" y1="3127.22" x2="1623.87" y2="2032.83" gradientUnits="userSpaceOnUse">
            <stop offset=".01" stop-color="#BE6888"/>
            <stop offset="1" stop-color="#C981BA"/>
        </linearGradient>
        <linearGradient id="ozoqffsc9z" x1="1927.15" y1="1936.36" x2="1927.15" y2="257.013" gradientUnits="userSpaceOnUse">
            <stop offset=".02" stop-color="#F0C2D6"/>
            <stop offset=".99" stop-color="#BD89C4"/>
        </linearGradient>
        <linearGradient id="ql6xqa8jeA" x1="826.53" y1="2899.85" x2="826.53" y2="1835.54" gradientUnits="userSpaceOnUse">
            <stop offset=".01" stop-color="#BE6888"/>
            <stop offset="1" stop-color="#C981BA"/>
        </linearGradient>
        <linearGradient id="s5n30s79vB" x1="2014.2" y1="1320.19" x2="2014.2" y2="150.474" gradientUnits="userSpaceOnUse">
            <stop offset=".01" stop-color="#6F2E45"/>
            <stop offset="1" stop-color="#923E42"/>
        </linearGradient>
        <linearGradient id="locafmd2uC" x1="30.104" y1="25.421" x2="30.104" y2="10.983" gradientUnits="userSpaceOnUse">
            <stop offset=".01" stop-color="#F20044"/>
            <stop offset="1" stop-color="#D90E27"/>
        </linearGradient>
        <linearGradient id="q8ylghqk2D" x1="39.289" y1="29.191" x2="39.289" y2="7.401" gradientUnits="userSpaceOnUse">
            <stop offset=".01" stop-color="#6F2E45"/>
            <stop offset=".99" stop-color="#A6453D"/>
        </linearGradient>
        <linearGradient id="1qyy2xbmpE" x1="1053.61" y1="404.436" x2="1053.61" y2="130.015" gradientUnits="userSpaceOnUse">
            <stop offset=".01" stop-color="#6F2E45"/>
            <stop offset=".99" stop-color="#A6453D"/>
        </linearGradient>
        <linearGradient id="p6eab6h53F" x1="46.805" y1="64.483" x2="46.805" y2="49.868" gradientUnits="userSpaceOnUse">
            <stop stop-color="#FFECE5"/>
            <stop offset="1" stop-color="#FFF6E2"/>
        </linearGradient>
        <linearGradient id="69qv3feljG" x1="674.962" y1="726.773" x2="1249.79" y2="726.773" gradientUnits="userSpaceOnUse">
            <stop offset=".02" stop-color="#F0C2D6"/>
            <stop offset=".99" stop-color="#BD89C4"/>
        </linearGradient>
        <linearGradient id="w25jr9592H" x1="153.592" y1="-230.15" x2="126.701" y2="-354.453" gradientUnits="userSpaceOnUse">
            <stop stop-color="#D6023E"/>
            <stop offset=".99" stop-color="#FF432C"/>
        </linearGradient>
        <linearGradient id="ri7imjwb9I" x1="327.131" y1="415.311" x2="327.131" y2="163.285" gradientUnits="userSpaceOnUse">
            <stop offset=".01" stop-color="#6F2E45"/>
            <stop offset="1" stop-color="#923E42"/>
        </linearGradient>
        <linearGradient id="zalu93ewzJ" x1="522.564" y1="236.675" x2="522.564" y2="171.624" gradientUnits="userSpaceOnUse">
            <stop offset=".01" stop-color="#6F2E45"/>
            <stop offset="1" stop-color="#923E42"/>
        </linearGradient>
        <linearGradient id="rcch1k6z1K" x1="408" y1="151.187" x2="408" y2="117.506" gradientUnits="userSpaceOnUse">
            <stop offset=".01" stop-color="#6F2E45"/>
            <stop offset="1" stop-color="#923E42"/>
        </linearGradient>
        <linearGradient id="gv8taenlfL" x1="48.094" y1="39.16" x2="48.094" y2="27.045" gradientUnits="userSpaceOnUse">
            <stop stop-color="#fff"/>
            <stop offset="1" stop-color="#D0C7F8"/>
        </linearGradient>
        <linearGradient id="armfle9o9M" x1="424.855" y1="420.638" x2="424.855" y2="303.003" gradientUnits="userSpaceOnUse">
            <stop stop-color="#fff"/>
            <stop offset="1" stop-color="#D0C7F8"/>
        </linearGradient>
        <linearGradient id="fkqgibt6sN" x1="48.409" y1="39.533" x2="51.971" y2="32.399" gradientUnits="userSpaceOnUse">
            <stop offset=".01" stop-color="#C2862E"/>
            <stop offset=".98" stop-color="#74422F"/>
        </linearGradient>
        <linearGradient id="fuyj92j5rO" x1="339.664" y1="270.681" x2="339.664" y2="226.878" gradientUnits="userSpaceOnUse">
            <stop offset=".01" stop-color="#C2862E"/>
            <stop offset=".98" stop-color="#74422F"/>
        </linearGradient>
        <linearGradient id="bj5uwxajjP" x1="54.868" y1="44.652" x2="61.252" y2="44.652" gradientUnits="userSpaceOnUse">
            <stop stop-color="#CF6074"/>
            <stop offset="1" stop-color="#E04A60"/>
        </linearGradient>
        <linearGradient id="0t2liy9s1Q" x1="214.435" y1="408.718" x2="214.435" y2="161.873" gradientUnits="userSpaceOnUse">
            <stop offset=".01" stop-color="#6F2E45"/>
            <stop offset=".99" stop-color="#A6453D"/>
        </linearGradient>
        <linearGradient id="hr4ang2xtR" x1="25.126" y1="22.725" x2="25.126" y2="11.377" gradientUnits="userSpaceOnUse">
            <stop offset=".01" stop-color="#8B4156"/>
            <stop offset=".99" stop-color="#BF543D"/>
        </linearGradient>
        <linearGradient id="789op6q7bS" x1="259.34" y1="285.88" x2="385.821" y2="285.88" gradientUnits="userSpaceOnUse">
            <stop offset=".02" stop-color="#F0C2D6"/>
            <stop offset=".99" stop-color="#BD89C4"/>
        </linearGradient>
        <linearGradient id="x26x2fni7T" x1="830.531" y1="260.26" x2="1035.9" y2="260.26" gradientUnits="userSpaceOnUse">
            <stop offset=".02" stop-color="#F0C2D6"/>
            <stop offset=".99" stop-color="#BD89C4"/>
        </linearGradient>
        <linearGradient id="n9xciorg6U" x1="582.375" y1="17.246" x2="693.505" y2="17.246" gradientUnits="userSpaceOnUse">
            <stop offset=".02" stop-color="#F0C2D6"/>
            <stop offset=".99" stop-color="#BD89C4"/>
        </linearGradient>
        <linearGradient id="yjawbeu9rV" x1="815.693" y1="443.689" x2="815.693" y2="136.356" gradientUnits="userSpaceOnUse">
            <stop offset=".01" stop-color="#8B4156"/>
            <stop offset=".99" stop-color="#BF543D"/>
        </linearGradient>
        <linearGradient id="bgp4pz8xwW" x1="458.702" y1="509.61" x2="458.702" y2="467.946" gradientUnits="userSpaceOnUse">
            <stop offset=".01" stop-color="#BE6888"/>
            <stop offset="1" stop-color="#C981BA"/>
        </linearGradient>
        <linearGradient id="gclq5uyxqX" x1="362.966" y1="1013.28" x2="362.966" y2="796.881" gradientUnits="userSpaceOnUse">
            <stop stop-color="#FFECE5"/>
            <stop offset="1" stop-color="#FFF6E2"/>
        </linearGradient>
        <linearGradient id="f7xssn4zuY" x1="165.11" y1="1348.32" x2="165.11" y2="1096.22" gradientUnits="userSpaceOnUse">
            <stop offset=".02" stop-color="#F0C2D6"/>
            <stop offset=".99" stop-color="#BD89C4"/>
        </linearGradient>
        <linearGradient id="y9pmqhxdtZ" x1="87.243" y1="511.382" x2="87.243" y2="487.317" gradientUnits="userSpaceOnUse">
            <stop offset=".01" stop-color="#BE6888"/>
            <stop offset="1" stop-color="#C981BA"/>
        </linearGradient>
        <linearGradient id="ggfyz3iu2aa" x1="585.763" y1="187.912" x2="585.763" y2="185.395" gradientUnits="userSpaceOnUse">
            <stop offset=".02" stop-color="#F0C2D6"/>
            <stop offset=".99" stop-color="#BD89C4"/>
        </linearGradient>
        <linearGradient id="dxb8k7xeuab" x1="378.536" y1="726.063" x2="378.536" y2="677.147" gradientUnits="userSpaceOnUse">
            <stop offset=".01" stop-color="#BE6888"/>
            <stop offset="1" stop-color="#C981BA"/>
        </linearGradient>
        <linearGradient id="dy95g88n5ac" x1="49.773" y1="84.137" x2="49.773" y2="71.343" gradientUnits="userSpaceOnUse">
            <stop stop-color="#8682D1"/>
            <stop offset=".6" stop-color="#8381DC"/>
            <stop offset="1" stop-color="#8080E6"/>
        </linearGradient>
        <linearGradient id="67u07ur9cad" x1="764.365" y1="6817.94" x2="764.365" y2="3186.79" gradientUnits="userSpaceOnUse">
            <stop offset=".02" stop-color="#F0C2D6"/>
            <stop offset=".99" stop-color="#BD89C4"/>
        </linearGradient>
        <linearGradient id="4m65l143jae" x1="914.434" y1="3371.67" x2="914.434" y2="2563.83" gradientUnits="userSpaceOnUse">
            <stop offset=".02" stop-color="#F0C2D6"/>
            <stop offset=".99" stop-color="#BD89C4"/>
        </linearGradient>
        <linearGradient id="4qftkku08af" x1="1397.02" y1="1093.62" x2="1397.02" y2="1022.67" gradientUnits="userSpaceOnUse">
            <stop offset=".02" stop-color="#F0C2D6"/>
            <stop offset=".99" stop-color="#BD89C4"/>
        </linearGradient>
        <linearGradient id="tu2us1f55ag" x1="313.534" y1="3373.96" x2="313.534" y2="2565.56" gradientUnits="userSpaceOnUse">
            <stop offset=".02" stop-color="#F0C2D6"/>
            <stop offset=".99" stop-color="#BD89C4"/>
        </linearGradient>
        <linearGradient id="i2pr26eviah" x1="48.806" y1="84.128" x2="48.806" y2="71.343" gradientUnits="userSpaceOnUse">
            <stop offset=".01" stop-color="#BD89C4"/>
            <stop offset=".98" stop-color="#F0C2D6"/>
        </linearGradient>
        <linearGradient id="0eb0z9er8ai" x1="516.519" y1="2878.73" x2="516.519" y2="2309.93" gradientUnits="userSpaceOnUse">
            <stop offset=".02" stop-color="#F0C2D6"/>
            <stop offset=".99" stop-color="#BD89C4"/>
        </linearGradient>
        <linearGradient id="f3nw9r80naj" x1="87.664" y1="1326.29" x2="87.664" y2="1206.88" gradientUnits="userSpaceOnUse">
            <stop offset=".01" stop-color="#63517C"/>
            <stop offset="1" stop-color="#8E72B3"/>
        </linearGradient>
        <linearGradient id="ctusy3cuoak" x1="38.655" y1="156.484" x2="55.913" y2="156.484" gradientUnits="userSpaceOnUse">
            <stop stop-color="#FF636D"/>
            <stop offset=".99" stop-color="#FF9A00"/>
        </linearGradient>
        <linearGradient id="uxdifpp0pal" x1="19.728" y1="156.72" x2="34.408" y2="156.72" gradientUnits="userSpaceOnUse">
            <stop offset=".01" stop-color="#FF9A00"/>
            <stop offset="1" stop-color="#FF636D"/>
        </linearGradient>
        <linearGradient id="mb7ihvvaoam" x1="7.91" y1="332.674" x2="7.91" y2="326.122" gradientUnits="userSpaceOnUse">
            <stop offset=".01" stop-color="#BE6888"/>
            <stop offset="1" stop-color="#C981BA"/>
        </linearGradient>
        <linearGradient id="nskluztgvan" x1="30.325" y1="735.352" x2="30.325" y2="692.546" gradientUnits="userSpaceOnUse">
            <stop offset=".01" stop-color="#BE6888"/>
            <stop offset="1" stop-color="#C981BA"/>
        </linearGradient>
        <linearGradient id="x20kuozaxao" x1="18.161" y1="694.542" x2="18.161" y2="656.343" gradientUnits="userSpaceOnUse">
            <stop offset=".02" stop-color="#F0C2D6"/>
            <stop offset=".99" stop-color="#BD89C4"/>
        </linearGradient>
        <linearGradient id="wl3agxncpap" x1="27.991" y1="393.078" x2="27.991" y2="383.313" gradientUnits="userSpaceOnUse">
            <stop offset=".02" stop-color="#F0C2D6"/>
            <stop offset=".99" stop-color="#BD89C4"/>
        </linearGradient>
        <linearGradient id="7nnxlclwmaq" x1="153.97" y1="76.319" x2="153.762" y2="74.587" gradientUnits="userSpaceOnUse">
            <stop offset=".01" stop-color="#BD89C4"/>
            <stop offset=".98" stop-color="#F0C2D6"/>
        </linearGradient>
        <linearGradient id="8p8fg46vear" x1="-7316.43" y1="938.841" x2="-7327.28" y2="785.009" gradientUnits="userSpaceOnUse">
            <stop offset=".02" stop-color="#FF8359"/>
            <stop offset="1" stop-color="#FF8B7C"/>
        </linearGradient>
        <linearGradient id="nf14m93nhas" x1="37.026" y1="43.683" x2="28.894" y2="44.248" gradientUnits="userSpaceOnUse">
            <stop offset=".01" stop-color="#B060F4"/>
            <stop offset="1" stop-color="#FFEADB"/>
        </linearGradient>
        <clipPath id="irxd39xuba">
            <path fill="#fff" d="M0 0h92v158H0z"/>
        </clipPath>
        <filter id="x02dlpko4b" x="-2" y="-1" width="94" height="159" filterUnits="userSpaceOnUse" color-interpolation-filters="sRGB">
            <feFlood flood-opacity="0" result="BackgroundImageFix"/>
            <feBlend in="SourceGraphic" in2="BackgroundImageFix" result="shape"/>
            <feColorMatrix in="SourceAlpha" values="0 0 0 0 0 0 0 0 0 0 0 0 0 0 0 0 0 0 127 0" result="hardAlpha"/>
            <feOffset dx="-2" dy="-1"/>
            <feGaussianBlur stdDeviation="1.5"/>
            <feComposite in2="hardAlpha" operator="arithmetic" k2="-1" k3="1"/>
            <feColorMatrix values="0 0 0 0 1 0 0 0 0 0.962545 0 0 0 0 0.683333 0 0 0 0.75 0"/>
            <feBlend in2="shape" result="effect1_innerShadow_401_1269"/>
        </filter>
    </defs>
</svg>
