<svg width="45" height="45" viewBox="0 0 36 36" fill="none" xmlns="http://www.w3.org/2000/svg">
    <path d="M2 19.517C2 28.26 9.263 35.5 18 35.5c8.753 0 16-7.24 16-15.983 0-5.265-2.667-9.998-6.698-12.928-.69-.533-1.553-.36-1.945.282-.392.658-.188 1.395.455 1.88 3.34 2.382 5.506 6.315 5.521 10.766.016 7.396-5.93 13.32-13.333 13.32a13.262 13.262 0 0 1-13.318-13.32c0-6.347 4.361-11.612 10.29-12.96v2.241c0 1.113.77 1.41 1.632.8l5.004-3.51c.706-.486.721-1.238 0-1.755L16.62.823c-.879-.627-1.648-.33-1.648.799v2.21C7.633 5.271 2 11.806 2 19.516zm11.341 6.424c.612 0 1.004-.423 1.004-1.08v-9.889c0-.799-.408-1.222-1.114-1.222-.439 0-.753.141-1.302.517l-2.164 1.458c-.361.266-.534.548-.534.908 0 .518.424.956.926.956.298 0 .455-.062.753-.297l1.474-1.082v8.65c0 .643.377 1.081.957 1.081zm7.969.188c2.604 0 4.33-1.676 4.33-4.2 0-2.303-1.554-3.948-3.797-3.948-.925 0-1.93.423-2.4 1.128l.267-3.384h4.706c.455 0 .847-.377.847-.91 0-.532-.392-.877-.847-.877h-5.02c-.816 0-1.27.47-1.349 1.3l-.33 4.514c-.078.783.33 1.16 1.02 1.16.518 0 .738-.095 1.192-.44.597-.548 1.083-.767 1.71-.767 1.208 0 2.024.893 2.024 2.256 0 1.38-.957 2.382-2.26 2.382-.925 0-1.725-.533-2.132-1.348-.236-.407-.518-.626-.91-.626-.518 0-.879.376-.879.909 0 .219.047.423.142.626.407 1.128 1.788 2.225 3.686 2.225z" fill="#fff"/>
</svg>
