<svg width="45" height="45" viewBox="0 0 36 36" fill="none" xmlns="http://www.w3.org/2000/svg">
    <path d="M2 19.519C2 28.262 9.263 35.5 18 35.5c8.753 0 16-7.238 16-15.981 0-7.708-5.631-14.242-12.973-15.683V1.61c0-1.113-.768-1.41-1.615-.8l-5.004 3.495c-.722.501-.737 1.253 0 1.77l4.988 3.51c.863.626 1.631.329 1.631-.8V6.563c5.93 1.347 10.29 6.612 10.29 12.957A13.261 13.261 0 0 1 18 32.837c-7.404 0-13.349-5.923-13.333-13.318.015-4.45 2.18-8.382 5.521-10.764.643-.485.847-1.222.455-1.88-.392-.642-1.255-.815-1.945-.282C4.667 9.523 2 14.255 2 19.52zm11.42 6.424c.611 0 1.004-.423 1.004-1.081v-9.887c0-.799-.408-1.222-1.114-1.222-.44 0-.753.141-1.302.517l-2.165 1.457c-.36.267-.533.549-.533.91 0 .516.408.955.925.955.298 0 .455-.063.753-.298l1.475-1.08v8.648c0 .642.376 1.08.957 1.08zm7.968.188c2.604 0 4.33-1.677 4.33-4.2 0-2.302-1.553-3.947-3.796-3.947-.926 0-1.93.423-2.4 1.128l.266-3.385h4.706c.455 0 .847-.376.847-.908 0-.533-.392-.878-.847-.878h-5.02c-.815 0-1.27.47-1.349 1.3l-.329 4.513c-.078.783.33 1.16 1.02 1.16.517 0 .737-.095 1.192-.44.596-.548 1.082-.767 1.694-.767 1.223 0 2.04.893 2.04 2.256 0 1.379-.958 2.382-2.26 2.382-.925 0-1.725-.533-2.133-1.348-.235-.407-.518-.627-.91-.627-.517 0-.878.377-.878.91 0 .219.047.422.125.626.424 1.128 1.804 2.225 3.702 2.225z" fill="#fff"/>
</svg>
