<svg width="32" height="17" viewBox="0 0 32 17" fill="none" xmlns="http://www.w3.org/2000/svg">
    <path d="M28.007 14c.203 0 .353-.15.38-.354.49-2.64.476-2.775 3.246-3.251.218-.041.367-.177.367-.395 0-.218-.15-.354-.353-.395-2.798-.49-2.825-.625-3.26-3.238C28.36 6.15 28.21 6 28.007 6c-.218 0-.353.15-.394.354-.462 2.653-.462 2.816-3.246 3.251-.204.041-.367.177-.367.395.014.218.15.354.367.395 2.784.49 2.811.625 3.246 3.251.04.204.177.354.394.354zM14.5 7c.195 0 .307-.126.335-.307.474-2.306.446-2.376 2.844-2.85.21-.043.321-.154.321-.35 0-.182-.112-.293-.307-.335-2.426-.49-2.412-.56-2.858-2.85C14.807.125 14.695 0 14.5 0c-.181 0-.293.126-.335.307-.474 2.32-.432 2.404-2.844 2.85-.195.029-.321.154-.321.336 0 .196.126.307.307.35 2.426.488 2.412.544 2.858 2.85.028.181.154.307.335.307zM4.5 17c.245 0 .398-.168.444-.398.49-2.97.52-3.138 3.643-3.658.26-.046.413-.2.413-.444 0-.245-.153-.398-.398-.444-3.138-.55-3.153-.704-3.658-3.658C4.898 8.168 4.744 8 4.5 8c-.245 0-.398.168-.429.398-.505 2.985-.535 3.138-3.673 3.658-.23.046-.398.2-.398.444 0 .245.168.398.398.444 3.138.55 3.138.704 3.673 3.658.031.23.184.398.429.398z" fill="#FFEB83"/>
</svg>
