<svg width="375" height="102" viewBox="0 0 375 102" fill="none" xmlns="http://www.w3.org/2000/svg">
    <path d="M-33 68.389s1.368-1.555 2.737-6.606c1.173-5.052 1.173-9.715 1.173-9.715s.977 6.023.39 9.132c-.586 2.914-.586 3.691-.586 3.691s1.369-5.634 2.932-7.188c1.564-1.554 3.519-4.274 3.519-4.274s-2.541 3.885-2.737 4.857c-.195.971-.39 1.748-.39 1.748s1.759-1.748 2.736-3.108c1.173-1.36 1.564-5.44 1.564-5.44V54.4c0 1.554-.782 4.08-.782 4.08s3.128-.389 4.105-1.943c.977-1.554 1.564-5.634 1.564-5.634s.195 1.943 0 3.108c-.196 1.166-.391 2.526-.391 2.526s1.564-.388 2.15-1.748c.587-1.36.587-3.886.587-3.886s.39 1.166.39 2.137c0 .971-.195 2.137-.195 2.137s2.346 0 3.128-2.137c.586-2.137 0-4.08.782-5.634.782-1.555 1.759-4.274 1.759-4.274s-1.368 4.274-1.368 5.44c0 1.36.195 3.108.195 3.108s.196-2.914 1.173-4.274c.977-1.36 2.15-4.663 2.15-4.663s-.782 3.108-1.173 4.468c-.39 1.555-1.173 2.332-.977 3.692.195 1.36-.196 1.943.39 1.943.587.194 1.37-.195 1.76-1.749.391-1.554.782-4.08 1.955-5.634 1.173-1.554 1.564-2.137 1.564-3.109 0-.971-.978-2.914-.978-2.914s.587.583.978 1.749c.39 1.165.782 1.748.39 3.108-.39 1.166-.586 1.943 0 2.526.587.583 3.129.194 2.738-.777-.391-.972-.391-1.36-.978-2.72a90.483 90.483 0 0 0-.977-3.109s.977 1.943 1.368 3.109C.232 44.49.818 45.463 1.6 44.686c.782-.777.195-1.36.586-2.526.391-1.166 1.369-2.331 1.369-2.331s-.782 1.165-.587 2.137c.196.971.978.971 1.564 1.554.587.583 1.955 1.166 2.15.583.196-.583.587-1.554 0-1.943-.586-.388-1.172-.194-1.172-.194s.781-.389 1.368 0c.586.388.39.971.977.777.587 0 .587-.583.978-1.554.39-.778.586-.972 1.173-1.555.586-.583 1.368-.777 1.368-.777s-.587.194-.587.777c-.195.583.196 1.166.391.972.196-.195.782-.583.782-.583s-.39.388-.195.971.586.972 1.368 1.36c.782.389.978-.583.978-.583s.39.195.781.778c.196.582 1.369.582 1.76 0 .39-.583 1.368-.583 1.955-1.166.586-.583.977-.777.39-1.166-.586-.388.196-.971.196-1.943 0-.777-.977-1.748-.977-1.748s.977 0 1.368.777c.391.971.782 1.36.782 1.36s.39-.583.195-1.554c-.195-.972-2.15-1.943-2.15-1.943s1.564 0 2.15.777c.587.777.978 1.943.978 1.943s.977-.389.782-1.166c-.196-.777-1.955-1.943-1.955-1.943s1.173.389 1.76 1.36c.586.972.977.194 1.563.777.391.583.782.777 1.369 1.166.39.389 1.563.971 2.345 1.36.978.389 1.564.777 1.173-.194-.39-.972-.977-1.943-1.76-3.109-.586-.971-1.172-1.554-1.563-2.331-.195-.777 0-1.555 0-1.555s-.195.972.586 1.749c.782.777.782.777 1.369 1.554.586.777 1.955.972 2.15.389.195-.583 1.76-.389.977-1.36-.782-.972-1.172-2.137-1.954-2.526-.782-.194-1.173-.777-1.76-1.166-.782-.388-1.954-.777-1.954-.777s1.172 0 2.736.972c1.564.971 1.955.583 2.932 1.748.978 1.166 2.346.777 2.737 1.166.587.389 1.368 0 .587-1.166-.782-.971-1.564-1.165-2.15-2.331-.587-1.166-2.542-2.332-2.542-2.332s1.76.195 2.737 1.36c.782 1.166.782 1.36 1.955 2.138 1.172.777 1.954.971 2.345 1.748.391.777 1.369.972.978-.388-.391-1.36-.196-1.943-1.369-2.72-1.172-.778-1.172-3.303-1.172-3.303s0 1.554.781 2.331c.782.777 1.76 1.166 1.955 1.749.196.777.978.971.978.971s.586 0-.196-1.36c-.782-1.166-1.173-1.36-1.173-2.137 0-.777.782-.971.782-.971s-.782.582-.39 1.36c.39.777 1.172.777 1.563 1.554s.391 1.554.977 1.943c.587.388 1.369.971 1.369.194-.196-.777.586-2.331.586-2.331s-.39.971-.195 1.748c.195.583.586.583.977.972.391.388.782.777 1.369.777.586-.195 1.172-.195.977-.777-.196-.583-1.173-1.749-1.173-1.749s.587.194.977.777c.391.583.782 1.166.978.583.195-.389.39-.971.782-1.943.39-.971 1.76-1.36 1.76-1.36s-1.565.777-1.565 1.943-.195 1.554.391 1.749c.587.194.391-.195 1.173 0 .977.194 1.564-.195 1.955-.972.39-.777 1.368-1.554 2.15-1.943.782-.388 2.737-.777 2.737-.777s-1.76.389-2.15.972c-.391.388.195.777.977.582.782-.194 1.76-.194 1.76-.194s-.783.194-.783.583c0 .389.782.777 1.173.971.587.195 1.369.195 1.564-.194.196-.388 1.564-.777 1.369-1.36-.196-.583-1.369-1.165-1.369-1.165s1.173 0 1.369.388c.195.389.39.194.977.194.586 0 1.368-.194 1.368-.582 0-.583 1.173-.583.391-2.138-.782-1.36-.586-3.108-.39-4.274.195-1.166 0-4.08 0-4.08s.39.971.39 3.109c.196 2.137.391 3.302 1.173 3.885.782.583 2.15 1.749 2.15 1.749s0-.972-.977-2.72c-.977-1.749-.587-4.663-.587-4.663s0 2.137.587 3.109c.586.971.977 1.165 1.564 2.137.586.971 1.955 1.36 2.15-.389.196-1.748-.195-2.137.782-4.08.782-1.943 2.737-2.331 2.737-2.331s-2.346 1.165-2.346 3.303c0 1.942.586 1.942.782 3.497 0 1.36.39 1.36.977 2.331.587.972 1.369.389 1.955-.971.391-1.36 1.368-2.526 2.541-3.303 1.173-.777 2.737-.971 2.737-.971s-1.955.777-2.15 1.748c-.196 1.166.977.389.977 1.554 0 1.166.587 1.749 1.76 1.166 1.172-.583 2.932-1.166 2.345-1.749-.782-.582-2.15-1.942-2.15-1.942s.586.194 1.955.388c1.368.194 0-1.36 0-1.36s.977 0 1.954.389c.978.388 2.933 0 2.346-1.749-.586-1.748.587-5.051 1.564-6.217.977-1.166 5.278-2.72 5.278-2.72s-1.564.971-2.15 1.749c-.587.777-1.368 2.331-1.368 2.331s.977-.194 1.563-1.166c.587-.971 2.346-2.72 2.346-2.72s-.977 1.749-1.76 3.498c-.781 1.748-1.368 2.33-.977 4.468.391 1.943.978 3.303 2.15 1.749 1.174-1.555 3.715-2.526 3.715-2.526s-1.76.971-1.76 2.331c0 1.36 0 .972.587 1.555.782.388 1.368 1.36 1.955.194.782-1.166.39-3.692.39-3.692s.587 1.166.587 1.943c0 .777.782 0 .782 0s.782-1.165 1.368-2.137c.587-.971 2.151-1.554 2.151-1.554s-1.76 1.165-1.76 2.72c0 1.554 1.173 1.748 2.151 2.526.977.777 3.323.194 3.323.194s-1.173-.194-1.955-1.943c-.782-1.554-1.173-2.137-.977-3.303.195-1.166.977-2.137.977-2.137s-.782 1.166-.391 2.72c.391 1.554 1.564.971 2.346 1.943.782.971 2.736.777 3.518 1.748.782.972 2.346 1.943 2.737 1.36.391-.582.196-1.748 0-4.468-.195-2.72.586-5.246.586-5.246s.391.777.391 0-.195-1.943 0-3.109c.196-1.165.587-2.33.587-2.33s-.391 1.748 0 3.302.586 2.331.782 3.886c.195 1.36.977 2.72 1.368 3.497.391.777 1.759 2.914 1.759 2.914s-.586-1.554-.195-2.137c.391-.583 1.955-.777 2.541-1.554.587-.777 1.564-1.555 3.128-2.137 1.564-.583 3.128-.972 3.128-.972s-1.564.389-1.76.972c-.195.582.782.971 1.564.582.782-.388 2.15.195 2.15.195s-1.172-.195-1.172.582c0 .778.195 1.943-.196 2.526-.586.583-.782 1.36-.782 1.36s1.955-.971 2.15-2.331c.391-1.36 1.76-1.36 2.346-2.72.587-1.36 2.737-2.914 2.737-2.914s-1.173 1.36-1.173 2.331c0 .971-.977 3.303-.782 4.08.196.777 1.759.389 2.346-.583.586-.971 2.346-2.137 3.323-2.137.977 0 1.564.389 1.564.389s-.782 0-.782.388c0 .389 1.173.194 1.564 1.554.586 1.36 1.759 2.138 1.955 1.166.195-.971 0-2.72-.782-3.886-.978-.971-2.346-4.08-2.346-4.08s.782.778.977.195c.196-.583 0-2.137-.782-3.692-.782-1.36-3.714-3.691-3.714-3.691s1.564 1.166 1.955.971c.391-.388 0-1.165 0-1.165s1.368.388 2.346 1.36c.977.971 3.518 2.72 4.3 4.08.782 1.36 4.496 5.051 4.496 5.051l-1.368-2.72s1.368 1.166 1.955 2.137c.391.777.586 1.554 1.564 1.943.977.389 1.563.583 2.541 1.166.977.583 2.15.194 1.564-1.36-.587-1.555-.782-3.303-.391-4.663a5.29 5.29 0 0 1 .977-2.332s-.782 1.943-.391 3.303c.391 1.36.782 1.166.978 1.943 0 .972.391 2.137 1.563 2.137 1.173 0 1.76-1.36 1.76-2.525 0-1.166 2.15-3.303 2.15-3.303s-.782.971-.586 1.36c.195.388.195.388-.196.971-.391.777-.977 2.137-.586 3.109.391.777 1.368.777 2.345 0 .978-.777 1.173-.583 2.151-1.166.977-.583 1.955-.194 1.759-1.36-.195-1.166-2.737-1.749-2.737-1.749s1.173-.388 2.933.389c1.759.777 3.714 1.36 3.714.583 0-.777.391-1.554-1.173-2.332-1.564-.582-2.737-.971-2.932-1.748-.196-.777.586-1.749.586-1.749s-.782 1.36.391 1.943 4.496 1.36 4.691 2.137c.196.777.196 1.749 0 2.915-.195 1.165-.977 2.137.391 1.748.978-.389 3.324-1.943 4.301-1.748.977 0 1.368-.195 1.955.971.586 1.166 1.368-.194 3.323-.194 2.15 0 3.714 3.497 4.105 1.36.586-1.943 1.368-3.886 2.346-3.692.977.195 0 .972 1.955.583 1.954-.388 4.496-.777 5.082 0 .586.777.977 2.526 1.759 2.72.782.194 1.564-1.36 1.564-2.72s-.391-2.526 0-3.303c.391-.777 1.173-1.748 1.173-1.36 0 .389 0 1.554.391 1.554.586.195.391-.777.391-1.748s.195-1.36.391-1.943c.195-.583.586-1.166.586-.971 0 .194-.391 1.554-.195 2.525.195.972.782 2.332.782 3.498 0 1.165-.196 2.72.391 1.748.391-.971.586-2.526.586-2.526s.587.195.587-.583c0-.582-.196-.777.195-.97.196-.195.391-.195.587-.584 0-.388.391-.583.391-.388 0 .388-.391.777-.391 1.554 0 .583.195 1.36 0 1.943-.196.583.977-.389 1.368-1.166.391-.777 1.368-1.748 1.564-1.36.195.194.195.583-.391.777-.587.389-.587 1.166-1.173 1.749-.586.583-1.759 1.36-1.564 2.137.196.777.587.777 1.173.194.586-.583 1.955-.582 2.15-1.165.196-.778.782-.389 1.173-.778.391-.388 1.369-1.748.782-3.108-.586-1.36-1.368-2.137-1.368-2.137s.782.194 1.368 1.36c.587 1.165 1.173 1.554.782 2.525-.391.778.195 1.166.586 1.555.391.388.978-.389.782-1.555-.195-1.165.587-1.554 1.369-3.108s2.736-3.109 2.736-3.109-1.759 2.72-1.759 3.109c0 .583 0 1.166-.391 1.748-.391.778-.782 1.166 0 2.138.782.777 2.15.388 1.955-1.166-.196-1.554 0-2.526.586-3.692.587-1.165.196-4.274.196-4.274s.586 1.943.586 3.303c0 1.36-.586 2.331-.195 3.109.391.777-.196 3.108.586 3.108.587 0 .978-.194 1.173-1.554 0-1.36.978-1.36.782-2.526-.195-1.36-.391-2.914-.195-2.526.195.389.781 1.943.586 2.915-.195.971-.391 1.36.196 2.72.586 1.36 1.368 2.914 1.759 1.943.391-.972.586-1.36.195-2.72-.391-1.36.391-1.749.196-2.72-.196-.972-.978-3.303-.391-4.469.586-1.166 1.564-2.72 1.759-2.331.196.388-1.173 1.942-1.173 2.914 0 .971.196.971.587 2.526.391 1.554.195 2.137.195 3.108 0 .971.587 1.943.782.777 0-1.165-.195-2.72.391-3.691.586-.972.977-2.914.977-1.749 0 1.166-.781 1.749-.195 2.526.586.777.782 1.166.391 2.331-.391 1.166.195 3.109.391 2.138.195-.972.586-2.72 1.173-3.303.586-.583.977-3.109 1.173-2.137.195.971-.391 1.942 0 2.72.391.777.586 1.942 1.173 3.108.391 1.166 1.759 2.526 2.345 2.526.587 0 .978-2.137-.195-3.692-1.173-1.554-.587-2.525-.978-4.08-.391-1.554-2.15-2.914-2.15-2.914s1.564 0 2.15 1.749c.587 1.748 1.564 1.36 1.369 2.72-.196 1.36.391.583.782 2.331.391 1.749 2.345 2.137 2.345.583s-1.563-2.914-1.172-4.663c.391-1.748-1.369-2.72-1.173-4.468 0-1.749 2.736-3.109 2.736-3.109s-2.345 1.749-1.954 3.109c.391 1.36 1.368 1.942 1.368 3.302s0 2.332.977 3.303c.978.972 2.346 2.332 2.933.972.781-1.166.391-4.663.391-4.663s.781 1.748.781 2.914c0 1.166-.977 2.72 0 2.914.978.195 2.346-.194 2.542-1.36.195-1.165-.978-5.634-.978-5.634s1.369 3.303 1.76 4.857c.195 1.555.195 3.497 1.172 3.497.978 0 2.151-.777 1.955-2.525 0-1.749 2.151-4.08 2.151-4.08s-1.564 2.137-.196 5.828c.391 1.36.196 1.943 1.564 1.749.977-.194 1.173-.583 2.346-1.554 1.173-.972 2.345-.972 2.345-.972s-2.541.972-1.759 2.526c.196.583.196 1.943 1.564.777s1.564 1.36 2.541.583c.978-.777 3.128-2.914 3.91-2.526.195 0-1.369.583-.782 1.943.195.583 1.173 0 1.564 0 1.759-.583.195.389 2.15-.583 1.955-.971 3.128-.194 4.887-2.137 1.759-1.943 3.91-3.691 3.91-2.914-.196.777-1.76 3.303-.587 2.525 1.173-.777 2.932-1.554 3.91-2.525.977-.972 2.736-1.749 2.736-1.166-.195.389-3.127 2.72-4.105 3.497-.782.777-1.563 1.943-1.563 1.943s3.518-1.554 6.059-1.943c2.542-.388 7.038.194 6.647.583-.196.389-1.76.194-3.128.389-1.368.194-.782.777 0 .777s3.91.583 5.473.583c1.564 0 1.564-.389 2.933-.583 1.368-.195 3.518-.389 4.3-1.555.782-1.165 2.15-3.885 2.15-3.108 0 .777 0 1.748-.781 2.72-.782.777-1.173 1.748 0 1.943 1.172.194 3.323.777 4.496.194 1.172-.583 3.323-.389 2.932 0s-.978.777 0 1.166l5.278 1.748c1.173.389 2.15.583 3.127-.194.978-.777 3.324-1.749 2.737-.971-.586.777-1.564.777-1.564 1.748s.978 1.749 2.151 1.166c1.172-.583 3.127-.389 2.932-2.332-.196-1.942-.587-3.302-2.15-3.885-1.564-.777-2.151-2.137-1.369-1.555.782.583 2.15 1.36 2.932 1.36s1.76.777 2.151 2.332c.391 1.554 1.759-.194 2.15.777.391.971 1.173 1.36 2.737 1.166 1.563-.195 2.932-4.08 3.323-3.886.195.194-1.76 2.914-.391 3.886 1.173.971 2.15-1.166 3.128-2.526.781-1.36 5.668-4.857 5.668-4.857s-3.909 2.914-4.105 4.663c-.195 1.748-.586 3.303-.586 3.303s1.368-.583 2.15-1.555c.782-.971 3.323-3.886 3.323-3.886s-1.368 2.332-1.563 3.498c-.196 1.165 1.759 3.108.195 4.08-1.564.971-.977 2.331-2.932 2.331-1.76 0 1.173 1.749 0 2.332-1.173.582.391 1.942 2.541.582 1.955-1.36 8.797-2.137 8.797-2.137s-4.105.583-4.496 2.137c-.391 1.555-5.083 2.72-2.933 3.303 2.151.583 3.714-.583 5.278-.971 1.369-.389 4.301-.194 4.301-.194s-1.759.777-1.564 1.942c.196 1.166 1.173 2.332 2.737.972 1.564-1.166 3.714-2.137 3.518-4.469-.195-2.331-2.15-4.663-1.172-6.411.977-1.749 3.127-3.497 3.127-3.497s-2.932 2.72-2.541 4.274c.391 1.554 2.737 3.886 2.541 5.44-.195 1.554 1.173 2.526 1.955.777.782-1.748 2.15-2.137 3.323-3.108 1.368-.972 2.346-1.166 3.128-2.138.782-.971 3.518-1.36 3.518-1.36s-2.345.778-2.736 1.749c-.391.971-.587 2.137-1.369 2.526-.782.388-1.368.194-1.759 1.554-.586 1.36-3.714 4.08-3.519 4.857.196.972 1.173 1.36 2.346 0 .978-1.36 2.346-1.166 2.932-2.331.782-1.166 2.933-2.332 2.933-2.332s-2.151 1.36-2.346 2.526c0 .971-1.369 2.137-.587 2.914.782.777 1.76 0 3.128-.388 1.368-.389 2.541-.777 2.541-1.943s1.369-2.915 1.369-2.915-1.173 2.138-.978 2.915c.196.777 1.173 1.36 1.955.583.782-.777 3.323-.389 4.301-1.36.977-.972 5.473-4.08 5.473-4.08s-2.346 1.943-2.932 3.108c-.587 1.166 0 1.555 1.368.972 1.369-.583 4.692-.777 4.692-.777s-3.323.777-3.714 1.748c-.391.972 1.368 1.166 3.323.389 1.955-.777 5.473-.389 5.473-.389s-2.932 0-3.128 1.166c-.195 1.166.978 1.165 2.542.583 1.368-.583 4.3-1.166 6.255-.972 1.955.194 3.128.389 3.128.389s-3.91-.195-5.083.583c-1.173.777-2.345 1.165-1.368 1.36.977.194 3.519.388 3.323 1.165-.195.583-1.564 1.555-1.955 1.555s-2.736.388-2.541.777c.196.194 1.564.777 2.932.388 1.369-.388 1.369-.971 3.128-1.36 1.759-.582 3.128-.194 3.714-1.165.586-.972 1.955-1.555 1.759-.777-.195.777-.977 1.165-.782 2.137.196.971-.391 1.748-.977 2.137-.586.388-2.346.971-1.955 1.748.196.778 1.564 0 1.369.777-.196.778.586.972 1.954 0 1.369-.97 1.955-.582 3.324-1.36 1.563-.777 2.345-.777 2.932-1.36.586-.582 1.564-.388 1.173 0-.391.39-1.955 2.332-.978 2.332.978 0 2.151-.194 3.323-1.166 1.173-.971 2.933-.583 4.105-1.36.978-.777 2.151-1.36 2.737-.777.782.583 2.346 0 2.932-.583.587-.583 3.715-1.36 3.715-1.36s-2.346.777-2.346 1.749c0 .971-.587 1.554-1.564 2.137-.977.777.391 1.554-.782 2.137s.195 1.943 2.15 0c1.76-2.137 2.542-3.691 2.542-3.691s.39 1.36 1.563.194c1.173-1.166 2.151-3.691 2.151-3.691s.195 1.554-.587 2.525c-.586.972.196 2.137-1.173 2.915-1.368.971-1.564 2.137-2.15 2.72-.586.582 1.759.971 3.519-.195 1.759-1.36 3.127-3.885 3.127-3.885s-.977 1.748-.977 2.525c0 .777-.196 2.137-.196 2.137s.782.389 1.564-.971c.782-1.554 2.542-1.749 2.542-1.749s-1.173.389-1.564 1.749-.196 2.137-.587 2.526c-.391.388-.391 1.748.978 1.166 1.368-.583 2.541.388 3.518-.39.978-.776 1.955-.97 1.369-.193-.587.777.195 1.554-.978 2.137s-3.323 1.36-3.127 1.943c.195.582.391 1.165 2.15 1.165 1.955-.194 2.932 0 4.3-.971 1.369-.972 3.128.388 4.105-.389.978-.777 1.76-.777 1.369-.194s0 .583-.587 1.943c-.391 1.166-3.714 2.137-2.932 2.914.782.777 1.369 1.36 2.346.777.977-.583 1.759.195 2.737-.388.977-.583 2.736.777 3.127-.972.391-1.748-.586-3.497-.586-3.497s1.564 1.554 1.368 2.914c-.195 1.36.196 2.332.587 2.332a1.69 1.69 0 0 0 1.564-1.749c0-1.36 2.15-2.914 2.15-2.914s-.978 1.36-1.173 2.72c-.195 1.36 1.368 1.943.977 3.303-.391 1.36 0 2.72.587 2.526.782-.389 1.564.194 2.15-.583.587-.777 1.955-.972 1.955-.972s-1.759.195-1.564 1.555c.195 1.36-1.173 1.36-1.173 2.525 0 1.166 1.173 3.497 1.955 2.332.782-1.166 2.346-2.526 2.346-2.526s-.391 1.36 0 2.137c.391.583.977.583 1.368.194.196-.388.782-1.36.782-1.36V102H-33V68.389z" fill="url(#wnazeqthma)"/>
    <defs>
        <radialGradient id="wnazeqthma" cx="0" cy="0" r="1" gradientUnits="userSpaceOnUse" gradientTransform="rotate(-90.721 189.062 -34.662) scale(135.041 339.655)">
            <stop offset=".362" stop-color="#08331E"/>
            <stop offset=".658" stop-color="#003532"/>
            <stop offset=".782" stop-color="#003533"/>
            <stop offset=".813" stop-color="#073A31"/>
            <stop offset=".857" stop-color="#19482D"/>
            <stop offset=".909" stop-color="#376026"/>
            <stop offset=".966" stop-color="#61801C"/>
            <stop offset="1" stop-color="#7D9615"/>
        </radialGradient>
    </defs>
</svg>
