<svg width="49" height="65" viewBox="0 0 49 65" fill="none" xmlns="http://www.w3.org/2000/svg">
    <path fill-rule="evenodd" clip-rule="evenodd" d="M5.774 64s-.093-.591-.245-1.69C3.979 56.281-.158 39.271.005 30c0 0 1.594 4.423 3.463 10.577-.438-7.637-.654-16.547-.266-25.8 0 0 4.056 30.253 6.133 39.338L12.4 40.437s2.078 12.78 3.759 16.175c0 0-2.66-21.112 0-21.112.027-1.594-.018-3.412-.063-5.264-.09-3.643-.182-7.417.26-9.868 0 0 2.968 23.463 5.738 33.648 0 0-.297-11.083 2.176-21.567 0 0 .791 14.677 3.957 23.763 0 0-2.078-12.966-2.8-24.262-.067-1.033.342-1.117.752-1.2.423-.086.846-.172.755-1.296-.093-1.145-.431-2.3-.77-3.459-.343-1.174-.688-2.353-.78-3.53-.209-2.64-.487-5.271-.758-7.824-.578-5.466-1.12-10.573-.85-14.641 0 0 5.044 28.456 12.66 54.814 0 0-5.242-24.461-5.44-40.137 0 0 8.606 30.752 11.87 38.34l.396-15.875L49 54.615l-25.206 5.473.01 2.512-1.7 1.5s-.036-1.423-.032-3.639L8.843 63.334l.062.466-2.8.7s-.052-.189-.145-.54l-.186.04z" fill="url(#xkrhv1esqa)"/>
    <defs>
        <linearGradient id="xkrhv1esqa" x1="34.5" y1="156.5" x2="25" y2="35" gradientUnits="userSpaceOnUse">
            <stop offset=".362" stop-color="#08331E"/>
            <stop offset=".658" stop-color="#003532"/>
            <stop offset=".782" stop-color="#003533"/>
            <stop offset=".813" stop-color="#073A31"/>
            <stop offset=".857" stop-color="#19482D"/>
            <stop offset=".909" stop-color="#376026"/>
            <stop offset=".966" stop-color="#61801C"/>
            <stop offset="1" stop-color="#7D9615"/>
        </linearGradient>
    </defs>
</svg>
