<svg width="30" height="30" viewBox="0 0 30 30" fill="none" xmlns="http://www.w3.org/2000/svg">
    <path d="M14 23c1.23 0 2.385-.235 3.468-.706a9.185 9.185 0 0 0 2.876-1.95 9.215 9.215 0 0 0 1.95-2.867A8.665 8.665 0 0 0 23 14c0-1.23-.235-2.385-.706-3.468a9.185 9.185 0 0 0-1.95-2.876 9.185 9.185 0 0 0-2.876-1.95A8.664 8.664 0 0 0 13.99 5c-1.23 0-2.388.235-3.476.706a9.215 9.215 0 0 0-2.868 1.95 9.26 9.26 0 0 0-1.941 2.876A8.601 8.601 0 0 0 5 14c0 1.23.235 2.388.706 3.477a9.215 9.215 0 0 0 1.95 2.867c.83.83 1.785 1.48 2.868 1.95A8.665 8.665 0 0 0 14 23zm-.177-7.112c-.488 0-.732-.24-.732-.723V15.05c0-.453.109-.815.327-1.085.217-.27.488-.52.811-.75.4-.277.698-.512.892-.706.194-.2.29-.456.29-.768a1.04 1.04 0 0 0-.379-.838c-.247-.212-.576-.318-.988-.318-.2 0-.385.033-.556.097a1.53 1.53 0 0 0-.467.283 2.045 2.045 0 0 0-.38.45l-.159.22a1.202 1.202 0 0 1-.282.265.731.731 0 0 1-.82-.062.573.573 0 0 1-.204-.467c0-.077.006-.153.018-.23.018-.076.038-.15.062-.22.13-.424.438-.792.926-1.103.495-.312 1.136-.468 1.924-.468.518 0 .994.088 1.43.265.44.176.796.438 1.067.785.27.341.406.765.406 1.27 0 .548-.144.98-.433 1.298-.282.317-.644.62-1.085.909-.317.205-.553.402-.706.59a.996.996 0 0 0-.23.662v.106a.637.637 0 0 1-.193.468c-.13.123-.31.185-.539.185zm-.026 2.71a.992.992 0 0 1-.688-.274.884.884 0 0 1-.291-.671c0-.259.097-.482.29-.67a.956.956 0 0 1 .69-.283c.27 0 .502.094.696.282a.884.884 0 0 1 .291.67c0 .266-.1.49-.3.671a.971.971 0 0 1-.688.274z" fill="#8567FC"/>
</svg>
