<svg width="118" height="46" viewBox="0 0 118 46" fill="none" xmlns="http://www.w3.org/2000/svg">
    <path d="M58.048 20.025a.75.75 0 0 1 1.06-1.06l2.475 2.474 2.475-2.474a.75.75 0 0 1 1.06 1.06L62.645 22.5l2.475 2.475a.75.75 0 0 1-1.06 1.06l-2.476-2.474-2.475 2.474a.75.75 0 1 1-1.06-1.06l2.475-2.475-2.475-2.475z" fill="#fff"/>
    <path fill-rule="evenodd" clip-rule="evenodd" d="M54.955 14.879 47.333 22.5l7.622 7.621a3 3 0 0 0 2.121.879h10.257a3 3 0 0 0 3-3V17a3 3 0 0 0-3-3H57.076a3 3 0 0 0-2.121.879zM67.333 29.7H57.076a1.7 1.7 0 0 1-1.202-.498L49.172 22.5l6.702-6.702a1.7 1.7 0 0 1 1.202-.498h10.257a1.7 1.7 0 0 1 1.7 1.7v11a1.7 1.7 0 0 1-1.7 1.7z" fill="#fff"/>
</svg>
