<svg width="30" height="30" viewBox="0 0 30 30" fill="none" xmlns="http://www.w3.org/2000/svg">
    <path d="M14 23c1.23 0 2.385-.235 3.468-.706a9.185 9.185 0 0 0 2.876-1.95 9.215 9.215 0 0 0 1.95-2.867A8.665 8.665 0 0 0 23 14c0-1.23-.235-2.385-.706-3.468a9.185 9.185 0 0 0-1.95-2.876 9.185 9.185 0 0 0-2.876-1.95A8.664 8.664 0 0 0 13.99 5c-1.23 0-2.388.235-3.476.706a9.215 9.215 0 0 0-2.868 1.95 9.26 9.26 0 0 0-1.941 2.876A8.601 8.601 0 0 0 5 14c0 1.23.235 2.388.706 3.477a9.215 9.215 0 0 0 1.95 2.867c.83.83 1.785 1.48 2.868 1.95A8.665 8.665 0 0 0 14 23zm.123-3.556c-1.088 0-2.04-.226-2.858-.68a4.807 4.807 0 0 1-1.906-1.896c-.453-.818-.68-1.77-.68-2.86 0-1.081.227-2.034.68-2.858a4.896 4.896 0 0 1 1.906-1.932c.817-.465 1.764-.697 2.84-.697 1.036 0 1.945.208 2.727.626a4.61 4.61 0 0 1 1.845 1.738c.44.742.661 1.6.661 2.577 0 1.03-.223 1.864-.67 2.506-.441.635-1.03.953-1.765.953a1.83 1.83 0 0 1-.944-.239 1.5 1.5 0 0 1-.591-.635c-.37.576-.91.865-1.615.865-.712 0-1.291-.268-1.738-.803-.442-.541-.662-1.238-.662-2.091 0-.836.22-1.52.662-2.056.447-.541 1.017-.812 1.711-.812.295 0 .571.065.83.194.259.124.473.283.644.477v-.168c0-.112.053-.224.159-.335a.545.545 0 0 1 .415-.168c.182 0 .329.062.44.185.113.118.168.27.168.46v3.352c0 .212.053.374.16.485.11.112.273.168.484.168.336 0 .606-.209.812-.627.212-.417.318-.976.318-1.676 0-.759-.17-1.424-.512-1.994a3.513 3.513 0 0 0-1.43-1.332c-.605-.318-1.311-.477-2.117-.477-.83 0-1.556.182-2.18.547a3.792 3.792 0 0 0-1.455 1.527c-.347.653-.52 1.409-.52 2.267 0 .87.173 1.624.52 2.26.353.628.853 1.114 1.5 1.455.653.341 1.426.512 2.32.512.341 0 .645-.02.91-.062.27-.047.555-.106.855-.177.059-.011.112-.02.159-.026a.514.514 0 0 1 .503.132.5.5 0 0 1 .159.38c0 .312-.197.532-.591.662a5.069 5.069 0 0 1-.971.203c-.377.047-.77.07-1.182.07zm-.158-3.75c.388 0 .7-.153.935-.459.235-.311.353-.735.353-1.27 0-.512-.118-.915-.353-1.21-.23-.3-.538-.45-.927-.45a1.09 1.09 0 0 0-.917.46c-.23.3-.344.708-.344 1.226 0 .53.111.947.335 1.253.23.3.535.45.918.45z" fill="#30D0DA"/>
</svg>
