<svg width="32" height="32" viewBox="0 0 32 32" fill="none" xmlns="http://www.w3.org/2000/svg">
    <path d="M15.994 22c-.7 0-1.278-.225-1.734-.674l-7.517-7.43C6.248 13.414 6 12.883 6 12.301c0-.705.216-1.263.649-1.674.425-.419.952-.628 1.581-.628.37 0 .692.074.968.22.275.148.519.33.731.547.972.97 3.898 4.362 5.298 5.993.4.466 1.123.467 1.524 0 1.4-1.625 4.324-5.002 5.32-5.993.212-.217.456-.399.731-.546.276-.147.598-.221.968-.221.63 0 1.156.21 1.581.628.433.41.649.969.649 1.674 0 .272-.063.547-.189.826-.126.279-.31.535-.554.767l-7.528 7.43c-.457.45-1.035.675-1.735.675z" fill="#fff"/>
</svg>
