<svg width="28" height="28" viewBox="0 0 28 28" fill="none" xmlns="http://www.w3.org/2000/svg">
    <circle cx="14" cy="14" r="14" fill="#F39F9C"/>
    <path d="M14.01 19.606c-.803 0-1.506.157-2.108.472-.594.322-1.061.69-1.402 1.1-.333.412-.5.763-.5 1.053 0 .161.058.27.174.327.116.064.239.064.37 0 .42-.242.894-.48 1.423-.714.53-.226 1.21-.339 2.044-.339.819 0 1.493.113 2.022.339.536.234 1.014.472 1.434.714a.401.401 0 0 0 .36 0c.115-.057.173-.166.173-.327 0-.29-.167-.641-.5-1.052-.333-.412-.8-.779-1.402-1.101-.602-.315-1.297-.472-2.087-.472zM10.482 16c-.392 0-.74-.184-1.041-.551C9.147 15.072 9 14.596 9 14.02c0-.593.147-1.079.44-1.456.295-.377.642-.565 1.042-.565.408 0 .763.188 1.065.565.302.377.453.863.453 1.456 0 .575-.155 1.05-.465 1.428-.302.367-.653.551-1.053.551zM17.482 16c-.392 0-.74-.184-1.041-.551-.294-.377-.441-.853-.441-1.428 0-.593.147-1.079.44-1.456.295-.377.642-.565 1.042-.565.408 0 .763.188 1.065.565.302.377.453.863.453 1.456 0 .575-.155 1.05-.465 1.428-.302.367-.653.551-1.053.551z" fill="#05575D"/>
</svg>
