<svg width="28" height="28" viewBox="0 0 28 28" fill="none" xmlns="http://www.w3.org/2000/svg">
    <circle cx="14" cy="14" r="14" fill="#fff"/>
    <path d="M10.356 20.592c2.35-.79 4.939-.79 7.288 0 .475.106.475.71 0 .816-2.35.79-4.939.79-7.288 0-.475-.106-.475-.71 0-.816zM10.482 16c-.392 0-.74-.184-1.041-.551C9.147 15.072 9 14.596 9 14.02c0-.593.147-1.079.44-1.456.295-.377.642-.565 1.042-.565.408 0 .763.188 1.065.565.302.377.453.863.453 1.456 0 .575-.155 1.05-.465 1.428-.302.367-.653.551-1.053.551zM17.482 16c-.392 0-.74-.184-1.041-.551-.294-.377-.441-.853-.441-1.428 0-.593.147-1.079.44-1.456.295-.377.642-.565 1.042-.565.408 0 .763.188 1.065.565.302.377.453.863.453 1.456 0 .575-.155 1.05-.465 1.428-.302.367-.653.551-1.053.551z" fill="#05575D"/>
</svg>
