<svg width="30" height="30" viewBox="0 0 30 30" fill="none" xmlns="http://www.w3.org/2000/svg">
    <path d="M14 23c1.23 0 2.385-.235 3.468-.706a9.185 9.185 0 0 0 2.876-1.95 9.215 9.215 0 0 0 1.95-2.867A8.665 8.665 0 0 0 23 14c0-1.23-.235-2.385-.706-3.468a9.185 9.185 0 0 0-1.95-2.876 9.185 9.185 0 0 0-2.876-1.95A8.664 8.664 0 0 0 13.99 5c-1.23 0-2.388.235-3.476.706a9.215 9.215 0 0 0-2.868 1.95 9.26 9.26 0 0 0-1.941 2.876A8.601 8.601 0 0 0 5 14c0 1.23.235 2.388.706 3.477a9.215 9.215 0 0 0 1.95 2.867c.83.83 1.785 1.48 2.868 1.95A8.665 8.665 0 0 0 14 23zm-3.997-5.718c-.23 0-.412-.055-.547-.167a.545.545 0 0 1-.194-.433c0-.258.103-.5.309-.723.205-.23.417-.459.635-.688a1.16 1.16 0 0 0 .256-.45c.059-.189.1-.386.123-.592.03-.205.05-.402.062-.59.024-.977.18-1.789.468-2.436a2.434 2.434 0 0 1 1.43-1.341c.105-.324.281-.6.528-.83.253-.23.565-.344.936-.344.37 0 .68.115.926.344a1.9 1.9 0 0 1 .538.83 2.434 2.434 0 0 1 1.43 1.34c.288.648.441 1.46.459 2.436.017.188.038.389.062.6.023.206.064.4.123.583.059.182.147.332.265.45.223.223.435.45.635.679.206.23.309.474.309.732 0 .177-.068.32-.203.433-.13.112-.312.167-.547.167h-8.003zm4.006 2.11c-.43 0-.786-.133-1.068-.398a1.448 1.448 0 0 1-.468-.953h3.071c-.03.365-.185.683-.468.953-.282.265-.638.397-1.067.397z" fill="#EB5D4E"/>
</svg>
