<svg width="24" height="24" viewBox="0 0 24 24" fill="none" xmlns="http://www.w3.org/2000/svg">
    <path fill-rule="evenodd" clip-rule="evenodd" d="M18.033 21.487c-.305.342-.772.513-1.401.513H7.368c-.622 0-1.09-.17-1.4-.513-.312-.334-.468-.86-.468-1.578v-7.525c0-.704.188-1.223.564-1.558.266-.237.594-.39.983-.459V7.73c0-.963.136-1.804.409-2.521.279-.718.652-1.313 1.119-1.784a4.51 4.51 0 0 1 1.586-1.066A4.853 4.853 0 0 1 12 2c.636 0 1.249.12 1.84.359a4.49 4.49 0 0 1 1.595 1.066c.467.471.837 1.066 1.11 1.784.272.717.408 1.558.408 2.521v2.59a3.046 3.046 0 0 0-.321-.017l-1.246.003v-2.79c0-.862-.155-1.583-.467-2.164-.311-.588-.723-1.028-1.236-1.322A3.267 3.267 0 0 0 12 3.579a3.3 3.3 0 0 0-1.683.45c-.513.295-.925.735-1.236 1.323-.312.581-.467 1.302-.467 2.163v2.807l6.772-.016v.684h1.567v-.67c.47.05.83.215 1.08.496.311.335.467.858.467 1.568v7.525c0 .717-.156 1.244-.467 1.578z" fill="#fff"/>
    <path d="M15.386 10.99h1.567v-.67a3.046 3.046 0 0 0-.321-.017l-1.246.003v.684z" fill="#fff"/>
</svg>
