<svg width="30" height="31" viewBox="0 0 30 31" fill="none" xmlns="http://www.w3.org/2000/svg">
    <path d="M14.004 5c-.7 0-1.352.126-1.958.377a5.003 5.003 0 0 0-2.662 2.617A4.748 4.748 0 0 0 9 9.904c0 .687.13 1.336.392 1.947.266.606.64 1.14 1.12 1.601.48.457 1.046.809 1.699 1.055v7.598a.69.69 0 0 0 .047.261.873.873 0 0 0 .156.224l1.308 1.293a.423.423 0 0 0 .266.115.36.36 0 0 0 .298-.108l2.482-2.44a.353.353 0 0 0 .118-.277.392.392 0 0 0-.118-.277l-1.543-1.493 2.115-2.071a.34.34 0 0 0 .11-.27.38.38 0 0 0-.126-.277l-2.09-2.07c1.21-.473 2.14-1.13 2.787-1.971A4.517 4.517 0 0 0 19 9.904c0-.678-.13-1.312-.392-1.902a4.8 4.8 0 0 0-1.072-1.563 4.89 4.89 0 0 0-1.59-1.054A4.926 4.926 0 0 0 14.004 5zm0 4.703c-.386 0-.715-.133-.987-.4a1.31 1.31 0 0 1-.407-.97c0-.38.133-.703.4-.97.27-.267.602-.4.994-.4.381 0 .707.136.979.408.276.267.415.588.415.962 0 .38-.139.703-.415.97-.272.267-.598.4-.98.4z" fill="#30D0DA"/>
</svg>
