<svg width="36" height="36" viewBox="0 0 36 36" fill="none" xmlns="http://www.w3.org/2000/svg">
    <path fill-rule="evenodd" clip-rule="evenodd" d="M11.177 5.042c-4.081-.62-4.728 5.845-5.042 10.09a49.474 49.474 0 0 0-.098 5.58c.167 4.254.587 10.738 4.687 10.26 3.289-.382 3.693-4.931 4.01-8.487.02-.238.041-.471.063-.698a49.32 49.32 0 0 0 .129-7.423l-.039-.7c-.191-3.565-.437-8.125-3.71-8.623zm13.646.007c4.081-.62 4.712 4.915 5.026 9.16.064.864.126 2.725.144 3.717.017.991.003 1.926-.03 2.79-.167 4.254-.587 10.736-4.687 10.26-3.289-.384-3.693-4.932-4.01-8.487-.02-.238-.041-.471-.063-.698a49.307 49.307 0 0 1-.129-7.421l.039-.7c.191-3.564.437-8.124 3.71-8.621z" fill="#fff"/>
</svg>
