<svg width="32" height="32" viewBox="0 0 32 32" fill="none" xmlns="http://www.w3.org/2000/svg">
    <path d="M8.5 15.88c0 1.37.278 2.577.833 3.624a6.631 6.631 0 0 0 2.3 2.515c.977.63 2.107 1.008 3.388 1.137v1.782h-3.445c-.284 0-.53.1-.739.299a1.02 1.02 0 0 0-.302.742c0 .276.1.514.303.713.208.205.454.308.738.308h8.848a.985.985 0 0 0 .729-.308.953.953 0 0 0 .312-.713c0-.29-.104-.537-.312-.742a1 1 0 0 0-.729-.299H16.98v-1.782c1.274-.129 2.4-.508 3.378-1.137a6.605 6.605 0 0 0 2.31-2.515c.554-1.047.832-2.255.832-3.623v-1.87c0-.282-.1-.52-.303-.712a.97.97 0 0 0-.72-.299 1 1 0 0 0-.728.299.947.947 0 0 0-.303.713v1.801c0 1.092-.23 2.046-.69 2.862a4.833 4.833 0 0 1-1.922 1.898c-.82.444-1.763.665-2.83.665-1.072 0-2.018-.221-2.838-.665a4.898 4.898 0 0 1-1.931-1.898c-.46-.816-.69-1.77-.69-2.862v-1.801a.947.947 0 0 0-.304-.713A1 1 0 0 0 9.513 13a.99.99 0 0 0-.72.299.962.962 0 0 0-.293.713v1.869z" fill="#fff"/>
    <path d="M16.01 19c.653 0 1.243-.156 1.769-.467a3.354 3.354 0 0 0 1.26-1.302c.307-.558.461-1.206.461-1.945V8.714c0-.739-.154-1.387-.462-1.945a3.354 3.354 0 0 0-1.26-1.302A3.407 3.407 0 0 0 16.01 5c-.66 0-1.257.156-1.789.467a3.446 3.446 0 0 0-1.26 1.302c-.307.558-.461 1.206-.461 1.945v6.572c0 .739.154 1.387.461 1.945.315.557.734.991 1.26 1.302A3.477 3.477 0 0 0 16.01 19z" fill="#fff"/>
</svg>
