<svg width="28" height="28" viewBox="0 0 28 28" fill="none" xmlns="http://www.w3.org/2000/svg">
    <path d="M8.451 22.356c.168.128.357.17.568.128.21-.037.44-.144.689-.32l4.288-3.117 4.296 3.116c.249.177.478.284.69.321.21.043.399 0 .567-.128a.732.732 0 0 0 .3-.497c.037-.208.005-.457-.098-.745l-1.694-4.983 4.329-3.076c.254-.177.43-.358.527-.545a.735.735 0 0 0-.332-1.01c-.19-.096-.441-.141-.755-.136l-5.31.032-1.612-5.007c-.098-.293-.222-.515-.373-.665a.719.719 0 0 0-.535-.224.736.736 0 0 0-.535.224c-.146.15-.268.372-.365.665l-1.613 5.007-5.31-.032c-.313-.005-.564.04-.753.136a.735.735 0 0 0-.332 1.01c.097.187.272.368.526.545l4.329 3.076-1.694 4.983c-.103.288-.138.537-.106.745.038.208.141.374.308.497z" fill="#8567FC"/>
</svg>
