<svg width="20" height="20" viewBox="0 0 20 20" fill="none" xmlns="http://www.w3.org/2000/svg">
    <path d="M19.753 17.132c.386.55.313 1.287-.173 1.756a1.474 1.474 0 0 1-1.817.168l-1.379-.897a19.525 19.525 0 0 1-2.904-2.31s-1.555-1.217-3.383-2.75l-6.64 6.407c-.378.364-.816.527-1.312.488-.497-.038-.968-.272-1.412-.7-.445-.43-.687-.884-.727-1.363-.04-.48.129-.902.507-1.267 0 0 3.295-3.945 5.65-6.256.136-.133.278-.27.423-.408a36.515 36.515 0 0 1-.423-.408C3.808 7.282.513 3.336.513 3.336.135 2.97-.034 2.549.006 2.069c.04-.48.282-.933.727-1.362.444-.429.915-.663 1.412-.701.496-.04.934.124 1.312.489l6.64 6.407c1.828-1.534 3.383-2.75 3.383-2.75a19.518 19.518 0 0 1 2.904-2.311l1.38-.898c.569-.37 1.33-.3 1.816.17.486.469.559 1.205.173 1.755l-.367.522a29.62 29.62 0 0 1-3.672 4.288L13.308 10l2.406 2.322a29.621 29.621 0 0 1 3.672 4.288l.367.522z" fill="#fff"/>
</svg>
