<svg width="48" height="48" viewBox="0 0 60 60" fill="none" xmlns="http://www.w3.org/2000/svg">
    <g filter="url(#orf2021dna)">
        <circle cx="30" cy="30" r="30" fill="url(#71tv92s58b)"/>
    </g>
    <path d="M39.753 36.132c.386.55.313 1.287-.173 1.756a1.474 1.474 0 0 1-1.817.169l-1.378-.898a19.525 19.525 0 0 1-2.905-2.31s-1.555-1.217-3.383-2.75l-6.64 6.407c-.378.364-.816.527-1.313.488-.496-.038-.967-.272-1.411-.7-.445-.43-.687-.884-.727-1.363-.04-.48.128-.902.506-1.267 0 0 3.296-3.945 5.651-6.256.136-.134.278-.27.423-.408a36.591 36.591 0 0 1-.423-.408c-2.355-2.31-5.65-6.256-5.65-6.256-.379-.365-.547-.787-.507-1.267.04-.48.282-.933.727-1.362.444-.429.915-.663 1.412-.701.497-.04.934.124 1.312.488l6.64 6.408c1.828-1.534 3.383-2.75 3.383-2.75a19.525 19.525 0 0 1 2.905-2.311l1.378-.898c.57-.37 1.331-.3 1.817.17.486.469.559 1.205.173 1.755l-.367.522a29.621 29.621 0 0 1-3.672 4.288L33.308 29l2.406 2.322a29.621 29.621 0 0 1 3.672 4.288l.367.522z" fill="#fff"/>
    <defs>
        <radialGradient id="71tv92s58b" cx="0" cy="0" r="1" gradientUnits="userSpaceOnUse" gradientTransform="rotate(56.31 -4.639 25.017) scale(45.9708)">
            <stop stop-color="#FF7549"/>
            <stop offset="1" stop-color="#CB283A"/>
        </radialGradient>
        <filter id="orf2021dna" x="0" y="0" width="60" height="61" filterUnits="userSpaceOnUse" color-interpolation-filters="sRGB">
            <feFlood flood-opacity="0" result="BackgroundImageFix"/>
            <feBlend in="SourceGraphic" in2="BackgroundImageFix" result="shape"/>
            <feColorMatrix in="SourceAlpha" values="0 0 0 0 0 0 0 0 0 0 0 0 0 0 0 0 0 0 127 0" result="hardAlpha"/>
            <feOffset dy="1"/>
            <feGaussianBlur stdDeviation="2.5"/>
            <feComposite in2="hardAlpha" operator="arithmetic" k2="-1" k3="1"/>
            <feColorMatrix values="0 0 0 0 1 0 0 0 0 0.720999 0 0 0 0 0.616927 0 0 0 1 0"/>
            <feBlend in2="shape" result="effect1_innerShadow_118_842"/>
            <feColorMatrix in="SourceAlpha" values="0 0 0 0 0 0 0 0 0 0 0 0 0 0 0 0 0 0 127 0" result="hardAlpha"/>
            <feMorphology radius="1" in="SourceAlpha" result="effect2_innerShadow_118_842"/>
            <feOffset dy="1"/>
            <feGaussianBlur stdDeviation=".5"/>
            <feComposite in2="hardAlpha" operator="arithmetic" k2="-1" k3="1"/>
            <feColorMatrix values="0 0 0 0 0.972549 0 0 0 0 0.541176 0 0 0 0 0.298039 0 0 0 1 0"/>
            <feBlend in2="effect1_innerShadow_118_842" result="effect2_innerShadow_118_842"/>
        </filter>
    </defs>
</svg>
