<svg width="36" height="36" viewBox="0 0 36 36" fill="none" xmlns="http://www.w3.org/2000/svg">
    <path d="M13.913 35.787c.48.368 1.073.245 1.768-.256l5.314-3.905 5.315 3.905c.695.501 1.298.624 1.778.256.47-.358.572-.951.296-1.759l-1.625-4.847a2 2 0 0 1 .729-2.26l4.167-2.994c.684-.49.98-1.032.786-1.605-.194-.562-.735-.838-1.584-.828l-5.11.032a2 2 0 0 1-1.918-1.392l-1.556-4.877C22.017 14.44 21.598 14 20.995 14c-.592 0-1.011.44-1.277 1.258l-1.556 4.876a2 2 0 0 1-1.918 1.392l-5.11-.032c-.849-.01-1.38.266-1.575.828-.194.573.092 1.114.787 1.605l4.165 2.992a2 2 0 0 1 .729 2.263l-1.633 4.846c-.276.808-.174 1.4.306 1.759z" fill="#FFEB83"/>
    <path d="M29.507 12c.203 0 .353-.15.38-.354.49-2.64.476-2.775 3.246-3.251.218-.041.367-.177.367-.395 0-.218-.15-.354-.353-.395-2.798-.49-2.825-.625-3.26-3.238C29.86 4.15 29.71 4 29.507 4c-.218 0-.353.15-.394.354-.462 2.653-.462 2.816-3.246 3.251-.204.041-.367.177-.367.395.014.218.15.354.367.395 2.784.49 2.811.625 3.246 3.251.04.204.177.354.394.354zM16 7c.195 0 .307-.126.335-.307.474-2.306.446-2.376 2.844-2.85.21-.043.321-.154.321-.35 0-.182-.112-.293-.307-.335-2.426-.49-2.412-.56-2.858-2.85C16.307.125 16.195 0 16 0c-.181 0-.293.126-.335.307-.474 2.32-.432 2.404-2.844 2.85-.195.029-.321.154-.321.336 0 .196.126.307.307.35 2.426.488 2.412.544 2.858 2.85.028.181.154.307.335.307zM7 17c.245 0 .398-.168.444-.398.49-2.97.52-3.138 3.643-3.658.26-.046.413-.2.413-.444 0-.245-.153-.398-.398-.444-3.138-.55-3.153-.704-3.658-3.658C7.398 8.168 7.244 8 7 8c-.245 0-.398.168-.429.398-.505 2.985-.535 3.138-3.673 3.658-.23.046-.398.2-.398.444 0 .245.168.398.398.444 3.138.55 3.138.704 3.673 3.658.031.23.184.398.429.398z" fill="#FFF7B0" fill-opacity=".35"/>
</svg>
