<svg width="30" height="31" viewBox="0 0 30 31" fill="none" xmlns="http://www.w3.org/2000/svg">
    <path d="M14 23.5c1.23 0 2.385-.235 3.468-.706a9.185 9.185 0 0 0 2.876-1.95 9.215 9.215 0 0 0 1.95-2.867A8.665 8.665 0 0 0 23 14.5c0-1.23-.235-2.385-.706-3.468a9.185 9.185 0 0 0-1.95-2.876 9.185 9.185 0 0 0-2.876-1.95A8.664 8.664 0 0 0 13.99 5.5c-1.23 0-2.388.235-3.476.706a9.215 9.215 0 0 0-2.868 1.95 9.26 9.26 0 0 0-1.941 2.876A8.601 8.601 0 0 0 5 14.5c0 1.23.235 2.388.706 3.477a9.215 9.215 0 0 0 1.95 2.867c.83.83 1.785 1.48 2.868 1.95A8.665 8.665 0 0 0 14 23.5zm-.838-5.073a.74.74 0 0 1-.336-.08 1.49 1.49 0 0 1-.317-.238l-3.874-3.636a.687.687 0 0 1-.247-.52c0-.088.018-.176.053-.265a.762.762 0 0 1 .194-.264l3.874-3.61c.123-.117.232-.202.326-.255a.587.587 0 0 1 .318-.088c.176 0 .318.058.423.176a.583.583 0 0 1 .168.415v1.862h.141c1.165 0 2.118.238 2.86.714.746.47 1.296 1.144 1.65 2.02.358.877.537 1.918.537 3.124 0 .212-.053.374-.159.486a.49.49 0 0 1-.352.159.87.87 0 0 1-.318-.062c-.106-.041-.2-.141-.282-.3-.424-.794-.95-1.338-1.58-1.633-.623-.294-1.409-.44-2.356-.44h-.14v1.87a.56.56 0 0 1-.582.565z" fill="#8567FC"/>
</svg>
