<svg width="36" height="36" viewBox="0 0 36 36" fill="none" xmlns="http://www.w3.org/2000/svg">
    <path d="M18.004 1c.49 0 .895.152 1.214.456l5.262 5.019c.347.324.52.683.52 1.076 0 .476-.151.853-.454 1.13-.298.284-.666.425-1.107.425-.259 0-.485-.05-.677-.15a2.085 2.085 0 0 1-.512-.368l-1.826-1.76-1.472-1.556c.474 2.91.712 5.854.712 8.803v5.26c0 .502-.151.906-.454 1.21-.303.303-.705.455-1.206.455s-.903-.152-1.206-.456c-.303-.303-.454-.707-.454-1.21v-7.91c0-1.184.097-2.366.289-3.534l.431-2.618-1.48 1.556-1.834 1.76c-.148.146-.319.27-.512.369-.192.1-.418.149-.677.149-.44 0-.81-.141-1.107-.424C11.151 8.404 11 8.027 11 7.55c0-.183.044-.37.132-.558a1.66 1.66 0 0 1 .388-.518l5.27-5.02c.32-.303.724-.455 1.214-.455z" fill="#fff"/>
    <path fill-rule="evenodd" clip-rule="evenodd" d="M12.222 13.88A4.327 4.327 0 0 0 7.89 18.2V23c0 1.814 0 3.092.079 4.091.077.984.222 1.577.445 2.04a5.288 5.288 0 0 0 2.474 2.466c.464.223 1.06.368 2.046.444 1.003.078 2.285.079 4.104.079h1.926c1.82 0 3.101-.001 4.104-.079.987-.076 1.581-.221 2.046-.444a5.288 5.288 0 0 0 2.474-2.466c.223-.463.368-1.056.445-2.04.078-1 .08-2.277.08-4.091v-4.8c0-2.386-1.941-4.32-4.334-4.32a1.442 1.442 0 0 1-1.445-1.44c0-.795.647-1.44 1.445-1.44C27.767 11 31 14.224 31 18.2v4.86c0 1.74 0 3.13-.088 4.255-.09 1.153-.279 2.146-.723 3.066a8.172 8.172 0 0 1-3.823 3.81c-.922.444-1.918.632-3.075.721C22.163 35 20.77 35 19.023 35h-2.046c-1.746 0-3.14 0-4.268-.087-1.157-.09-2.153-.278-3.075-.721A8.173 8.173 0 0 1 5.81 30.38c-.444-.92-.633-1.913-.723-3.066C5 26.19 5 24.8 5 23.059V18.2c0-3.976 3.233-7.2 7.222-7.2.798 0 1.445.645 1.445 1.44 0 .795-.647 1.44-1.445 1.44z" fill="#fff"/>
</svg>
