<svg width="30" height="30" viewBox="0 0 30 30" fill="none" xmlns="http://www.w3.org/2000/svg">
    <path fill-rule="evenodd" clip-rule="evenodd" d="M7.316 13.204c-.21.214-.316.48-.316.8 0 .314.105.58.316.8l4.689 4.86c.215.224.457.336.726.336.307 0 .553-.1.74-.3.187-.194.28-.435.28-.724 0-.165-.028-.31-.085-.434a1.315 1.315 0 0 0-.238-.344l-1.61-1.675L10.222 15l1.567.088h8.132c.322 0 .583-.1.784-.3.197-.199.295-.46.295-.784s-.098-.586-.295-.785c-.201-.2-.462-.3-.784-.3H11.79l-1.567.089-.784.749-.439-.68 1.223-.07 1.596-1.523 1.61-1.682c.096-.1.175-.212.238-.337.057-.13.086-.276.086-.44 0-.29-.094-.532-.28-.726-.188-.2-.434-.299-.741-.299-.13 0-.257.03-.381.09-.125.055-.242.14-.353.254l-4.68 4.86z" fill="#30D0DA"/>
    <path d="m9.438 13.757-.439-.68 1.223-.07-.784.75z" fill="#30D0DA"/>
</svg>
