<svg width="32" height="32" viewBox="0 0 32 32" fill="none" xmlns="http://www.w3.org/2000/svg">
    <path d="M4 22.964C4 24.459 5.097 25.5 6.628 25.5 7.965 25.5 10 24.45 10 21.663v-9.43c0-.399-.319-.733-.7-.733a.734.734 0 0 0-.716.734v6.828c0 .418-.142.66-.469.725l-1.416.316C4.876 20.502 4 21.486 4 22.962zM14 17.964c0 1.486 1.099 2.536 2.632 2.536 1.33 0 3.368-1.05 3.368-3.837v-9.43c0-.399-.31-.733-.7-.733-.39 0-.71.334-.71.734v6.828c0 .409-.141.66-.469.725l-1.418.315c-1.826.4-2.703 1.385-2.703 2.862zM22 22.964c0 1.486 1.097 2.536 2.637 2.536 1.328 0 3.363-1.06 3.363-3.846v-9.42c0-.409-.319-.734-.7-.734a.72.72 0 0 0-.707.734v6.828c0 .409-.15.66-.478.725l-1.407.306c-1.832.4-2.708 1.394-2.708 2.87z" fill="#fff"/>
</svg>
