<svg width="375" height="128" viewBox="0 0 375 128" fill="none" xmlns="http://www.w3.org/2000/svg">
    <path d="M417.473 63.879c0 .293-.248.54-.541.54a.548.548 0 0 1-.54-.54c0-.293.248-.541.54-.541.293 0 .541.248.541.54zM436.92 87.47a.548.548 0 0 0-.541.54c0 .294.248.541.541.541a.548.548 0 0 0 .541-.54.548.548 0 0 0-.541-.541zm30.872-48.31a.548.548 0 0 0-.541.542c0 .293.248.54.541.54a.548.548 0 0 0 .541-.54.548.548 0 0 0-.541-.541zm-93.336 27.265a.548.548 0 0 0-.541.54c0 .294.248.541.541.541.293 0 .54-.247.54-.54a.548.548 0 0 0-.54-.541zm-19.244-31.23a.548.548 0 0 0-.541.541c0 .293.248.54.541.54.292 0 .54-.247.54-.54a.548.548 0 0 0-.54-.54zM316.273 58.72a.548.548 0 0 0-.541.54c0 .294.248.541.541.541.293 0 .54-.247.54-.54a.533.533 0 0 0-.54-.541zm-11.538-42.135a.548.548 0 0 0-.541.54c0 .293.248.541.541.541a.548.548 0 0 0 .541-.54.548.548 0 0 0-.541-.541zm9.397-8.112a.548.548 0 0 0-.541.54c0 .294.248.542.541.542a.548.548 0 0 0 .541-.541.534.534 0 0 0-.541-.54zm-124.907 6.4a.548.548 0 0 0-.541.54c0 .293.248.54.541.54a.548.548 0 0 0 .541-.54.548.548 0 0 0-.541-.54zm-40.651 23.951a.548.548 0 0 0-.541.54c0 .294.248.541.541.541a.548.548 0 0 0 .541-.54.534.534 0 0 0-.541-.541zm-72.92-5.768a.548.548 0 0 0-.541.54c0 .293.247.541.54.541.293 0 .541-.248.541-.54a.548.548 0 0 0-.54-.541zM96.812 9.959a.548.548 0 0 0-.54.541c0 .293.247.54.54.54.293 0 .54-.247.54-.54a.534.534 0 0 0-.54-.54zM21.729 36.277a.548.548 0 0 0-.54.54c0 .294.247.541.54.541.293 0 .541-.247.541-.54a.534.534 0 0 0-.54-.541zm6.22-19.693a.548.548 0 0 0-.541.54c0 .293.248.541.54.541.294 0 .541-.248.541-.54a.548.548 0 0 0-.54-.541zm-55.614-2.997a.548.548 0 0 0-.541.54c0 .294.247.541.54.541.293 0 .541-.247.541-.54a.548.548 0 0 0-.54-.541zm-28.236 25.89a.548.548 0 0 0-.54.54c0 .293.247.54.54.54.293 0 .541-.247.541-.54a.548.548 0 0 0-.54-.54zm-28.235 12.19a.548.548 0 0 0-.54.54c0 .293.247.54.54.54.293 0 .54-.247.54-.54a.548.548 0 0 0-.54-.54zm7.278 18.61a.548.548 0 0 0-.54.542c0 .293.248.54.54.54.294 0 .541-.247.541-.54a.548.548 0 0 0-.54-.541zm-14.985-30.8a.548.548 0 0 0-.54.54c0 .293.247.54.54.54.293 0 .541-.247.541-.54a.534.534 0 0 0-.54-.54zM29.661 60.43a.548.548 0 0 0-.54.541c0 .293.247.54.54.54.293 0 .541-.247.541-.54a.548.548 0 0 0-.54-.54zm-87.703 9.599a.26.26 0 0 0-.27.27c0 .158.113.27.27.27a.26.26 0 0 0 .27-.27c.023-.135-.112-.27-.27-.27zm-32.449 19.4a.26.26 0 0 0-.27.27c0 .158.113.271.27.271a.26.26 0 0 0 .27-.27.274.274 0 0 0-.27-.27zm27.74-39.409a.26.26 0 0 0-.27.27c0 .159.112.271.27.271a.26.26 0 0 0 .27-.27.26.26 0 0 0-.27-.27zm1.42-21.473a.26.26 0 0 0-.27.27c0 .158.112.271.27.271a.26.26 0 0 0 .27-.27.26.26 0 0 0-.27-.27zm21.97-15.682a.26.26 0 0 0-.27.27c0 .158.113.27.27.27a.26.26 0 0 0 .27-.27.26.26 0 0 0-.27-.27zM9.9 25.552a.26.26 0 0 0-.27.27c0 .158.112.27.27.27a.26.26 0 0 0 .27-.27.26.26 0 0 0-.27-.27zM8.907 46.1a.26.26 0 0 0-.27.27c0 .158.113.27.27.27a.26.26 0 0 0 .27-.27.26.26 0 0 0-.27-.27zM-7.002 65.208a.26.26 0 0 0-.27.27c0 .158.113.27.27.27a.26.26 0 0 0 .27-.27c.023-.157-.112-.27-.27-.27zm58.341-4.506a.26.26 0 0 0-.27.27c0 .158.112.27.27.27a.26.26 0 0 0 .27-.27.29.29 0 0 0-.27-.27zm15.03-16.967a.26.26 0 0 0-.27.27c0 .158.113.27.27.27a.26.26 0 0 0 .27-.27.26.26 0 0 0-.27-.27zM42.98 29.697a.26.26 0 0 0-.27.27c0 .159.112.271.27.271a.26.26 0 0 0 .27-.27.26.26 0 0 0-.27-.27zm.09-16.831a.26.26 0 0 0-.27.27c0 .158.112.27.27.27a.26.26 0 0 0 .27-.27.274.274 0 0 0-.27-.27zm36.64-.36a.26.26 0 0 0-.27.27c0 .158.113.27.27.27a.26.26 0 0 0 .27-.27.26.26 0 0 0-.27-.27zm29.227-3.696a.26.26 0 0 0-.27.27c0 .158.113.27.27.27a.26.26 0 0 0 .271-.27.26.26 0 0 0-.271-.27zm-3.493 37.29a.26.26 0 0 0-.27.271c0 .158.113.27.27.27a.26.26 0 0 0 .271-.27.26.26 0 0 0-.271-.27zM78.56 61.987a.26.26 0 0 0-.27.27c0 .158.113.27.27.27a.26.26 0 0 0 .27-.27.274.274 0 0 0-.27-.27zm64.042-25.596a.26.26 0 0 0-.27.27c0 .158.112.27.27.27a.26.26 0 0 0 .271-.27.275.275 0 0 0-.271-.27zm13.971-16.607a.26.26 0 0 0-.27.27c0 .158.113.271.27.271a.26.26 0 0 0 .271-.27.274.274 0 0 0-.271-.27zm26.23 8.337a.26.26 0 0 0-.27.27c0 .158.112.27.27.27a.26.26 0 0 0 .27-.27.26.26 0 0 0-.27-.27zm-12.619-2.343a.26.26 0 0 0-.27.27c0 .158.112.27.27.27a.26.26 0 0 0 .27-.27.26.26 0 0 0-.27-.27zm5.994-9.914a.26.26 0 0 0-.27.27c0 .158.112.27.27.27a.26.26 0 0 0 .27-.27.273.273 0 0 0-.27-.27zm26.455-6.197a.26.26 0 0 0-.27.27c0 .158.112.271.27.271a.26.26 0 0 0 .27-.27.274.274 0 0 0-.27-.27zm17.171 14.263a.26.26 0 0 0-.27.27c0 .158.112.271.27.271a.26.26 0 0 0 .27-.27.26.26 0 0 0-.27-.27zm-1.127 10.117a.26.26 0 0 0-.27.27c0 .158.113.27.27.27a.26.26 0 0 0 .271-.27.274.274 0 0 0-.271-.27zm19.74 4.056a.26.26 0 0 0-.27.27c0 .158.113.27.27.27a.26.26 0 0 0 .271-.27.26.26 0 0 0-.271-.27zm27.875-4.191a.26.26 0 0 0-.27.27c0 .158.112.27.27.27a.26.26 0 0 0 .27-.27.26.26 0 0 0-.27-.27zm13.205 7.976a.26.26 0 0 0-.27.27c0 .159.112.271.27.271a.26.26 0 0 0 .27-.27.274.274 0 0 0-.27-.27zm15.391-1.42a.26.26 0 0 0-.271.271c0 .158.113.27.271.27a.26.26 0 0 0 .27-.27.26.26 0 0 0-.27-.27zm17.621 6.332a.26.26 0 0 0-.27.27c0 .158.113.271.27.271a.26.26 0 0 0 .271-.27.274.274 0 0 0-.271-.27zm-27.897-31.23a.26.26 0 0 0-.27.271c0 .158.112.27.27.27a.26.26 0 0 0 .271-.27.26.26 0 0 0-.271-.27zm-17.396-3.266a.26.26 0 0 0-.271.27c0 .158.113.27.271.27a.26.26 0 0 0 .27-.27.26.26 0 0 0-.27-.27zm70.667 2.839a.26.26 0 0 0-.271.27c0 .158.113.27.271.27a.26.26 0 0 0 .27-.27.26.26 0 0 0-.27-.27zm-5.634-9.96a.26.26 0 0 0-.27.27c0 .159.113.271.27.271a.26.26 0 0 0 .271-.27.26.26 0 0 0-.271-.27zm3.065 25.935a.26.26 0 0 0-.27.27c0 .158.112.27.27.27a.26.26 0 0 0 .27-.27.26.26 0 0 0-.27-.27zm18.117 15.975a.26.26 0 0 0-.27.27c0 .158.113.271.27.271a.26.26 0 0 0 .271-.27.274.274 0 0 0-.271-.27zm-6.354 20.955a.26.26 0 0 0-.271.27c0 .158.113.271.271.271a.26.26 0 0 0 .27-.27.274.274 0 0 0-.27-.27zm47.637-19.738a.26.26 0 0 0-.271.27c0 .158.113.27.271.27a.26.26 0 0 0 .27-.27.274.274 0 0 0-.27-.27zm-31.886-22.757a.26.26 0 0 0-.27.27c0 .158.112.27.27.27a.26.26 0 0 0 .27-.27.26.26 0 0 0-.27-.27zm56.764 21.968a.26.26 0 0 0-.271.27c0 .159.113.271.271.271a.26.26 0 0 0 .27-.27.26.26 0 0 0-.27-.27zm9.554-20.256a.26.26 0 0 0-.27.27c0 .158.112.27.27.27a.26.26 0 0 0 .27-.27.26.26 0 0 0-.27-.27zm-16.405-1.712a.26.26 0 0 0-.27.27c0 .158.112.27.27.27a.26.26 0 0 0 .271-.27.26.26 0 0 0-.271-.27zm52.91 18.679a.26.26 0 0 0-.27.27c0 .158.112.27.27.27a.26.26 0 0 0 .271-.27.26.26 0 0 0-.271-.27zm1.78 25.168a.26.26 0 0 0-.27.27c0 .158.113.27.27.27a.26.26 0 0 0 .271-.27.274.274 0 0 0-.271-.27zm6.783 23.186a.26.26 0 0 0-.27.27c0 .158.112.27.27.27a.26.26 0 0 0 .271-.27.275.275 0 0 0-.271-.27zm-9.216 25.371a.26.26 0 0 0-.271.27c0 .158.113.271.271.271a.26.26 0 0 0 .27-.271c.023-.157-.113-.27-.27-.27zm-74.183-46.484a.26.26 0 0 0-.27.27c0 .158.113.27.27.27a.26.26 0 0 0 .271-.27.29.29 0 0 0-.271-.27zm-16.54 19.783a.26.26 0 0 0-.27.27c0 .158.113.271.27.271a.26.26 0 0 0 .271-.27.274.274 0 0 0-.271-.27zm-30.714-13.023a.26.26 0 0 0-.27.27c0 .158.113.27.27.27a.26.26 0 0 0 .271-.27.26.26 0 0 0-.271-.27zm18.929-20.257a.26.26 0 0 0-.27.27c0 .158.112.271.27.271a.26.26 0 0 0 .27-.27.274.274 0 0 0-.27-.27zm-26.635-5.227a.26.26 0 0 0-.271.27c0 .158.113.27.271.27a.26.26 0 0 0 .27-.27.26.26 0 0 0-.27-.27zm-17.014 31.455a.26.26 0 0 0-.27.27c0 .158.113.27.27.27a.26.26 0 0 0 .271-.27.274.274 0 0 0-.271-.27zm-15.503-8.067a.26.26 0 0 0-.27.27c0 .158.112.271.27.271a.26.26 0 0 0 .27-.27c.023-.158-.112-.27-.27-.27zm-42.589-23.388a.26.26 0 0 0-.271.27c0 .158.113.27.271.27a.26.26 0 0 0 .27-.27c.022-.157-.113-.27-.27-.27zm-45.519-20.91a.26.26 0 0 0-.271.27c0 .158.113.27.271.27a.26.26 0 0 0 .27-.27.274.274 0 0 0-.27-.27zm-5.701-7.413a.26.26 0 0 0-.271.27c0 .158.113.27.271.27a.26.26 0 0 0 .27-.27.274.274 0 0 0-.27-.27zm-45.452 9.306a.26.26 0 0 0-.27.27c0 .158.112.27.27.27a.26.26 0 0 0 .271-.27.26.26 0 0 0-.271-.27zM149.43 20.91a.26.26 0 0 0-.27.27c0 .158.112.27.27.27a.26.26 0 0 0 .27-.27.26.26 0 0 0-.27-.27zM111.595 0a.26.26 0 0 0-.27.27c0 .158.113.27.27.27a.26.26 0 0 0 .271-.27.26.26 0 0 0-.271-.27zm-5.137 17.575a.26.26 0 0 0-.271.27c0 .158.113.27.271.27a.26.26 0 0 0 .27-.27c.022-.157-.113-.27-.27-.27zm21.407 19.58a.26.26 0 0 0-.27.271c0 .158.112.27.27.27a.26.26 0 0 0 .27-.27.274.274 0 0 0-.27-.27zM75.383 20.91a.26.26 0 0 0-.27.27c0 .158.112.27.27.27a.26.26 0 0 0 .27-.27.26.26 0 0 0-.27-.27zM42.01 32.784a.26.26 0 0 0-.27.27c0 .158.112.271.27.271a.26.26 0 0 0 .27-.27.26.26 0 0 0-.27-.27zm16.36 12.168a.26.26 0 0 0-.27.27c0 .158.112.27.27.27a.26.26 0 0 0 .27-.27.274.274 0 0 0-.27-.27zm-2.772-7.886a.26.26 0 0 0-.27.27c0 .158.112.27.27.27a.26.26 0 0 0 .27-.27.26.26 0 0 0-.27-.27zm2.299 53.987a.26.26 0 0 0-.27.27c0 .158.112.27.27.27a.26.26 0 0 0 .27-.27.29.29 0 0 0-.27-.27zM52.466 79.56a.26.26 0 0 0-.27.27c0 .158.112.27.27.27a.26.26 0 0 0 .27-.27.26.26 0 0 0-.27-.27zm-26.32-7.706a.26.26 0 0 0-.27.27c0 .158.112.27.27.27a.26.26 0 0 0 .27-.27.274.274 0 0 0-.27-.27zM-18.45 47.047a.26.26 0 0 0-.27.27c0 .158.112.271.27.271a.26.26 0 0 0 .27-.27.26.26 0 0 0-.27-.27zm-22.331 9.126a.26.26 0 0 0-.27.27c0 .158.112.27.27.27a.26.26 0 0 0 .27-.27.274.274 0 0 0-.27-.27zm18.523.563a.26.26 0 0 0-.27.27c0 .158.112.27.27.27a.26.26 0 0 0 .27-.27.274.274 0 0 0-.27-.27zm21.97-20.054a.26.26 0 0 0-.27.27c0 .159.113.271.27.271a.26.26 0 0 0 .27-.27.274.274 0 0 0-.27-.27zm-6.94-19.49a.26.26 0 0 0-.27.27c0 .158.112.27.27.27a.26.26 0 0 0 .27-.27.26.26 0 0 0-.27-.27zm-28.618 9.509a.26.26 0 0 0-.27.27c0 .158.112.27.27.27a.26.26 0 0 0 .27-.27.26.26 0 0 0-.27-.27zm-30.714 7.03a.26.26 0 0 0-.27.27c0 .158.112.27.27.27a.26.26 0 0 0 .27-.27.26.26 0 0 0-.27-.27zm-20.326 37.358a.26.26 0 0 0-.27.27c0 .158.112.27.27.27a.26.26 0 0 0 .27-.27.29.29 0 0 0-.27-.27zM-99.73 68.34a.26.26 0 0 0-.27.27c0 .158.113.27.27.27a.26.26 0 0 0 .27-.27.26.26 0 0 0-.27-.27zm44.303 31.658a.26.26 0 0 0-.27.27.26.26 0 0 0 .27.271.26.26 0 0 0 .27-.271.26.26 0 0 0-.27-.27zm36.302-6.422a.26.26 0 0 0-.27.27c0 .158.112.271.27.271a.26.26 0 0 0 .27-.27c.023-.158-.112-.27-.27-.27zm-17.96.856a.26.26 0 0 0-.27.27c0 .159.112.271.27.271a.26.26 0 0 0 .27-.27.26.26 0 0 0-.27-.27zm-16.968-7.48a.26.26 0 0 0-.27.27c0 .158.112.27.27.27a.26.26 0 0 0 .27-.27.26.26 0 0 0-.27-.27zm-15.053 2.704a.26.26 0 0 0-.27.27c0 .158.113.27.27.27a.26.26 0 0 0 .27-.27.26.26 0 0 0-.27-.27zm-8.833 17.823a.26.26 0 0 0-.27.27c0 .158.112.27.27.27a.26.26 0 0 0 .27-.27.26.26 0 0 0-.27-.27zm46.488-22.668a.26.26 0 0 0-.27.27c0 .158.112.27.27.27a.26.26 0 0 0 .27-.27.26.26 0 0 0-.27-.27zm15.188-16.831a.26.26 0 0 0-.27.27c0 .158.112.27.27.27a.26.26 0 0 0 .27-.27.26.26 0 0 0-.27-.27zm-2.502 9.914a.26.26 0 0 0-.27.27c0 .158.113.27.27.27a.26.26 0 0 0 .27-.27.26.26 0 0 0-.27-.27zm-15.39-5.7a.26.26 0 0 0-.27.27c0 .157.112.27.27.27a.26.26 0 0 0 .27-.27.26.26 0 0 0-.27-.27zm-11.132-7.279a.26.26 0 0 0-.27.27c0 .158.112.271.27.271a.26.26 0 0 0 .27-.27.26.26 0 0 0-.27-.27zm-4.777-18.747a.26.26 0 0 0-.27.27c0 .159.112.271.27.271a.26.26 0 0 0 .27-.27.26.26 0 0 0-.27-.27zm31.097 5.048a.26.26 0 0 0-.27.27c0 .158.112.27.27.27a.26.26 0 0 0 .27-.27.274.274 0 0 0-.27-.27zm31.3 1.577a.26.26 0 0 0-.27.27c0 .158.112.27.27.27a.26.26 0 0 0 .27-.27.274.274 0 0 0-.27-.27zm.428 19.175a.26.26 0 0 0-.27.27c0 .158.112.27.27.27a.26.26 0 0 0 .27-.27.274.274 0 0 0-.27-.27zM9.764 78.75a.26.26 0 0 0-.27.27c0 .158.112.27.27.27a.26.26 0 0 0 .27-.27.26.26 0 0 0-.27-.27zm35.581-30.666a.26.26 0 0 0-.27.27c0 .158.112.27.27.27a.26.26 0 0 0 .27-.27.274.274 0 0 0-.27-.27zM30.653 50.72a.26.26 0 0 0-.27.27c0 .158.112.27.27.27a.26.26 0 0 0 .27-.27.274.274 0 0 0-.27-.27zm-11.47-24.312a.26.26 0 0 0-.27.27c0 .158.112.27.27.27a.26.26 0 0 0 .27-.27.274.274 0 0 0-.27-.27zm10.614-14.466a.26.26 0 0 0-.27.27c0 .158.112.27.27.27a.26.26 0 0 0 .27-.27.26.26 0 0 0-.27-.27zm-7.91 0a.26.26 0 0 0-.27.27c0 .158.112.27.27.27a.26.26 0 0 0 .27-.27.26.26 0 0 0-.27-.27zM6.203 17.147a.26.26 0 0 0-.27.27c0 .158.113.27.27.27a.26.26 0 0 0 .27-.27.274.274 0 0 0-.27-.27zm296.865 32.379a.26.26 0 0 0-.271.27c0 .158.113.27.271.27a.26.26 0 0 0 .27-.27.26.26 0 0 0-.27-.27zm-.293-11.695a.26.26 0 0 0-.271.27c0 .159.113.271.271.271a.26.26 0 0 0 .27-.27.26.26 0 0 0-.27-.27zm1.622-8.562a.26.26 0 0 0-.27.27c0 .158.112.271.27.271a.26.26 0 0 0 .271-.27.26.26 0 0 0-.271-.27zm-8.09-9.215a.26.26 0 0 0-.27.27c0 .158.113.27.27.27a.26.26 0 0 0 .271-.27.26.26 0 0 0-.271-.27zm-9.306-11.041a.26.26 0 0 0-.271.27c0 .158.113.27.271.27a.26.26 0 0 0 .27-.27.273.273 0 0 0-.27-.27zm-10.839 6.084a.26.26 0 0 0-.271.27c0 .158.113.27.271.27a.26.26 0 0 0 .27-.27.26.26 0 0 0-.27-.27zm38.601-11.875a.26.26 0 0 0-.271.27c0 .158.113.27.271.27a.26.26 0 0 0 .27-.27.274.274 0 0 0-.27-.27zm12.551 8.562a.26.26 0 0 0-.27.27c0 .158.113.271.27.271a.26.26 0 0 0 .271-.27.274.274 0 0 0-.271-.27zm-23.21-5.903a.26.26 0 0 0-.27.27c0 .158.112.27.27.27a.26.26 0 0 0 .271-.27.26.26 0 0 0-.271-.27zm16.63 13.79a.26.26 0 0 0-.27.27c0 .158.113.27.27.27a.26.26 0 0 0 .271-.27.26.26 0 0 0-.271-.27zm18.929 15.209a.26.26 0 0 0-.27.27c0 .158.112.27.27.27a.26.26 0 0 0 .27-.27.26.26 0 0 0-.27-.27zm-16.36 7.03a.26.26 0 0 0-.27.27c0 .158.113.27.27.27a.26.26 0 0 0 .271-.27.26.26 0 0 0-.271-.27zm-.09-6.647a.26.26 0 0 0-.27.27c0 .158.112.27.27.27a.26.26 0 0 0 .271-.27.26.26 0 0 0-.271-.27zm50.95-4.574a.26.26 0 0 0-.271.27c0 .158.113.27.271.27a.26.26 0 0 0 .27-.27.26.26 0 0 0-.27-.27zm-2.817-14.646a.26.26 0 0 0-.27.27c0 .158.112.27.27.27a.26.26 0 0 0 .27-.27.26.26 0 0 0-.27-.27zm-3.741 27.872a.26.26 0 0 0-.27.27c0 .158.113.271.27.271a.26.26 0 0 0 .271-.27.26.26 0 0 0-.271-.27zm20.439 9.982a.26.26 0 0 0-.271.27c0 .158.113.27.271.27a.26.26 0 0 0 .27-.27.26.26 0 0 0-.27-.27zm12.281-10.95a.26.26 0 0 0-.271.27c0 .157.113.27.271.27a.26.26 0 0 0 .27-.27.274.274 0 0 0-.27-.27zm6.94 13.789a.26.26 0 0 0-.27.27c0 .158.113.27.27.27a.26.26 0 0 0 .271-.27.29.29 0 0 0-.271-.27zm10.343 23.389a.26.26 0 0 0-.27.27c0 .158.113.27.27.27a.26.26 0 0 0 .271-.27c.022-.158-.113-.27-.271-.27zm10.569-9.69a.26.26 0 0 0-.27.271c0 .158.112.27.27.27a.26.26 0 0 0 .27-.27.274.274 0 0 0-.27-.27zm.744-25.663a.26.26 0 0 0-.271.27c0 .158.113.27.271.27a.26.26 0 0 0 .27-.27.26.26 0 0 0-.27-.27zm-61.316 34.834a.26.26 0 0 0-.27.27c0 .158.113.271.27.271a.26.26 0 0 0 .271-.27.26.26 0 0 0-.271-.27zm-29.79-6.557a.26.26 0 0 0-.27.27c0 .159.112.271.27.271a.26.26 0 0 0 .271-.27.275.275 0 0 0-.271-.27zm-20.821 0a.26.26 0 0 0-.271.27c0 .159.113.271.271.271a.26.26 0 0 0 .27-.27.26.26 0 0 0-.27-.27zm-14.557-3.582a.26.26 0 0 0-.271.27c0 .158.113.27.271.27a.26.26 0 0 0 .27-.27c.023-.135-.113-.27-.27-.27zm.157-6.4a.26.26 0 0 0-.27.271c0 .158.113.27.27.27a.26.26 0 0 0 .271-.27.274.274 0 0 0-.271-.27zM91.63 44.525a.26.26 0 0 0-.27.27c0 .158.112.27.27.27a.26.26 0 0 0 .27-.27.26.26 0 0 0-.27-.27zm-7.076 5.858a.26.26 0 0 0-.27.27c0 .158.113.27.27.27a.26.26 0 0 0 .27-.27.26.26 0 0 0-.27-.27zM64.161 64.194a.26.26 0 0 0-.27.27c0 .158.112.271.27.271a.26.26 0 0 0 .27-.27.274.274 0 0 0-.27-.27zM49.198 75.032a.26.26 0 0 0-.27.27c0 .158.113.271.27.271a.26.26 0 0 0 .27-.27.29.29 0 0 0-.27-.27zm-17.126 40.062a.26.26 0 0 0-.27.271c0 .158.113.27.27.27a.26.26 0 0 0 .27-.27.26.26 0 0 0-.27-.271zm-46.33 11.988a.26.26 0 0 0-.27.27c0 .158.113.27.27.27a.26.26 0 0 0 .27-.27.273.273 0 0 0-.27-.27zM-.512 56.353a.26.26 0 0 0-.27.27c0 .158.112.27.27.27a.26.26 0 0 0 .27-.27.274.274 0 0 0-.27-.27z" fill="url(#xbuz9ww9xa)"/>
    <defs>
        <radialGradient id="xbuz9ww9xa" cx="0" cy="0" r="1" gradientUnits="userSpaceOnUse" gradientTransform="matrix(208.063 0 0 208.046 187.238 63.81)">
            <stop offset=".782" stop-color="#D4E8F4"/>
            <stop offset=".876" stop-color="#D7E9F3"/>
            <stop offset=".935" stop-color="#DFEDEE"/>
            <stop offset=".985" stop-color="#EEF4E7"/>
            <stop offset="1" stop-color="#F4F7E4"/>
        </radialGradient>
    </defs>
</svg>
