<svg width="40" height="40" viewBox="0 0 40 40" fill="none" xmlns="http://www.w3.org/2000/svg">
    <circle cx="32" cy="14" r="8" fill="#fff" fill-opacity=".32"/>
    <rect x="1" y="6" width="16" height="16" rx="5" fill="#fff" fill-opacity=".7"/>
    <path d="M16.804 23.553c1.37-2.466 2.055-3.699 2.958-4.108a3 3 0 0 1 2.476 0c.903.409 1.588 1.642 2.958 4.108l1.842 3.316c1.304 2.346 1.955 3.519 1.843 4.479a3 3 0 0 1-1.228 2.088c-.785.564-2.127.564-4.81.564h-3.685c-2.684 0-4.026 0-4.81-.564a3 3 0 0 1-1.23-2.088c-.111-.96.54-2.133 1.844-4.48l1.842-3.315z" fill="#fff" fill-opacity=".4"/>
</svg>
