<svg width="40" height="40" viewBox="0 0 40 40" fill="none" xmlns="http://www.w3.org/2000/svg">
    <path d="M20 35.997c0 .552.452 1.01.994.9a4.677 4.677 0 0 0 2.493-1.377c2.286-2.468 6.984-6.743 12.739-7.653 1.063-.17 2.025-.682 2.716-1.442A3.979 3.979 0 0 0 40 23.714V9.229c.01-1.07-.426-2.105-1.22-2.89-.795-.783-1.887-1.258-3.051-1.326-6.208-.294-11.854 3.568-14.681 5.901-.746.62-1.047 1.62-1.047 2.59L20 35.997z" fill="#D59683"/>
    <path d="M20 35.997c0 .552-.452 1.01-.994.9a4.677 4.677 0 0 1-2.493-1.377c-2.286-2.468-6.983-6.743-12.739-7.653-1.062-.17-2.025-.682-2.716-1.442A3.979 3.979 0 0 1 0 23.714V9.229c-.01-1.07.426-2.105 1.22-2.89.795-.783 1.887-1.258 3.051-1.326 6.208-.294 11.854 3.568 14.681 5.901.746.62 1.047 1.62 1.047 2.59L20 35.997z" fill="#FFDCD1"/>
    <path d="M20 35.997c0 .552.463 1.014.975.806.632-.258 1.203-.763 1.64-1.467 1.715-2.777 5.238-7.586 9.554-8.61.797-.192 1.52-.767 2.038-1.622.518-.856.799-1.937.793-3.05V7.758c.008-1.204-.32-2.368-.915-3.25-.596-.882-1.415-1.417-2.288-1.493-4.656-.33-8.89 5.014-11.011 7.639-.594.74-.785 1.719-.785 2.668L20 35.997z" fill="#FFDACF"/>
    <path d="M20 35.997c0 .552-.463 1.014-.975.806-.632-.258-1.203-.763-1.64-1.467-1.715-2.777-5.238-7.586-9.554-8.61-.797-.192-1.52-.767-2.037-1.622-.519-.856-.8-1.937-.794-3.05V7.758c-.008-1.204.32-2.368.915-3.25.596-.882 1.415-1.417 2.288-1.493 4.656-.33 8.89 5.014 11.011 7.639.594.74.785 1.719.785 2.668L20 35.997z" fill="#FFF9F8"/>
</svg>
