<svg width="30" height="31" viewBox="0 0 30 31" fill="none" xmlns="http://www.w3.org/2000/svg">
    <path d="M10.745 10.243a.502.502 0 0 1-.382-.159.544.544 0 0 1-.15-.386.516.516 0 0 1 .533-.52h6.517c.15 0 .274.05.374.15.1.101.15.224.15.37 0 .15-.05.28-.15.386a.492.492 0 0 1-.374.16h-6.518zm0 3.023a.502.502 0 0 1-.382-.16.543.543 0 0 1-.15-.386.516.516 0 0 1 .533-.52h6.517c.15 0 .274.05.374.15.1.101.15.225.15.37 0 .151-.05.28-.15.386a.492.492 0 0 1-.374.16h-6.518zm0 3.022a.516.516 0 0 1-.532-.529c0-.15.05-.277.15-.377.1-.107.227-.16.383-.16h3.08c.155 0 .282.053.382.16.1.1.15.226.15.377a.516.516 0 0 1-.533.529h-3.08zM7 20.872c0 .879.214 1.537.64 1.973.434.437 1.08.655 1.94.655h8.84c.86 0 1.503-.218 1.93-.655.434-.436.65-1.094.65-1.973V8.136c0-.873-.216-1.53-.65-1.973-.427-.442-1.07-.663-1.93-.663H9.58c-.86 0-1.506.221-1.94.663-.426.442-.64 1.1-.64 1.973v12.736z" fill="#4EDAB0"/>
</svg>
