<svg width="55" height="54" viewBox="0 0 55 54" fill="none" xmlns="http://www.w3.org/2000/svg">
    <path d="M55 27c0 14.36-12.64 27-27 27S0 41.36 0 27 13.64 0 28 0s27 12.64 27 27z" fill="#fff"/>
    <circle cx="28" cy="27" r="22" fill="#1DA1F2"/>
    <path d="M24.862 37c9.434 0 14.594-7.695 14.594-14.369 0-.218 0-.436-.015-.652 1.004-.715 1.87-1.6 2.559-2.614-.936.408-1.93.676-2.946.794a5.083 5.083 0 0 0 2.255-2.793 10.378 10.378 0 0 1-3.257 1.226A5.174 5.174 0 0 0 34.312 17c-2.816 0-5.134 2.282-5.134 5.055 0 .384.045.768.133 1.143-4.122-.204-7.968-2.123-10.571-5.277-1.354 2.295-.653 5.268 1.588 6.742A5.151 5.151 0 0 1 18 24.03v.064c0 2.395 1.73 4.477 4.115 4.95a5.2 5.2 0 0 1-2.316.087c.67 2.052 2.603 3.467 4.792 3.507A10.398 10.398 0 0 1 17 34.732a14.69 14.69 0 0 0 7.862 2.264" fill="#fff"/>
</svg>
