<svg width="54" height="56" viewBox="0 0 54 56" fill="none" xmlns="http://www.w3.org/2000/svg">
    <path d="M54 28c0 14.36-12.64 28-27 28S0 42.36 0 28 12.64 0 27 0s27 13.64 27 28z" fill="#fff"/>
    <circle cx="27" cy="28" r="22" fill="#ED1F24"/>
    <path fill-rule="evenodd" clip-rule="evenodd" d="M37.267 19.537c1.076.296 1.923 1.167 2.21 2.274C40 23.816 40 28 40 28s0 4.183-.523 6.188c-.287 1.107-1.134 1.978-2.21 2.274C35.317 37 27.5 37 27.5 37s-7.818 0-9.768-.537c-1.075-.296-1.922-1.167-2.21-2.274C15 32.184 15 28 15 28s0-4.184.522-6.19c.288-1.106 1.135-1.977 2.21-2.273C19.682 19 27.5 19 27.5 19s7.818 0 9.767.537zM31.835 28 25.6 31.857v-7.714L31.835 28z" fill="#fff"/>
</svg>
